M48
; DRILL file {KiCad 6.0.4-6f826c9f35~116~ubuntu20.04.1} date Thu 28 Apr 2022 09:29:55 PM EDT
; FORMAT={-:-/ absolute / inch / decimal}
; #@! TF.CreationDate,2022-04-28T21:29:55-04:00
; #@! TF.GenerationSoftware,Kicad,Pcbnew,6.0.4-6f826c9f35~116~ubuntu20.04.1
; #@! TF.FileFunction,Plated,1,2,PTH
FMAT,2
INCH
; #@! TA.AperFunction,Plated,PTH,ViaDrill
T1C0.0150
; #@! TA.AperFunction,Plated,PTH,ViaDrill
T2C0.0280
; #@! TA.AperFunction,Plated,PTH,ComponentDrill
T3C0.0620
; #@! TA.AperFunction,Plated,PTH,ComponentDrill
T4C0.1495
; #@! TA.AperFunction,Plated,PTH,ComponentDrill
T5C0.2800
%
G90
G05
T1
X4.4889Y-4.1149
X4.4889Y-4.1405
X4.4889Y-4.166
X4.4889Y-4.0893
T2
X1.1772Y-5.1145
X1.1772Y-2.7395
X1.434Y-5.547
X1.5959Y-3.0923
X1.5959Y-4.7617
X1.609Y-2.312
X1.724Y-2.767
X1.759Y-5.452
X1.834Y-2.527
X1.834Y-5.327
X1.924Y-2.632
X1.954Y-3.332
X1.959Y-4.602
X2.0465Y-1.8702
X2.049Y-6.027
X2.059Y-4.244
X2.109Y-3.827
X2.109Y-4.027
X2.109Y-4.902
X2.124Y-3.507
X2.374Y-3.177
X2.384Y-3.827
X2.384Y-4.027
X2.3993Y-5.5651
X2.404Y-3.613
X2.404Y-4.247
X2.434Y-5.202
X2.455Y-2.618
X2.459Y-2.102
X2.534Y-3.527
X2.534Y-3.677
X2.604Y-3.73
X2.604Y-4.13
X2.704Y-4.177
X2.764Y-4.032
X2.859Y-4.727
X2.889Y-5.112
X2.934Y-3.087
X2.934Y-3.227
X2.934Y-3.427
X3.034Y-4.09
X3.034Y-4.227
X3.039Y-3.697
X3.099Y-5.232
X3.109Y-4.466
X3.234Y-2.627
X3.234Y-3.502
X3.234Y-3.927
X3.2511Y-3.322
X3.324Y-4.9154
X3.346Y-3.286
X3.384Y-4.466
X3.429Y-3.697
X3.434Y-4.09
X3.434Y-4.227
X3.4349Y-5.002
X3.475Y-3.049
X3.524Y-5.172
X3.529Y-5.327
X3.5451Y-4.9246
X3.609Y-5.282
X3.664Y-3.077
X3.692Y-3.692
X3.704Y-3.822
X3.719Y-5.102
X3.764Y-4.177
X3.834Y-3.627
X3.864Y-3.73
X3.864Y-4.13
X3.889Y-4.7946
X3.889Y-4.925
X3.902Y-3.533
X3.909Y-2.646
X3.959Y-4.424
X3.965Y-2.921
X4.008Y-2.744
X4.024Y-2.287
X4.034Y-5.252
X4.059Y-3.505
X4.0687Y-5.5651
X4.084Y-3.827
X4.084Y-4.027
X4.294Y-3.222
X4.359Y-3.827
X4.359Y-4.027
X4.381Y-3.514
X4.381Y-4.34
X4.4215Y-1.8702
X4.4215Y-5.9838
X4.464Y-2.932
X4.484Y-4.702
X4.534Y-2.627
X4.534Y-5.227
X4.584Y-2.727
X4.584Y-5.127
X4.634Y-2.527
X4.634Y-5.327
X4.664Y-3.217
X4.8721Y-3.0923
X4.8721Y-4.7617
X4.913Y-5.597
X4.9134Y-2.2476
X5.1429Y-3.0923
X5.2908Y-5.1145
X5.2908Y-2.7395
T3
X3.7976Y-3.207
X3.939Y-3.0656
X3.939Y-3.207
X3.939Y-3.3484
X4.0804Y-3.207
T4
X2.2251Y-2.9181
X4.2429Y-4.9359
T5
X1.4623Y-3.927
X3.234Y-2.1553
X3.234Y-5.6987
X5.0057Y-3.927
T0
M30
