M48
; DRILL file {KiCad 6.0.4-6f826c9f35~116~ubuntu20.04.1} date Thu 14 Apr 2022 01:25:36 PM EDT
; FORMAT={-:-/ absolute / inch / decimal}
; #@! TF.CreationDate,2022-04-14T13:25:36-04:00
; #@! TF.GenerationSoftware,Kicad,Pcbnew,6.0.4-6f826c9f35~116~ubuntu20.04.1
; #@! TF.FileFunction,Plated,1,2,PTH
FMAT,2
INCH
; #@! TA.AperFunction,Plated,PTH,ViaDrill
T1C0.0150
; #@! TA.AperFunction,Plated,PTH,ComponentDrill
T2C0.0200
; #@! TA.AperFunction,Plated,PTH,ViaDrill
T3C0.0280
; #@! TA.AperFunction,Plated,PTH,ComponentDrill
T4C0.0620
; #@! TA.AperFunction,Plated,PTH,ComponentDrill
T5C0.1495
; #@! TA.AperFunction,Plated,PTH,ComponentDrill
T6C0.2800
%
G90
G05
T1
X7.0149Y-4.1279
X7.0149Y-4.1535
X7.0149Y-4.179
X7.0149Y-4.1023
T2
X5.241Y-3.809
X5.241Y-3.859
X5.291Y-3.809
X5.291Y-3.859
X5.291Y-3.9915
X5.341Y-3.809
X5.341Y-3.859
X5.604Y-3.021
X5.604Y-3.071
X5.604Y-3.121
X5.654Y-3.021
X5.654Y-3.071
X5.654Y-3.121
X5.7865Y-3.071
X6.179Y-4.021
X6.179Y-4.071
X6.229Y-3.8885
X6.229Y-4.021
X6.229Y-4.071
X6.279Y-4.021
X6.279Y-4.071
T3
X3.7032Y-5.1275
X3.7032Y-2.7525
X3.96Y-5.56
X4.1219Y-3.1053
X4.1219Y-4.7747
X4.135Y-2.325
X4.25Y-2.78
X4.285Y-5.465
X4.36Y-2.54
X4.36Y-5.34
X4.45Y-2.645
X4.48Y-3.345
X4.485Y-4.615
X4.5725Y-1.8832
X4.575Y-6.04
X4.585Y-4.257
X4.635Y-3.84
X4.635Y-4.04
X4.635Y-4.915
X4.65Y-3.52
X4.9Y-3.19
X4.91Y-3.84
X4.91Y-4.04
X4.9253Y-5.5781
X4.93Y-3.626
X4.93Y-4.26
X4.96Y-5.215
X4.981Y-2.631
X4.985Y-2.115
X5.06Y-3.54
X5.06Y-3.69
X5.13Y-3.743
X5.13Y-4.143
X5.23Y-4.19
X5.29Y-4.045
X5.385Y-4.74
X5.415Y-5.125
X5.46Y-3.1
X5.46Y-3.24
X5.46Y-3.44
X5.56Y-4.103
X5.56Y-4.24
X5.565Y-3.71
X5.625Y-5.245
X5.635Y-4.479
X5.76Y-2.64
X5.76Y-3.515
X5.76Y-3.94
X5.7771Y-3.335
X5.85Y-4.9284
X5.872Y-3.299
X5.91Y-4.479
X5.955Y-3.71
X5.96Y-4.103
X5.96Y-4.24
X5.9609Y-5.015
X6.001Y-3.062
X6.05Y-5.185
X6.055Y-5.34
X6.0711Y-4.9376
X6.135Y-5.295
X6.19Y-3.09
X6.218Y-3.705
X6.23Y-3.835
X6.245Y-5.115
X6.29Y-4.19
X6.36Y-3.64
X6.39Y-3.743
X6.39Y-4.143
X6.415Y-4.8076
X6.415Y-4.938
X6.428Y-3.546
X6.435Y-2.659
X6.485Y-4.437
X6.491Y-2.934
X6.534Y-2.757
X6.55Y-2.3
X6.56Y-5.265
X6.585Y-3.518
X6.5947Y-5.5781
X6.61Y-3.84
X6.61Y-4.04
X6.82Y-3.235
X6.885Y-3.84
X6.885Y-4.04
X6.907Y-3.527
X6.907Y-4.353
X6.9475Y-1.8832
X6.9475Y-5.9968
X6.99Y-2.945
X7.01Y-4.715
X7.06Y-2.64
X7.06Y-5.24
X7.11Y-2.74
X7.11Y-5.14
X7.16Y-2.54
X7.16Y-5.34
X7.19Y-3.23
X7.3981Y-3.1053
X7.3981Y-4.7747
X7.439Y-5.61
X7.4394Y-2.2606
X7.8168Y-5.1275
X7.8168Y-2.7525
T4
X6.3236Y-3.22
X6.465Y-3.0786
X6.465Y-3.22
X6.465Y-3.3614
X6.6064Y-3.22
T5
X4.7511Y-2.9311
X6.7689Y-4.9489
T6
X3.9883Y-3.94
X5.76Y-2.1683
X5.76Y-5.7117
X7.5317Y-3.94
T0
M30
