G04 #@! TF.GenerationSoftware,KiCad,Pcbnew,6.0.4-6f826c9f35~116~ubuntu20.04.1*
G04 #@! TF.CreationDate,2022-04-14T13:24:01-04:00*
G04 #@! TF.ProjectId,LWA Balun 2020,4c574120-4261-46c7-956e-20323032302e,rev?*
G04 #@! TF.SameCoordinates,Original*
G04 #@! TF.FileFunction,Soldermask,Bot*
G04 #@! TF.FilePolarity,Negative*
%FSLAX46Y46*%
G04 Gerber Fmt 4.6, Leading zero omitted, Abs format (unit mm)*
G04 Created by KiCad (PCBNEW 6.0.4-6f826c9f35~116~ubuntu20.04.1) date 2022-04-14 13:24:01*
%MOMM*%
%LPD*%
G01*
G04 APERTURE LIST*
%ADD10C,0.100000*%
%ADD11C,13.335000*%
%ADD12C,0.762000*%
%ADD13C,7.620000*%
%ADD14C,2.032000*%
G04 APERTURE END LIST*
D10*
G36*
X203454000Y-157226000D02*
G01*
X89154000Y-157226000D01*
X89154000Y-68326000D01*
X114554000Y-42926000D01*
X203454000Y-42926000D01*
X203454000Y-157226000D01*
G37*
X203454000Y-157226000D02*
X89154000Y-157226000D01*
X89154000Y-68326000D01*
X114554000Y-42926000D01*
X203454000Y-42926000D01*
X203454000Y-157226000D01*
D11*
G04 #@! TO.C,FP1*
X101304000Y-100076000D03*
G04 #@! TD*
G04 #@! TO.C,FP2*
X191304000Y-100076000D03*
G04 #@! TD*
G04 #@! TO.C,FP3*
X146304000Y-55076000D03*
G04 #@! TD*
G04 #@! TO.C,FP4*
X146304000Y-145076000D03*
G04 #@! TD*
D12*
G04 #@! TO.C,U1*
X133121400Y-98018600D03*
X135661400Y-96748600D03*
X134391400Y-96748600D03*
X133121400Y-96748600D03*
X134391400Y-98018600D03*
X135661400Y-98018600D03*
X134391400Y-101384100D03*
G04 #@! TD*
G04 #@! TO.C,U4*
X143611600Y-79273400D03*
X143611600Y-76733400D03*
X143611600Y-78003400D03*
X146977100Y-78003400D03*
X142341600Y-76733400D03*
X142341600Y-78003400D03*
X142341600Y-79273400D03*
G04 #@! TD*
D13*
G04 #@! TO.C,MH1*
X171929628Y-125701628D03*
G04 #@! TD*
G04 #@! TO.C,MH2*
X120678372Y-74450372D03*
G04 #@! TD*
D12*
G04 #@! TO.C,U2*
X156946600Y-102133400D03*
X159486600Y-103403400D03*
X156946600Y-103403400D03*
X159486600Y-102133400D03*
X158216600Y-102133400D03*
X158216600Y-98767900D03*
X158216600Y-103403400D03*
G04 #@! TD*
D14*
G04 #@! TO.C,S3*
X164211000Y-81788000D03*
X164211000Y-78195898D03*
X167803102Y-81788000D03*
X164211000Y-85380102D03*
X160618898Y-81788000D03*
G04 #@! TD*
M02*
