G04 #@! TF.GenerationSoftware,KiCad,Pcbnew,6.0.4-6f826c9f35~116~ubuntu20.04.1*
G04 #@! TF.CreationDate,2022-04-14T13:24:01-04:00*
G04 #@! TF.ProjectId,LWA Balun 2020,4c574120-4261-46c7-956e-20323032302e,rev?*
G04 #@! TF.SameCoordinates,Original*
G04 #@! TF.FileFunction,Copper,L2,Bot*
G04 #@! TF.FilePolarity,Positive*
%FSLAX46Y46*%
G04 Gerber Fmt 4.6, Leading zero omitted, Abs format (unit mm)*
G04 Created by KiCad (PCBNEW 6.0.4-6f826c9f35~116~ubuntu20.04.1) date 2022-04-14 13:24:01*
%MOMM*%
%LPD*%
G01*
G04 APERTURE LIST*
G04 #@! TA.AperFunction,ComponentPad*
%ADD10C,13.335000*%
G04 #@! TD*
G04 #@! TA.AperFunction,ComponentPad*
%ADD11C,0.762000*%
G04 #@! TD*
G04 #@! TA.AperFunction,ComponentPad*
%ADD12C,7.620000*%
G04 #@! TD*
G04 #@! TA.AperFunction,ComponentPad*
%ADD13C,2.032000*%
G04 #@! TD*
G04 #@! TA.AperFunction,ViaPad*
%ADD14C,1.270000*%
G04 #@! TD*
G04 #@! TA.AperFunction,ViaPad*
%ADD15C,0.762000*%
G04 #@! TD*
G04 APERTURE END LIST*
D10*
G04 #@! TO.P,FP1,1,Pin_1*
G04 #@! TO.N,Net-(C4-Pad2)*
X101304000Y-100076000D03*
G04 #@! TD*
G04 #@! TO.P,FP2,1,Pin_1*
G04 #@! TO.N,Net-(C7-Pad2)*
X191304000Y-100076000D03*
G04 #@! TD*
G04 #@! TO.P,FP3,1,Pin_1*
G04 #@! TO.N,unconnected-(FP3-Pad1)*
X146304000Y-55076000D03*
G04 #@! TD*
G04 #@! TO.P,FP4,1,Pin_1*
G04 #@! TO.N,unconnected-(FP4-Pad1)*
X146304000Y-145076000D03*
G04 #@! TD*
D11*
G04 #@! TO.P,U1,2*
G04 #@! TO.N,GND*
X133121400Y-98018600D03*
X135661400Y-96748600D03*
X134391400Y-96748600D03*
X133121400Y-96748600D03*
X134391400Y-98018600D03*
X135661400Y-98018600D03*
X134391400Y-101384100D03*
G04 #@! TD*
G04 #@! TO.P,U4,2*
G04 #@! TO.N,GND*
X143611600Y-79273400D03*
X143611600Y-76733400D03*
X143611600Y-78003400D03*
X146977100Y-78003400D03*
X142341600Y-76733400D03*
X142341600Y-78003400D03*
X142341600Y-79273400D03*
G04 #@! TD*
D12*
G04 #@! TO.P,MH1,1*
G04 #@! TO.N,GND*
X171929628Y-125701628D03*
G04 #@! TD*
G04 #@! TO.P,MH2,1*
G04 #@! TO.N,GND*
X120678372Y-74450372D03*
G04 #@! TD*
D11*
G04 #@! TO.P,U2,2*
G04 #@! TO.N,GND*
X156946600Y-102133400D03*
X159486600Y-103403400D03*
X156946600Y-103403400D03*
X159486600Y-102133400D03*
X158216600Y-102133400D03*
X158216600Y-98767900D03*
X158216600Y-103403400D03*
G04 #@! TD*
D13*
G04 #@! TO.P,S3,1,In*
G04 #@! TO.N,/DC_PWR*
X164211000Y-81788000D03*
G04 #@! TO.P,S3,2,Ext*
G04 #@! TO.N,GND*
X164211000Y-78195898D03*
X167803102Y-81788000D03*
X164211000Y-85380102D03*
X160618898Y-81788000D03*
G04 #@! TD*
D14*
G04 #@! TO.N,GND*
X146304000Y-100076000D03*
X155829000Y-134493000D03*
X174879000Y-102616000D03*
X137541000Y-130175000D03*
X146304000Y-89281000D03*
X136779000Y-120396000D03*
D15*
X178178848Y-104197826D03*
X178178847Y-106147826D03*
X178178847Y-105497826D03*
X178178847Y-104847826D03*
D14*
X146739000Y-84709000D03*
X151406020Y-127381000D03*
X148590000Y-125182040D03*
X154206000Y-125415960D03*
X162941000Y-122113954D03*
X162941000Y-125425200D03*
X153670000Y-131699000D03*
X138684000Y-82296000D03*
X110744000Y-64516000D03*
X187911630Y-121276150D03*
X167259000Y-89357200D03*
X107950000Y-70612000D03*
X167894000Y-97536000D03*
X132842000Y-106426000D03*
X159766000Y-106426000D03*
X163449000Y-67538600D03*
X134366000Y-102743000D03*
X128524000Y-93726000D03*
X151257000Y-94234000D03*
X113030000Y-67183000D03*
X164871400Y-74523600D03*
X113792000Y-84963000D03*
X116141500Y-47833010D03*
X173228000Y-82169000D03*
X108839000Y-138811000D03*
X117729000Y-97536000D03*
X124714000Y-102616000D03*
X180594000Y-130556000D03*
X117729000Y-102616000D03*
X125222000Y-108204000D03*
X105029000Y-59055000D03*
X177546000Y-74803000D03*
X179324000Y-67056000D03*
X176466500Y-47833020D03*
X162306000Y-105232200D03*
X116459000Y-108127800D03*
X125103850Y-141683630D03*
X128524000Y-89916000D03*
X104696370Y-121276150D03*
X94061010Y-130238500D03*
X163271200Y-90068400D03*
X174879000Y-97536000D03*
X100584000Y-141224000D03*
X149148800Y-83794600D03*
X152425400Y-77774800D03*
X187911630Y-78875850D03*
X151384000Y-104216200D03*
X166370000Y-58420000D03*
X141351000Y-94234000D03*
X124460000Y-81026000D03*
X142875000Y-133223000D03*
X130302000Y-105232200D03*
X113919000Y-117221000D03*
X150114000Y-113766600D03*
X151384000Y-107696000D03*
X94061020Y-69913500D03*
X157226000Y-78486000D03*
X118110000Y-89408000D03*
X198546990Y-69913500D03*
X161544000Y-92456000D03*
X117729000Y-124841000D03*
X141224000Y-104216200D03*
X116205000Y-153416000D03*
X175437800Y-110566200D03*
X138684000Y-87376000D03*
X181864000Y-64516000D03*
X167504150Y-141683630D03*
X157937200Y-94107000D03*
X153797000Y-135636000D03*
X165963600Y-70027800D03*
X162306000Y-95072200D03*
X146304000Y-67056000D03*
X126619000Y-53721000D03*
X125984000Y-132461000D03*
X166624000Y-133731000D03*
X167894000Y-102616000D03*
X181864000Y-135636000D03*
X141224000Y-107696000D03*
X126517400Y-66827400D03*
X182626000Y-82042000D03*
X143129000Y-113766600D03*
X104696370Y-78875850D03*
X158242000Y-97409000D03*
X180594000Y-69596000D03*
X198546980Y-130238500D03*
X175437800Y-89585800D03*
X130302000Y-95072200D03*
X124714000Y-97536000D03*
X179324000Y-133096000D03*
X125222000Y-92100400D03*
X138684000Y-78740000D03*
X188950600Y-142494000D03*
X110744000Y-135636000D03*
X158623000Y-129921000D03*
X176466500Y-152318990D03*
X178054000Y-119761000D03*
X164719000Y-112699800D03*
X188960220Y-57419780D03*
G04 #@! TD*
G04 #@! TA.AperFunction,Conductor*
G04 #@! TO.N,GND*
G36*
X201363621Y-44978502D02*
G01*
X201410114Y-45032158D01*
X201421500Y-45084500D01*
X201421500Y-155067500D01*
X201401498Y-155135621D01*
X201347842Y-155182114D01*
X201295500Y-155193500D01*
X91312500Y-155193500D01*
X91244379Y-155173498D01*
X91197886Y-155119842D01*
X91186500Y-155067500D01*
X91186500Y-144863321D01*
X137601737Y-144863321D01*
X137606775Y-145440522D01*
X137650054Y-146016119D01*
X137731385Y-146587583D01*
X137850411Y-147152401D01*
X138006608Y-147708088D01*
X138199289Y-148252202D01*
X138200115Y-148254121D01*
X138200117Y-148254125D01*
X138223623Y-148308705D01*
X138427606Y-148782350D01*
X138690557Y-149296200D01*
X138986985Y-149791495D01*
X139315585Y-150266055D01*
X139446488Y-150430622D01*
X139673616Y-150716162D01*
X139673629Y-150716177D01*
X139674915Y-150717794D01*
X140063393Y-151144725D01*
X140479311Y-151544972D01*
X140920841Y-151916775D01*
X141386041Y-152258498D01*
X141629453Y-152413569D01*
X141871100Y-152567516D01*
X141871109Y-152567522D01*
X141872865Y-152568640D01*
X141874688Y-152569638D01*
X141874693Y-152569641D01*
X142377340Y-152844831D01*
X142379174Y-152845835D01*
X142381074Y-152846717D01*
X142381080Y-152846720D01*
X142877645Y-153077218D01*
X142902740Y-153088867D01*
X143441262Y-153296665D01*
X143443247Y-153297283D01*
X143443252Y-153297285D01*
X143675660Y-153369672D01*
X143992371Y-153468316D01*
X144058741Y-153484250D01*
X144551631Y-153602583D01*
X144551646Y-153602586D01*
X144553645Y-153603066D01*
X144555676Y-153603413D01*
X144555685Y-153603415D01*
X145120571Y-153699973D01*
X145120582Y-153699975D01*
X145122615Y-153700322D01*
X145283724Y-153716971D01*
X145694707Y-153759442D01*
X145694714Y-153759442D01*
X145696780Y-153759656D01*
X145698870Y-153759733D01*
X145698875Y-153759733D01*
X145855920Y-153765492D01*
X146273614Y-153780808D01*
X146609821Y-153770830D01*
X146848504Y-153763746D01*
X146848513Y-153763745D01*
X146850583Y-153763684D01*
X146964456Y-153752719D01*
X147423065Y-153708561D01*
X147423078Y-153708559D01*
X147425148Y-153708360D01*
X147709965Y-153661719D01*
X147992721Y-153615416D01*
X147992731Y-153615414D01*
X147994783Y-153615078D01*
X147996814Y-153614605D01*
X147996821Y-153614604D01*
X148172497Y-153573723D01*
X148556984Y-153484250D01*
X149109278Y-153316450D01*
X149111223Y-153315715D01*
X149111232Y-153315712D01*
X149349660Y-153225617D01*
X149649237Y-153112417D01*
X150174487Y-152873046D01*
X150682719Y-152599392D01*
X150921600Y-152449542D01*
X151169916Y-152293774D01*
X151169925Y-152293768D01*
X151171696Y-152292657D01*
X151286926Y-152209245D01*
X151637571Y-151955421D01*
X151637579Y-151955415D01*
X151639271Y-151954190D01*
X151724448Y-151883474D01*
X152081778Y-151586813D01*
X152081793Y-151586800D01*
X152083385Y-151585478D01*
X152084887Y-151584053D01*
X152084899Y-151584042D01*
X152500581Y-151189575D01*
X152502088Y-151188145D01*
X152893537Y-150763936D01*
X153256011Y-150314716D01*
X153587917Y-149842462D01*
X153887795Y-149349249D01*
X153916381Y-149294337D01*
X154153358Y-148839107D01*
X154154327Y-148837246D01*
X154155159Y-148835350D01*
X154155166Y-148835336D01*
X154385504Y-148310609D01*
X154386340Y-148308705D01*
X154407507Y-148250234D01*
X154582104Y-147767915D01*
X154582107Y-147767906D01*
X154582815Y-147765950D01*
X154600093Y-147706091D01*
X154742306Y-147213380D01*
X154742306Y-147213379D01*
X154742887Y-147211367D01*
X154865853Y-146647394D01*
X154951172Y-146076512D01*
X154998469Y-145501230D01*
X155008861Y-145076000D01*
X154989723Y-144499095D01*
X154989515Y-144497008D01*
X154932600Y-143926797D01*
X154932598Y-143926786D01*
X154932393Y-143924727D01*
X154932050Y-143922676D01*
X154837467Y-143357467D01*
X154837464Y-143357454D01*
X154837124Y-143355420D01*
X154788444Y-143149487D01*
X154704813Y-142795706D01*
X154704812Y-142795704D01*
X154704334Y-142793680D01*
X154534608Y-142241974D01*
X154328691Y-141702731D01*
X154087488Y-141178319D01*
X153984868Y-140989315D01*
X153813062Y-140672888D01*
X153812062Y-140671046D01*
X153503621Y-140183142D01*
X153163524Y-139716752D01*
X152793265Y-139273927D01*
X152644906Y-139118678D01*
X152395916Y-138858126D01*
X152395915Y-138858125D01*
X152394472Y-138856615D01*
X151968899Y-138466649D01*
X151518417Y-138105745D01*
X151045007Y-137775489D01*
X151043240Y-137774423D01*
X151043226Y-137774414D01*
X150552539Y-137478413D01*
X150552526Y-137478406D01*
X150550751Y-137477335D01*
X150037821Y-137212592D01*
X149508473Y-136982425D01*
X149506504Y-136981720D01*
X149506499Y-136981718D01*
X148967024Y-136788558D01*
X148967020Y-136788557D01*
X148965035Y-136787846D01*
X148409896Y-136629711D01*
X147845498Y-136508714D01*
X147843434Y-136508413D01*
X147843429Y-136508412D01*
X147276402Y-136425691D01*
X147276389Y-136425690D01*
X147274322Y-136425388D01*
X147004491Y-136404152D01*
X146700940Y-136380262D01*
X146700934Y-136380262D01*
X146698879Y-136380100D01*
X146403246Y-136376488D01*
X146123765Y-136373073D01*
X146123758Y-136373073D01*
X146121699Y-136373048D01*
X145545321Y-136404264D01*
X145543261Y-136404513D01*
X145543253Y-136404514D01*
X145372115Y-136425224D01*
X144972280Y-136473609D01*
X144970225Y-136473997D01*
X144970227Y-136473997D01*
X144407161Y-136580389D01*
X144407154Y-136580391D01*
X144405093Y-136580780D01*
X143846257Y-136725305D01*
X143844292Y-136725955D01*
X143300212Y-136905892D01*
X143300198Y-136905897D01*
X143298227Y-136906549D01*
X143296289Y-136907336D01*
X142765358Y-137122924D01*
X142765342Y-137122931D01*
X142763414Y-137123714D01*
X142761523Y-137124632D01*
X142761519Y-137124634D01*
X142580377Y-137212592D01*
X142244169Y-137375846D01*
X141742776Y-137661835D01*
X141741062Y-137662969D01*
X141741053Y-137662975D01*
X141572688Y-137774414D01*
X141261438Y-137980426D01*
X140802273Y-138330216D01*
X140367299Y-138709668D01*
X139958429Y-139117113D01*
X139957056Y-139118676D01*
X139957054Y-139118678D01*
X139819270Y-139275515D01*
X139577462Y-139550759D01*
X139576176Y-139552435D01*
X139451306Y-139715169D01*
X139226071Y-140008700D01*
X138905802Y-140488923D01*
X138904755Y-140490744D01*
X138619106Y-140987502D01*
X138619100Y-140987514D01*
X138618064Y-140989315D01*
X138364121Y-141507677D01*
X138363330Y-141509606D01*
X138363324Y-141509619D01*
X138284906Y-141700823D01*
X138145091Y-142041729D01*
X137961935Y-142589122D01*
X137815460Y-143147451D01*
X137706310Y-143714260D01*
X137706053Y-143716324D01*
X137706051Y-143716336D01*
X137680095Y-143924727D01*
X137634965Y-144287056D01*
X137601737Y-144863321D01*
X91186500Y-144863321D01*
X91186500Y-118399558D01*
X120009847Y-118399558D01*
X120010230Y-118403936D01*
X120010230Y-118403938D01*
X120012375Y-118428455D01*
X120012835Y-118441631D01*
X120012329Y-118470632D01*
X120012864Y-118474988D01*
X120012864Y-118474991D01*
X120025056Y-118574283D01*
X120025515Y-118578648D01*
X120034621Y-118682729D01*
X120035609Y-118687010D01*
X120035610Y-118687014D01*
X120041146Y-118710993D01*
X120043436Y-118723979D01*
X120046971Y-118752766D01*
X120048109Y-118757012D01*
X120074000Y-118853641D01*
X120075064Y-118857908D01*
X120097576Y-118955419D01*
X120097578Y-118955427D01*
X120098564Y-118959696D01*
X120100135Y-118963788D01*
X120100140Y-118963805D01*
X120108960Y-118986781D01*
X120113035Y-118999323D01*
X120119401Y-119023080D01*
X120120541Y-119027333D01*
X120122258Y-119031378D01*
X120161356Y-119123488D01*
X120163003Y-119127565D01*
X120200432Y-119225069D01*
X120202565Y-119228917D01*
X120214493Y-119250437D01*
X120220273Y-119262287D01*
X120231607Y-119288988D01*
X120269338Y-119351782D01*
X120285404Y-119378521D01*
X120287593Y-119382313D01*
X120338240Y-119473682D01*
X120340885Y-119477192D01*
X120355695Y-119496846D01*
X120363068Y-119507778D01*
X120375735Y-119528859D01*
X120375743Y-119528870D01*
X120378008Y-119532640D01*
X120413323Y-119576250D01*
X120443739Y-119613812D01*
X120446446Y-119617277D01*
X120509307Y-119700696D01*
X120529810Y-119721199D01*
X120538636Y-119731000D01*
X120553502Y-119749358D01*
X120556894Y-119753547D01*
X120560109Y-119756545D01*
X120633299Y-119824796D01*
X120636462Y-119827851D01*
X126879810Y-126071199D01*
X126888635Y-126080999D01*
X126906894Y-126103547D01*
X126910109Y-126106545D01*
X126983299Y-126174796D01*
X126986462Y-126177851D01*
X127009993Y-126201382D01*
X127035136Y-126223238D01*
X127038379Y-126226159D01*
X127114783Y-126297407D01*
X127138551Y-126314050D01*
X127148930Y-126322159D01*
X127170824Y-126341191D01*
X127174512Y-126343586D01*
X127174520Y-126343592D01*
X127258437Y-126398088D01*
X127262060Y-126400531D01*
X127347629Y-126460447D01*
X127351545Y-126462442D01*
X127351553Y-126462447D01*
X127373477Y-126473617D01*
X127384894Y-126480208D01*
X127409218Y-126496005D01*
X127484501Y-126531110D01*
X127503874Y-126540144D01*
X127507820Y-126542069D01*
X127600900Y-126589495D01*
X127628340Y-126598944D01*
X127640550Y-126603877D01*
X127666839Y-126616136D01*
X127740781Y-126638742D01*
X127766739Y-126646678D01*
X127770923Y-126648038D01*
X127865505Y-126680606D01*
X127865510Y-126680607D01*
X127869665Y-126682038D01*
X127892260Y-126686430D01*
X127898140Y-126687573D01*
X127910933Y-126690763D01*
X127938670Y-126699243D01*
X127943015Y-126699931D01*
X127943023Y-126699933D01*
X128010543Y-126710627D01*
X128041859Y-126715587D01*
X128046144Y-126716342D01*
X128148695Y-126736276D01*
X128153087Y-126736506D01*
X128153093Y-126736507D01*
X128169394Y-126737361D01*
X128177661Y-126737794D01*
X128190762Y-126739171D01*
X128219423Y-126743710D01*
X128223808Y-126743787D01*
X128223813Y-126743787D01*
X128323871Y-126745533D01*
X128328267Y-126745687D01*
X128428161Y-126750923D01*
X128428168Y-126750923D01*
X128432558Y-126751153D01*
X128436936Y-126750770D01*
X128436938Y-126750770D01*
X128446096Y-126749969D01*
X128461459Y-126748625D01*
X128474631Y-126748165D01*
X128503632Y-126748671D01*
X128507988Y-126748136D01*
X128507991Y-126748136D01*
X128543409Y-126743787D01*
X128607305Y-126735942D01*
X128611648Y-126735485D01*
X128642771Y-126732762D01*
X128711356Y-126726762D01*
X128711362Y-126726761D01*
X128715729Y-126726379D01*
X128720010Y-126725391D01*
X128720014Y-126725390D01*
X128743993Y-126719854D01*
X128756979Y-126717564D01*
X128773102Y-126715584D01*
X128781402Y-126714565D01*
X128781404Y-126714565D01*
X128785766Y-126714029D01*
X128886641Y-126687000D01*
X128890908Y-126685936D01*
X128988419Y-126663424D01*
X128988427Y-126663422D01*
X128992696Y-126662436D01*
X128996788Y-126660865D01*
X128996805Y-126660860D01*
X129019781Y-126652040D01*
X129032323Y-126647965D01*
X129056080Y-126641599D01*
X129056086Y-126641597D01*
X129060333Y-126640459D01*
X129156488Y-126599644D01*
X129160565Y-126597997D01*
X129187923Y-126587495D01*
X129258069Y-126560568D01*
X129263396Y-126557615D01*
X129283437Y-126546507D01*
X129295287Y-126540727D01*
X129317943Y-126531110D01*
X129321988Y-126529393D01*
X129411539Y-126475586D01*
X129415313Y-126473407D01*
X129506682Y-126422760D01*
X129529846Y-126405305D01*
X129540778Y-126397932D01*
X129561859Y-126385265D01*
X129561870Y-126385257D01*
X129565640Y-126382992D01*
X129640758Y-126322163D01*
X129646812Y-126317261D01*
X129650277Y-126314554D01*
X129690067Y-126284570D01*
X129733696Y-126251693D01*
X129754199Y-126231190D01*
X129764000Y-126222364D01*
X129783133Y-126206871D01*
X129783136Y-126206868D01*
X129786547Y-126204106D01*
X129857804Y-126127692D01*
X129860860Y-126124529D01*
X136104199Y-119881190D01*
X136114000Y-119872364D01*
X136133133Y-119856871D01*
X136133136Y-119856868D01*
X136136547Y-119854106D01*
X136207804Y-119777692D01*
X136210860Y-119774529D01*
X136234382Y-119751007D01*
X136256230Y-119725874D01*
X136259166Y-119722613D01*
X136327405Y-119649435D01*
X136330406Y-119646217D01*
X136347045Y-119622454D01*
X136355155Y-119612074D01*
X136371304Y-119593497D01*
X136374191Y-119590176D01*
X136376590Y-119586482D01*
X136431084Y-119502569D01*
X136433543Y-119498923D01*
X136490923Y-119416975D01*
X136493447Y-119413371D01*
X136495442Y-119409455D01*
X136495447Y-119409447D01*
X136506617Y-119387523D01*
X136513208Y-119376106D01*
X136529005Y-119351782D01*
X136573148Y-119257118D01*
X136575072Y-119253173D01*
X136587431Y-119228917D01*
X136622495Y-119160100D01*
X136631944Y-119132660D01*
X136636879Y-119120446D01*
X136647277Y-119098148D01*
X136647278Y-119098146D01*
X136649136Y-119094161D01*
X136679679Y-118994259D01*
X136681038Y-118990077D01*
X136713606Y-118895495D01*
X136713607Y-118895490D01*
X136715038Y-118891335D01*
X136720573Y-118862860D01*
X136723763Y-118850067D01*
X136723910Y-118849586D01*
X136732243Y-118822330D01*
X136732931Y-118817985D01*
X136732933Y-118817977D01*
X136743952Y-118748402D01*
X136748587Y-118719141D01*
X136749342Y-118714856D01*
X136769276Y-118612305D01*
X136770794Y-118583339D01*
X136772171Y-118570238D01*
X136776710Y-118541577D01*
X136778533Y-118437129D01*
X136778687Y-118432733D01*
X136783923Y-118332839D01*
X136783923Y-118332832D01*
X136784153Y-118328442D01*
X136781625Y-118299541D01*
X136781165Y-118286367D01*
X136781594Y-118261760D01*
X136781671Y-118257368D01*
X136773500Y-118190814D01*
X136768939Y-118153670D01*
X136768480Y-118149298D01*
X136759762Y-118049662D01*
X136759378Y-118045271D01*
X136752853Y-118017010D01*
X136750564Y-118004024D01*
X136747565Y-117979599D01*
X136747565Y-117979598D01*
X136747029Y-117975234D01*
X136719994Y-117874336D01*
X136718930Y-117870069D01*
X136696425Y-117772590D01*
X136696424Y-117772587D01*
X136695435Y-117768303D01*
X136685038Y-117741218D01*
X136680970Y-117728699D01*
X136673459Y-117700667D01*
X136632637Y-117604496D01*
X136630990Y-117600419D01*
X136629034Y-117595324D01*
X136593568Y-117502931D01*
X136579508Y-117477565D01*
X136573729Y-117465717D01*
X136564113Y-117443063D01*
X136564111Y-117443058D01*
X136562393Y-117439012D01*
X136560130Y-117435245D01*
X136560126Y-117435238D01*
X136508600Y-117349486D01*
X136506401Y-117345676D01*
X136457896Y-117258169D01*
X136457890Y-117258160D01*
X136455760Y-117254317D01*
X136438302Y-117231149D01*
X136430929Y-117220217D01*
X136418265Y-117199141D01*
X136418257Y-117199130D01*
X136415992Y-117195360D01*
X136366710Y-117134501D01*
X136350266Y-117114194D01*
X136347559Y-117110729D01*
X136317859Y-117071317D01*
X136284693Y-117027304D01*
X136264190Y-117006801D01*
X136255364Y-116997000D01*
X136239871Y-116977867D01*
X136239868Y-116977864D01*
X136237106Y-116974453D01*
X136160692Y-116903196D01*
X136157529Y-116900140D01*
X129914190Y-110656801D01*
X129905364Y-110647000D01*
X129889871Y-110627867D01*
X129889868Y-110627864D01*
X129887106Y-110624453D01*
X129810692Y-110553196D01*
X129807529Y-110550140D01*
X129784007Y-110526618D01*
X129758881Y-110504776D01*
X129755613Y-110501834D01*
X129728238Y-110476307D01*
X129679217Y-110430594D01*
X129655454Y-110413955D01*
X129645074Y-110405845D01*
X129626497Y-110389696D01*
X129626498Y-110389696D01*
X129623176Y-110386809D01*
X129619482Y-110384410D01*
X129535569Y-110329916D01*
X129531923Y-110327457D01*
X129487456Y-110296321D01*
X129446371Y-110267553D01*
X129442455Y-110265558D01*
X129442447Y-110265553D01*
X129420523Y-110254383D01*
X129409106Y-110247792D01*
X129384782Y-110231995D01*
X129290118Y-110187852D01*
X129286173Y-110185928D01*
X129277465Y-110181491D01*
X129193100Y-110138505D01*
X129165660Y-110129056D01*
X129153450Y-110124123D01*
X129127161Y-110111864D01*
X129027259Y-110081321D01*
X129023077Y-110079962D01*
X128928495Y-110047394D01*
X128928490Y-110047393D01*
X128924335Y-110045962D01*
X128895860Y-110040427D01*
X128883067Y-110037237D01*
X128882586Y-110037090D01*
X128855330Y-110028757D01*
X128850985Y-110028069D01*
X128850977Y-110028067D01*
X128769160Y-110015109D01*
X128752142Y-110012414D01*
X128747847Y-110011656D01*
X128645305Y-109991724D01*
X128640913Y-109991494D01*
X128640907Y-109991493D01*
X128624757Y-109990647D01*
X128616337Y-109990206D01*
X128603237Y-109988829D01*
X128574576Y-109984290D01*
X128570191Y-109984213D01*
X128570186Y-109984213D01*
X128470129Y-109982467D01*
X128465733Y-109982313D01*
X128365839Y-109977077D01*
X128365832Y-109977077D01*
X128361442Y-109976847D01*
X128357064Y-109977230D01*
X128357062Y-109977230D01*
X128347861Y-109978035D01*
X128332541Y-109979375D01*
X128319370Y-109979835D01*
X128290368Y-109979329D01*
X128286013Y-109979864D01*
X128286007Y-109979864D01*
X128186670Y-109992061D01*
X128182298Y-109992520D01*
X128147693Y-109995548D01*
X128078271Y-110001622D01*
X128073985Y-110002612D01*
X128073982Y-110002612D01*
X128061266Y-110005548D01*
X128050010Y-110008147D01*
X128037024Y-110010436D01*
X128008234Y-110013971D01*
X127927651Y-110035563D01*
X127907336Y-110041006D01*
X127903069Y-110042070D01*
X127805590Y-110064575D01*
X127805587Y-110064576D01*
X127801303Y-110065565D01*
X127774218Y-110075962D01*
X127761699Y-110080030D01*
X127733667Y-110087541D01*
X127679393Y-110110579D01*
X127637496Y-110128363D01*
X127633427Y-110130007D01*
X127535931Y-110167432D01*
X127532079Y-110169567D01*
X127532077Y-110169568D01*
X127510567Y-110181491D01*
X127498717Y-110187271D01*
X127476063Y-110196887D01*
X127476058Y-110196889D01*
X127472012Y-110198607D01*
X127468245Y-110200870D01*
X127468238Y-110200874D01*
X127419537Y-110230137D01*
X127382468Y-110252410D01*
X127378676Y-110254599D01*
X127291169Y-110303104D01*
X127291160Y-110303110D01*
X127287317Y-110305240D01*
X127283806Y-110307885D01*
X127283807Y-110307885D01*
X127264149Y-110322698D01*
X127253217Y-110330071D01*
X127232141Y-110342735D01*
X127232130Y-110342743D01*
X127228360Y-110345008D01*
X127184658Y-110380397D01*
X127147194Y-110410734D01*
X127143729Y-110413441D01*
X127104317Y-110443141D01*
X127060304Y-110476307D01*
X127039801Y-110496810D01*
X127030000Y-110505636D01*
X127010867Y-110521129D01*
X127010864Y-110521132D01*
X127007453Y-110523894D01*
X127004455Y-110527109D01*
X126936204Y-110600299D01*
X126933149Y-110603462D01*
X120689801Y-116846810D01*
X120680000Y-116855636D01*
X120660867Y-116871129D01*
X120660864Y-116871132D01*
X120657453Y-116873894D01*
X120654455Y-116877109D01*
X120586204Y-116950299D01*
X120583149Y-116953462D01*
X120559618Y-116976993D01*
X120537770Y-117002126D01*
X120534841Y-117005379D01*
X120463593Y-117081783D01*
X120446950Y-117105551D01*
X120438841Y-117115930D01*
X120419809Y-117137824D01*
X120417414Y-117141512D01*
X120417408Y-117141520D01*
X120362912Y-117225437D01*
X120360469Y-117229060D01*
X120300553Y-117314629D01*
X120298558Y-117318545D01*
X120298553Y-117318553D01*
X120287383Y-117340477D01*
X120280792Y-117351894D01*
X120264995Y-117376218D01*
X120263138Y-117380200D01*
X120263137Y-117380202D01*
X120220856Y-117470874D01*
X120218931Y-117474820D01*
X120171505Y-117567900D01*
X120162056Y-117595340D01*
X120157123Y-117607550D01*
X120144864Y-117633839D01*
X120143579Y-117638043D01*
X120114322Y-117733739D01*
X120112963Y-117737921D01*
X120078962Y-117836665D01*
X120078124Y-117840978D01*
X120073427Y-117865140D01*
X120070237Y-117877933D01*
X120061757Y-117905670D01*
X120061069Y-117910015D01*
X120061067Y-117910023D01*
X120045416Y-118008844D01*
X120044656Y-118013153D01*
X120024724Y-118115695D01*
X120024494Y-118120087D01*
X120024493Y-118120093D01*
X120023206Y-118144658D01*
X120021829Y-118157763D01*
X120017290Y-118186424D01*
X120017213Y-118190809D01*
X120017213Y-118190814D01*
X120015467Y-118290871D01*
X120015313Y-118295267D01*
X120011711Y-118364000D01*
X120009847Y-118399558D01*
X91186500Y-118399558D01*
X91186500Y-99863321D01*
X92601737Y-99863321D01*
X92606775Y-100440522D01*
X92650054Y-101016119D01*
X92731385Y-101587583D01*
X92850411Y-102152401D01*
X93006608Y-102708088D01*
X93199289Y-103252202D01*
X93200115Y-103254121D01*
X93200117Y-103254125D01*
X93223623Y-103308705D01*
X93427606Y-103782350D01*
X93690557Y-104296200D01*
X93986985Y-104791495D01*
X94315585Y-105266055D01*
X94446488Y-105430622D01*
X94673616Y-105716162D01*
X94673629Y-105716177D01*
X94674915Y-105717794D01*
X95063393Y-106144725D01*
X95479311Y-106544972D01*
X95920841Y-106916775D01*
X96386041Y-107258498D01*
X96629453Y-107413569D01*
X96871100Y-107567516D01*
X96871109Y-107567522D01*
X96872865Y-107568640D01*
X96874688Y-107569638D01*
X96874693Y-107569641D01*
X97377340Y-107844831D01*
X97379174Y-107845835D01*
X97381074Y-107846717D01*
X97381080Y-107846720D01*
X97877645Y-108077218D01*
X97902740Y-108088867D01*
X98441262Y-108296665D01*
X98443247Y-108297283D01*
X98443252Y-108297285D01*
X98675660Y-108369672D01*
X98992371Y-108468316D01*
X99058741Y-108484250D01*
X99551631Y-108602583D01*
X99551646Y-108602586D01*
X99553645Y-108603066D01*
X99555676Y-108603413D01*
X99555685Y-108603415D01*
X100120571Y-108699973D01*
X100120582Y-108699975D01*
X100122615Y-108700322D01*
X100283724Y-108716971D01*
X100694707Y-108759442D01*
X100694714Y-108759442D01*
X100696780Y-108759656D01*
X100698870Y-108759733D01*
X100698875Y-108759733D01*
X100855920Y-108765492D01*
X101273614Y-108780808D01*
X101609821Y-108770830D01*
X101848504Y-108763746D01*
X101848513Y-108763745D01*
X101850583Y-108763684D01*
X101964456Y-108752719D01*
X102423065Y-108708561D01*
X102423078Y-108708559D01*
X102425148Y-108708360D01*
X102709965Y-108661719D01*
X102992721Y-108615416D01*
X102992731Y-108615414D01*
X102994783Y-108615078D01*
X102996814Y-108614605D01*
X102996821Y-108614604D01*
X103172497Y-108573723D01*
X103556984Y-108484250D01*
X104109278Y-108316450D01*
X104111223Y-108315715D01*
X104111232Y-108315712D01*
X104349660Y-108225617D01*
X104649237Y-108112417D01*
X105174487Y-107873046D01*
X105682719Y-107599392D01*
X105921600Y-107449542D01*
X106169916Y-107293774D01*
X106169925Y-107293768D01*
X106171696Y-107292657D01*
X106286926Y-107209245D01*
X106637571Y-106955421D01*
X106637579Y-106955415D01*
X106639271Y-106954190D01*
X106724448Y-106883474D01*
X107081778Y-106586813D01*
X107081793Y-106586800D01*
X107083385Y-106585478D01*
X107084887Y-106584053D01*
X107084899Y-106584042D01*
X107500581Y-106189575D01*
X107502088Y-106188145D01*
X107893537Y-105763936D01*
X108256011Y-105314716D01*
X108587917Y-104842462D01*
X108887795Y-104349249D01*
X108916381Y-104294337D01*
X109153358Y-103839107D01*
X109154327Y-103837246D01*
X109155159Y-103835350D01*
X109155166Y-103835336D01*
X109385504Y-103310609D01*
X109386340Y-103308705D01*
X109407507Y-103250234D01*
X109582104Y-102767915D01*
X109582107Y-102767906D01*
X109582815Y-102765950D01*
X109600093Y-102706091D01*
X109742306Y-102213380D01*
X109742306Y-102213379D01*
X109742887Y-102211367D01*
X109865853Y-101647394D01*
X109951172Y-101076512D01*
X109998469Y-100501230D01*
X110008861Y-100076000D01*
X110001806Y-99863321D01*
X182601737Y-99863321D01*
X182606775Y-100440522D01*
X182650054Y-101016119D01*
X182731385Y-101587583D01*
X182850411Y-102152401D01*
X183006608Y-102708088D01*
X183199289Y-103252202D01*
X183200115Y-103254121D01*
X183200117Y-103254125D01*
X183223623Y-103308705D01*
X183427606Y-103782350D01*
X183690557Y-104296200D01*
X183986985Y-104791495D01*
X184315585Y-105266055D01*
X184446488Y-105430622D01*
X184673616Y-105716162D01*
X184673629Y-105716177D01*
X184674915Y-105717794D01*
X185063393Y-106144725D01*
X185479311Y-106544972D01*
X185920841Y-106916775D01*
X186386041Y-107258498D01*
X186629453Y-107413569D01*
X186871100Y-107567516D01*
X186871109Y-107567522D01*
X186872865Y-107568640D01*
X186874688Y-107569638D01*
X186874693Y-107569641D01*
X187377340Y-107844831D01*
X187379174Y-107845835D01*
X187381074Y-107846717D01*
X187381080Y-107846720D01*
X187877645Y-108077218D01*
X187902740Y-108088867D01*
X188441262Y-108296665D01*
X188443247Y-108297283D01*
X188443252Y-108297285D01*
X188675660Y-108369672D01*
X188992371Y-108468316D01*
X189058741Y-108484250D01*
X189551631Y-108602583D01*
X189551646Y-108602586D01*
X189553645Y-108603066D01*
X189555676Y-108603413D01*
X189555685Y-108603415D01*
X190120571Y-108699973D01*
X190120582Y-108699975D01*
X190122615Y-108700322D01*
X190283724Y-108716971D01*
X190694707Y-108759442D01*
X190694714Y-108759442D01*
X190696780Y-108759656D01*
X190698870Y-108759733D01*
X190698875Y-108759733D01*
X190855920Y-108765492D01*
X191273614Y-108780808D01*
X191609821Y-108770830D01*
X191848504Y-108763746D01*
X191848513Y-108763745D01*
X191850583Y-108763684D01*
X191964456Y-108752719D01*
X192423065Y-108708561D01*
X192423078Y-108708559D01*
X192425148Y-108708360D01*
X192709965Y-108661719D01*
X192992721Y-108615416D01*
X192992731Y-108615414D01*
X192994783Y-108615078D01*
X192996814Y-108614605D01*
X192996821Y-108614604D01*
X193172497Y-108573723D01*
X193556984Y-108484250D01*
X194109278Y-108316450D01*
X194111223Y-108315715D01*
X194111232Y-108315712D01*
X194349660Y-108225617D01*
X194649237Y-108112417D01*
X195174487Y-107873046D01*
X195682719Y-107599392D01*
X195921600Y-107449542D01*
X196169916Y-107293774D01*
X196169925Y-107293768D01*
X196171696Y-107292657D01*
X196286926Y-107209245D01*
X196637571Y-106955421D01*
X196637579Y-106955415D01*
X196639271Y-106954190D01*
X196724448Y-106883474D01*
X197081778Y-106586813D01*
X197081793Y-106586800D01*
X197083385Y-106585478D01*
X197084887Y-106584053D01*
X197084899Y-106584042D01*
X197500581Y-106189575D01*
X197502088Y-106188145D01*
X197893537Y-105763936D01*
X198256011Y-105314716D01*
X198587917Y-104842462D01*
X198887795Y-104349249D01*
X198916381Y-104294337D01*
X199153358Y-103839107D01*
X199154327Y-103837246D01*
X199155159Y-103835350D01*
X199155166Y-103835336D01*
X199385504Y-103310609D01*
X199386340Y-103308705D01*
X199407507Y-103250234D01*
X199582104Y-102767915D01*
X199582107Y-102767906D01*
X199582815Y-102765950D01*
X199600093Y-102706091D01*
X199742306Y-102213380D01*
X199742306Y-102213379D01*
X199742887Y-102211367D01*
X199865853Y-101647394D01*
X199951172Y-101076512D01*
X199998469Y-100501230D01*
X200008861Y-100076000D01*
X199989723Y-99499095D01*
X199989515Y-99497008D01*
X199932600Y-98926797D01*
X199932598Y-98926786D01*
X199932393Y-98924727D01*
X199932050Y-98922676D01*
X199837467Y-98357467D01*
X199837464Y-98357454D01*
X199837124Y-98355420D01*
X199788444Y-98149487D01*
X199704813Y-97795706D01*
X199704812Y-97795704D01*
X199704334Y-97793680D01*
X199534608Y-97241974D01*
X199328691Y-96702731D01*
X199087488Y-96178319D01*
X198984868Y-95989315D01*
X198813062Y-95672888D01*
X198812062Y-95671046D01*
X198503621Y-95183142D01*
X198163524Y-94716752D01*
X197793265Y-94273927D01*
X197644906Y-94118678D01*
X197395916Y-93858126D01*
X197395915Y-93858125D01*
X197394472Y-93856615D01*
X196968899Y-93466649D01*
X196518417Y-93105745D01*
X196045007Y-92775489D01*
X196043240Y-92774423D01*
X196043226Y-92774414D01*
X195552539Y-92478413D01*
X195552526Y-92478406D01*
X195550751Y-92477335D01*
X195037821Y-92212592D01*
X194508473Y-91982425D01*
X194506504Y-91981720D01*
X194506499Y-91981718D01*
X193967024Y-91788558D01*
X193967020Y-91788557D01*
X193965035Y-91787846D01*
X193409896Y-91629711D01*
X192845498Y-91508714D01*
X192843434Y-91508413D01*
X192843429Y-91508412D01*
X192276402Y-91425691D01*
X192276389Y-91425690D01*
X192274322Y-91425388D01*
X192004491Y-91404152D01*
X191700940Y-91380262D01*
X191700934Y-91380262D01*
X191698879Y-91380100D01*
X191403246Y-91376488D01*
X191123765Y-91373073D01*
X191123758Y-91373073D01*
X191121699Y-91373048D01*
X190545321Y-91404264D01*
X190543261Y-91404513D01*
X190543253Y-91404514D01*
X190372115Y-91425224D01*
X189972280Y-91473609D01*
X189970225Y-91473997D01*
X189970227Y-91473997D01*
X189407161Y-91580389D01*
X189407154Y-91580391D01*
X189405093Y-91580780D01*
X188846257Y-91725305D01*
X188844292Y-91725955D01*
X188300212Y-91905892D01*
X188300198Y-91905897D01*
X188298227Y-91906549D01*
X188296289Y-91907336D01*
X187765358Y-92122924D01*
X187765342Y-92122931D01*
X187763414Y-92123714D01*
X187761523Y-92124632D01*
X187761519Y-92124634D01*
X187580377Y-92212592D01*
X187244169Y-92375846D01*
X186742776Y-92661835D01*
X186741062Y-92662969D01*
X186741053Y-92662975D01*
X186572688Y-92774414D01*
X186261438Y-92980426D01*
X185802273Y-93330216D01*
X185367299Y-93709668D01*
X184958429Y-94117113D01*
X184957056Y-94118676D01*
X184957054Y-94118678D01*
X184819270Y-94275515D01*
X184577462Y-94550759D01*
X184576176Y-94552435D01*
X184451306Y-94715169D01*
X184226071Y-95008700D01*
X183905802Y-95488923D01*
X183904755Y-95490744D01*
X183619106Y-95987502D01*
X183619100Y-95987514D01*
X183618064Y-95989315D01*
X183364121Y-96507677D01*
X183363330Y-96509606D01*
X183363324Y-96509619D01*
X183284906Y-96700823D01*
X183145091Y-97041729D01*
X182961935Y-97589122D01*
X182815460Y-98147451D01*
X182706310Y-98714260D01*
X182706053Y-98716324D01*
X182706051Y-98716336D01*
X182680095Y-98924727D01*
X182634965Y-99287056D01*
X182601737Y-99863321D01*
X110001806Y-99863321D01*
X109989723Y-99499095D01*
X109989515Y-99497008D01*
X109932600Y-98926797D01*
X109932598Y-98926786D01*
X109932393Y-98924727D01*
X109932050Y-98922676D01*
X109837467Y-98357467D01*
X109837464Y-98357454D01*
X109837124Y-98355420D01*
X109788444Y-98149487D01*
X109704813Y-97795706D01*
X109704812Y-97795704D01*
X109704334Y-97793680D01*
X109534608Y-97241974D01*
X109328691Y-96702731D01*
X109087488Y-96178319D01*
X108984868Y-95989315D01*
X108813062Y-95672888D01*
X108812062Y-95671046D01*
X108503621Y-95183142D01*
X108163524Y-94716752D01*
X107793265Y-94273927D01*
X107644906Y-94118678D01*
X107395916Y-93858126D01*
X107395915Y-93858125D01*
X107394472Y-93856615D01*
X106968899Y-93466649D01*
X106518417Y-93105745D01*
X106045007Y-92775489D01*
X106043240Y-92774423D01*
X106043226Y-92774414D01*
X105552539Y-92478413D01*
X105552526Y-92478406D01*
X105550751Y-92477335D01*
X105037821Y-92212592D01*
X104508473Y-91982425D01*
X104506504Y-91981720D01*
X104506499Y-91981718D01*
X103967024Y-91788558D01*
X103967020Y-91788557D01*
X103965035Y-91787846D01*
X103409896Y-91629711D01*
X102845498Y-91508714D01*
X102843434Y-91508413D01*
X102843429Y-91508412D01*
X102276402Y-91425691D01*
X102276389Y-91425690D01*
X102274322Y-91425388D01*
X102004491Y-91404152D01*
X101700940Y-91380262D01*
X101700934Y-91380262D01*
X101698879Y-91380100D01*
X101403246Y-91376488D01*
X101123765Y-91373073D01*
X101123758Y-91373073D01*
X101121699Y-91373048D01*
X100545321Y-91404264D01*
X100543261Y-91404513D01*
X100543253Y-91404514D01*
X100372115Y-91425224D01*
X99972280Y-91473609D01*
X99970225Y-91473997D01*
X99970227Y-91473997D01*
X99407161Y-91580389D01*
X99407154Y-91580391D01*
X99405093Y-91580780D01*
X98846257Y-91725305D01*
X98844292Y-91725955D01*
X98300212Y-91905892D01*
X98300198Y-91905897D01*
X98298227Y-91906549D01*
X98296289Y-91907336D01*
X97765358Y-92122924D01*
X97765342Y-92122931D01*
X97763414Y-92123714D01*
X97761523Y-92124632D01*
X97761519Y-92124634D01*
X97580377Y-92212592D01*
X97244169Y-92375846D01*
X96742776Y-92661835D01*
X96741062Y-92662969D01*
X96741053Y-92662975D01*
X96572688Y-92774414D01*
X96261438Y-92980426D01*
X95802273Y-93330216D01*
X95367299Y-93709668D01*
X94958429Y-94117113D01*
X94957056Y-94118676D01*
X94957054Y-94118678D01*
X94819270Y-94275515D01*
X94577462Y-94550759D01*
X94576176Y-94552435D01*
X94451306Y-94715169D01*
X94226071Y-95008700D01*
X93905802Y-95488923D01*
X93904755Y-95490744D01*
X93619106Y-95987502D01*
X93619100Y-95987514D01*
X93618064Y-95989315D01*
X93364121Y-96507677D01*
X93363330Y-96509606D01*
X93363324Y-96509619D01*
X93284906Y-96700823D01*
X93145091Y-97041729D01*
X92961935Y-97589122D01*
X92815460Y-98147451D01*
X92706310Y-98714260D01*
X92706053Y-98716324D01*
X92706051Y-98716336D01*
X92680095Y-98924727D01*
X92634965Y-99287056D01*
X92601737Y-99863321D01*
X91186500Y-99863321D01*
X91186500Y-81745369D01*
X161157995Y-81745369D01*
X161172269Y-82085950D01*
X161224419Y-82422817D01*
X161313794Y-82751772D01*
X161439280Y-83068714D01*
X161599314Y-83369693D01*
X161601299Y-83372592D01*
X161789909Y-83648051D01*
X161789914Y-83648057D01*
X161791900Y-83650958D01*
X162014638Y-83909002D01*
X162264751Y-84140610D01*
X162539124Y-84342895D01*
X162834334Y-84513335D01*
X162914185Y-84548221D01*
X163143482Y-84648399D01*
X163143492Y-84648403D01*
X163146704Y-84649806D01*
X163150061Y-84650845D01*
X163150066Y-84650847D01*
X163468979Y-84749567D01*
X163472339Y-84750607D01*
X163475795Y-84751266D01*
X163475794Y-84751266D01*
X163803730Y-84813823D01*
X163803735Y-84813824D01*
X163807181Y-84814481D01*
X164031197Y-84831718D01*
X164143559Y-84840364D01*
X164143560Y-84840364D01*
X164147056Y-84840633D01*
X164359407Y-84833218D01*
X164484214Y-84828860D01*
X164484219Y-84828860D01*
X164487729Y-84828737D01*
X164656340Y-84803839D01*
X164821473Y-84779454D01*
X164821478Y-84779453D01*
X164824952Y-84778940D01*
X164828344Y-84778044D01*
X164828348Y-84778043D01*
X165151132Y-84692760D01*
X165151133Y-84692760D01*
X165154523Y-84691864D01*
X165472333Y-84568593D01*
X165774422Y-84410665D01*
X166057024Y-84220047D01*
X166316617Y-83999116D01*
X166403738Y-83906342D01*
X166547555Y-83753193D01*
X166547559Y-83753188D01*
X166549966Y-83750625D01*
X166552071Y-83747811D01*
X166552077Y-83747804D01*
X166752052Y-83480491D01*
X166754161Y-83477672D01*
X166926658Y-83183658D01*
X167065306Y-82872249D01*
X167168378Y-82547326D01*
X167234588Y-82212938D01*
X167263113Y-81873253D01*
X167264303Y-81788000D01*
X167245275Y-81447652D01*
X167188426Y-81111545D01*
X167175560Y-81066674D01*
X167095436Y-80787250D01*
X167094467Y-80783870D01*
X167048757Y-80672969D01*
X166965906Y-80471956D01*
X166965902Y-80471948D01*
X166964568Y-80468711D01*
X166800348Y-80169996D01*
X166603854Y-79891448D01*
X166377534Y-79636538D01*
X166124211Y-79408445D01*
X166121361Y-79406404D01*
X166121354Y-79406399D01*
X165849896Y-79212054D01*
X165849893Y-79212052D01*
X165847042Y-79210011D01*
X165549480Y-79043709D01*
X165235235Y-78911613D01*
X165231872Y-78910623D01*
X165231863Y-78910620D01*
X165030552Y-78851372D01*
X164908224Y-78815369D01*
X164625043Y-78765436D01*
X164575983Y-78756785D01*
X164575981Y-78756785D01*
X164572523Y-78756175D01*
X164569014Y-78755954D01*
X164569012Y-78755954D01*
X164235834Y-78734992D01*
X164235828Y-78734992D01*
X164232316Y-78734771D01*
X164135891Y-78739487D01*
X163895350Y-78751251D01*
X163895342Y-78751252D01*
X163891843Y-78751423D01*
X163888375Y-78751985D01*
X163888372Y-78751985D01*
X163558823Y-78805361D01*
X163558820Y-78805362D01*
X163555348Y-78805924D01*
X163551965Y-78806869D01*
X163551963Y-78806869D01*
X163517970Y-78816360D01*
X163227025Y-78897593D01*
X162910967Y-79025289D01*
X162611112Y-79187420D01*
X162331199Y-79381964D01*
X162328557Y-79384277D01*
X162328553Y-79384280D01*
X162092343Y-79591067D01*
X162074716Y-79606498D01*
X161844860Y-79858223D01*
X161644495Y-80134001D01*
X161476121Y-80430394D01*
X161474734Y-80433629D01*
X161474732Y-80433634D01*
X161343219Y-80740477D01*
X161341834Y-80743709D01*
X161243309Y-81070040D01*
X161181773Y-81405320D01*
X161157995Y-81745369D01*
X91186500Y-81745369D01*
X91186500Y-69220079D01*
X91206502Y-69151958D01*
X91223405Y-69130984D01*
X105491068Y-54863321D01*
X137601737Y-54863321D01*
X137606775Y-55440522D01*
X137650054Y-56016119D01*
X137731385Y-56587583D01*
X137850411Y-57152401D01*
X138006608Y-57708088D01*
X138199289Y-58252202D01*
X138200115Y-58254121D01*
X138200117Y-58254125D01*
X138223623Y-58308705D01*
X138427606Y-58782350D01*
X138690557Y-59296200D01*
X138986985Y-59791495D01*
X139315585Y-60266055D01*
X139446488Y-60430622D01*
X139673616Y-60716162D01*
X139673629Y-60716177D01*
X139674915Y-60717794D01*
X140063393Y-61144725D01*
X140479311Y-61544972D01*
X140920841Y-61916775D01*
X141386041Y-62258498D01*
X141629453Y-62413569D01*
X141871100Y-62567516D01*
X141871109Y-62567522D01*
X141872865Y-62568640D01*
X141874688Y-62569638D01*
X141874693Y-62569641D01*
X142377340Y-62844831D01*
X142379174Y-62845835D01*
X142381074Y-62846717D01*
X142381080Y-62846720D01*
X142877645Y-63077218D01*
X142902740Y-63088867D01*
X143441262Y-63296665D01*
X143443247Y-63297283D01*
X143443252Y-63297285D01*
X143675660Y-63369672D01*
X143992371Y-63468316D01*
X144058741Y-63484250D01*
X144551631Y-63602583D01*
X144551646Y-63602586D01*
X144553645Y-63603066D01*
X144555676Y-63603413D01*
X144555685Y-63603415D01*
X145120571Y-63699973D01*
X145120582Y-63699975D01*
X145122615Y-63700322D01*
X145283724Y-63716971D01*
X145694707Y-63759442D01*
X145694714Y-63759442D01*
X145696780Y-63759656D01*
X145698870Y-63759733D01*
X145698875Y-63759733D01*
X145855920Y-63765492D01*
X146273614Y-63780808D01*
X146609821Y-63770830D01*
X146848504Y-63763746D01*
X146848513Y-63763745D01*
X146850583Y-63763684D01*
X146964456Y-63752719D01*
X147423065Y-63708561D01*
X147423078Y-63708559D01*
X147425148Y-63708360D01*
X147709965Y-63661719D01*
X147992721Y-63615416D01*
X147992731Y-63615414D01*
X147994783Y-63615078D01*
X147996814Y-63614605D01*
X147996821Y-63614604D01*
X148172497Y-63573723D01*
X148556984Y-63484250D01*
X149109278Y-63316450D01*
X149111223Y-63315715D01*
X149111232Y-63315712D01*
X149349660Y-63225617D01*
X149649237Y-63112417D01*
X150174487Y-62873046D01*
X150682719Y-62599392D01*
X150921600Y-62449542D01*
X151169916Y-62293774D01*
X151169925Y-62293768D01*
X151171696Y-62292657D01*
X151286926Y-62209245D01*
X151637571Y-61955421D01*
X151637579Y-61955415D01*
X151639271Y-61954190D01*
X151724448Y-61883474D01*
X152081778Y-61586813D01*
X152081793Y-61586800D01*
X152083385Y-61585478D01*
X152084887Y-61584053D01*
X152084899Y-61584042D01*
X152500581Y-61189575D01*
X152502088Y-61188145D01*
X152893537Y-60763936D01*
X153256011Y-60314716D01*
X153587917Y-59842462D01*
X153887795Y-59349249D01*
X153916381Y-59294337D01*
X154153358Y-58839107D01*
X154154327Y-58837246D01*
X154155159Y-58835350D01*
X154155166Y-58835336D01*
X154385504Y-58310609D01*
X154386340Y-58308705D01*
X154407507Y-58250234D01*
X154582104Y-57767915D01*
X154582107Y-57767906D01*
X154582815Y-57765950D01*
X154600093Y-57706091D01*
X154742306Y-57213380D01*
X154742306Y-57213379D01*
X154742887Y-57211367D01*
X154865853Y-56647394D01*
X154951172Y-56076512D01*
X154998469Y-55501230D01*
X155008861Y-55076000D01*
X154989723Y-54499095D01*
X154989515Y-54497008D01*
X154932600Y-53926797D01*
X154932598Y-53926786D01*
X154932393Y-53924727D01*
X154932050Y-53922676D01*
X154837467Y-53357467D01*
X154837464Y-53357454D01*
X154837124Y-53355420D01*
X154788444Y-53149487D01*
X154704813Y-52795706D01*
X154704812Y-52795704D01*
X154704334Y-52793680D01*
X154534608Y-52241974D01*
X154328691Y-51702731D01*
X154087488Y-51178319D01*
X153984868Y-50989315D01*
X153813062Y-50672888D01*
X153812062Y-50671046D01*
X153503621Y-50183142D01*
X153163524Y-49716752D01*
X152793265Y-49273927D01*
X152644906Y-49118678D01*
X152395916Y-48858126D01*
X152395915Y-48858125D01*
X152394472Y-48856615D01*
X151968899Y-48466649D01*
X151518417Y-48105745D01*
X151045007Y-47775489D01*
X151043240Y-47774423D01*
X151043226Y-47774414D01*
X150552539Y-47478413D01*
X150552526Y-47478406D01*
X150550751Y-47477335D01*
X150037821Y-47212592D01*
X149508473Y-46982425D01*
X149506504Y-46981720D01*
X149506499Y-46981718D01*
X148967024Y-46788558D01*
X148967020Y-46788557D01*
X148965035Y-46787846D01*
X148409896Y-46629711D01*
X147845498Y-46508714D01*
X147843434Y-46508413D01*
X147843429Y-46508412D01*
X147276402Y-46425691D01*
X147276389Y-46425690D01*
X147274322Y-46425388D01*
X147004491Y-46404152D01*
X146700940Y-46380262D01*
X146700934Y-46380262D01*
X146698879Y-46380100D01*
X146403246Y-46376488D01*
X146123765Y-46373073D01*
X146123758Y-46373073D01*
X146121699Y-46373048D01*
X145545321Y-46404264D01*
X145543261Y-46404513D01*
X145543253Y-46404514D01*
X145372115Y-46425224D01*
X144972280Y-46473609D01*
X144970225Y-46473997D01*
X144970227Y-46473997D01*
X144407161Y-46580389D01*
X144407154Y-46580391D01*
X144405093Y-46580780D01*
X143846257Y-46725305D01*
X143844292Y-46725955D01*
X143300212Y-46905892D01*
X143300198Y-46905897D01*
X143298227Y-46906549D01*
X143296289Y-46907336D01*
X142765358Y-47122924D01*
X142765342Y-47122931D01*
X142763414Y-47123714D01*
X142761523Y-47124632D01*
X142761519Y-47124634D01*
X142580377Y-47212592D01*
X142244169Y-47375846D01*
X141742776Y-47661835D01*
X141741062Y-47662969D01*
X141741053Y-47662975D01*
X141572688Y-47774414D01*
X141261438Y-47980426D01*
X140802273Y-48330216D01*
X140367299Y-48709668D01*
X139958429Y-49117113D01*
X139957056Y-49118676D01*
X139957054Y-49118678D01*
X139819270Y-49275515D01*
X139577462Y-49550759D01*
X139576176Y-49552435D01*
X139451306Y-49715169D01*
X139226071Y-50008700D01*
X138905802Y-50488923D01*
X138904755Y-50490744D01*
X138619106Y-50987502D01*
X138619100Y-50987514D01*
X138618064Y-50989315D01*
X138364121Y-51507677D01*
X138363330Y-51509606D01*
X138363324Y-51509619D01*
X138284906Y-51700823D01*
X138145091Y-52041729D01*
X137961935Y-52589122D01*
X137815460Y-53147451D01*
X137706310Y-53714260D01*
X137706053Y-53716324D01*
X137706051Y-53716336D01*
X137680095Y-53924727D01*
X137634965Y-54287056D01*
X137601737Y-54863321D01*
X105491068Y-54863321D01*
X115358984Y-44995405D01*
X115421296Y-44961379D01*
X115448079Y-44958500D01*
X201295500Y-44958500D01*
X201363621Y-44978502D01*
G37*
G04 #@! TD.AperFunction*
G04 #@! TD*
M02*
