G04 #@! TF.GenerationSoftware,KiCad,Pcbnew,6.0.4-6f826c9f35~116~ubuntu20.04.1*
G04 #@! TF.CreationDate,2022-04-14T13:24:01-04:00*
G04 #@! TF.ProjectId,LWA Balun 2020,4c574120-4261-46c7-956e-20323032302e,rev?*
G04 #@! TF.SameCoordinates,Original*
G04 #@! TF.FileFunction,Legend,Top*
G04 #@! TF.FilePolarity,Positive*
%FSLAX46Y46*%
G04 Gerber Fmt 4.6, Leading zero omitted, Abs format (unit mm)*
G04 Created by KiCad (PCBNEW 6.0.4-6f826c9f35~116~ubuntu20.04.1) date 2022-04-14 13:24:01*
%MOMM*%
%LPD*%
G01*
G04 APERTURE LIST*
%ADD10C,0.127000*%
%ADD11C,0.150000*%
%ADD12C,0.254000*%
%ADD13C,0.200000*%
%ADD14C,0.100000*%
%ADD15C,0.381000*%
%ADD16C,0.120000*%
G04 APERTURE END LIST*
D10*
X157276800Y-87833200D02*
X157911800Y-87833200D01*
X157276800Y-87833200D02*
X157276800Y-87198200D01*
X157276800Y-87833200D02*
X158165800Y-86944200D01*
X158165800Y-86944200D02*
X158800800Y-86944200D01*
D11*
X128397000Y-124460000D02*
X134493000Y-118364000D01*
D12*
X169958360Y-81788000D02*
X164211000Y-87535360D01*
X124206000Y-128714180D02*
X124206000Y-122428000D01*
D13*
X144471000Y-73752000D02*
X144471000Y-72552000D01*
D12*
X119715870Y-124224050D02*
X115674760Y-128265170D01*
X175006000Y-68812390D02*
X175006000Y-64897000D01*
D11*
X122301000Y-118364000D02*
X128397000Y-112268000D01*
D12*
X175006000Y-68812390D02*
X173964290Y-67770680D01*
D11*
X134493000Y-118364000D02*
X128397000Y-112268000D01*
D14*
G36*
X123190000Y-126238000D02*
G01*
X122409950Y-126918130D01*
X119715870Y-124224050D01*
X120396000Y-123444000D01*
X123190000Y-126238000D01*
G37*
X123190000Y-126238000D02*
X122409950Y-126918130D01*
X119715870Y-124224050D01*
X120396000Y-123444000D01*
X123190000Y-126238000D01*
D11*
X122301000Y-118364000D02*
X128397000Y-124460000D01*
D13*
X154945120Y-105328590D02*
X154096590Y-106177120D01*
D12*
X124206000Y-128714180D02*
X122409950Y-126918130D01*
D15*
X112014000Y-77724000D02*
X110998000Y-76708000D01*
D12*
X169958360Y-81788000D02*
X164211000Y-76040640D01*
D14*
G36*
X124206000Y-128714180D02*
G01*
X122409950Y-126918130D01*
X123190000Y-126238000D01*
X120396000Y-123444000D01*
X119715870Y-124224050D01*
X117919820Y-122428000D01*
X124206000Y-122428000D01*
X124206000Y-128714180D01*
G37*
X124206000Y-128714180D02*
X122409950Y-126918130D01*
X123190000Y-126238000D01*
X120396000Y-123444000D01*
X119715870Y-124224050D01*
X117919820Y-122428000D01*
X124206000Y-122428000D01*
X124206000Y-128714180D01*
D12*
X164211000Y-87535360D02*
X158463640Y-81788000D01*
X164211000Y-76040640D02*
X158463640Y-81788000D01*
D15*
X112014000Y-77724000D02*
X112903000Y-76708000D01*
D12*
X122409950Y-126918130D02*
X118368830Y-130959240D01*
X175006000Y-68812390D02*
X175006000Y-64897000D01*
X119715870Y-124224050D02*
X117919820Y-122428000D01*
X176047710Y-67770680D02*
X175006000Y-68812390D01*
X118368830Y-130959240D02*
X115674760Y-128265170D01*
D14*
G36*
X122409950Y-126918130D02*
G01*
X118368830Y-130959240D01*
X115674760Y-128265170D01*
X119715870Y-124224050D01*
X122409950Y-126918130D01*
G37*
X122409950Y-126918130D02*
X118368830Y-130959240D01*
X115674760Y-128265170D01*
X119715870Y-124224050D01*
X122409950Y-126918130D01*
D12*
X124206000Y-122428000D02*
X117919820Y-122428000D01*
D15*
X112014000Y-65405000D02*
X112014000Y-77724000D01*
D14*
X117328333Y-100922666D02*
X119021666Y-100922666D01*
X116989666Y-101938666D02*
X118175000Y-98382666D01*
X119360333Y-101938666D01*
X172691285Y-60851142D02*
X174239476Y-60851142D01*
X173465380Y-61625238D02*
X173465380Y-60077047D01*
X174916809Y-59593238D02*
X175594142Y-61625238D01*
X176271476Y-59593238D01*
X188109666Y-64516000D02*
X187940333Y-64431333D01*
X187686333Y-64431333D01*
X187432333Y-64516000D01*
X187263000Y-64685333D01*
X187178333Y-64854666D01*
X187093666Y-65193333D01*
X187093666Y-65447333D01*
X187178333Y-65786000D01*
X187263000Y-65955333D01*
X187432333Y-66124666D01*
X187686333Y-66209333D01*
X187855666Y-66209333D01*
X188109666Y-66124666D01*
X188194333Y-66040000D01*
X188194333Y-65447333D01*
X187855666Y-65447333D01*
X188956333Y-66209333D02*
X188956333Y-64431333D01*
X189972333Y-66209333D01*
X189972333Y-64431333D01*
X190819000Y-66209333D02*
X190819000Y-64431333D01*
X191242333Y-64431333D01*
X191496333Y-64516000D01*
X191665666Y-64685333D01*
X191750333Y-64854666D01*
X191835000Y-65193333D01*
X191835000Y-65447333D01*
X191750333Y-65786000D01*
X191665666Y-65955333D01*
X191496333Y-66124666D01*
X191242333Y-66209333D01*
X190819000Y-66209333D01*
X128673666Y-73561372D02*
X128504333Y-73476705D01*
X128250333Y-73476705D01*
X127996333Y-73561372D01*
X127827000Y-73730705D01*
X127742333Y-73900038D01*
X127657666Y-74238705D01*
X127657666Y-74492705D01*
X127742333Y-74831372D01*
X127827000Y-75000705D01*
X127996333Y-75170038D01*
X128250333Y-75254705D01*
X128419666Y-75254705D01*
X128673666Y-75170038D01*
X128758333Y-75085372D01*
X128758333Y-74492705D01*
X128419666Y-74492705D01*
X129520333Y-75254705D02*
X129520333Y-73476705D01*
X130536333Y-75254705D01*
X130536333Y-73476705D01*
X131383000Y-75254705D02*
X131383000Y-73476705D01*
X131806333Y-73476705D01*
X132060333Y-73561372D01*
X132229666Y-73730705D01*
X132314333Y-73900038D01*
X132399000Y-74238705D01*
X132399000Y-74492705D01*
X132314333Y-74831372D01*
X132229666Y-75000705D01*
X132060333Y-75170038D01*
X131806333Y-75254705D01*
X131383000Y-75254705D01*
X109333380Y-79619323D02*
X109333380Y-78349323D01*
X109817190Y-78349323D01*
X109938142Y-78409800D01*
X109998619Y-78470276D01*
X110059095Y-78591228D01*
X110059095Y-78772657D01*
X109998619Y-78893609D01*
X109938142Y-78954085D01*
X109817190Y-79014561D01*
X109333380Y-79014561D01*
X110845285Y-78349323D02*
X111087190Y-78349323D01*
X111208142Y-78409800D01*
X111329095Y-78530752D01*
X111389571Y-78772657D01*
X111389571Y-79195990D01*
X111329095Y-79437895D01*
X111208142Y-79558847D01*
X111087190Y-79619323D01*
X110845285Y-79619323D01*
X110724333Y-79558847D01*
X110603380Y-79437895D01*
X110542904Y-79195990D01*
X110542904Y-78772657D01*
X110603380Y-78530752D01*
X110724333Y-78409800D01*
X110845285Y-78349323D01*
X111812904Y-78349323D02*
X112115285Y-79619323D01*
X112357190Y-78712180D01*
X112599095Y-79619323D01*
X112901476Y-78349323D01*
X113385285Y-78954085D02*
X113808619Y-78954085D01*
X113990047Y-79619323D02*
X113385285Y-79619323D01*
X113385285Y-78349323D01*
X113990047Y-78349323D01*
X115260047Y-79619323D02*
X114836714Y-79014561D01*
X114534333Y-79619323D02*
X114534333Y-78349323D01*
X115018142Y-78349323D01*
X115139095Y-78409800D01*
X115199571Y-78470276D01*
X115260047Y-78591228D01*
X115260047Y-78772657D01*
X115199571Y-78893609D01*
X115139095Y-78954085D01*
X115018142Y-79014561D01*
X114534333Y-79014561D01*
X98285285Y-152683028D02*
X97777285Y-151957314D01*
X97414428Y-152683028D02*
X97414428Y-151159028D01*
X97995000Y-151159028D01*
X98140142Y-151231600D01*
X98212714Y-151304171D01*
X98285285Y-151449314D01*
X98285285Y-151667028D01*
X98212714Y-151812171D01*
X98140142Y-151884742D01*
X97995000Y-151957314D01*
X97414428Y-151957314D01*
X99519000Y-152610457D02*
X99373857Y-152683028D01*
X99083571Y-152683028D01*
X98938428Y-152610457D01*
X98865857Y-152465314D01*
X98865857Y-151884742D01*
X98938428Y-151739600D01*
X99083571Y-151667028D01*
X99373857Y-151667028D01*
X99519000Y-151739600D01*
X99591571Y-151884742D01*
X99591571Y-152029885D01*
X98865857Y-152175028D01*
X100099571Y-151667028D02*
X100462428Y-152683028D01*
X100825285Y-151667028D01*
X101405857Y-152683028D02*
X101405857Y-151667028D01*
X101405857Y-151159028D02*
X101333285Y-151231600D01*
X101405857Y-151304171D01*
X101478428Y-151231600D01*
X101405857Y-151159028D01*
X101405857Y-151304171D01*
X102059000Y-152610457D02*
X102204142Y-152683028D01*
X102494428Y-152683028D01*
X102639571Y-152610457D01*
X102712142Y-152465314D01*
X102712142Y-152392742D01*
X102639571Y-152247600D01*
X102494428Y-152175028D01*
X102276714Y-152175028D01*
X102131571Y-152102457D01*
X102059000Y-151957314D01*
X102059000Y-151884742D01*
X102131571Y-151739600D01*
X102276714Y-151667028D01*
X102494428Y-151667028D01*
X102639571Y-151739600D01*
X103365285Y-152683028D02*
X103365285Y-151667028D01*
X103365285Y-151159028D02*
X103292714Y-151231600D01*
X103365285Y-151304171D01*
X103437857Y-151231600D01*
X103365285Y-151159028D01*
X103365285Y-151304171D01*
X104308714Y-152683028D02*
X104163571Y-152610457D01*
X104091000Y-152537885D01*
X104018428Y-152392742D01*
X104018428Y-151957314D01*
X104091000Y-151812171D01*
X104163571Y-151739600D01*
X104308714Y-151667028D01*
X104526428Y-151667028D01*
X104671571Y-151739600D01*
X104744142Y-151812171D01*
X104816714Y-151957314D01*
X104816714Y-152392742D01*
X104744142Y-152537885D01*
X104671571Y-152610457D01*
X104526428Y-152683028D01*
X104308714Y-152683028D01*
X105469857Y-151667028D02*
X105469857Y-152683028D01*
X105469857Y-151812171D02*
X105542428Y-151739600D01*
X105687571Y-151667028D01*
X105905285Y-151667028D01*
X106050428Y-151739600D01*
X106123000Y-151884742D01*
X106123000Y-152683028D01*
X107937285Y-151304171D02*
X108009857Y-151231600D01*
X108155000Y-151159028D01*
X108517857Y-151159028D01*
X108663000Y-151231600D01*
X108735571Y-151304171D01*
X108808142Y-151449314D01*
X108808142Y-151594457D01*
X108735571Y-151812171D01*
X107864714Y-152683028D01*
X108808142Y-152683028D01*
X109461285Y-152537885D02*
X109533857Y-152610457D01*
X109461285Y-152683028D01*
X109388714Y-152610457D01*
X109461285Y-152537885D01*
X109461285Y-152683028D01*
X110477285Y-151159028D02*
X110622428Y-151159028D01*
X110767571Y-151231600D01*
X110840142Y-151304171D01*
X110912714Y-151449314D01*
X110985285Y-151739600D01*
X110985285Y-152102457D01*
X110912714Y-152392742D01*
X110840142Y-152537885D01*
X110767571Y-152610457D01*
X110622428Y-152683028D01*
X110477285Y-152683028D01*
X110332142Y-152610457D01*
X110259571Y-152537885D01*
X110187000Y-152392742D01*
X110114428Y-152102457D01*
X110114428Y-151739600D01*
X110187000Y-151449314D01*
X110259571Y-151304171D01*
X110332142Y-151231600D01*
X110477285Y-151159028D01*
X111638428Y-152102457D02*
X112799571Y-152102457D01*
X113452714Y-152247600D02*
X114178428Y-152247600D01*
X113307571Y-152683028D02*
X113815571Y-151159028D01*
X114323571Y-152683028D01*
X114831571Y-152683028D02*
X114831571Y-151159028D01*
X115339571Y-152247600D01*
X115847571Y-151159028D01*
X115847571Y-152683028D01*
X116355571Y-151159028D02*
X117226428Y-151159028D01*
X116791000Y-152683028D02*
X116791000Y-151159028D01*
X117734428Y-152102457D02*
X118895571Y-152102457D01*
X119548714Y-151304171D02*
X119621285Y-151231600D01*
X119766428Y-151159028D01*
X120129285Y-151159028D01*
X120274428Y-151231600D01*
X120347000Y-151304171D01*
X120419571Y-151449314D01*
X120419571Y-151594457D01*
X120347000Y-151812171D01*
X119476142Y-152683028D01*
X120419571Y-152683028D01*
X121072714Y-152102457D02*
X122233857Y-152102457D01*
X122814428Y-151159028D02*
X123757857Y-151159028D01*
X123249857Y-151739600D01*
X123467571Y-151739600D01*
X123612714Y-151812171D01*
X123685285Y-151884742D01*
X123757857Y-152029885D01*
X123757857Y-152392742D01*
X123685285Y-152537885D01*
X123612714Y-152610457D01*
X123467571Y-152683028D01*
X123032142Y-152683028D01*
X122887000Y-152610457D01*
X122814428Y-152537885D01*
X124411000Y-152102457D02*
X125572142Y-152102457D01*
X124991571Y-152683028D02*
X124991571Y-151521885D01*
X175071000Y-100076000D02*
X175579000Y-100245333D01*
X175748333Y-100414666D01*
X175917666Y-100753333D01*
X175917666Y-101261333D01*
X175748333Y-101600000D01*
X175579000Y-101769333D01*
X175240333Y-101938666D01*
X173885666Y-101938666D01*
X173885666Y-98382666D01*
X175071000Y-98382666D01*
X175409666Y-98552000D01*
X175579000Y-98721333D01*
X175748333Y-99060000D01*
X175748333Y-99398666D01*
X175579000Y-99737333D01*
X175409666Y-99906666D01*
X175071000Y-100076000D01*
X173885666Y-100076000D01*
X94340362Y-145164628D02*
X96275600Y-145164628D01*
X95307981Y-146132247D02*
X95307981Y-144197009D01*
X98815600Y-146132247D02*
X97364171Y-146132247D01*
X98089886Y-146132247D02*
X98089886Y-143592247D01*
X97847981Y-143955104D01*
X97606076Y-144197009D01*
X97364171Y-144317961D01*
X101113695Y-143592247D02*
X99904171Y-143592247D01*
X99783219Y-144801771D01*
X99904171Y-144680819D01*
X100146076Y-144559866D01*
X100750838Y-144559866D01*
X100992743Y-144680819D01*
X101113695Y-144801771D01*
X101234647Y-145043676D01*
X101234647Y-145648438D01*
X101113695Y-145890342D01*
X100992743Y-146011295D01*
X100750838Y-146132247D01*
X100146076Y-146132247D01*
X99904171Y-146011295D01*
X99783219Y-145890342D01*
X103895600Y-143592247D02*
X104742266Y-146132247D01*
X105588933Y-143592247D01*
X106435600Y-146132247D02*
X106435600Y-143592247D01*
X107040362Y-143592247D01*
X107403219Y-143713200D01*
X107645124Y-143955104D01*
X107766076Y-144197009D01*
X107887028Y-144680819D01*
X107887028Y-145043676D01*
X107766076Y-145527485D01*
X107645124Y-145769390D01*
X107403219Y-146011295D01*
X107040362Y-146132247D01*
X106435600Y-146132247D01*
X110427028Y-145890342D02*
X110306076Y-146011295D01*
X109943219Y-146132247D01*
X109701314Y-146132247D01*
X109338457Y-146011295D01*
X109096552Y-145769390D01*
X108975600Y-145527485D01*
X108854647Y-145043676D01*
X108854647Y-144680819D01*
X108975600Y-144197009D01*
X109096552Y-143955104D01*
X109338457Y-143713200D01*
X109701314Y-143592247D01*
X109943219Y-143592247D01*
X110306076Y-143713200D01*
X110427028Y-143834152D01*
X114297505Y-144801771D02*
X114660362Y-144922723D01*
X114781314Y-145043676D01*
X114902266Y-145285580D01*
X114902266Y-145648438D01*
X114781314Y-145890342D01*
X114660362Y-146011295D01*
X114418457Y-146132247D01*
X113450838Y-146132247D01*
X113450838Y-143592247D01*
X114297505Y-143592247D01*
X114539409Y-143713200D01*
X114660362Y-143834152D01*
X114781314Y-144076057D01*
X114781314Y-144317961D01*
X114660362Y-144559866D01*
X114539409Y-144680819D01*
X114297505Y-144801771D01*
X113450838Y-144801771D01*
X115990838Y-146132247D02*
X115990838Y-144438914D01*
X115990838Y-143592247D02*
X115869886Y-143713200D01*
X115990838Y-143834152D01*
X116111790Y-143713200D01*
X115990838Y-143592247D01*
X115990838Y-143834152D01*
X118288933Y-146132247D02*
X118288933Y-144801771D01*
X118167981Y-144559866D01*
X117926076Y-144438914D01*
X117442266Y-144438914D01*
X117200362Y-144559866D01*
X118288933Y-146011295D02*
X118047028Y-146132247D01*
X117442266Y-146132247D01*
X117200362Y-146011295D01*
X117079409Y-145769390D01*
X117079409Y-145527485D01*
X117200362Y-145285580D01*
X117442266Y-145164628D01*
X118047028Y-145164628D01*
X118288933Y-145043676D01*
X119377505Y-146011295D02*
X119619409Y-146132247D01*
X120103219Y-146132247D01*
X120345124Y-146011295D01*
X120466076Y-145769390D01*
X120466076Y-145648438D01*
X120345124Y-145406533D01*
X120103219Y-145285580D01*
X119740362Y-145285580D01*
X119498457Y-145164628D01*
X119377505Y-144922723D01*
X119377505Y-144801771D01*
X119498457Y-144559866D01*
X119740362Y-144438914D01*
X120103219Y-144438914D01*
X120345124Y-144559866D01*
X121554647Y-145164628D02*
X123489886Y-145164628D01*
X124336552Y-143592247D02*
X125787981Y-143592247D01*
X125062266Y-146132247D02*
X125062266Y-143592247D01*
X171805523Y-62514238D02*
X172966666Y-62514238D01*
X172386095Y-64546238D02*
X172386095Y-62514238D01*
X173643999Y-63481857D02*
X174321333Y-63481857D01*
X174611618Y-64546238D02*
X173643999Y-64546238D01*
X173643999Y-62514238D01*
X174611618Y-62514238D01*
X175385714Y-64449476D02*
X175675999Y-64546238D01*
X176159809Y-64546238D01*
X176353333Y-64449476D01*
X176450095Y-64352714D01*
X176546856Y-64159190D01*
X176546856Y-63965666D01*
X176450095Y-63772142D01*
X176353333Y-63675380D01*
X176159809Y-63578619D01*
X175772761Y-63481857D01*
X175579237Y-63385095D01*
X175482475Y-63288333D01*
X175385714Y-63094809D01*
X175385714Y-62901285D01*
X175482475Y-62707761D01*
X175579237Y-62611000D01*
X175772761Y-62514238D01*
X176256571Y-62514238D01*
X176546856Y-62611000D01*
X177127428Y-62514238D02*
X178288571Y-62514238D01*
X177707999Y-64546238D02*
X177707999Y-62514238D01*
X180108666Y-124812628D02*
X179939333Y-124727961D01*
X179685333Y-124727961D01*
X179431333Y-124812628D01*
X179262000Y-124981961D01*
X179177333Y-125151294D01*
X179092666Y-125489961D01*
X179092666Y-125743961D01*
X179177333Y-126082628D01*
X179262000Y-126251961D01*
X179431333Y-126421294D01*
X179685333Y-126505961D01*
X179854666Y-126505961D01*
X180108666Y-126421294D01*
X180193333Y-126336628D01*
X180193333Y-125743961D01*
X179854666Y-125743961D01*
X180955333Y-126505961D02*
X180955333Y-124727961D01*
X181971333Y-126505961D01*
X181971333Y-124727961D01*
X182818000Y-126505961D02*
X182818000Y-124727961D01*
X183241333Y-124727961D01*
X183495333Y-124812628D01*
X183664666Y-124981961D01*
X183749333Y-125151294D01*
X183834000Y-125489961D01*
X183834000Y-125743961D01*
X183749333Y-126082628D01*
X183664666Y-126251961D01*
X183495333Y-126421294D01*
X183241333Y-126505961D01*
X182818000Y-126505961D01*
X159566114Y-87429219D02*
X159082304Y-87429219D01*
X159082304Y-86413219D01*
X160388590Y-86413219D02*
X159904780Y-86413219D01*
X159856400Y-86897028D01*
X159904780Y-86848647D01*
X160001542Y-86800266D01*
X160243447Y-86800266D01*
X160340209Y-86848647D01*
X160388590Y-86897028D01*
X160436971Y-86993790D01*
X160436971Y-87235695D01*
X160388590Y-87332457D01*
X160340209Y-87380838D01*
X160243447Y-87429219D01*
X160001542Y-87429219D01*
X159904780Y-87380838D01*
X159856400Y-87332457D01*
X126855355Y-119029538D02*
X126855355Y-119200591D01*
X126684302Y-119542696D01*
X126513250Y-119713748D01*
X126171145Y-119884801D01*
X125829040Y-119884801D01*
X125572461Y-119799274D01*
X125144830Y-119542696D01*
X124888251Y-119286117D01*
X124631672Y-118858486D01*
X124546146Y-118601907D01*
X124546146Y-118259802D01*
X124717198Y-117917697D01*
X124888251Y-117746644D01*
X125230356Y-117575592D01*
X125401408Y-117575592D01*
X126000092Y-116634803D02*
X127454038Y-118088749D01*
X127710617Y-118174276D01*
X127881670Y-118174276D01*
X128138248Y-118088749D01*
X128480353Y-117746644D01*
X128565880Y-117490066D01*
X128565880Y-117319013D01*
X128480353Y-117062434D01*
X127026407Y-115608488D01*
X127625091Y-115009805D02*
X128651406Y-113983490D01*
X129934299Y-116292698D02*
X128138248Y-114496647D01*
X107050428Y-60736238D02*
X107050428Y-58704238D01*
X107534238Y-58704238D01*
X107824523Y-58801000D01*
X108018047Y-58994523D01*
X108114809Y-59188047D01*
X108211571Y-59575095D01*
X108211571Y-59865380D01*
X108114809Y-60252428D01*
X108018047Y-60445952D01*
X107824523Y-60639476D01*
X107534238Y-60736238D01*
X107050428Y-60736238D01*
X109469476Y-58704238D02*
X109856523Y-58704238D01*
X110050047Y-58801000D01*
X110243571Y-58994523D01*
X110340333Y-59381571D01*
X110340333Y-60058904D01*
X110243571Y-60445952D01*
X110050047Y-60639476D01*
X109856523Y-60736238D01*
X109469476Y-60736238D01*
X109275952Y-60639476D01*
X109082428Y-60445952D01*
X108985666Y-60058904D01*
X108985666Y-59381571D01*
X109082428Y-58994523D01*
X109275952Y-58801000D01*
X109469476Y-58704238D01*
X112759380Y-60736238D02*
X112759380Y-58704238D01*
X113920523Y-60736238D01*
X113920523Y-58704238D01*
X115275190Y-58704238D02*
X115662238Y-58704238D01*
X115855761Y-58801000D01*
X116049285Y-58994523D01*
X116146047Y-59381571D01*
X116146047Y-60058904D01*
X116049285Y-60445952D01*
X115855761Y-60639476D01*
X115662238Y-60736238D01*
X115275190Y-60736238D01*
X115081666Y-60639476D01*
X114888142Y-60445952D01*
X114791380Y-60058904D01*
X114791380Y-59381571D01*
X114888142Y-58994523D01*
X115081666Y-58801000D01*
X115275190Y-58704238D01*
X116726619Y-58704238D02*
X117887761Y-58704238D01*
X117307190Y-60736238D02*
X117307190Y-58704238D01*
X120016523Y-60639476D02*
X120306809Y-60736238D01*
X120790619Y-60736238D01*
X120984142Y-60639476D01*
X121080904Y-60542714D01*
X121177666Y-60349190D01*
X121177666Y-60155666D01*
X121080904Y-59962142D01*
X120984142Y-59865380D01*
X120790619Y-59768619D01*
X120403571Y-59671857D01*
X120210047Y-59575095D01*
X120113285Y-59478333D01*
X120016523Y-59284809D01*
X120016523Y-59091285D01*
X120113285Y-58897761D01*
X120210047Y-58801000D01*
X120403571Y-58704238D01*
X120887380Y-58704238D01*
X121177666Y-58801000D01*
X122048523Y-59671857D02*
X122725857Y-59671857D01*
X123016142Y-60736238D02*
X122048523Y-60736238D01*
X122048523Y-58704238D01*
X123016142Y-58704238D01*
X125048142Y-60736238D02*
X124370809Y-59768619D01*
X123887000Y-60736238D02*
X123887000Y-58704238D01*
X124661095Y-58704238D01*
X124854619Y-58801000D01*
X124951380Y-58897761D01*
X125048142Y-59091285D01*
X125048142Y-59381571D01*
X124951380Y-59575095D01*
X124854619Y-59671857D01*
X124661095Y-59768619D01*
X123887000Y-59768619D01*
X125628714Y-58704238D02*
X126306047Y-60736238D01*
X126983380Y-58704238D01*
X127660714Y-60736238D02*
X127660714Y-58704238D01*
X129789476Y-60542714D02*
X129692714Y-60639476D01*
X129402428Y-60736238D01*
X129208904Y-60736238D01*
X128918619Y-60639476D01*
X128725095Y-60445952D01*
X128628333Y-60252428D01*
X128531571Y-59865380D01*
X128531571Y-59575095D01*
X128628333Y-59188047D01*
X128725095Y-58994523D01*
X128918619Y-58801000D01*
X129208904Y-58704238D01*
X129402428Y-58704238D01*
X129692714Y-58801000D01*
X129789476Y-58897761D01*
X130660333Y-59671857D02*
X131337666Y-59671857D01*
X131627952Y-60736238D02*
X130660333Y-60736238D01*
X130660333Y-58704238D01*
X131627952Y-58704238D01*
X132638485Y-169588542D02*
X132638485Y-167302542D01*
X133182771Y-167302542D01*
X133509342Y-167411400D01*
X133727057Y-167629114D01*
X133835914Y-167846828D01*
X133944771Y-168282257D01*
X133944771Y-168608828D01*
X133835914Y-169044257D01*
X133727057Y-169261971D01*
X133509342Y-169479685D01*
X133182771Y-169588542D01*
X132638485Y-169588542D01*
X134924485Y-169588542D02*
X134924485Y-168064542D01*
X134924485Y-167302542D02*
X134815628Y-167411400D01*
X134924485Y-167520257D01*
X135033342Y-167411400D01*
X134924485Y-167302542D01*
X134924485Y-167520257D01*
X136013057Y-169588542D02*
X136013057Y-168064542D01*
X136013057Y-168282257D02*
X136121914Y-168173400D01*
X136339628Y-168064542D01*
X136666200Y-168064542D01*
X136883914Y-168173400D01*
X136992771Y-168391114D01*
X136992771Y-169588542D01*
X136992771Y-168391114D02*
X137101628Y-168173400D01*
X137319342Y-168064542D01*
X137645914Y-168064542D01*
X137863628Y-168173400D01*
X137972485Y-168391114D01*
X137972485Y-169588542D01*
X139931914Y-169479685D02*
X139714200Y-169588542D01*
X139278771Y-169588542D01*
X139061057Y-169479685D01*
X138952200Y-169261971D01*
X138952200Y-168391114D01*
X139061057Y-168173400D01*
X139278771Y-168064542D01*
X139714200Y-168064542D01*
X139931914Y-168173400D01*
X140040771Y-168391114D01*
X140040771Y-168608828D01*
X138952200Y-168826542D01*
X141020485Y-168064542D02*
X141020485Y-169588542D01*
X141020485Y-168282257D02*
X141129342Y-168173400D01*
X141347057Y-168064542D01*
X141673628Y-168064542D01*
X141891342Y-168173400D01*
X142000200Y-168391114D01*
X142000200Y-169588542D01*
X142979914Y-169479685D02*
X143197628Y-169588542D01*
X143633057Y-169588542D01*
X143850771Y-169479685D01*
X143959628Y-169261971D01*
X143959628Y-169153114D01*
X143850771Y-168935400D01*
X143633057Y-168826542D01*
X143306485Y-168826542D01*
X143088771Y-168717685D01*
X142979914Y-168499971D01*
X142979914Y-168391114D01*
X143088771Y-168173400D01*
X143306485Y-168064542D01*
X143633057Y-168064542D01*
X143850771Y-168173400D01*
X144939342Y-169588542D02*
X144939342Y-168064542D01*
X144939342Y-167302542D02*
X144830485Y-167411400D01*
X144939342Y-167520257D01*
X145048200Y-167411400D01*
X144939342Y-167302542D01*
X144939342Y-167520257D01*
X146354485Y-169588542D02*
X146136771Y-169479685D01*
X146027914Y-169370828D01*
X145919057Y-169153114D01*
X145919057Y-168499971D01*
X146027914Y-168282257D01*
X146136771Y-168173400D01*
X146354485Y-168064542D01*
X146681057Y-168064542D01*
X146898771Y-168173400D01*
X147007628Y-168282257D01*
X147116485Y-168499971D01*
X147116485Y-169153114D01*
X147007628Y-169370828D01*
X146898771Y-169479685D01*
X146681057Y-169588542D01*
X146354485Y-169588542D01*
X148096200Y-168064542D02*
X148096200Y-169588542D01*
X148096200Y-168282257D02*
X148205057Y-168173400D01*
X148422771Y-168064542D01*
X148749342Y-168064542D01*
X148967057Y-168173400D01*
X149075914Y-168391114D01*
X149075914Y-169588542D01*
X150055628Y-169479685D02*
X150273342Y-169588542D01*
X150708771Y-169588542D01*
X150926485Y-169479685D01*
X151035342Y-169261971D01*
X151035342Y-169153114D01*
X150926485Y-168935400D01*
X150708771Y-168826542D01*
X150382200Y-168826542D01*
X150164485Y-168717685D01*
X150055628Y-168499971D01*
X150055628Y-168391114D01*
X150164485Y-168173400D01*
X150382200Y-168064542D01*
X150708771Y-168064542D01*
X150926485Y-168173400D01*
X153756771Y-169588542D02*
X153756771Y-168064542D01*
X153756771Y-167302542D02*
X153647914Y-167411400D01*
X153756771Y-167520257D01*
X153865628Y-167411400D01*
X153756771Y-167302542D01*
X153756771Y-167520257D01*
X154845342Y-168064542D02*
X154845342Y-169588542D01*
X154845342Y-168282257D02*
X154954200Y-168173400D01*
X155171914Y-168064542D01*
X155498485Y-168064542D01*
X155716200Y-168173400D01*
X155825057Y-168391114D01*
X155825057Y-169588542D01*
X158655342Y-169588542D02*
X158655342Y-167302542D01*
X159417342Y-168935400D01*
X160179342Y-167302542D01*
X160179342Y-169588542D01*
X161267914Y-169588542D02*
X161267914Y-168064542D01*
X161267914Y-167302542D02*
X161159057Y-167411400D01*
X161267914Y-167520257D01*
X161376771Y-167411400D01*
X161267914Y-167302542D01*
X161267914Y-167520257D01*
X162683057Y-169588542D02*
X162465342Y-169479685D01*
X162356485Y-169261971D01*
X162356485Y-167302542D01*
X163445057Y-169479685D02*
X163662771Y-169588542D01*
X164098200Y-169588542D01*
X164315914Y-169479685D01*
X164424771Y-169261971D01*
X164424771Y-169153114D01*
X164315914Y-168935400D01*
X164098200Y-168826542D01*
X163771628Y-168826542D01*
X163553914Y-168717685D01*
X163445057Y-168499971D01*
X163445057Y-168391114D01*
X163553914Y-168173400D01*
X163771628Y-168064542D01*
X164098200Y-168064542D01*
X164315914Y-168173400D01*
X134648714Y-173754142D02*
X133342428Y-173754142D01*
X133995571Y-173754142D02*
X133995571Y-171468142D01*
X133777857Y-171794714D01*
X133560142Y-172012428D01*
X133342428Y-172121285D01*
X137370142Y-173754142D02*
X137370142Y-172230142D01*
X137370142Y-172447857D02*
X137479000Y-172339000D01*
X137696714Y-172230142D01*
X138023285Y-172230142D01*
X138241000Y-172339000D01*
X138349857Y-172556714D01*
X138349857Y-173754142D01*
X138349857Y-172556714D02*
X138458714Y-172339000D01*
X138676428Y-172230142D01*
X139003000Y-172230142D01*
X139220714Y-172339000D01*
X139329571Y-172556714D01*
X139329571Y-173754142D01*
X140418142Y-173754142D02*
X140418142Y-172230142D01*
X140418142Y-171468142D02*
X140309285Y-171577000D01*
X140418142Y-171685857D01*
X140527000Y-171577000D01*
X140418142Y-171468142D01*
X140418142Y-171685857D01*
X141833285Y-173754142D02*
X141615571Y-173645285D01*
X141506714Y-173427571D01*
X141506714Y-171468142D01*
X144445857Y-172556714D02*
X146187571Y-172556714D01*
X146187571Y-173209857D02*
X144445857Y-173209857D01*
X149453285Y-171468142D02*
X149671000Y-171468142D01*
X149888714Y-171577000D01*
X149997571Y-171685857D01*
X150106428Y-171903571D01*
X150215285Y-172339000D01*
X150215285Y-172883285D01*
X150106428Y-173318714D01*
X149997571Y-173536428D01*
X149888714Y-173645285D01*
X149671000Y-173754142D01*
X149453285Y-173754142D01*
X149235571Y-173645285D01*
X149126714Y-173536428D01*
X149017857Y-173318714D01*
X148909000Y-172883285D01*
X148909000Y-172339000D01*
X149017857Y-171903571D01*
X149126714Y-171685857D01*
X149235571Y-171577000D01*
X149453285Y-171468142D01*
X151195000Y-173536428D02*
X151303857Y-173645285D01*
X151195000Y-173754142D01*
X151086142Y-173645285D01*
X151195000Y-173536428D01*
X151195000Y-173754142D01*
X152719000Y-171468142D02*
X152936714Y-171468142D01*
X153154428Y-171577000D01*
X153263285Y-171685857D01*
X153372142Y-171903571D01*
X153481000Y-172339000D01*
X153481000Y-172883285D01*
X153372142Y-173318714D01*
X153263285Y-173536428D01*
X153154428Y-173645285D01*
X152936714Y-173754142D01*
X152719000Y-173754142D01*
X152501285Y-173645285D01*
X152392428Y-173536428D01*
X152283571Y-173318714D01*
X152174714Y-172883285D01*
X152174714Y-172339000D01*
X152283571Y-171903571D01*
X152392428Y-171685857D01*
X152501285Y-171577000D01*
X152719000Y-171468142D01*
X154896142Y-171468142D02*
X155113857Y-171468142D01*
X155331571Y-171577000D01*
X155440428Y-171685857D01*
X155549285Y-171903571D01*
X155658142Y-172339000D01*
X155658142Y-172883285D01*
X155549285Y-173318714D01*
X155440428Y-173536428D01*
X155331571Y-173645285D01*
X155113857Y-173754142D01*
X154896142Y-173754142D01*
X154678428Y-173645285D01*
X154569571Y-173536428D01*
X154460714Y-173318714D01*
X154351857Y-172883285D01*
X154351857Y-172339000D01*
X154460714Y-171903571D01*
X154569571Y-171685857D01*
X154678428Y-171577000D01*
X154896142Y-171468142D01*
X157835285Y-173754142D02*
X156529000Y-173754142D01*
X157182142Y-173754142D02*
X157182142Y-171468142D01*
X156964428Y-171794714D01*
X156746714Y-172012428D01*
X156529000Y-172121285D01*
X160556714Y-173754142D02*
X160556714Y-172230142D01*
X160556714Y-171468142D02*
X160447857Y-171577000D01*
X160556714Y-171685857D01*
X160665571Y-171577000D01*
X160556714Y-171468142D01*
X160556714Y-171685857D01*
X161645285Y-172230142D02*
X161645285Y-173754142D01*
X161645285Y-172447857D02*
X161754142Y-172339000D01*
X161971857Y-172230142D01*
X162298428Y-172230142D01*
X162516142Y-172339000D01*
X162625000Y-172556714D01*
X162625000Y-173754142D01*
X164693285Y-173645285D02*
X164475571Y-173754142D01*
X164040142Y-173754142D01*
X163822428Y-173645285D01*
X163713571Y-173536428D01*
X163604714Y-173318714D01*
X163604714Y-172665571D01*
X163713571Y-172447857D01*
X163822428Y-172339000D01*
X164040142Y-172230142D01*
X164475571Y-172230142D01*
X164693285Y-172339000D01*
X165673000Y-173754142D02*
X165673000Y-171468142D01*
X166652714Y-173754142D02*
X166652714Y-172556714D01*
X166543857Y-172339000D01*
X166326142Y-172230142D01*
X165999571Y-172230142D01*
X165781857Y-172339000D01*
X165673000Y-172447857D01*
X104236685Y-142119047D02*
X103027162Y-142119047D01*
X103027162Y-139579047D01*
X104841447Y-139579047D02*
X105446209Y-142119047D01*
X105930019Y-140304761D01*
X106413828Y-142119047D01*
X107018590Y-139579047D01*
X107865257Y-141393333D02*
X109074781Y-141393333D01*
X107623352Y-142119047D02*
X108470019Y-139579047D01*
X109316685Y-142119047D01*
X112945257Y-140788571D02*
X112098590Y-140788571D01*
X112098590Y-142119047D02*
X112098590Y-139579047D01*
X113308114Y-139579047D01*
X114275733Y-140788571D02*
X115122400Y-140788571D01*
X115485257Y-142119047D02*
X114275733Y-142119047D01*
X114275733Y-139579047D01*
X115485257Y-139579047D01*
X116573828Y-140788571D02*
X117420495Y-140788571D01*
X117783352Y-142119047D02*
X116573828Y-142119047D01*
X116573828Y-139579047D01*
X117783352Y-139579047D01*
X126832146Y-120501749D02*
X127174251Y-120159644D01*
X127430830Y-120074118D01*
X127772935Y-120074118D01*
X128200566Y-120330697D01*
X128799250Y-120929381D01*
X129055828Y-121357012D01*
X129055828Y-121699117D01*
X128970302Y-121955696D01*
X128628197Y-122297801D01*
X128371618Y-122383327D01*
X128029513Y-122383327D01*
X127601882Y-122126748D01*
X127003198Y-121528064D01*
X126746620Y-121100433D01*
X126746620Y-120758328D01*
X126832146Y-120501749D01*
X128371618Y-118962277D02*
X129825565Y-120416223D01*
X130082143Y-120501749D01*
X130253196Y-120501749D01*
X130509775Y-120416223D01*
X130851880Y-120074118D01*
X130937406Y-119817539D01*
X130937406Y-119646487D01*
X130851880Y-119389908D01*
X129397933Y-117935962D01*
X129996617Y-117337278D02*
X131022932Y-116310963D01*
X132305826Y-118620172D02*
X130509775Y-116824121D01*
X130947571Y-175266047D02*
X131189476Y-175266047D01*
X131431380Y-175387000D01*
X131552333Y-175507952D01*
X131673285Y-175749857D01*
X131794238Y-176233666D01*
X131794238Y-176838428D01*
X131673285Y-177322238D01*
X131552333Y-177564142D01*
X131431380Y-177685095D01*
X131189476Y-177806047D01*
X130947571Y-177806047D01*
X130705666Y-177685095D01*
X130584714Y-177564142D01*
X130463761Y-177322238D01*
X130342809Y-176838428D01*
X130342809Y-176233666D01*
X130463761Y-175749857D01*
X130584714Y-175507952D01*
X130705666Y-175387000D01*
X130947571Y-175266047D01*
X132882809Y-177564142D02*
X133003761Y-177685095D01*
X132882809Y-177806047D01*
X132761857Y-177685095D01*
X132882809Y-177564142D01*
X132882809Y-177806047D01*
X133971380Y-175507952D02*
X134092333Y-175387000D01*
X134334238Y-175266047D01*
X134939000Y-175266047D01*
X135180904Y-175387000D01*
X135301857Y-175507952D01*
X135422809Y-175749857D01*
X135422809Y-175991761D01*
X135301857Y-176354619D01*
X133850428Y-177806047D01*
X135422809Y-177806047D01*
X136874238Y-176354619D02*
X136632333Y-176233666D01*
X136511380Y-176112714D01*
X136390428Y-175870809D01*
X136390428Y-175749857D01*
X136511380Y-175507952D01*
X136632333Y-175387000D01*
X136874238Y-175266047D01*
X137358047Y-175266047D01*
X137599952Y-175387000D01*
X137720904Y-175507952D01*
X137841857Y-175749857D01*
X137841857Y-175870809D01*
X137720904Y-176112714D01*
X137599952Y-176233666D01*
X137358047Y-176354619D01*
X136874238Y-176354619D01*
X136632333Y-176475571D01*
X136511380Y-176596523D01*
X136390428Y-176838428D01*
X136390428Y-177322238D01*
X136511380Y-177564142D01*
X136632333Y-177685095D01*
X136874238Y-177806047D01*
X137358047Y-177806047D01*
X137599952Y-177685095D01*
X137720904Y-177564142D01*
X137841857Y-177322238D01*
X137841857Y-176838428D01*
X137720904Y-176596523D01*
X137599952Y-176475571D01*
X137358047Y-176354619D01*
X139414238Y-175266047D02*
X139656142Y-175266047D01*
X139898047Y-175387000D01*
X140019000Y-175507952D01*
X140139952Y-175749857D01*
X140260904Y-176233666D01*
X140260904Y-176838428D01*
X140139952Y-177322238D01*
X140019000Y-177564142D01*
X139898047Y-177685095D01*
X139656142Y-177806047D01*
X139414238Y-177806047D01*
X139172333Y-177685095D01*
X139051380Y-177564142D01*
X138930428Y-177322238D01*
X138809476Y-176838428D01*
X138809476Y-176233666D01*
X138930428Y-175749857D01*
X139051380Y-175507952D01*
X139172333Y-175387000D01*
X139414238Y-175266047D01*
X143284714Y-177806047D02*
X143284714Y-175266047D01*
X144494238Y-176112714D02*
X144494238Y-177806047D01*
X144494238Y-176354619D02*
X144615190Y-176233666D01*
X144857095Y-176112714D01*
X145219952Y-176112714D01*
X145461857Y-176233666D01*
X145582809Y-176475571D01*
X145582809Y-177806047D01*
X147880904Y-177685095D02*
X147639000Y-177806047D01*
X147155190Y-177806047D01*
X146913285Y-177685095D01*
X146792333Y-177564142D01*
X146671380Y-177322238D01*
X146671380Y-176596523D01*
X146792333Y-176354619D01*
X146913285Y-176233666D01*
X147155190Y-176112714D01*
X147639000Y-176112714D01*
X147880904Y-176233666D01*
X148969476Y-177806047D02*
X148969476Y-175266047D01*
X150058047Y-177806047D02*
X150058047Y-176475571D01*
X149937095Y-176233666D01*
X149695190Y-176112714D01*
X149332333Y-176112714D01*
X149090428Y-176233666D01*
X148969476Y-176354619D01*
X152235190Y-177685095D02*
X151993285Y-177806047D01*
X151509476Y-177806047D01*
X151267571Y-177685095D01*
X151146619Y-177443190D01*
X151146619Y-176475571D01*
X151267571Y-176233666D01*
X151509476Y-176112714D01*
X151993285Y-176112714D01*
X152235190Y-176233666D01*
X152356142Y-176475571D01*
X152356142Y-176717476D01*
X151146619Y-176959380D01*
X153323761Y-177685095D02*
X153565666Y-177806047D01*
X154049476Y-177806047D01*
X154291380Y-177685095D01*
X154412333Y-177443190D01*
X154412333Y-177322238D01*
X154291380Y-177080333D01*
X154049476Y-176959380D01*
X153686619Y-176959380D01*
X153444714Y-176838428D01*
X153323761Y-176596523D01*
X153323761Y-176475571D01*
X153444714Y-176233666D01*
X153686619Y-176112714D01*
X154049476Y-176112714D01*
X154291380Y-176233666D01*
X157436142Y-177806047D02*
X157436142Y-175266047D01*
X158040904Y-175266047D01*
X158403761Y-175387000D01*
X158645666Y-175628904D01*
X158766619Y-175870809D01*
X158887571Y-176354619D01*
X158887571Y-176717476D01*
X158766619Y-177201285D01*
X158645666Y-177443190D01*
X158403761Y-177685095D01*
X158040904Y-177806047D01*
X157436142Y-177806047D01*
X159976142Y-177806047D02*
X159976142Y-176112714D01*
X159976142Y-175266047D02*
X159855190Y-175387000D01*
X159976142Y-175507952D01*
X160097095Y-175387000D01*
X159976142Y-175266047D01*
X159976142Y-175507952D01*
X162274238Y-177806047D02*
X162274238Y-176475571D01*
X162153285Y-176233666D01*
X161911380Y-176112714D01*
X161427571Y-176112714D01*
X161185666Y-176233666D01*
X162274238Y-177685095D02*
X162032333Y-177806047D01*
X161427571Y-177806047D01*
X161185666Y-177685095D01*
X161064714Y-177443190D01*
X161064714Y-177201285D01*
X161185666Y-176959380D01*
X161427571Y-176838428D01*
X162032333Y-176838428D01*
X162274238Y-176717476D01*
X163483761Y-177564142D02*
X163604714Y-177685095D01*
X163483761Y-177806047D01*
X163362809Y-177685095D01*
X163483761Y-177564142D01*
X163483761Y-177806047D01*
X167717095Y-176112714D02*
X167717095Y-177806047D01*
X167112333Y-175145095D02*
X166507571Y-176959380D01*
X168079952Y-176959380D01*
X170982809Y-177806047D02*
X170982809Y-175266047D01*
X171950428Y-175266047D01*
X172192333Y-175387000D01*
X172313285Y-175507952D01*
X172434238Y-175749857D01*
X172434238Y-176112714D01*
X172313285Y-176354619D01*
X172192333Y-176475571D01*
X171950428Y-176596523D01*
X170982809Y-176596523D01*
X174732333Y-177806047D02*
X173522809Y-177806047D01*
X173522809Y-175266047D01*
X161972095Y-149971880D02*
X161972095Y-151308404D01*
X162050714Y-151465642D01*
X162129333Y-151544261D01*
X162286571Y-151622880D01*
X162601047Y-151622880D01*
X162758285Y-151544261D01*
X162836904Y-151465642D01*
X162915523Y-151308404D01*
X162915523Y-149971880D01*
X163701714Y-151465642D02*
X163780333Y-151544261D01*
X163701714Y-151622880D01*
X163623095Y-151544261D01*
X163701714Y-151465642D01*
X163701714Y-151622880D01*
X164409285Y-151544261D02*
X164645142Y-151622880D01*
X165038237Y-151622880D01*
X165195476Y-151544261D01*
X165274095Y-151465642D01*
X165352714Y-151308404D01*
X165352714Y-151151166D01*
X165274095Y-150993928D01*
X165195476Y-150915309D01*
X165038237Y-150836690D01*
X164723761Y-150758071D01*
X164566523Y-150679452D01*
X164487904Y-150600833D01*
X164409285Y-150443595D01*
X164409285Y-150286357D01*
X164487904Y-150129119D01*
X164566523Y-150050500D01*
X164723761Y-149971880D01*
X165116856Y-149971880D01*
X165352714Y-150050500D01*
X166060285Y-151465642D02*
X166138904Y-151544261D01*
X166060285Y-151622880D01*
X165981666Y-151544261D01*
X166060285Y-151465642D01*
X166060285Y-151622880D01*
X168104380Y-151622880D02*
X168104380Y-149971880D01*
X168733333Y-149971880D01*
X168890571Y-150050500D01*
X168969190Y-150129119D01*
X169047809Y-150286357D01*
X169047809Y-150522214D01*
X168969190Y-150679452D01*
X168890571Y-150758071D01*
X168733333Y-150836690D01*
X168104380Y-150836690D01*
X169676761Y-151151166D02*
X170462952Y-151151166D01*
X169519523Y-151622880D02*
X170069856Y-149971880D01*
X170620190Y-151622880D01*
X170934666Y-149971880D02*
X171878095Y-149971880D01*
X171406380Y-151622880D02*
X171406380Y-149971880D01*
X172428428Y-150758071D02*
X172978761Y-150758071D01*
X173214618Y-151622880D02*
X172428428Y-151622880D01*
X172428428Y-149971880D01*
X173214618Y-149971880D01*
X173922190Y-151622880D02*
X173922190Y-149971880D01*
X174865618Y-151622880D01*
X174865618Y-149971880D01*
X175415952Y-149971880D02*
X176359380Y-149971880D01*
X175887666Y-151622880D02*
X175887666Y-149971880D01*
X179504142Y-151622880D02*
X179818618Y-151622880D01*
X179975856Y-151544261D01*
X180054476Y-151465642D01*
X180211714Y-151229785D01*
X180290333Y-150915309D01*
X180290333Y-150286357D01*
X180211714Y-150129119D01*
X180133095Y-150050500D01*
X179975856Y-149971880D01*
X179661380Y-149971880D01*
X179504142Y-150050500D01*
X179425523Y-150129119D01*
X179346904Y-150286357D01*
X179346904Y-150679452D01*
X179425523Y-150836690D01*
X179504142Y-150915309D01*
X179661380Y-150993928D01*
X179975856Y-150993928D01*
X180133095Y-150915309D01*
X180211714Y-150836690D01*
X180290333Y-150679452D01*
X181076523Y-151544261D02*
X181076523Y-151622880D01*
X180997904Y-151780119D01*
X180919285Y-151858738D01*
X181705476Y-150129119D02*
X181784095Y-150050500D01*
X181941333Y-149971880D01*
X182334428Y-149971880D01*
X182491666Y-150050500D01*
X182570285Y-150129119D01*
X182648904Y-150286357D01*
X182648904Y-150443595D01*
X182570285Y-150679452D01*
X181626856Y-151622880D01*
X182648904Y-151622880D01*
X183277856Y-150129119D02*
X183356476Y-150050500D01*
X183513714Y-149971880D01*
X183906809Y-149971880D01*
X184064047Y-150050500D01*
X184142666Y-150129119D01*
X184221285Y-150286357D01*
X184221285Y-150443595D01*
X184142666Y-150679452D01*
X183199237Y-151622880D01*
X184221285Y-151622880D01*
X185715047Y-149971880D02*
X184928856Y-149971880D01*
X184850237Y-150758071D01*
X184928856Y-150679452D01*
X185086095Y-150600833D01*
X185479190Y-150600833D01*
X185636428Y-150679452D01*
X185715047Y-150758071D01*
X185793666Y-150915309D01*
X185793666Y-151308404D01*
X185715047Y-151465642D01*
X185636428Y-151544261D01*
X185479190Y-151622880D01*
X185086095Y-151622880D01*
X184928856Y-151544261D01*
X184850237Y-151465642D01*
X186579856Y-151544261D02*
X186579856Y-151622880D01*
X186501237Y-151780119D01*
X186422618Y-151858738D01*
X187601904Y-149971880D02*
X187759142Y-149971880D01*
X187916380Y-150050500D01*
X187994999Y-150129119D01*
X188073618Y-150286357D01*
X188152237Y-150600833D01*
X188152237Y-150993928D01*
X188073618Y-151308404D01*
X187994999Y-151465642D01*
X187916380Y-151544261D01*
X187759142Y-151622880D01*
X187601904Y-151622880D01*
X187444666Y-151544261D01*
X187366047Y-151465642D01*
X187287428Y-151308404D01*
X187208809Y-150993928D01*
X187208809Y-150600833D01*
X187287428Y-150286357D01*
X187366047Y-150129119D01*
X187444666Y-150050500D01*
X187601904Y-149971880D01*
X188702571Y-149971880D02*
X189803237Y-149971880D01*
X189095666Y-151622880D01*
X191139761Y-150522214D02*
X191139761Y-151622880D01*
X190746666Y-149893261D02*
X190353571Y-151072547D01*
X191375618Y-151072547D01*
X104945857Y-63911238D02*
X104945857Y-61879238D01*
X106590809Y-62846857D02*
X105913476Y-62846857D01*
X105913476Y-63911238D02*
X105913476Y-61879238D01*
X106881095Y-61879238D01*
X109203380Y-63911238D02*
X109203380Y-61879238D01*
X110171000Y-63911238D02*
X110171000Y-61879238D01*
X111332142Y-63911238D01*
X111332142Y-61879238D01*
X112299761Y-63911238D02*
X112299761Y-61879238D01*
X112783571Y-61879238D01*
X113073857Y-61976000D01*
X113267380Y-62169523D01*
X113364142Y-62363047D01*
X113460904Y-62750095D01*
X113460904Y-63040380D01*
X113364142Y-63427428D01*
X113267380Y-63620952D01*
X113073857Y-63814476D01*
X112783571Y-63911238D01*
X112299761Y-63911238D01*
X114331761Y-63911238D02*
X114331761Y-61879238D01*
X116460523Y-63717714D02*
X116363761Y-63814476D01*
X116073476Y-63911238D01*
X115879952Y-63911238D01*
X115589666Y-63814476D01*
X115396142Y-63620952D01*
X115299380Y-63427428D01*
X115202619Y-63040380D01*
X115202619Y-62750095D01*
X115299380Y-62363047D01*
X115396142Y-62169523D01*
X115589666Y-61976000D01*
X115879952Y-61879238D01*
X116073476Y-61879238D01*
X116363761Y-61976000D01*
X116460523Y-62072761D01*
X117234619Y-63330666D02*
X118202238Y-63330666D01*
X117041095Y-63911238D02*
X117718428Y-61879238D01*
X118395761Y-63911238D01*
X118782809Y-61879238D02*
X119943952Y-61879238D01*
X119363380Y-63911238D02*
X119363380Y-61879238D01*
X121008333Y-61879238D02*
X121395380Y-61879238D01*
X121588904Y-61976000D01*
X121782428Y-62169523D01*
X121879190Y-62556571D01*
X121879190Y-63233904D01*
X121782428Y-63620952D01*
X121588904Y-63814476D01*
X121395380Y-63911238D01*
X121008333Y-63911238D01*
X120814809Y-63814476D01*
X120621285Y-63620952D01*
X120524523Y-63233904D01*
X120524523Y-62556571D01*
X120621285Y-62169523D01*
X120814809Y-61976000D01*
X121008333Y-61879238D01*
X123911190Y-63911238D02*
X123233857Y-62943619D01*
X122750047Y-63911238D02*
X122750047Y-61879238D01*
X123524142Y-61879238D01*
X123717666Y-61976000D01*
X123814428Y-62072761D01*
X123911190Y-62266285D01*
X123911190Y-62556571D01*
X123814428Y-62750095D01*
X123717666Y-62846857D01*
X123524142Y-62943619D01*
X122750047Y-62943619D01*
X126330238Y-63911238D02*
X126330238Y-61879238D01*
X127201095Y-63814476D02*
X127491380Y-63911238D01*
X127975190Y-63911238D01*
X128168714Y-63814476D01*
X128265476Y-63717714D01*
X128362238Y-63524190D01*
X128362238Y-63330666D01*
X128265476Y-63137142D01*
X128168714Y-63040380D01*
X127975190Y-62943619D01*
X127588142Y-62846857D01*
X127394619Y-62750095D01*
X127297857Y-62653333D01*
X127201095Y-62459809D01*
X127201095Y-62266285D01*
X127297857Y-62072761D01*
X127394619Y-61976000D01*
X127588142Y-61879238D01*
X128071952Y-61879238D01*
X128362238Y-61976000D01*
X131168333Y-61879238D02*
X131555380Y-61879238D01*
X131748904Y-61976000D01*
X131942428Y-62169523D01*
X132039190Y-62556571D01*
X132039190Y-63233904D01*
X131942428Y-63620952D01*
X131748904Y-63814476D01*
X131555380Y-63911238D01*
X131168333Y-63911238D01*
X130974809Y-63814476D01*
X130781285Y-63620952D01*
X130684523Y-63233904D01*
X130684523Y-62556571D01*
X130781285Y-62169523D01*
X130974809Y-61976000D01*
X131168333Y-61879238D01*
X132910047Y-63911238D02*
X132910047Y-61879238D01*
X134071190Y-63911238D01*
X134071190Y-61879238D01*
X98353562Y-150043847D02*
X98353562Y-147503847D01*
X99804990Y-150043847D01*
X99804990Y-147503847D01*
X101377371Y-150043847D02*
X101135467Y-149922895D01*
X101014514Y-149801942D01*
X100893562Y-149560038D01*
X100893562Y-148834323D01*
X101014514Y-148592419D01*
X101135467Y-148471466D01*
X101377371Y-148350514D01*
X101740228Y-148350514D01*
X101982133Y-148471466D01*
X102103086Y-148592419D01*
X102224038Y-148834323D01*
X102224038Y-149560038D01*
X102103086Y-149801942D01*
X101982133Y-149922895D01*
X101740228Y-150043847D01*
X101377371Y-150043847D01*
X103312609Y-150043847D02*
X103312609Y-148350514D01*
X103312609Y-148592419D02*
X103433562Y-148471466D01*
X103675467Y-148350514D01*
X104038324Y-148350514D01*
X104280228Y-148471466D01*
X104401181Y-148713371D01*
X104401181Y-150043847D01*
X104401181Y-148713371D02*
X104522133Y-148471466D01*
X104764038Y-148350514D01*
X105126895Y-148350514D01*
X105368800Y-148471466D01*
X105489752Y-148713371D01*
X105489752Y-150043847D01*
X106699276Y-149801942D02*
X106820228Y-149922895D01*
X106699276Y-150043847D01*
X106578324Y-149922895D01*
X106699276Y-149801942D01*
X106699276Y-150043847D01*
X109723086Y-147745752D02*
X109844038Y-147624800D01*
X110085943Y-147503847D01*
X110690705Y-147503847D01*
X110932609Y-147624800D01*
X111053562Y-147745752D01*
X111174514Y-147987657D01*
X111174514Y-148229561D01*
X111053562Y-148592419D01*
X109602133Y-150043847D01*
X111174514Y-150043847D01*
X112021181Y-147503847D02*
X113593562Y-147503847D01*
X112746895Y-148471466D01*
X113109752Y-148471466D01*
X113351657Y-148592419D01*
X113472609Y-148713371D01*
X113593562Y-148955276D01*
X113593562Y-149560038D01*
X113472609Y-149801942D01*
X113351657Y-149922895D01*
X113109752Y-150043847D01*
X112384038Y-150043847D01*
X112142133Y-149922895D01*
X112021181Y-149801942D01*
X115165943Y-147503847D02*
X115407847Y-147503847D01*
X115649752Y-147624800D01*
X115770705Y-147745752D01*
X115891657Y-147987657D01*
X116012609Y-148471466D01*
X116012609Y-149076228D01*
X115891657Y-149560038D01*
X115770705Y-149801942D01*
X115649752Y-149922895D01*
X115407847Y-150043847D01*
X115165943Y-150043847D01*
X114924038Y-149922895D01*
X114803086Y-149801942D01*
X114682133Y-149560038D01*
X114561181Y-149076228D01*
X114561181Y-148471466D01*
X114682133Y-147987657D01*
X114803086Y-147745752D01*
X114924038Y-147624800D01*
X115165943Y-147503847D01*
X119036419Y-150043847D02*
X119036419Y-148350514D01*
X119036419Y-148592419D02*
X119157371Y-148471466D01*
X119399276Y-148350514D01*
X119762133Y-148350514D01*
X120004038Y-148471466D01*
X120124990Y-148713371D01*
X120124990Y-150043847D01*
X120124990Y-148713371D02*
X120245943Y-148471466D01*
X120487847Y-148350514D01*
X120850705Y-148350514D01*
X121092609Y-148471466D01*
X121213562Y-148713371D01*
X121213562Y-150043847D01*
X122302133Y-149318133D02*
X123511657Y-149318133D01*
X122060228Y-150043847D02*
X122906895Y-147503847D01*
X123753562Y-150043847D01*
X161972095Y-147431880D02*
X161972095Y-148768404D01*
X162050714Y-148925642D01*
X162129333Y-149004261D01*
X162286571Y-149082880D01*
X162601047Y-149082880D01*
X162758285Y-149004261D01*
X162836904Y-148925642D01*
X162915523Y-148768404D01*
X162915523Y-147431880D01*
X163701714Y-148925642D02*
X163780333Y-149004261D01*
X163701714Y-149082880D01*
X163623095Y-149004261D01*
X163701714Y-148925642D01*
X163701714Y-149082880D01*
X164409285Y-149004261D02*
X164645142Y-149082880D01*
X165038238Y-149082880D01*
X165195476Y-149004261D01*
X165274095Y-148925642D01*
X165352714Y-148768404D01*
X165352714Y-148611166D01*
X165274095Y-148453928D01*
X165195476Y-148375309D01*
X165038238Y-148296690D01*
X164723761Y-148218071D01*
X164566523Y-148139452D01*
X164487904Y-148060833D01*
X164409285Y-147903595D01*
X164409285Y-147746357D01*
X164487904Y-147589119D01*
X164566523Y-147510500D01*
X164723761Y-147431880D01*
X165116857Y-147431880D01*
X165352714Y-147510500D01*
X166060285Y-148925642D02*
X166138904Y-149004261D01*
X166060285Y-149082880D01*
X165981666Y-149004261D01*
X166060285Y-148925642D01*
X166060285Y-149082880D01*
X168104380Y-149082880D02*
X168104380Y-147431880D01*
X169047809Y-149082880D01*
X169047809Y-147431880D01*
X169755380Y-148611166D02*
X170541571Y-148611166D01*
X169598142Y-149082880D02*
X170148476Y-147431880D01*
X170698809Y-149082880D01*
X171013285Y-147431880D02*
X171563619Y-149082880D01*
X172113952Y-147431880D01*
X172585666Y-148611166D02*
X173371857Y-148611166D01*
X172428428Y-149082880D02*
X172978761Y-147431880D01*
X173529095Y-149082880D01*
X174865619Y-149082880D02*
X174079428Y-149082880D01*
X174079428Y-147431880D01*
X177617285Y-149082880D02*
X177066952Y-148296690D01*
X176673857Y-149082880D02*
X176673857Y-147431880D01*
X177302809Y-147431880D01*
X177460047Y-147510500D01*
X177538666Y-147589119D01*
X177617285Y-147746357D01*
X177617285Y-147982214D01*
X177538666Y-148139452D01*
X177460047Y-148218071D01*
X177302809Y-148296690D01*
X176673857Y-148296690D01*
X178324857Y-148218071D02*
X178875190Y-148218071D01*
X179111047Y-149082880D02*
X178324857Y-149082880D01*
X178324857Y-147431880D01*
X179111047Y-147431880D01*
X179740000Y-149004261D02*
X179975857Y-149082880D01*
X180368952Y-149082880D01*
X180526190Y-149004261D01*
X180604809Y-148925642D01*
X180683428Y-148768404D01*
X180683428Y-148611166D01*
X180604809Y-148453928D01*
X180526190Y-148375309D01*
X180368952Y-148296690D01*
X180054476Y-148218071D01*
X179897238Y-148139452D01*
X179818619Y-148060833D01*
X179740000Y-147903595D01*
X179740000Y-147746357D01*
X179818619Y-147589119D01*
X179897238Y-147510500D01*
X180054476Y-147431880D01*
X180447571Y-147431880D01*
X180683428Y-147510500D01*
X181391000Y-148218071D02*
X181941333Y-148218071D01*
X182177190Y-149082880D02*
X181391000Y-149082880D01*
X181391000Y-147431880D01*
X182177190Y-147431880D01*
X182806142Y-148611166D02*
X183592333Y-148611166D01*
X182648904Y-149082880D02*
X183199238Y-147431880D01*
X183749571Y-149082880D01*
X185243333Y-149082880D02*
X184693000Y-148296690D01*
X184299904Y-149082880D02*
X184299904Y-147431880D01*
X184928857Y-147431880D01*
X185086095Y-147510500D01*
X185164714Y-147589119D01*
X185243333Y-147746357D01*
X185243333Y-147982214D01*
X185164714Y-148139452D01*
X185086095Y-148218071D01*
X184928857Y-148296690D01*
X184299904Y-148296690D01*
X186894333Y-148925642D02*
X186815714Y-149004261D01*
X186579857Y-149082880D01*
X186422619Y-149082880D01*
X186186761Y-149004261D01*
X186029523Y-148847023D01*
X185950904Y-148689785D01*
X185872285Y-148375309D01*
X185872285Y-148139452D01*
X185950904Y-147824976D01*
X186029523Y-147667738D01*
X186186761Y-147510500D01*
X186422619Y-147431880D01*
X186579857Y-147431880D01*
X186815714Y-147510500D01*
X186894333Y-147589119D01*
X187601904Y-149082880D02*
X187601904Y-147431880D01*
X187601904Y-148218071D02*
X188545333Y-148218071D01*
X188545333Y-149082880D02*
X188545333Y-147431880D01*
X191375619Y-149082880D02*
X190589428Y-149082880D01*
X190589428Y-147431880D01*
X191847333Y-148611166D02*
X192633523Y-148611166D01*
X191690095Y-149082880D02*
X192240428Y-147431880D01*
X192790761Y-149082880D01*
X193891428Y-148218071D02*
X194127285Y-148296690D01*
X194205904Y-148375309D01*
X194284523Y-148532547D01*
X194284523Y-148768404D01*
X194205904Y-148925642D01*
X194127285Y-149004261D01*
X193970047Y-149082880D01*
X193341095Y-149082880D01*
X193341095Y-147431880D01*
X193891428Y-147431880D01*
X194048666Y-147510500D01*
X194127285Y-147589119D01*
X194205904Y-147746357D01*
X194205904Y-147903595D01*
X194127285Y-148060833D01*
X194048666Y-148139452D01*
X193891428Y-148218071D01*
X193341095Y-148218071D01*
X108048285Y-57367714D02*
X108145047Y-57464476D01*
X108048285Y-57561238D01*
X107951523Y-57464476D01*
X108048285Y-57367714D01*
X108048285Y-57561238D01*
X108048285Y-56787142D02*
X107951523Y-55626000D01*
X108048285Y-55529238D01*
X108145047Y-55626000D01*
X108048285Y-56787142D01*
X108048285Y-55529238D01*
X109015904Y-57367714D02*
X109112666Y-57464476D01*
X109015904Y-57561238D01*
X108919142Y-57464476D01*
X109015904Y-57367714D01*
X109015904Y-57561238D01*
X109015904Y-56787142D02*
X108919142Y-55626000D01*
X109015904Y-55529238D01*
X109112666Y-55626000D01*
X109015904Y-56787142D01*
X109015904Y-55529238D01*
X111434952Y-56980666D02*
X112402571Y-56980666D01*
X111241428Y-57561238D02*
X111918761Y-55529238D01*
X112596095Y-57561238D01*
X112983142Y-55529238D02*
X114144285Y-55529238D01*
X113563714Y-57561238D02*
X113563714Y-55529238D01*
X114531333Y-55529238D02*
X115692476Y-55529238D01*
X115111904Y-57561238D02*
X115111904Y-55529238D01*
X116369809Y-56496857D02*
X117047142Y-56496857D01*
X117337428Y-57561238D02*
X116369809Y-57561238D01*
X116369809Y-55529238D01*
X117337428Y-55529238D01*
X118208285Y-57561238D02*
X118208285Y-55529238D01*
X119369428Y-57561238D01*
X119369428Y-55529238D01*
X120046761Y-55529238D02*
X121207904Y-55529238D01*
X120627333Y-57561238D02*
X120627333Y-55529238D01*
X121885238Y-57561238D02*
X121885238Y-55529238D01*
X123239904Y-55529238D02*
X123626952Y-55529238D01*
X123820476Y-55626000D01*
X124014000Y-55819523D01*
X124110761Y-56206571D01*
X124110761Y-56883904D01*
X124014000Y-57270952D01*
X123820476Y-57464476D01*
X123626952Y-57561238D01*
X123239904Y-57561238D01*
X123046380Y-57464476D01*
X122852857Y-57270952D01*
X122756095Y-56883904D01*
X122756095Y-56206571D01*
X122852857Y-55819523D01*
X123046380Y-55626000D01*
X123239904Y-55529238D01*
X124981619Y-57561238D02*
X124981619Y-55529238D01*
X126142761Y-57561238D01*
X126142761Y-55529238D01*
X128658571Y-57367714D02*
X128755333Y-57464476D01*
X128658571Y-57561238D01*
X128561809Y-57464476D01*
X128658571Y-57367714D01*
X128658571Y-57561238D01*
X128658571Y-56787142D02*
X128561809Y-55626000D01*
X128658571Y-55529238D01*
X128755333Y-55626000D01*
X128658571Y-56787142D01*
X128658571Y-55529238D01*
X129626190Y-57367714D02*
X129722952Y-57464476D01*
X129626190Y-57561238D01*
X129529428Y-57464476D01*
X129626190Y-57367714D01*
X129626190Y-57561238D01*
X129626190Y-56787142D02*
X129529428Y-55626000D01*
X129626190Y-55529238D01*
X129722952Y-55626000D01*
X129626190Y-56787142D01*
X129626190Y-55529238D01*
D11*
G04 #@! TO.C,D1*
X170025021Y-117756678D02*
X169126995Y-116858652D01*
X169340811Y-116644836D01*
X169511863Y-116559310D01*
X169682916Y-116559310D01*
X169811205Y-116602073D01*
X170025021Y-116730363D01*
X170153310Y-116858652D01*
X170281600Y-117072468D01*
X170324363Y-117200757D01*
X170324363Y-117371809D01*
X170238836Y-117542862D01*
X170025021Y-117756678D01*
X171393441Y-116388258D02*
X170880283Y-116901415D01*
X171136862Y-116644836D02*
X170238836Y-115746811D01*
X170281600Y-115960626D01*
X170281600Y-116131679D01*
X170238836Y-116259968D01*
G04 #@! TO.C,D8*
X111395957Y-83676671D02*
X111395957Y-82533671D01*
X111668100Y-82533671D01*
X111831385Y-82588100D01*
X111940242Y-82696957D01*
X111994671Y-82805814D01*
X112049100Y-83023528D01*
X112049100Y-83186814D01*
X111994671Y-83404528D01*
X111940242Y-83513385D01*
X111831385Y-83622242D01*
X111668100Y-83676671D01*
X111395957Y-83676671D01*
X112702242Y-83023528D02*
X112593385Y-82969100D01*
X112538957Y-82914671D01*
X112484528Y-82805814D01*
X112484528Y-82751385D01*
X112538957Y-82642528D01*
X112593385Y-82588100D01*
X112702242Y-82533671D01*
X112919957Y-82533671D01*
X113028814Y-82588100D01*
X113083242Y-82642528D01*
X113137671Y-82751385D01*
X113137671Y-82805814D01*
X113083242Y-82914671D01*
X113028814Y-82969100D01*
X112919957Y-83023528D01*
X112702242Y-83023528D01*
X112593385Y-83077957D01*
X112538957Y-83132385D01*
X112484528Y-83241242D01*
X112484528Y-83458957D01*
X112538957Y-83567814D01*
X112593385Y-83622242D01*
X112702242Y-83676671D01*
X112919957Y-83676671D01*
X113028814Y-83622242D01*
X113083242Y-83567814D01*
X113137671Y-83458957D01*
X113137671Y-83241242D01*
X113083242Y-83132385D01*
X113028814Y-83077957D01*
X112919957Y-83023528D01*
G04 #@! TO.C,FB2*
X156433251Y-105278236D02*
X156197549Y-105042534D01*
X155827160Y-105412923D02*
X156534267Y-104705816D01*
X156870984Y-105042534D01*
X157039343Y-105884328D02*
X157106687Y-106019015D01*
X157106687Y-106086358D01*
X157073015Y-106187374D01*
X156972000Y-106288389D01*
X156870984Y-106322061D01*
X156803641Y-106322061D01*
X156702625Y-106288389D01*
X156433251Y-106019015D01*
X157140358Y-105311908D01*
X157376061Y-105547610D01*
X157409732Y-105648625D01*
X157409732Y-105715969D01*
X157376061Y-105816984D01*
X157308717Y-105884328D01*
X157207702Y-105917999D01*
X157140358Y-105918000D01*
X157039343Y-105884328D01*
X156803641Y-105648625D01*
X157746450Y-106052687D02*
X157813793Y-106052687D01*
X157914809Y-106086358D01*
X158083167Y-106254717D01*
X158116839Y-106355732D01*
X158116839Y-106423076D01*
X158083167Y-106524091D01*
X158015824Y-106591435D01*
X157881137Y-106658778D01*
X157073015Y-106658778D01*
X157510748Y-107096511D01*
G04 #@! TO.C,H1*
X139427857Y-93145428D02*
X139427857Y-91621428D01*
X139427857Y-92347142D02*
X140298714Y-92347142D01*
X140298714Y-93145428D02*
X140298714Y-91621428D01*
X141822714Y-93145428D02*
X140951857Y-93145428D01*
X141387285Y-93145428D02*
X141387285Y-91621428D01*
X141242142Y-91839142D01*
X141097000Y-91984285D01*
X140951857Y-92056857D01*
G04 #@! TO.C,L1*
X131439067Y-112165230D02*
X131102349Y-111828512D01*
X131809456Y-111121406D01*
X132045158Y-112771322D02*
X131641097Y-112367261D01*
X131843128Y-112569291D02*
X132550235Y-111862184D01*
X132381876Y-111895856D01*
X132247189Y-111895856D01*
X132146174Y-111862184D01*
G04 #@! TO.C,L2*
X160882430Y-112324731D02*
X160545712Y-112661449D01*
X159838606Y-111954342D01*
X160444697Y-111482937D02*
X160444697Y-111415594D01*
X160478369Y-111314579D01*
X160646728Y-111146220D01*
X160747743Y-111112548D01*
X160815087Y-111112548D01*
X160916102Y-111146220D01*
X160983445Y-111213563D01*
X161050789Y-111348250D01*
X161050789Y-112156373D01*
X161488522Y-111718640D01*
G04 #@! TO.C,U1*
X133230257Y-93526428D02*
X133230257Y-94760142D01*
X133302828Y-94905285D01*
X133375400Y-94977857D01*
X133520542Y-95050428D01*
X133810828Y-95050428D01*
X133955971Y-94977857D01*
X134028542Y-94905285D01*
X134101114Y-94760142D01*
X134101114Y-93526428D01*
X135625114Y-95050428D02*
X134754257Y-95050428D01*
X135189685Y-95050428D02*
X135189685Y-93526428D01*
X135044542Y-93744142D01*
X134899400Y-93889285D01*
X134754257Y-93961857D01*
G04 #@! TO.C,U4*
X139373428Y-79139142D02*
X140607142Y-79139142D01*
X140752285Y-79066571D01*
X140824857Y-78994000D01*
X140897428Y-78848857D01*
X140897428Y-78558571D01*
X140824857Y-78413428D01*
X140752285Y-78340857D01*
X140607142Y-78268285D01*
X139373428Y-78268285D01*
X139881428Y-76889428D02*
X140897428Y-76889428D01*
X139300857Y-77252285D02*
X140389428Y-77615142D01*
X140389428Y-76671714D01*
G04 #@! TO.C,JP2*
X120069428Y-101346000D02*
X121158000Y-101346000D01*
X121375714Y-101418571D01*
X121520857Y-101563714D01*
X121593428Y-101781428D01*
X121593428Y-101926571D01*
X121593428Y-100620285D02*
X120069428Y-100620285D01*
X120069428Y-100039714D01*
X120142000Y-99894571D01*
X120214571Y-99822000D01*
X120359714Y-99749428D01*
X120577428Y-99749428D01*
X120722571Y-99822000D01*
X120795142Y-99894571D01*
X120867714Y-100039714D01*
X120867714Y-100620285D01*
X120214571Y-99168857D02*
X120142000Y-99096285D01*
X120069428Y-98951142D01*
X120069428Y-98588285D01*
X120142000Y-98443142D01*
X120214571Y-98370571D01*
X120359714Y-98298000D01*
X120504857Y-98298000D01*
X120722571Y-98370571D01*
X121593428Y-99241428D01*
X121593428Y-98298000D01*
G04 #@! TO.C,L4*
X137497345Y-71064380D02*
X137021154Y-71064380D01*
X137021154Y-70064380D01*
X138259250Y-70397714D02*
X138259250Y-71064380D01*
X138021154Y-70016761D02*
X137783059Y-70731047D01*
X138402107Y-70731047D01*
G04 #@! TO.C,FB3*
X141837666Y-71430571D02*
X141504333Y-71430571D01*
X141504333Y-71954380D02*
X141504333Y-70954380D01*
X141980523Y-70954380D01*
X142694809Y-71430571D02*
X142837666Y-71478190D01*
X142885285Y-71525809D01*
X142932904Y-71621047D01*
X142932904Y-71763904D01*
X142885285Y-71859142D01*
X142837666Y-71906761D01*
X142742428Y-71954380D01*
X142361476Y-71954380D01*
X142361476Y-70954380D01*
X142694809Y-70954380D01*
X142790047Y-71002000D01*
X142837666Y-71049619D01*
X142885285Y-71144857D01*
X142885285Y-71240095D01*
X142837666Y-71335333D01*
X142790047Y-71382952D01*
X142694809Y-71430571D01*
X142361476Y-71430571D01*
X143266238Y-70954380D02*
X143885285Y-70954380D01*
X143551952Y-71335333D01*
X143694809Y-71335333D01*
X143790047Y-71382952D01*
X143837666Y-71430571D01*
X143885285Y-71525809D01*
X143885285Y-71763904D01*
X143837666Y-71859142D01*
X143790047Y-71906761D01*
X143694809Y-71954380D01*
X143409095Y-71954380D01*
X143313857Y-71906761D01*
X143266238Y-71859142D01*
G04 #@! TO.C,L3*
X172117526Y-84385029D02*
X172454244Y-84721747D01*
X171747137Y-85428853D01*
X171242061Y-84923777D02*
X170804328Y-84486044D01*
X171309404Y-84452372D01*
X171208389Y-84351357D01*
X171174717Y-84250342D01*
X171174717Y-84182998D01*
X171208389Y-84081983D01*
X171376748Y-83913624D01*
X171477763Y-83879953D01*
X171545106Y-83879953D01*
X171646122Y-83913624D01*
X171848152Y-84115655D01*
X171881824Y-84216670D01*
X171881824Y-84284014D01*
G04 #@! TO.C,GDT1*
X157234122Y-69551646D02*
X157080175Y-69602962D01*
X156926227Y-69756909D01*
X156823596Y-69962172D01*
X156823596Y-70167435D01*
X156874912Y-70321383D01*
X157028859Y-70577961D01*
X157182806Y-70731909D01*
X157439385Y-70885856D01*
X157593332Y-70937172D01*
X157798595Y-70937172D01*
X158003858Y-70834540D01*
X158106490Y-70731909D01*
X158209121Y-70526646D01*
X158209121Y-70424014D01*
X157849911Y-70064804D01*
X157644648Y-70270067D01*
X158773594Y-70064804D02*
X157695964Y-68987173D01*
X157952542Y-68730594D01*
X158157805Y-68627963D01*
X158363068Y-68627963D01*
X158517016Y-68679279D01*
X158773594Y-68833226D01*
X158927542Y-68987173D01*
X159081489Y-69243752D01*
X159132805Y-69397699D01*
X159132805Y-69602962D01*
X159030173Y-69808225D01*
X158773594Y-70064804D01*
X158619647Y-68063490D02*
X159235436Y-67447701D01*
X160005172Y-68833226D02*
X158927542Y-67755595D01*
X161236750Y-67601648D02*
X160620961Y-68217437D01*
X160928856Y-67909542D02*
X159851225Y-66831912D01*
X159902541Y-67088490D01*
X159902541Y-67293753D01*
X159851225Y-67447701D01*
G04 #@! TO.C,FB1*
X134937156Y-106468376D02*
X134701454Y-106704078D01*
X135071843Y-107074467D02*
X134364736Y-106367360D01*
X134701454Y-106030643D01*
X135543248Y-105862284D02*
X135677935Y-105794940D01*
X135745278Y-105794940D01*
X135846294Y-105828612D01*
X135947309Y-105929628D01*
X135980981Y-106030643D01*
X135980981Y-106097986D01*
X135947309Y-106199002D01*
X135677935Y-106468376D01*
X134970828Y-105761269D01*
X135206530Y-105525566D01*
X135307545Y-105491895D01*
X135374889Y-105491895D01*
X135475904Y-105525566D01*
X135543248Y-105592910D01*
X135576920Y-105693925D01*
X135576920Y-105761269D01*
X135543248Y-105862284D01*
X135307545Y-106097986D01*
X136755431Y-105390879D02*
X136351370Y-105794940D01*
X136553400Y-105592910D02*
X135846294Y-104885803D01*
X135879965Y-105054162D01*
X135879965Y-105188849D01*
X135846294Y-105289864D01*
G04 #@! TO.C,C2*
X129547687Y-107939389D02*
X129547687Y-108006732D01*
X129480343Y-108141419D01*
X129413000Y-108208763D01*
X129278312Y-108276106D01*
X129143625Y-108276106D01*
X129042610Y-108242435D01*
X128874251Y-108141419D01*
X128773236Y-108040404D01*
X128672221Y-107872045D01*
X128638549Y-107771030D01*
X128638549Y-107636343D01*
X128705893Y-107501656D01*
X128773236Y-107434312D01*
X128907923Y-107366969D01*
X128975267Y-107366969D01*
X129244641Y-107097595D02*
X129244641Y-107030251D01*
X129278312Y-106929236D01*
X129446671Y-106760877D01*
X129547687Y-106727206D01*
X129615030Y-106727206D01*
X129716045Y-106760877D01*
X129783389Y-106828221D01*
X129850732Y-106962908D01*
X129850732Y-107771030D01*
X130288465Y-107333297D01*
G04 #@! TO.C,C3*
X162929487Y-107647680D02*
X162862144Y-107647680D01*
X162727457Y-107580336D01*
X162660113Y-107512993D01*
X162592770Y-107378305D01*
X162592770Y-107243618D01*
X162626441Y-107142603D01*
X162727457Y-106974244D01*
X162828472Y-106873229D01*
X162996831Y-106772214D01*
X163097846Y-106738542D01*
X163232533Y-106738542D01*
X163367220Y-106805886D01*
X163434564Y-106873229D01*
X163501907Y-107007916D01*
X163501907Y-107075260D01*
X163804953Y-107243618D02*
X164242686Y-107681351D01*
X163737609Y-107715023D01*
X163838625Y-107816038D01*
X163872296Y-107917054D01*
X163872296Y-107984397D01*
X163838625Y-108085412D01*
X163670266Y-108253771D01*
X163569251Y-108287443D01*
X163501907Y-108287443D01*
X163400892Y-108253771D01*
X163198861Y-108051741D01*
X163165189Y-107950725D01*
X163165189Y-107883382D01*
G04 #@! TO.C,C5*
X140422333Y-98655142D02*
X140374714Y-98702761D01*
X140231857Y-98750380D01*
X140136619Y-98750380D01*
X139993761Y-98702761D01*
X139898523Y-98607523D01*
X139850904Y-98512285D01*
X139803285Y-98321809D01*
X139803285Y-98178952D01*
X139850904Y-97988476D01*
X139898523Y-97893238D01*
X139993761Y-97798000D01*
X140136619Y-97750380D01*
X140231857Y-97750380D01*
X140374714Y-97798000D01*
X140422333Y-97845619D01*
X141327095Y-97750380D02*
X140850904Y-97750380D01*
X140803285Y-98226571D01*
X140850904Y-98178952D01*
X140946142Y-98131333D01*
X141184238Y-98131333D01*
X141279476Y-98178952D01*
X141327095Y-98226571D01*
X141374714Y-98321809D01*
X141374714Y-98559904D01*
X141327095Y-98655142D01*
X141279476Y-98702761D01*
X141184238Y-98750380D01*
X140946142Y-98750380D01*
X140850904Y-98702761D01*
X140803285Y-98655142D01*
G04 #@! TO.C,C6*
X151855333Y-98613142D02*
X151807714Y-98660761D01*
X151664857Y-98708380D01*
X151569619Y-98708380D01*
X151426761Y-98660761D01*
X151331523Y-98565523D01*
X151283904Y-98470285D01*
X151236285Y-98279809D01*
X151236285Y-98136952D01*
X151283904Y-97946476D01*
X151331523Y-97851238D01*
X151426761Y-97756000D01*
X151569619Y-97708380D01*
X151664857Y-97708380D01*
X151807714Y-97756000D01*
X151855333Y-97803619D01*
X152712476Y-97708380D02*
X152522000Y-97708380D01*
X152426761Y-97756000D01*
X152379142Y-97803619D01*
X152283904Y-97946476D01*
X152236285Y-98136952D01*
X152236285Y-98517904D01*
X152283904Y-98613142D01*
X152331523Y-98660761D01*
X152426761Y-98708380D01*
X152617238Y-98708380D01*
X152712476Y-98660761D01*
X152760095Y-98613142D01*
X152807714Y-98517904D01*
X152807714Y-98279809D01*
X152760095Y-98184571D01*
X152712476Y-98136952D01*
X152617238Y-98089333D01*
X152426761Y-98089333D01*
X152331523Y-98136952D01*
X152283904Y-98184571D01*
X152236285Y-98279809D01*
G04 #@! TO.C,C7*
X164301330Y-98613142D02*
X164253711Y-98660761D01*
X164110854Y-98708380D01*
X164015616Y-98708380D01*
X163872758Y-98660761D01*
X163777520Y-98565523D01*
X163729901Y-98470285D01*
X163682282Y-98279809D01*
X163682282Y-98136952D01*
X163729901Y-97946476D01*
X163777520Y-97851238D01*
X163872758Y-97756000D01*
X164015616Y-97708380D01*
X164110854Y-97708380D01*
X164253711Y-97756000D01*
X164301330Y-97803619D01*
X164634663Y-97708380D02*
X165301330Y-97708380D01*
X164872758Y-98708380D01*
G04 #@! TO.C,C8*
X150164833Y-71731142D02*
X150117214Y-71778761D01*
X149974357Y-71826380D01*
X149879119Y-71826380D01*
X149736261Y-71778761D01*
X149641023Y-71683523D01*
X149593404Y-71588285D01*
X149545785Y-71397809D01*
X149545785Y-71254952D01*
X149593404Y-71064476D01*
X149641023Y-70969238D01*
X149736261Y-70874000D01*
X149879119Y-70826380D01*
X149974357Y-70826380D01*
X150117214Y-70874000D01*
X150164833Y-70921619D01*
X150736261Y-71254952D02*
X150641023Y-71207333D01*
X150593404Y-71159714D01*
X150545785Y-71064476D01*
X150545785Y-71016857D01*
X150593404Y-70921619D01*
X150641023Y-70874000D01*
X150736261Y-70826380D01*
X150926738Y-70826380D01*
X151021976Y-70874000D01*
X151069595Y-70921619D01*
X151117214Y-71016857D01*
X151117214Y-71064476D01*
X151069595Y-71159714D01*
X151021976Y-71207333D01*
X150926738Y-71254952D01*
X150736261Y-71254952D01*
X150641023Y-71302571D01*
X150593404Y-71350190D01*
X150545785Y-71445428D01*
X150545785Y-71635904D01*
X150593404Y-71731142D01*
X150641023Y-71778761D01*
X150736261Y-71826380D01*
X150926738Y-71826380D01*
X151021976Y-71778761D01*
X151069595Y-71731142D01*
X151117214Y-71635904D01*
X151117214Y-71445428D01*
X151069595Y-71350190D01*
X151021976Y-71302571D01*
X150926738Y-71254952D01*
G04 #@! TO.C,C9*
X129347142Y-81407166D02*
X129394761Y-81454785D01*
X129442380Y-81597642D01*
X129442380Y-81692880D01*
X129394761Y-81835738D01*
X129299523Y-81930976D01*
X129204285Y-81978595D01*
X129013809Y-82026214D01*
X128870952Y-82026214D01*
X128680476Y-81978595D01*
X128585238Y-81930976D01*
X128490000Y-81835738D01*
X128442380Y-81692880D01*
X128442380Y-81597642D01*
X128490000Y-81454785D01*
X128537619Y-81407166D01*
X129442380Y-80930976D02*
X129442380Y-80740500D01*
X129394761Y-80645261D01*
X129347142Y-80597642D01*
X129204285Y-80502404D01*
X129013809Y-80454785D01*
X128632857Y-80454785D01*
X128537619Y-80502404D01*
X128490000Y-80550023D01*
X128442380Y-80645261D01*
X128442380Y-80835738D01*
X128490000Y-80930976D01*
X128537619Y-80978595D01*
X128632857Y-81026214D01*
X128870952Y-81026214D01*
X128966190Y-80978595D01*
X129013809Y-80930976D01*
X129061428Y-80835738D01*
X129061428Y-80645261D01*
X129013809Y-80550023D01*
X128966190Y-80502404D01*
X128870952Y-80454785D01*
G04 #@! TO.C,C11*
X149688642Y-78801142D02*
X149641023Y-78848761D01*
X149498166Y-78896380D01*
X149402928Y-78896380D01*
X149260071Y-78848761D01*
X149164833Y-78753523D01*
X149117214Y-78658285D01*
X149069595Y-78467809D01*
X149069595Y-78324952D01*
X149117214Y-78134476D01*
X149164833Y-78039238D01*
X149260071Y-77944000D01*
X149402928Y-77896380D01*
X149498166Y-77896380D01*
X149641023Y-77944000D01*
X149688642Y-77991619D01*
X150641023Y-78896380D02*
X150069595Y-78896380D01*
X150355309Y-78896380D02*
X150355309Y-77896380D01*
X150260071Y-78039238D01*
X150164833Y-78134476D01*
X150069595Y-78182095D01*
X151593404Y-78896380D02*
X151021976Y-78896380D01*
X151307690Y-78896380D02*
X151307690Y-77896380D01*
X151212452Y-78039238D01*
X151117214Y-78134476D01*
X151021976Y-78182095D01*
G04 #@! TO.C,C12*
X166727142Y-93479857D02*
X166774761Y-93527476D01*
X166822380Y-93670333D01*
X166822380Y-93765571D01*
X166774761Y-93908428D01*
X166679523Y-94003666D01*
X166584285Y-94051285D01*
X166393809Y-94098904D01*
X166250952Y-94098904D01*
X166060476Y-94051285D01*
X165965238Y-94003666D01*
X165870000Y-93908428D01*
X165822380Y-93765571D01*
X165822380Y-93670333D01*
X165870000Y-93527476D01*
X165917619Y-93479857D01*
X166822380Y-92527476D02*
X166822380Y-93098904D01*
X166822380Y-92813190D02*
X165822380Y-92813190D01*
X165965238Y-92908428D01*
X166060476Y-93003666D01*
X166108095Y-93098904D01*
X165917619Y-92146523D02*
X165870000Y-92098904D01*
X165822380Y-92003666D01*
X165822380Y-91765571D01*
X165870000Y-91670333D01*
X165917619Y-91622714D01*
X166012857Y-91575095D01*
X166108095Y-91575095D01*
X166250952Y-91622714D01*
X166822380Y-92194142D01*
X166822380Y-91575095D01*
G04 #@! TO.C,C13*
X177561142Y-93498857D02*
X177608761Y-93546476D01*
X177656380Y-93689333D01*
X177656380Y-93784571D01*
X177608761Y-93927428D01*
X177513523Y-94022666D01*
X177418285Y-94070285D01*
X177227809Y-94117904D01*
X177084952Y-94117904D01*
X176894476Y-94070285D01*
X176799238Y-94022666D01*
X176704000Y-93927428D01*
X176656380Y-93784571D01*
X176656380Y-93689333D01*
X176704000Y-93546476D01*
X176751619Y-93498857D01*
X177656380Y-92546476D02*
X177656380Y-93117904D01*
X177656380Y-92832190D02*
X176656380Y-92832190D01*
X176799238Y-92927428D01*
X176894476Y-93022666D01*
X176942095Y-93117904D01*
X176656380Y-92213142D02*
X176656380Y-91594095D01*
X177037333Y-91927428D01*
X177037333Y-91784571D01*
X177084952Y-91689333D01*
X177132571Y-91641714D01*
X177227809Y-91594095D01*
X177465904Y-91594095D01*
X177561142Y-91641714D01*
X177608761Y-91689333D01*
X177656380Y-91784571D01*
X177656380Y-92070285D01*
X177608761Y-92165523D01*
X177561142Y-92213142D01*
G04 #@! TO.C,C15*
X115800142Y-93984857D02*
X115847761Y-94032476D01*
X115895380Y-94175333D01*
X115895380Y-94270571D01*
X115847761Y-94413428D01*
X115752523Y-94508666D01*
X115657285Y-94556285D01*
X115466809Y-94603904D01*
X115323952Y-94603904D01*
X115133476Y-94556285D01*
X115038238Y-94508666D01*
X114943000Y-94413428D01*
X114895380Y-94270571D01*
X114895380Y-94175333D01*
X114943000Y-94032476D01*
X114990619Y-93984857D01*
X115895380Y-93032476D02*
X115895380Y-93603904D01*
X115895380Y-93318190D02*
X114895380Y-93318190D01*
X115038238Y-93413428D01*
X115133476Y-93508666D01*
X115181095Y-93603904D01*
X114895380Y-92127714D02*
X114895380Y-92603904D01*
X115371571Y-92651523D01*
X115323952Y-92603904D01*
X115276333Y-92508666D01*
X115276333Y-92270571D01*
X115323952Y-92175333D01*
X115371571Y-92127714D01*
X115466809Y-92080095D01*
X115704904Y-92080095D01*
X115800142Y-92127714D01*
X115847761Y-92175333D01*
X115895380Y-92270571D01*
X115895380Y-92508666D01*
X115847761Y-92603904D01*
X115800142Y-92651523D01*
G04 #@! TO.C,R1*
X138325649Y-114806963D02*
X137753229Y-114705948D01*
X137921588Y-115211024D02*
X137214481Y-114503918D01*
X137483855Y-114234543D01*
X137584870Y-114200872D01*
X137652214Y-114200872D01*
X137753229Y-114234543D01*
X137854244Y-114335559D01*
X137887916Y-114436574D01*
X137887916Y-114503918D01*
X137854244Y-114604933D01*
X137584870Y-114874307D01*
X138999084Y-114133528D02*
X138595023Y-114537589D01*
X138797054Y-114335559D02*
X138089947Y-113628452D01*
X138123619Y-113796811D01*
X138123619Y-113931498D01*
X138089947Y-114032513D01*
G04 #@! TO.C,R6*
X133945333Y-87701380D02*
X133612000Y-87225190D01*
X133373904Y-87701380D02*
X133373904Y-86701380D01*
X133754857Y-86701380D01*
X133850095Y-86749000D01*
X133897714Y-86796619D01*
X133945333Y-86891857D01*
X133945333Y-87034714D01*
X133897714Y-87129952D01*
X133850095Y-87177571D01*
X133754857Y-87225190D01*
X133373904Y-87225190D01*
X134802476Y-86701380D02*
X134612000Y-86701380D01*
X134516761Y-86749000D01*
X134469142Y-86796619D01*
X134373904Y-86939476D01*
X134326285Y-87129952D01*
X134326285Y-87510904D01*
X134373904Y-87606142D01*
X134421523Y-87653761D01*
X134516761Y-87701380D01*
X134707238Y-87701380D01*
X134802476Y-87653761D01*
X134850095Y-87606142D01*
X134897714Y-87510904D01*
X134897714Y-87272809D01*
X134850095Y-87177571D01*
X134802476Y-87129952D01*
X134707238Y-87082333D01*
X134516761Y-87082333D01*
X134421523Y-87129952D01*
X134373904Y-87177571D01*
X134326285Y-87272809D01*
G04 #@! TO.C,R2*
X153867267Y-114756030D02*
X153968282Y-114183610D01*
X153463206Y-114351969D02*
X154170312Y-113644862D01*
X154439687Y-113914236D01*
X154473358Y-114015251D01*
X154473358Y-114082595D01*
X154439687Y-114183610D01*
X154338671Y-114284625D01*
X154237656Y-114318297D01*
X154170312Y-114318297D01*
X154069297Y-114284625D01*
X153799923Y-114015251D01*
X154776404Y-114385641D02*
X154843748Y-114385641D01*
X154944763Y-114419312D01*
X155113122Y-114587671D01*
X155146793Y-114688687D01*
X155146793Y-114756030D01*
X155113122Y-114857045D01*
X155045778Y-114924389D01*
X154911091Y-114991732D01*
X154102969Y-114991732D01*
X154540702Y-115429465D01*
G04 #@! TO.C,L6*
X151852333Y-92654380D02*
X151376142Y-92654380D01*
X151376142Y-91654380D01*
X152614238Y-91654380D02*
X152423761Y-91654380D01*
X152328523Y-91702000D01*
X152280904Y-91749619D01*
X152185666Y-91892476D01*
X152138047Y-92082952D01*
X152138047Y-92463904D01*
X152185666Y-92559142D01*
X152233285Y-92606761D01*
X152328523Y-92654380D01*
X152519000Y-92654380D01*
X152614238Y-92606761D01*
X152661857Y-92559142D01*
X152709476Y-92463904D01*
X152709476Y-92225809D01*
X152661857Y-92130571D01*
X152614238Y-92082952D01*
X152519000Y-92035333D01*
X152328523Y-92035333D01*
X152233285Y-92082952D01*
X152185666Y-92130571D01*
X152138047Y-92225809D01*
G04 #@! TO.C,U2*
X161119457Y-101527428D02*
X161119457Y-102761142D01*
X161192028Y-102906285D01*
X161264600Y-102978857D01*
X161409742Y-103051428D01*
X161700028Y-103051428D01*
X161845171Y-102978857D01*
X161917742Y-102906285D01*
X161990314Y-102761142D01*
X161990314Y-101527428D01*
X162643457Y-101672571D02*
X162716028Y-101600000D01*
X162861171Y-101527428D01*
X163224028Y-101527428D01*
X163369171Y-101600000D01*
X163441742Y-101672571D01*
X163514314Y-101817714D01*
X163514314Y-101962857D01*
X163441742Y-102180571D01*
X162570885Y-103051428D01*
X163514314Y-103051428D01*
G04 #@! TO.C,C4*
X128060833Y-98655142D02*
X128013214Y-98702761D01*
X127870357Y-98750380D01*
X127775119Y-98750380D01*
X127632261Y-98702761D01*
X127537023Y-98607523D01*
X127489404Y-98512285D01*
X127441785Y-98321809D01*
X127441785Y-98178952D01*
X127489404Y-97988476D01*
X127537023Y-97893238D01*
X127632261Y-97798000D01*
X127775119Y-97750380D01*
X127870357Y-97750380D01*
X128013214Y-97798000D01*
X128060833Y-97845619D01*
X128917976Y-98083714D02*
X128917976Y-98750380D01*
X128679880Y-97702761D02*
X128441785Y-98417047D01*
X129060833Y-98417047D01*
G04 #@! TO.C,C19*
X158677893Y-74346969D02*
X158610549Y-74346969D01*
X158475862Y-74279625D01*
X158408519Y-74212282D01*
X158341175Y-74077595D01*
X158341175Y-73942908D01*
X158374847Y-73841893D01*
X158475862Y-73673534D01*
X158576877Y-73572519D01*
X158745236Y-73471503D01*
X158846251Y-73437832D01*
X158980938Y-73437832D01*
X159115625Y-73505175D01*
X159182969Y-73572519D01*
X159250312Y-73707206D01*
X159250312Y-73774549D01*
X159283984Y-75087748D02*
X158879923Y-74683687D01*
X159081954Y-74885717D02*
X159789061Y-74178610D01*
X159620702Y-74212282D01*
X159486015Y-74212282D01*
X159385000Y-74178610D01*
X159620702Y-75424465D02*
X159755389Y-75559152D01*
X159856404Y-75592824D01*
X159923748Y-75592824D01*
X160092106Y-75559152D01*
X160260465Y-75458137D01*
X160529839Y-75188763D01*
X160563511Y-75087748D01*
X160563511Y-75020404D01*
X160529839Y-74919389D01*
X160395152Y-74784702D01*
X160294137Y-74751030D01*
X160226793Y-74751030D01*
X160125778Y-74784702D01*
X159957419Y-74953061D01*
X159923748Y-75054076D01*
X159923748Y-75121419D01*
X159957419Y-75222435D01*
X160092106Y-75357122D01*
X160193122Y-75390793D01*
X160260465Y-75390793D01*
X160361480Y-75357122D01*
G04 #@! TO.C,C14*
X160631142Y-89956667D02*
X160678761Y-90004286D01*
X160726380Y-90147143D01*
X160726380Y-90242381D01*
X160678761Y-90385238D01*
X160583523Y-90480476D01*
X160488285Y-90528095D01*
X160297809Y-90575714D01*
X160154952Y-90575714D01*
X159964476Y-90528095D01*
X159869238Y-90480476D01*
X159774000Y-90385238D01*
X159726380Y-90242381D01*
X159726380Y-90147143D01*
X159774000Y-90004286D01*
X159821619Y-89956667D01*
X160726380Y-89004286D02*
X160726380Y-89575714D01*
X160726380Y-89290000D02*
X159726380Y-89290000D01*
X159869238Y-89385238D01*
X159964476Y-89480476D01*
X160012095Y-89575714D01*
X160059714Y-88147143D02*
X160726380Y-88147143D01*
X159678761Y-88385238D02*
X160393047Y-88623333D01*
X160393047Y-88004286D01*
G04 #@! TO.C,C17*
X154451342Y-94100857D02*
X154498961Y-94148476D01*
X154546580Y-94291333D01*
X154546580Y-94386571D01*
X154498961Y-94529428D01*
X154403723Y-94624666D01*
X154308485Y-94672285D01*
X154118009Y-94719904D01*
X153975152Y-94719904D01*
X153784676Y-94672285D01*
X153689438Y-94624666D01*
X153594200Y-94529428D01*
X153546580Y-94386571D01*
X153546580Y-94291333D01*
X153594200Y-94148476D01*
X153641819Y-94100857D01*
X154546580Y-93148476D02*
X154546580Y-93719904D01*
X154546580Y-93434190D02*
X153546580Y-93434190D01*
X153689438Y-93529428D01*
X153784676Y-93624666D01*
X153832295Y-93719904D01*
X153546580Y-92815142D02*
X153546580Y-92148476D01*
X154546580Y-92577047D01*
G04 #@! TO.C,L7*
X157576780Y-86272666D02*
X157576780Y-86748857D01*
X156576780Y-86748857D01*
X156576780Y-86034571D02*
X156576780Y-85367904D01*
X157576780Y-85796476D01*
G04 #@! TO.C,C20*
X150283942Y-85218542D02*
X150236323Y-85266161D01*
X150093466Y-85313780D01*
X149998228Y-85313780D01*
X149855371Y-85266161D01*
X149760133Y-85170923D01*
X149712514Y-85075685D01*
X149664895Y-84885209D01*
X149664895Y-84742352D01*
X149712514Y-84551876D01*
X149760133Y-84456638D01*
X149855371Y-84361400D01*
X149998228Y-84313780D01*
X150093466Y-84313780D01*
X150236323Y-84361400D01*
X150283942Y-84409019D01*
X150664895Y-84409019D02*
X150712514Y-84361400D01*
X150807752Y-84313780D01*
X151045847Y-84313780D01*
X151141085Y-84361400D01*
X151188704Y-84409019D01*
X151236323Y-84504257D01*
X151236323Y-84599495D01*
X151188704Y-84742352D01*
X150617276Y-85313780D01*
X151236323Y-85313780D01*
X151855371Y-84313780D02*
X151950609Y-84313780D01*
X152045847Y-84361400D01*
X152093466Y-84409019D01*
X152141085Y-84504257D01*
X152188704Y-84694733D01*
X152188704Y-84932828D01*
X152141085Y-85123304D01*
X152093466Y-85218542D01*
X152045847Y-85266161D01*
X151950609Y-85313780D01*
X151855371Y-85313780D01*
X151760133Y-85266161D01*
X151712514Y-85218542D01*
X151664895Y-85123304D01*
X151617276Y-84932828D01*
X151617276Y-84694733D01*
X151664895Y-84504257D01*
X151712514Y-84409019D01*
X151760133Y-84361400D01*
X151855371Y-84313780D01*
G04 #@! TO.C,R3*
X144867333Y-85415380D02*
X144534000Y-84939190D01*
X144295904Y-85415380D02*
X144295904Y-84415380D01*
X144676857Y-84415380D01*
X144772095Y-84463000D01*
X144819714Y-84510619D01*
X144867333Y-84605857D01*
X144867333Y-84748714D01*
X144819714Y-84843952D01*
X144772095Y-84891571D01*
X144676857Y-84939190D01*
X144295904Y-84939190D01*
X145200666Y-84415380D02*
X145819714Y-84415380D01*
X145486380Y-84796333D01*
X145629238Y-84796333D01*
X145724476Y-84843952D01*
X145772095Y-84891571D01*
X145819714Y-84986809D01*
X145819714Y-85224904D01*
X145772095Y-85320142D01*
X145724476Y-85367761D01*
X145629238Y-85415380D01*
X145343523Y-85415380D01*
X145248285Y-85367761D01*
X145200666Y-85320142D01*
G04 #@! TO.C,ATT1*
X153311885Y-78143100D02*
X153783600Y-78143100D01*
X153217542Y-78426128D02*
X153547742Y-77435528D01*
X153877942Y-78426128D01*
X154066628Y-77435528D02*
X154632685Y-77435528D01*
X154349657Y-78426128D02*
X154349657Y-77435528D01*
X154821371Y-77435528D02*
X155387428Y-77435528D01*
X155104400Y-78426128D02*
X155104400Y-77435528D01*
X156236514Y-78426128D02*
X155670457Y-78426128D01*
X155953485Y-78426128D02*
X155953485Y-77435528D01*
X155859142Y-77577042D01*
X155764800Y-77671385D01*
X155670457Y-77718557D01*
G04 #@! TO.C,D2*
X112647504Y-94635580D02*
X112647504Y-93635580D01*
X112885600Y-93635580D01*
X113028457Y-93683200D01*
X113123695Y-93778438D01*
X113171314Y-93873676D01*
X113218933Y-94064152D01*
X113218933Y-94207009D01*
X113171314Y-94397485D01*
X113123695Y-94492723D01*
X113028457Y-94587961D01*
X112885600Y-94635580D01*
X112647504Y-94635580D01*
X113599885Y-93730819D02*
X113647504Y-93683200D01*
X113742742Y-93635580D01*
X113980838Y-93635580D01*
X114076076Y-93683200D01*
X114123695Y-93730819D01*
X114171314Y-93826057D01*
X114171314Y-93921295D01*
X114123695Y-94064152D01*
X113552266Y-94635580D01*
X114171314Y-94635580D01*
G04 #@! TO.C,D4*
X178484304Y-94635580D02*
X178484304Y-93635580D01*
X178722400Y-93635580D01*
X178865257Y-93683200D01*
X178960495Y-93778438D01*
X179008114Y-93873676D01*
X179055733Y-94064152D01*
X179055733Y-94207009D01*
X179008114Y-94397485D01*
X178960495Y-94492723D01*
X178865257Y-94587961D01*
X178722400Y-94635580D01*
X178484304Y-94635580D01*
X179912876Y-93968914D02*
X179912876Y-94635580D01*
X179674780Y-93587961D02*
X179436685Y-94302247D01*
X180055733Y-94302247D01*
G04 #@! TO.C,D3*
X154583880Y-70223095D02*
X153583880Y-70223095D01*
X153583880Y-69985000D01*
X153631500Y-69842142D01*
X153726738Y-69746904D01*
X153821976Y-69699285D01*
X154012452Y-69651666D01*
X154155309Y-69651666D01*
X154345785Y-69699285D01*
X154441023Y-69746904D01*
X154536261Y-69842142D01*
X154583880Y-69985000D01*
X154583880Y-70223095D01*
X153583880Y-69318333D02*
X153583880Y-68699285D01*
X153964833Y-69032619D01*
X153964833Y-68889761D01*
X154012452Y-68794523D01*
X154060071Y-68746904D01*
X154155309Y-68699285D01*
X154393404Y-68699285D01*
X154488642Y-68746904D01*
X154536261Y-68794523D01*
X154583880Y-68889761D01*
X154583880Y-69175476D01*
X154536261Y-69270714D01*
X154488642Y-69318333D01*
G04 #@! TO.C,JP1*
X170869428Y-100976000D02*
X171958000Y-100976000D01*
X172175714Y-101048571D01*
X172320857Y-101193714D01*
X172393428Y-101411428D01*
X172393428Y-101556571D01*
X172393428Y-100250285D02*
X170869428Y-100250285D01*
X170869428Y-99669714D01*
X170942000Y-99524571D01*
X171014571Y-99452000D01*
X171159714Y-99379428D01*
X171377428Y-99379428D01*
X171522571Y-99452000D01*
X171595142Y-99524571D01*
X171667714Y-99669714D01*
X171667714Y-100250285D01*
X172393428Y-97928000D02*
X172393428Y-98798857D01*
X172393428Y-98363428D02*
X170869428Y-98363428D01*
X171087142Y-98508571D01*
X171232285Y-98653714D01*
X171304857Y-98798857D01*
G04 #@! TO.C,R4*
X168876917Y-75187977D02*
X168304497Y-75086962D01*
X168472856Y-75592038D02*
X167765749Y-74884932D01*
X168035123Y-74615557D01*
X168136138Y-74581886D01*
X168203482Y-74581886D01*
X168304497Y-74615557D01*
X168405512Y-74716573D01*
X168439184Y-74817588D01*
X168439184Y-74884932D01*
X168405512Y-74985947D01*
X168136138Y-75255321D01*
X169011604Y-74110481D02*
X169483009Y-74581886D01*
X168573871Y-74009466D02*
X168910589Y-74682901D01*
X169348322Y-74245168D01*
G04 #@! TO.C,L8*
X157576780Y-83224666D02*
X157576780Y-83700857D01*
X156576780Y-83700857D01*
X157005352Y-82748476D02*
X156957733Y-82843714D01*
X156910114Y-82891333D01*
X156814876Y-82938952D01*
X156767257Y-82938952D01*
X156672019Y-82891333D01*
X156624400Y-82843714D01*
X156576780Y-82748476D01*
X156576780Y-82558000D01*
X156624400Y-82462761D01*
X156672019Y-82415142D01*
X156767257Y-82367523D01*
X156814876Y-82367523D01*
X156910114Y-82415142D01*
X156957733Y-82462761D01*
X157005352Y-82558000D01*
X157005352Y-82748476D01*
X157052971Y-82843714D01*
X157100590Y-82891333D01*
X157195828Y-82938952D01*
X157386304Y-82938952D01*
X157481542Y-82891333D01*
X157529161Y-82843714D01*
X157576780Y-82748476D01*
X157576780Y-82558000D01*
X157529161Y-82462761D01*
X157481542Y-82415142D01*
X157386304Y-82367523D01*
X157195828Y-82367523D01*
X157100590Y-82415142D01*
X157052971Y-82462761D01*
X157005352Y-82558000D01*
G04 #@! TO.C,C16*
X149561642Y-134356142D02*
X149514023Y-134403761D01*
X149371166Y-134451380D01*
X149275928Y-134451380D01*
X149133071Y-134403761D01*
X149037833Y-134308523D01*
X148990214Y-134213285D01*
X148942595Y-134022809D01*
X148942595Y-133879952D01*
X148990214Y-133689476D01*
X149037833Y-133594238D01*
X149133071Y-133499000D01*
X149275928Y-133451380D01*
X149371166Y-133451380D01*
X149514023Y-133499000D01*
X149561642Y-133546619D01*
X150514023Y-134451380D02*
X149942595Y-134451380D01*
X150228309Y-134451380D02*
X150228309Y-133451380D01*
X150133071Y-133594238D01*
X150037833Y-133689476D01*
X149942595Y-133737095D01*
X151371166Y-133451380D02*
X151180690Y-133451380D01*
X151085452Y-133499000D01*
X151037833Y-133546619D01*
X150942595Y-133689476D01*
X150894976Y-133879952D01*
X150894976Y-134260904D01*
X150942595Y-134356142D01*
X150990214Y-134403761D01*
X151085452Y-134451380D01*
X151275928Y-134451380D01*
X151371166Y-134403761D01*
X151418785Y-134356142D01*
X151466404Y-134260904D01*
X151466404Y-134022809D01*
X151418785Y-133927571D01*
X151371166Y-133879952D01*
X151275928Y-133832333D01*
X151085452Y-133832333D01*
X150990214Y-133879952D01*
X150942595Y-133927571D01*
X150894976Y-134022809D01*
G04 #@! TO.C,U3*
X155350380Y-122910904D02*
X156159904Y-122910904D01*
X156255142Y-122863285D01*
X156302761Y-122815666D01*
X156350380Y-122720428D01*
X156350380Y-122529952D01*
X156302761Y-122434714D01*
X156255142Y-122387095D01*
X156159904Y-122339476D01*
X155350380Y-122339476D01*
X155350380Y-121958523D02*
X155350380Y-121339476D01*
X155731333Y-121672809D01*
X155731333Y-121529952D01*
X155778952Y-121434714D01*
X155826571Y-121387095D01*
X155921809Y-121339476D01*
X156159904Y-121339476D01*
X156255142Y-121387095D01*
X156302761Y-121434714D01*
X156350380Y-121529952D01*
X156350380Y-121815666D01*
X156302761Y-121910904D01*
X156255142Y-121958523D01*
G04 #@! TO.C,C18*
X159173942Y-128119142D02*
X159126323Y-128166761D01*
X158983466Y-128214380D01*
X158888228Y-128214380D01*
X158745371Y-128166761D01*
X158650133Y-128071523D01*
X158602514Y-127976285D01*
X158554895Y-127785809D01*
X158554895Y-127642952D01*
X158602514Y-127452476D01*
X158650133Y-127357238D01*
X158745371Y-127262000D01*
X158888228Y-127214380D01*
X158983466Y-127214380D01*
X159126323Y-127262000D01*
X159173942Y-127309619D01*
X160126323Y-128214380D02*
X159554895Y-128214380D01*
X159840609Y-128214380D02*
X159840609Y-127214380D01*
X159745371Y-127357238D01*
X159650133Y-127452476D01*
X159554895Y-127500095D01*
X160697752Y-127642952D02*
X160602514Y-127595333D01*
X160554895Y-127547714D01*
X160507276Y-127452476D01*
X160507276Y-127404857D01*
X160554895Y-127309619D01*
X160602514Y-127262000D01*
X160697752Y-127214380D01*
X160888228Y-127214380D01*
X160983466Y-127262000D01*
X161031085Y-127309619D01*
X161078704Y-127404857D01*
X161078704Y-127452476D01*
X161031085Y-127547714D01*
X160983466Y-127595333D01*
X160888228Y-127642952D01*
X160697752Y-127642952D01*
X160602514Y-127690571D01*
X160554895Y-127738190D01*
X160507276Y-127833428D01*
X160507276Y-128023904D01*
X160554895Y-128119142D01*
X160602514Y-128166761D01*
X160697752Y-128214380D01*
X160888228Y-128214380D01*
X160983466Y-128166761D01*
X161031085Y-128119142D01*
X161078704Y-128023904D01*
X161078704Y-127833428D01*
X161031085Y-127738190D01*
X160983466Y-127690571D01*
X160888228Y-127642952D01*
G04 #@! TO.C,C1*
X159650133Y-120194342D02*
X159602514Y-120241961D01*
X159459657Y-120289580D01*
X159364419Y-120289580D01*
X159221561Y-120241961D01*
X159126323Y-120146723D01*
X159078704Y-120051485D01*
X159031085Y-119861009D01*
X159031085Y-119718152D01*
X159078704Y-119527676D01*
X159126323Y-119432438D01*
X159221561Y-119337200D01*
X159364419Y-119289580D01*
X159459657Y-119289580D01*
X159602514Y-119337200D01*
X159650133Y-119384819D01*
X160602514Y-120289580D02*
X160031085Y-120289580D01*
X160316800Y-120289580D02*
X160316800Y-119289580D01*
X160221561Y-119432438D01*
X160126323Y-119527676D01*
X160031085Y-119575295D01*
G04 #@! TO.C,R7*
X144724380Y-125515666D02*
X144248190Y-125849000D01*
X144724380Y-126087095D02*
X143724380Y-126087095D01*
X143724380Y-125706142D01*
X143772000Y-125610904D01*
X143819619Y-125563285D01*
X143914857Y-125515666D01*
X144057714Y-125515666D01*
X144152952Y-125563285D01*
X144200571Y-125610904D01*
X144248190Y-125706142D01*
X144248190Y-126087095D01*
X143724380Y-125182333D02*
X143724380Y-124515666D01*
X144724380Y-124944238D01*
G04 #@! TO.C,U5*
X174839442Y-107125206D02*
X174839442Y-107934730D01*
X174887061Y-108029968D01*
X174934680Y-108077587D01*
X175029918Y-108125206D01*
X175220394Y-108125206D01*
X175315632Y-108077587D01*
X175363251Y-108029968D01*
X175410870Y-107934730D01*
X175410870Y-107125206D01*
X176363251Y-107125206D02*
X175887061Y-107125206D01*
X175839442Y-107601397D01*
X175887061Y-107553778D01*
X175982299Y-107506159D01*
X176220394Y-107506159D01*
X176315632Y-107553778D01*
X176363251Y-107601397D01*
X176410870Y-107696635D01*
X176410870Y-107934730D01*
X176363251Y-108029968D01*
X176315632Y-108077587D01*
X176220394Y-108125206D01*
X175982299Y-108125206D01*
X175887061Y-108077587D01*
X175839442Y-108029968D01*
G04 #@! TO.C,R5*
X117041255Y-85075901D02*
X117142270Y-84503481D01*
X116637194Y-84671840D02*
X117344300Y-83964733D01*
X117613675Y-84234107D01*
X117647346Y-84335122D01*
X117647346Y-84402466D01*
X117613675Y-84503481D01*
X117512659Y-84604496D01*
X117411644Y-84638168D01*
X117344300Y-84638168D01*
X117243285Y-84604496D01*
X116973911Y-84335122D01*
X118388125Y-85008558D02*
X118051407Y-84671840D01*
X117681018Y-84974886D01*
X117748362Y-84974886D01*
X117849377Y-85008558D01*
X118017736Y-85176916D01*
X118051407Y-85277932D01*
X118051407Y-85345275D01*
X118017736Y-85446290D01*
X117849377Y-85614649D01*
X117748362Y-85648321D01*
X117681018Y-85648321D01*
X117580003Y-85614649D01*
X117411644Y-85446290D01*
X117377972Y-85345275D01*
X117377972Y-85277932D01*
G04 #@! TO.C,S3*
X159957042Y-84989861D02*
X160024385Y-85124548D01*
X160192744Y-85292907D01*
X160293759Y-85326579D01*
X160361103Y-85326579D01*
X160462118Y-85292907D01*
X160529461Y-85225564D01*
X160563133Y-85124548D01*
X160563133Y-85057205D01*
X160529461Y-84956190D01*
X160428446Y-84787831D01*
X160394774Y-84686816D01*
X160394774Y-84619472D01*
X160428446Y-84518457D01*
X160495790Y-84451113D01*
X160596805Y-84417442D01*
X160664148Y-84417442D01*
X160765164Y-84451113D01*
X160933522Y-84619472D01*
X161000866Y-84754159D01*
X161270240Y-84956190D02*
X161707973Y-85393922D01*
X161202896Y-85427594D01*
X161303912Y-85528609D01*
X161337583Y-85629625D01*
X161337583Y-85696968D01*
X161303912Y-85797983D01*
X161135553Y-85966342D01*
X161034538Y-86000014D01*
X160967194Y-86000014D01*
X160866179Y-85966342D01*
X160664148Y-85764312D01*
X160630477Y-85663296D01*
X160630477Y-85595953D01*
D16*
G04 #@! TO.C,D1*
X163212731Y-116016920D02*
X168374611Y-110855040D01*
X163212731Y-116016920D02*
X166253290Y-119057479D01*
X166253290Y-119057479D02*
X171415170Y-113895599D01*
G04 #@! TO.C,D8*
X109983000Y-82161000D02*
X113868000Y-82161000D01*
X109983000Y-79891000D02*
X109983000Y-82161000D01*
X113868000Y-79891000D02*
X109983000Y-79891000D01*
G04 #@! TO.C,FB2*
X156551133Y-106779041D02*
X156181667Y-106409575D01*
X155547041Y-107783133D02*
X155177575Y-107413667D01*
G04 #@! TO.C,L1*
X133539545Y-112276111D02*
X136054017Y-109761639D01*
X131563889Y-110300455D02*
X133539545Y-112276111D01*
X134078361Y-107785983D02*
X136054017Y-109761639D01*
X131563889Y-110300455D02*
X134078361Y-107785983D01*
G04 #@! TO.C,L2*
X159065621Y-112273277D02*
X156551149Y-109758805D01*
X156551149Y-109758805D02*
X158526805Y-107783149D01*
X161041277Y-110297621D02*
X158526805Y-107783149D01*
X159065621Y-112273277D02*
X161041277Y-110297621D01*
D11*
G04 #@! TO.C,TP2*
X187198000Y-63627000D02*
X187198000Y-59563000D01*
X191262000Y-63627000D02*
X187198000Y-63627000D01*
X187198000Y-59563000D02*
X191262000Y-59563000D01*
X191262000Y-59563000D02*
X191262000Y-63627000D01*
D16*
G04 #@! TO.C,U1*
X136169400Y-96901000D02*
X136804400Y-96901000D01*
X131978400Y-96901000D02*
X131978400Y-99060000D01*
X136804400Y-96901000D02*
X136804400Y-99060000D01*
X131978400Y-96901000D02*
X132613400Y-96901000D01*
G04 #@! TO.C,U4*
X142494000Y-75590400D02*
X144653000Y-75590400D01*
X142494000Y-76225400D02*
X142494000Y-75590400D01*
X142494000Y-80416400D02*
X144653000Y-80416400D01*
X142494000Y-80416400D02*
X142494000Y-79781400D01*
G04 #@! TO.C,L4*
X135886012Y-74549000D02*
X139442012Y-74549000D01*
X139442012Y-71755000D02*
X139442012Y-74549000D01*
X135886012Y-71755000D02*
X139442012Y-71755000D01*
X135886012Y-71755000D02*
X135886012Y-74549000D01*
G04 #@! TO.C,FB3*
X142409748Y-72442000D02*
X142932252Y-72442000D01*
X142409748Y-73862000D02*
X142932252Y-73862000D01*
D11*
G04 #@! TO.C,L3*
X165752825Y-86921927D02*
X169344927Y-83329825D01*
X172937029Y-86921927D02*
X169344927Y-90514029D01*
X169344927Y-83329825D02*
X172937029Y-86921927D01*
X165752825Y-86921927D02*
X169344927Y-90514029D01*
D16*
G04 #@! TO.C,MH1*
X178279628Y-125701628D02*
G75*
G03*
X178279628Y-125701628I-6350000J0D01*
G01*
G04 #@! TO.C,FB1*
X137060959Y-107783133D02*
X137430425Y-107413667D01*
X136056867Y-106779041D02*
X136426333Y-106409575D01*
G04 #@! TO.C,MH2*
X127028372Y-74450372D02*
G75*
G03*
X127028372Y-74450372I-6350000J0D01*
G01*
G04 #@! TO.C,C2*
X131788012Y-109038333D02*
X130936565Y-109889780D01*
X130501077Y-107751398D02*
X129649630Y-108602845D01*
G04 #@! TO.C,C3*
X162230675Y-107730740D02*
X163082122Y-108582187D01*
X160943740Y-109017675D02*
X161795187Y-109869122D01*
G04 #@! TO.C,C5*
X141188064Y-100986000D02*
X139983936Y-100986000D01*
X141188064Y-99166000D02*
X139983936Y-99166000D01*
G04 #@! TO.C,C6*
X151419936Y-99166000D02*
X152624064Y-99166000D01*
X151419936Y-100986000D02*
X152624064Y-100986000D01*
G04 #@! TO.C,C7*
X163865933Y-99166000D02*
X165070061Y-99166000D01*
X163865933Y-100986000D02*
X165070061Y-100986000D01*
G04 #@! TO.C,C8*
X150933564Y-74062000D02*
X149729436Y-74062000D01*
X150933564Y-72242000D02*
X149729436Y-72242000D01*
G04 #@! TO.C,C9*
X129900000Y-81842564D02*
X129900000Y-80638436D01*
X131720000Y-81842564D02*
X131720000Y-80638436D01*
G04 #@! TO.C,C11*
X149729436Y-79354000D02*
X150933564Y-79354000D01*
X149729436Y-81174000D02*
X150933564Y-81174000D01*
G04 #@! TO.C,C12*
X167114000Y-92253936D02*
X167114000Y-93458064D01*
X168934000Y-92253936D02*
X168934000Y-93458064D01*
G04 #@! TO.C,C13*
X174474000Y-92253936D02*
X174474000Y-93458064D01*
X176294000Y-92253936D02*
X176294000Y-93458064D01*
G04 #@! TO.C,C15*
X118131000Y-92739936D02*
X118131000Y-93944064D01*
X116311000Y-92739936D02*
X116311000Y-93944064D01*
G04 #@! TO.C,R1*
X138737387Y-112468528D02*
X136222916Y-114982999D01*
X136319082Y-110050223D02*
X133804611Y-112564694D01*
G04 #@! TO.C,R6*
X135822000Y-84328000D02*
X135822000Y-80772000D01*
X132402000Y-84328000D02*
X132402000Y-80772000D01*
G04 #@! TO.C,R2*
X153743613Y-112595528D02*
X156258084Y-115109999D01*
X156161918Y-110177223D02*
X158676389Y-112691694D01*
G04 #@! TO.C,L6*
X153390600Y-91359810D02*
X150596600Y-91359810D01*
X153390600Y-87803810D02*
X150596600Y-87803810D01*
X153390600Y-87803810D02*
X153390600Y-91359810D01*
X150596600Y-87803810D02*
X150596600Y-91359810D01*
G04 #@! TO.C,L5*
X154127200Y-91359810D02*
X154127200Y-87803810D01*
X154127200Y-91359810D02*
X156921200Y-91359810D01*
X156921200Y-91359810D02*
X156921200Y-87803810D01*
X154127200Y-87803810D02*
X156921200Y-87803810D01*
G04 #@! TO.C,U2*
X160629600Y-103251000D02*
X160629600Y-101092000D01*
X155803600Y-103251000D02*
X155803600Y-101092000D01*
X160629600Y-103251000D02*
X159994600Y-103251000D01*
X156438600Y-103251000D02*
X155803600Y-103251000D01*
G04 #@! TO.C,C4*
X128829564Y-99166000D02*
X127625436Y-99166000D01*
X128829564Y-100986000D02*
X127625436Y-100986000D01*
G04 #@! TO.C,C19*
X158024907Y-76761842D02*
X157173460Y-75910395D01*
X159311842Y-75474907D02*
X158460395Y-74623460D01*
G04 #@! TO.C,C14*
X159336200Y-89460077D02*
X159336200Y-89167543D01*
X158316200Y-89460077D02*
X158316200Y-89167543D01*
G04 #@! TO.C,C17*
X155014200Y-93604267D02*
X155014200Y-93311733D01*
X156034200Y-93604267D02*
X156034200Y-93311733D01*
G04 #@! TO.C,L7*
X156159200Y-87604600D02*
X156159200Y-84810600D01*
X156159200Y-84810600D02*
X152603200Y-84810600D01*
X152603200Y-87604600D02*
X152603200Y-84810600D01*
X156159200Y-87604600D02*
X152603200Y-87604600D01*
G04 #@! TO.C,C20*
X150781633Y-86717600D02*
X151074167Y-86717600D01*
X150781633Y-85697600D02*
X151074167Y-85697600D01*
G04 #@! TO.C,R3*
X146041064Y-87651000D02*
X144586936Y-87651000D01*
X146041064Y-85831000D02*
X144586936Y-85831000D01*
G04 #@! TO.C,ATT1*
X155874200Y-80764000D02*
X155174200Y-80764000D01*
G04 #@! TO.C,D2*
X114939000Y-96790000D02*
X114939000Y-97440000D01*
X114939000Y-96790000D02*
X114939000Y-95115000D01*
X111819000Y-96790000D02*
X111819000Y-96140000D01*
X111819000Y-96790000D02*
X111819000Y-97440000D01*
G04 #@! TO.C,D4*
X180789000Y-96790000D02*
X180789000Y-97440000D01*
X180789000Y-96790000D02*
X180789000Y-95115000D01*
X177669000Y-96790000D02*
X177669000Y-97440000D01*
X177669000Y-96790000D02*
X177669000Y-96140000D01*
G04 #@! TO.C,D3*
X150171500Y-69485000D02*
X150171500Y-70135000D01*
X153291500Y-69485000D02*
X153291500Y-70135000D01*
X150171500Y-69485000D02*
X150171500Y-68835000D01*
X153291500Y-69485000D02*
X153291500Y-67810000D01*
G04 #@! TO.C,R4*
X168804242Y-75907824D02*
X169832466Y-74879600D01*
X170091176Y-77194758D02*
X171119400Y-76166534D01*
D11*
G04 #@! TO.C,TP1*
X173862990Y-75009682D02*
X170989308Y-72136000D01*
X173862990Y-69262318D02*
X176736672Y-72136000D01*
X170989308Y-72136000D02*
X173862990Y-69262318D01*
X176736672Y-72136000D02*
X173862990Y-75009682D01*
D16*
G04 #@! TO.C,L8*
X152603200Y-81661000D02*
X152603200Y-84455000D01*
X152603200Y-81661000D02*
X156159200Y-81661000D01*
X152603200Y-84455000D02*
X156159200Y-84455000D01*
X156159200Y-81661000D02*
X156159200Y-84455000D01*
G04 #@! TO.C,C16*
X150915752Y-133059000D02*
X149493248Y-133059000D01*
X150915752Y-130339000D02*
X149493248Y-130339000D01*
G04 #@! TO.C,U3*
X147988000Y-124059000D02*
X149248000Y-124059000D01*
X154808000Y-118049000D02*
X154808000Y-124059000D01*
X154808000Y-124059000D02*
X153548000Y-124059000D01*
X147988000Y-120299000D02*
X147988000Y-124059000D01*
G04 #@! TO.C,C18*
X160515752Y-124065200D02*
X159093248Y-124065200D01*
X160515752Y-126785200D02*
X159093248Y-126785200D01*
G04 #@! TO.C,C1*
X160515752Y-120753960D02*
X159093248Y-120753960D01*
X160515752Y-123473960D02*
X159093248Y-123473960D01*
D11*
G04 #@! TO.C,R7*
X145161000Y-124079000D02*
X147701000Y-123444000D01*
X145161000Y-126619000D02*
X147701000Y-125984000D01*
X146431000Y-127254000D02*
X145161000Y-126619000D01*
X147701000Y-124714000D02*
X145161000Y-124079000D01*
X147701000Y-123444000D02*
X146431000Y-122809000D01*
X146431000Y-122809000D02*
X146431000Y-121539000D01*
X147701000Y-125984000D02*
X145161000Y-125349000D01*
X146431000Y-128524000D02*
X146431000Y-127254000D01*
X145161000Y-125349000D02*
X147701000Y-124714000D01*
D16*
G04 #@! TO.C,U5*
X174901347Y-103522826D02*
X173951347Y-103522826D01*
X177601347Y-106822826D02*
X176301347Y-106822826D01*
X174901347Y-106822826D02*
X173951347Y-106822826D01*
X173951347Y-106622826D02*
X173951347Y-106822826D01*
X173951347Y-103722826D02*
X173951347Y-103522826D01*
X177251347Y-103522826D02*
X176301347Y-103522826D01*
X177251347Y-103522826D02*
X177251347Y-103722826D01*
G04 #@! TO.C,R5*
X118636579Y-84744513D02*
X117608355Y-83716289D01*
X119923513Y-83457579D02*
X118895289Y-82429355D01*
G04 #@! TD*
M02*
