G04 #@! TF.GenerationSoftware,KiCad,Pcbnew,6.0.4-6f826c9f35~116~ubuntu20.04.1*
G04 #@! TF.CreationDate,2022-04-14T13:24:01-04:00*
G04 #@! TF.ProjectId,LWA Balun 2020,4c574120-4261-46c7-956e-20323032302e,rev?*
G04 #@! TF.SameCoordinates,Original*
G04 #@! TF.FileFunction,AssemblyDrawing,Top*
%FSLAX46Y46*%
G04 Gerber Fmt 4.6, Leading zero omitted, Abs format (unit mm)*
G04 Created by KiCad (PCBNEW 6.0.4-6f826c9f35~116~ubuntu20.04.1) date 2022-04-14 13:24:01*
%MOMM*%
%LPD*%
G01*
G04 APERTURE LIST*
%ADD10C,0.150000*%
%ADD11C,0.120000*%
%ADD12C,0.080000*%
%ADD13C,0.060000*%
%ADD14C,0.075000*%
%ADD15C,0.050000*%
%ADD16C,0.100000*%
G04 APERTURE END LIST*
D10*
X182753000Y-135636000D02*
G75*
G03*
X182753000Y-135636000I-889000J0D01*
G01*
X111633000Y-64516000D02*
G75*
G03*
X111633000Y-64516000I-889000J0D01*
G01*
X111633000Y-135636000D02*
G75*
G03*
X111633000Y-135636000I-889000J0D01*
G01*
X182753000Y-64516000D02*
G75*
G03*
X182753000Y-64516000I-889000J0D01*
G01*
G04 #@! TO.C,D1*
X169164212Y-117921056D02*
X169298899Y-117853713D01*
X169467258Y-117685354D01*
X169500930Y-117584339D01*
X169500930Y-117516995D01*
X169467258Y-117415980D01*
X169399915Y-117348637D01*
X169298899Y-117314965D01*
X169231556Y-117314965D01*
X169130541Y-117348637D01*
X168962182Y-117449652D01*
X168861167Y-117483324D01*
X168793823Y-117483324D01*
X168692808Y-117449652D01*
X168625464Y-117382308D01*
X168591793Y-117281293D01*
X168591793Y-117213950D01*
X168625464Y-117112934D01*
X168793823Y-116944576D01*
X168928510Y-116877232D01*
X169904991Y-117247621D02*
X169197884Y-116540515D01*
X170309052Y-116843560D02*
X169601945Y-116742545D01*
X169601945Y-116136453D02*
X169601945Y-116944576D01*
X169938663Y-115934423D02*
X169938663Y-115867079D01*
X169972334Y-115766064D01*
X170140693Y-115597705D01*
X170241709Y-115564034D01*
X170309052Y-115564034D01*
X170410067Y-115597705D01*
X170477411Y-115665049D01*
X170544754Y-115799736D01*
X170544754Y-116607858D01*
X170982487Y-116170125D01*
X171117174Y-115092629D02*
X171588579Y-115564034D01*
X170679441Y-114991614D02*
X171016159Y-115665049D01*
X171453892Y-115227316D01*
X165662351Y-113004981D02*
X164955244Y-112297875D01*
X165123603Y-112129516D01*
X165258290Y-112062172D01*
X165392977Y-112062172D01*
X165493992Y-112095844D01*
X165662351Y-112196859D01*
X165763366Y-112297875D01*
X165864382Y-112466233D01*
X165898053Y-112567249D01*
X165898053Y-112701936D01*
X165830710Y-112836623D01*
X165662351Y-113004981D01*
X166739847Y-111927485D02*
X166335786Y-112331546D01*
X166537817Y-112129516D02*
X165830710Y-111422409D01*
X165864382Y-111590768D01*
X165864382Y-111725455D01*
X165830710Y-111826470D01*
G04 #@! TO.C,D8*
X110910857Y-82346000D02*
X110815619Y-82298380D01*
X110672761Y-82298380D01*
X110529904Y-82346000D01*
X110434666Y-82441238D01*
X110387047Y-82536476D01*
X110339428Y-82726952D01*
X110339428Y-82869809D01*
X110387047Y-83060285D01*
X110434666Y-83155523D01*
X110529904Y-83250761D01*
X110672761Y-83298380D01*
X110768000Y-83298380D01*
X110910857Y-83250761D01*
X110958476Y-83203142D01*
X110958476Y-82869809D01*
X110768000Y-82869809D01*
X111387047Y-83298380D02*
X111387047Y-82631714D01*
X111387047Y-82822190D02*
X111434666Y-82726952D01*
X111482285Y-82679333D01*
X111577523Y-82631714D01*
X111672761Y-82631714D01*
X112387047Y-83250761D02*
X112291809Y-83298380D01*
X112101333Y-83298380D01*
X112006095Y-83250761D01*
X111958476Y-83155523D01*
X111958476Y-82774571D01*
X112006095Y-82679333D01*
X112101333Y-82631714D01*
X112291809Y-82631714D01*
X112387047Y-82679333D01*
X112434666Y-82774571D01*
X112434666Y-82869809D01*
X111958476Y-82965047D01*
X113244190Y-83250761D02*
X113148952Y-83298380D01*
X112958476Y-83298380D01*
X112863238Y-83250761D01*
X112815619Y-83155523D01*
X112815619Y-82774571D01*
X112863238Y-82679333D01*
X112958476Y-82631714D01*
X113148952Y-82631714D01*
X113244190Y-82679333D01*
X113291809Y-82774571D01*
X113291809Y-82869809D01*
X112815619Y-82965047D01*
X113720380Y-82631714D02*
X113720380Y-83298380D01*
X113720380Y-82726952D02*
X113768000Y-82679333D01*
X113863238Y-82631714D01*
X114006095Y-82631714D01*
X114101333Y-82679333D01*
X114148952Y-82774571D01*
X114148952Y-83298380D01*
D11*
X111677523Y-81387904D02*
X111677523Y-80587904D01*
X111868000Y-80587904D01*
X111982285Y-80626000D01*
X112058476Y-80702190D01*
X112096571Y-80778380D01*
X112134666Y-80930761D01*
X112134666Y-81045047D01*
X112096571Y-81197428D01*
X112058476Y-81273619D01*
X111982285Y-81349809D01*
X111868000Y-81387904D01*
X111677523Y-81387904D01*
X112591809Y-80930761D02*
X112515619Y-80892666D01*
X112477523Y-80854571D01*
X112439428Y-80778380D01*
X112439428Y-80740285D01*
X112477523Y-80664095D01*
X112515619Y-80626000D01*
X112591809Y-80587904D01*
X112744190Y-80587904D01*
X112820380Y-80626000D01*
X112858476Y-80664095D01*
X112896571Y-80740285D01*
X112896571Y-80778380D01*
X112858476Y-80854571D01*
X112820380Y-80892666D01*
X112744190Y-80930761D01*
X112591809Y-80930761D01*
X112515619Y-80968857D01*
X112477523Y-81006952D01*
X112439428Y-81083142D01*
X112439428Y-81235523D01*
X112477523Y-81311714D01*
X112515619Y-81349809D01*
X112591809Y-81387904D01*
X112744190Y-81387904D01*
X112820380Y-81349809D01*
X112858476Y-81311714D01*
X112896571Y-81235523D01*
X112896571Y-81083142D01*
X112858476Y-81006952D01*
X112820380Y-80968857D01*
X112744190Y-80930761D01*
D10*
G04 #@! TO.C,FB2*
X162065006Y-110323791D02*
X161357900Y-111030898D01*
X161694617Y-110694180D02*
X161290556Y-110290119D01*
X161660945Y-109919730D02*
X160953839Y-110626837D01*
X160684465Y-110357463D02*
X160213060Y-109886058D01*
X161391571Y-109650356D01*
X160920167Y-109178952D01*
X159808999Y-109481997D02*
X159741655Y-109414654D01*
X159707984Y-109313639D01*
X159707984Y-109246295D01*
X159741655Y-109145280D01*
X159842671Y-108976921D01*
X160011030Y-108808562D01*
X160179388Y-108707547D01*
X160280404Y-108673875D01*
X160347747Y-108673875D01*
X160448762Y-108707547D01*
X160516106Y-108774891D01*
X160549778Y-108875906D01*
X160549778Y-108943249D01*
X160516106Y-109044265D01*
X160415091Y-109212623D01*
X160246732Y-109380982D01*
X160078373Y-109481997D01*
X159977358Y-109515669D01*
X159910014Y-109515669D01*
X159808999Y-109481997D01*
X159472281Y-108539188D02*
X159505953Y-108640203D01*
X159505953Y-108707547D01*
X159472281Y-108808562D01*
X159438610Y-108842234D01*
X159337594Y-108875906D01*
X159270251Y-108875906D01*
X159169236Y-108842234D01*
X159034549Y-108707547D01*
X159000877Y-108606532D01*
X159000877Y-108539188D01*
X159034549Y-108438173D01*
X159068220Y-108404501D01*
X159169236Y-108370829D01*
X159236579Y-108370829D01*
X159337594Y-108404501D01*
X159472281Y-108539188D01*
X159573297Y-108572860D01*
X159640640Y-108572860D01*
X159741655Y-108539188D01*
X159876343Y-108404501D01*
X159910014Y-108303486D01*
X159910014Y-108236142D01*
X159876343Y-108135127D01*
X159741655Y-108000440D01*
X159640640Y-107966768D01*
X159573297Y-107966768D01*
X159472281Y-108000440D01*
X159337594Y-108135127D01*
X159303923Y-108236142D01*
X159303923Y-108303486D01*
X159337594Y-108404501D01*
X158462129Y-108135127D02*
X158394785Y-108067784D01*
X158361114Y-107966768D01*
X158361114Y-107899425D01*
X158394785Y-107798410D01*
X158495801Y-107630051D01*
X158664159Y-107461692D01*
X158832518Y-107360677D01*
X158933533Y-107327005D01*
X159000877Y-107327005D01*
X159101892Y-107360677D01*
X159169236Y-107428020D01*
X159202907Y-107529036D01*
X159202907Y-107596379D01*
X159169236Y-107697394D01*
X159068220Y-107865753D01*
X158899862Y-108034112D01*
X158731503Y-108135127D01*
X158630488Y-108168799D01*
X158563144Y-108168799D01*
X158462129Y-108135127D01*
X157586663Y-107259662D02*
X157923381Y-107596379D01*
X158293770Y-107293333D01*
X158226427Y-107293333D01*
X158125411Y-107259662D01*
X157957053Y-107091303D01*
X157923381Y-106990288D01*
X157923381Y-106922944D01*
X157957053Y-106821929D01*
X158125411Y-106653570D01*
X158226427Y-106619898D01*
X158293770Y-106619898D01*
X158394785Y-106653570D01*
X158563144Y-106821929D01*
X158596816Y-106922944D01*
X158596816Y-106990288D01*
X157485648Y-105879120D02*
X157552992Y-105879120D01*
X157687679Y-105946463D01*
X157755022Y-106013807D01*
X157822366Y-106148494D01*
X157822366Y-106283181D01*
X157788694Y-106384196D01*
X157687679Y-106552555D01*
X157586663Y-106653570D01*
X157418305Y-106754585D01*
X157317289Y-106788257D01*
X157182602Y-106788257D01*
X157047915Y-106720914D01*
X156980572Y-106653570D01*
X156913228Y-106518883D01*
X156913228Y-106451540D01*
X156643854Y-106182166D02*
X156576511Y-106182166D01*
X156475496Y-106148494D01*
X156307137Y-105980135D01*
X156273465Y-105879120D01*
X156273465Y-105811776D01*
X156307137Y-105710761D01*
X156374480Y-105643418D01*
X156509167Y-105576074D01*
X157317289Y-105576074D01*
X156879557Y-105138341D01*
X155734717Y-105407715D02*
X155667374Y-105340372D01*
X155633702Y-105239357D01*
X155633702Y-105172013D01*
X155667374Y-105070998D01*
X155768389Y-104902639D01*
X155936748Y-104734280D01*
X156105106Y-104633265D01*
X156206122Y-104599593D01*
X156273465Y-104599593D01*
X156374480Y-104633265D01*
X156441824Y-104700609D01*
X156475496Y-104801624D01*
X156475496Y-104868967D01*
X156441824Y-104969983D01*
X156340809Y-105138341D01*
X156172450Y-105306700D01*
X156004091Y-105407715D01*
X155903076Y-105441387D01*
X155835732Y-105441387D01*
X155734717Y-105407715D01*
X155296984Y-104835296D02*
X155229641Y-104835296D01*
X155128626Y-104801624D01*
X154960267Y-104633265D01*
X154926595Y-104532250D01*
X154926595Y-104464906D01*
X154960267Y-104363891D01*
X155027610Y-104296548D01*
X155162297Y-104229204D01*
X155970419Y-104229204D01*
X155532687Y-103791471D01*
X154825580Y-103084364D02*
X154724565Y-103656784D01*
X155229641Y-103488426D02*
X154522534Y-104195532D01*
X154253160Y-103926158D01*
X154219488Y-103825143D01*
X154219488Y-103757800D01*
X154253160Y-103656784D01*
X154354175Y-103555769D01*
X154455191Y-103522097D01*
X154522534Y-103522097D01*
X154623549Y-103555769D01*
X154892923Y-103825143D01*
X154253160Y-103050693D02*
X153714412Y-102511945D01*
X153276679Y-101535464D02*
X153680740Y-101939525D01*
X153478710Y-101737494D02*
X152771603Y-102444601D01*
X152939962Y-102410929D01*
X153074649Y-102410929D01*
X153175664Y-102444601D01*
X152131840Y-101804838D02*
X152064496Y-101737494D01*
X152030824Y-101636479D01*
X152030824Y-101569136D01*
X152064496Y-101468120D01*
X152165511Y-101299762D01*
X152333870Y-101131403D01*
X152502229Y-101030388D01*
X152603244Y-100996716D01*
X152670588Y-100996716D01*
X152771603Y-101030388D01*
X152838946Y-101097731D01*
X152872618Y-101198746D01*
X152872618Y-101266090D01*
X152838946Y-101367105D01*
X152737931Y-101535464D01*
X152569572Y-101703823D01*
X152401214Y-101804838D01*
X152300198Y-101838510D01*
X152232855Y-101838510D01*
X152131840Y-101804838D01*
D12*
X156133728Y-107416235D02*
X156251579Y-107534086D01*
X156436773Y-107348892D02*
X156083220Y-107702445D01*
X155914861Y-107534086D01*
X155830682Y-107113189D02*
X155797010Y-107045846D01*
X155797010Y-107012174D01*
X155813846Y-106961666D01*
X155864354Y-106911159D01*
X155914861Y-106894323D01*
X155948533Y-106894323D01*
X155999041Y-106911159D01*
X156133728Y-107045846D01*
X155780174Y-107399399D01*
X155662323Y-107281548D01*
X155645487Y-107231041D01*
X155645487Y-107197369D01*
X155662323Y-107146861D01*
X155695995Y-107113189D01*
X155746502Y-107096353D01*
X155780174Y-107096353D01*
X155830682Y-107113189D01*
X155948533Y-107231041D01*
X155477128Y-107029010D02*
X155443457Y-107029010D01*
X155392949Y-107012174D01*
X155308770Y-106927995D01*
X155291934Y-106877487D01*
X155291934Y-106843815D01*
X155308770Y-106793308D01*
X155342441Y-106759636D01*
X155409785Y-106725964D01*
X155813846Y-106725964D01*
X155594979Y-106507098D01*
D10*
G04 #@! TO.C,FP1*
X95137333Y-109418380D02*
X94565904Y-109418380D01*
X94851619Y-109418380D02*
X94851619Y-108418380D01*
X94756380Y-108561238D01*
X94661142Y-108656476D01*
X94565904Y-108704095D01*
X96280190Y-108370761D02*
X95423047Y-109656476D01*
X97042095Y-108751714D02*
X97042095Y-109418380D01*
X96804000Y-108370761D02*
X96565904Y-109085047D01*
X97184952Y-109085047D01*
X97565904Y-109037428D02*
X98327809Y-109037428D01*
X98756380Y-108513619D02*
X98804000Y-108466000D01*
X98899238Y-108418380D01*
X99137333Y-108418380D01*
X99232571Y-108466000D01*
X99280190Y-108513619D01*
X99327809Y-108608857D01*
X99327809Y-108704095D01*
X99280190Y-108846952D01*
X98708761Y-109418380D01*
X99327809Y-109418380D01*
X99946857Y-108418380D02*
X100042095Y-108418380D01*
X100137333Y-108466000D01*
X100184952Y-108513619D01*
X100232571Y-108608857D01*
X100280190Y-108799333D01*
X100280190Y-109037428D01*
X100232571Y-109227904D01*
X100184952Y-109323142D01*
X100137333Y-109370761D01*
X100042095Y-109418380D01*
X99946857Y-109418380D01*
X99851619Y-109370761D01*
X99804000Y-109323142D01*
X99756380Y-109227904D01*
X99708761Y-109037428D01*
X99708761Y-108799333D01*
X99756380Y-108608857D01*
X99804000Y-108513619D01*
X99851619Y-108466000D01*
X99946857Y-108418380D01*
X101804000Y-108894571D02*
X101470666Y-108894571D01*
X101470666Y-109418380D02*
X101470666Y-108418380D01*
X101946857Y-108418380D01*
X102899238Y-109418380D02*
X102565904Y-108942190D01*
X102327809Y-109418380D02*
X102327809Y-108418380D01*
X102708761Y-108418380D01*
X102804000Y-108466000D01*
X102851619Y-108513619D01*
X102899238Y-108608857D01*
X102899238Y-108751714D01*
X102851619Y-108846952D01*
X102804000Y-108894571D01*
X102708761Y-108942190D01*
X102327809Y-108942190D01*
X103327809Y-108894571D02*
X103661142Y-108894571D01*
X103804000Y-109418380D02*
X103327809Y-109418380D01*
X103327809Y-108418380D01*
X103804000Y-108418380D01*
X104232571Y-108894571D02*
X104565904Y-108894571D01*
X104708761Y-109418380D02*
X104232571Y-109418380D01*
X104232571Y-108418380D01*
X104708761Y-108418380D01*
X105137333Y-109037428D02*
X105899238Y-109037428D01*
X106708761Y-108894571D02*
X106375428Y-108894571D01*
X106375428Y-109418380D02*
X106375428Y-108418380D01*
X106851619Y-108418380D01*
X107232571Y-109418380D02*
X107232571Y-108418380D01*
X107565904Y-108418380D02*
X108137333Y-108418380D01*
X107851619Y-109418380D02*
X107851619Y-108418380D01*
G04 #@! TO.C,FP2*
X185137333Y-109418380D02*
X184565904Y-109418380D01*
X184851619Y-109418380D02*
X184851619Y-108418380D01*
X184756380Y-108561238D01*
X184661142Y-108656476D01*
X184565904Y-108704095D01*
X186280190Y-108370761D02*
X185423047Y-109656476D01*
X187042095Y-108751714D02*
X187042095Y-109418380D01*
X186804000Y-108370761D02*
X186565904Y-109085047D01*
X187184952Y-109085047D01*
X187565904Y-109037428D02*
X188327809Y-109037428D01*
X188756380Y-108513619D02*
X188804000Y-108466000D01*
X188899238Y-108418380D01*
X189137333Y-108418380D01*
X189232571Y-108466000D01*
X189280190Y-108513619D01*
X189327809Y-108608857D01*
X189327809Y-108704095D01*
X189280190Y-108846952D01*
X188708761Y-109418380D01*
X189327809Y-109418380D01*
X189946857Y-108418380D02*
X190042095Y-108418380D01*
X190137333Y-108466000D01*
X190184952Y-108513619D01*
X190232571Y-108608857D01*
X190280190Y-108799333D01*
X190280190Y-109037428D01*
X190232571Y-109227904D01*
X190184952Y-109323142D01*
X190137333Y-109370761D01*
X190042095Y-109418380D01*
X189946857Y-109418380D01*
X189851619Y-109370761D01*
X189804000Y-109323142D01*
X189756380Y-109227904D01*
X189708761Y-109037428D01*
X189708761Y-108799333D01*
X189756380Y-108608857D01*
X189804000Y-108513619D01*
X189851619Y-108466000D01*
X189946857Y-108418380D01*
X191804000Y-108894571D02*
X191470666Y-108894571D01*
X191470666Y-109418380D02*
X191470666Y-108418380D01*
X191946857Y-108418380D01*
X192899238Y-109418380D02*
X192565904Y-108942190D01*
X192327809Y-109418380D02*
X192327809Y-108418380D01*
X192708761Y-108418380D01*
X192804000Y-108466000D01*
X192851619Y-108513619D01*
X192899238Y-108608857D01*
X192899238Y-108751714D01*
X192851619Y-108846952D01*
X192804000Y-108894571D01*
X192708761Y-108942190D01*
X192327809Y-108942190D01*
X193327809Y-108894571D02*
X193661142Y-108894571D01*
X193804000Y-109418380D02*
X193327809Y-109418380D01*
X193327809Y-108418380D01*
X193804000Y-108418380D01*
X194232571Y-108894571D02*
X194565904Y-108894571D01*
X194708761Y-109418380D02*
X194232571Y-109418380D01*
X194232571Y-108418380D01*
X194708761Y-108418380D01*
X195137333Y-109037428D02*
X195899238Y-109037428D01*
X196708761Y-108894571D02*
X196375428Y-108894571D01*
X196375428Y-109418380D02*
X196375428Y-108418380D01*
X196851619Y-108418380D01*
X197232571Y-109418380D02*
X197232571Y-108418380D01*
X197565904Y-108418380D02*
X198137333Y-108418380D01*
X197851619Y-109418380D02*
X197851619Y-108418380D01*
G04 #@! TO.C,FP3*
X140137333Y-64418380D02*
X139565904Y-64418380D01*
X139851619Y-64418380D02*
X139851619Y-63418380D01*
X139756380Y-63561238D01*
X139661142Y-63656476D01*
X139565904Y-63704095D01*
X141280190Y-63370761D02*
X140423047Y-64656476D01*
X142042095Y-63751714D02*
X142042095Y-64418380D01*
X141804000Y-63370761D02*
X141565904Y-64085047D01*
X142184952Y-64085047D01*
X142565904Y-64037428D02*
X143327809Y-64037428D01*
X143756380Y-63513619D02*
X143804000Y-63466000D01*
X143899238Y-63418380D01*
X144137333Y-63418380D01*
X144232571Y-63466000D01*
X144280190Y-63513619D01*
X144327809Y-63608857D01*
X144327809Y-63704095D01*
X144280190Y-63846952D01*
X143708761Y-64418380D01*
X144327809Y-64418380D01*
X144946857Y-63418380D02*
X145042095Y-63418380D01*
X145137333Y-63466000D01*
X145184952Y-63513619D01*
X145232571Y-63608857D01*
X145280190Y-63799333D01*
X145280190Y-64037428D01*
X145232571Y-64227904D01*
X145184952Y-64323142D01*
X145137333Y-64370761D01*
X145042095Y-64418380D01*
X144946857Y-64418380D01*
X144851619Y-64370761D01*
X144804000Y-64323142D01*
X144756380Y-64227904D01*
X144708761Y-64037428D01*
X144708761Y-63799333D01*
X144756380Y-63608857D01*
X144804000Y-63513619D01*
X144851619Y-63466000D01*
X144946857Y-63418380D01*
X146804000Y-63894571D02*
X146470666Y-63894571D01*
X146470666Y-64418380D02*
X146470666Y-63418380D01*
X146946857Y-63418380D01*
X147899238Y-64418380D02*
X147565904Y-63942190D01*
X147327809Y-64418380D02*
X147327809Y-63418380D01*
X147708761Y-63418380D01*
X147804000Y-63466000D01*
X147851619Y-63513619D01*
X147899238Y-63608857D01*
X147899238Y-63751714D01*
X147851619Y-63846952D01*
X147804000Y-63894571D01*
X147708761Y-63942190D01*
X147327809Y-63942190D01*
X148327809Y-63894571D02*
X148661142Y-63894571D01*
X148804000Y-64418380D02*
X148327809Y-64418380D01*
X148327809Y-63418380D01*
X148804000Y-63418380D01*
X149232571Y-63894571D02*
X149565904Y-63894571D01*
X149708761Y-64418380D02*
X149232571Y-64418380D01*
X149232571Y-63418380D01*
X149708761Y-63418380D01*
X150137333Y-64037428D02*
X150899238Y-64037428D01*
X151708761Y-63894571D02*
X151375428Y-63894571D01*
X151375428Y-64418380D02*
X151375428Y-63418380D01*
X151851619Y-63418380D01*
X152232571Y-64418380D02*
X152232571Y-63418380D01*
X152565904Y-63418380D02*
X153137333Y-63418380D01*
X152851619Y-64418380D02*
X152851619Y-63418380D01*
G04 #@! TO.C,FP4*
X140137333Y-154418380D02*
X139565904Y-154418380D01*
X139851619Y-154418380D02*
X139851619Y-153418380D01*
X139756380Y-153561238D01*
X139661142Y-153656476D01*
X139565904Y-153704095D01*
X141280190Y-153370761D02*
X140423047Y-154656476D01*
X142042095Y-153751714D02*
X142042095Y-154418380D01*
X141804000Y-153370761D02*
X141565904Y-154085047D01*
X142184952Y-154085047D01*
X142565904Y-154037428D02*
X143327809Y-154037428D01*
X143756380Y-153513619D02*
X143804000Y-153466000D01*
X143899238Y-153418380D01*
X144137333Y-153418380D01*
X144232571Y-153466000D01*
X144280190Y-153513619D01*
X144327809Y-153608857D01*
X144327809Y-153704095D01*
X144280190Y-153846952D01*
X143708761Y-154418380D01*
X144327809Y-154418380D01*
X144946857Y-153418380D02*
X145042095Y-153418380D01*
X145137333Y-153466000D01*
X145184952Y-153513619D01*
X145232571Y-153608857D01*
X145280190Y-153799333D01*
X145280190Y-154037428D01*
X145232571Y-154227904D01*
X145184952Y-154323142D01*
X145137333Y-154370761D01*
X145042095Y-154418380D01*
X144946857Y-154418380D01*
X144851619Y-154370761D01*
X144804000Y-154323142D01*
X144756380Y-154227904D01*
X144708761Y-154037428D01*
X144708761Y-153799333D01*
X144756380Y-153608857D01*
X144804000Y-153513619D01*
X144851619Y-153466000D01*
X144946857Y-153418380D01*
X146804000Y-153894571D02*
X146470666Y-153894571D01*
X146470666Y-154418380D02*
X146470666Y-153418380D01*
X146946857Y-153418380D01*
X147899238Y-154418380D02*
X147565904Y-153942190D01*
X147327809Y-154418380D02*
X147327809Y-153418380D01*
X147708761Y-153418380D01*
X147804000Y-153466000D01*
X147851619Y-153513619D01*
X147899238Y-153608857D01*
X147899238Y-153751714D01*
X147851619Y-153846952D01*
X147804000Y-153894571D01*
X147708761Y-153942190D01*
X147327809Y-153942190D01*
X148327809Y-153894571D02*
X148661142Y-153894571D01*
X148804000Y-154418380D02*
X148327809Y-154418380D01*
X148327809Y-153418380D01*
X148804000Y-153418380D01*
X149232571Y-153894571D02*
X149565904Y-153894571D01*
X149708761Y-154418380D02*
X149232571Y-154418380D01*
X149232571Y-153418380D01*
X149708761Y-153418380D01*
X150137333Y-154037428D02*
X150899238Y-154037428D01*
X151708761Y-153894571D02*
X151375428Y-153894571D01*
X151375428Y-154418380D02*
X151375428Y-153418380D01*
X151851619Y-153418380D01*
X152232571Y-154418380D02*
X152232571Y-153418380D01*
X152565904Y-153418380D02*
X153137333Y-153418380D01*
X152851619Y-154418380D02*
X152851619Y-153418380D01*
G04 #@! TO.C,H1*
X142415047Y-89066666D02*
X142891238Y-89066666D01*
X142319809Y-89352380D02*
X142653142Y-88352380D01*
X142986476Y-89352380D01*
X143319809Y-89352380D02*
X143319809Y-88352380D01*
X143653142Y-89066666D01*
X143986476Y-88352380D01*
X143986476Y-89352380D01*
X144319809Y-88352380D02*
X144891238Y-88352380D01*
X144605523Y-89352380D02*
X144605523Y-88352380D01*
X145224571Y-88971428D02*
X145986476Y-88971428D01*
X146367428Y-88352380D02*
X146986476Y-88352380D01*
X146653142Y-88733333D01*
X146796000Y-88733333D01*
X146891238Y-88780952D01*
X146938857Y-88828571D01*
X146986476Y-88923809D01*
X146986476Y-89161904D01*
X146938857Y-89257142D01*
X146891238Y-89304761D01*
X146796000Y-89352380D01*
X146510285Y-89352380D01*
X146415047Y-89304761D01*
X146367428Y-89257142D01*
X147367428Y-88447619D02*
X147415047Y-88400000D01*
X147510285Y-88352380D01*
X147748380Y-88352380D01*
X147843619Y-88400000D01*
X147891238Y-88447619D01*
X147938857Y-88542857D01*
X147938857Y-88638095D01*
X147891238Y-88780952D01*
X147319809Y-89352380D01*
X147938857Y-89352380D01*
X148367428Y-88971428D02*
X149129333Y-88971428D01*
X148748380Y-89352380D02*
X148748380Y-88590476D01*
X145034095Y-94686380D02*
X145034095Y-93686380D01*
X145034095Y-94162571D02*
X145605523Y-94162571D01*
X145605523Y-94686380D02*
X145605523Y-93686380D01*
X146605523Y-94686380D02*
X146034095Y-94686380D01*
X146319809Y-94686380D02*
X146319809Y-93686380D01*
X146224571Y-93829238D01*
X146129333Y-93924476D01*
X146034095Y-93972095D01*
G04 #@! TO.C,L1*
X133854039Y-112736202D02*
X134325444Y-113207606D01*
X133416307Y-112635187D02*
X133753024Y-113308622D01*
X134190757Y-112870889D01*
X134628490Y-112769874D02*
X134695833Y-112769874D01*
X134695833Y-112837217D01*
X134628490Y-112837217D01*
X134628490Y-112769874D01*
X134695833Y-112837217D01*
X134258100Y-111860736D02*
X134729505Y-111389332D01*
X135133566Y-112399484D01*
X136076375Y-110513866D02*
X136547780Y-110985271D01*
X135773329Y-110816912D02*
X136143719Y-111187301D01*
X136244734Y-111220973D01*
X136345749Y-111187301D01*
X136446764Y-111086286D01*
X136480436Y-110985271D01*
X136480436Y-110917927D01*
X136884497Y-110648553D02*
X136177390Y-109941446D01*
X136514108Y-110278164D02*
X136918169Y-109874103D01*
X137288558Y-110244492D02*
X136581451Y-109537385D01*
X133186025Y-111293737D02*
X132613605Y-111192722D01*
X132781964Y-111697798D02*
X132074857Y-110990691D01*
X132344231Y-110721317D01*
X132445247Y-110687646D01*
X132512590Y-110687646D01*
X132613605Y-110721317D01*
X132714621Y-110822333D01*
X132748292Y-110923348D01*
X132748292Y-110990691D01*
X132714621Y-111091707D01*
X132445247Y-111361081D01*
X133118682Y-110620302D02*
X133354384Y-110384600D01*
X133825788Y-110653974D02*
X133489071Y-110990691D01*
X132781964Y-110283585D01*
X133118682Y-109946867D01*
X133994147Y-109744837D02*
X133758445Y-109980539D01*
X134128834Y-110350928D02*
X133421727Y-109643821D01*
X133758445Y-109307104D01*
X134128834Y-108936715D02*
X134297193Y-109105073D01*
X134061491Y-109206089D02*
X134297193Y-109105073D01*
X134398208Y-108869371D01*
X134330865Y-109340776D02*
X134297193Y-109105073D01*
X134532895Y-109138745D01*
X134667582Y-108397967D02*
X134835941Y-108566325D01*
X134600239Y-108667341D02*
X134835941Y-108566325D01*
X134936956Y-108330623D01*
X134869613Y-108802028D02*
X134835941Y-108566325D01*
X135071643Y-108599997D01*
G04 #@! TO.C,L2*
X161501368Y-109983126D02*
X161972772Y-109511721D01*
X161400353Y-110420858D02*
X162073788Y-110084141D01*
X161636055Y-109646408D01*
X161535040Y-109208675D02*
X161535040Y-109141332D01*
X161602383Y-109141332D01*
X161602383Y-109208675D01*
X161535040Y-109208675D01*
X161602383Y-109141332D01*
X160625902Y-109579065D02*
X160154498Y-109107660D01*
X161164650Y-108703599D01*
X159279032Y-107760790D02*
X159750437Y-107289385D01*
X159582078Y-108063836D02*
X159952467Y-107693446D01*
X159986139Y-107592431D01*
X159952467Y-107491416D01*
X159851452Y-107390401D01*
X159750437Y-107356729D01*
X159683093Y-107356729D01*
X159413719Y-106952668D02*
X158706612Y-107659775D01*
X159043330Y-107323057D02*
X158639269Y-106918996D01*
X159009658Y-106548607D02*
X158302551Y-107255714D01*
X160058903Y-110651140D02*
X159957888Y-111223560D01*
X160462964Y-111055201D02*
X159755857Y-111762308D01*
X159486483Y-111492934D01*
X159452812Y-111391918D01*
X159452812Y-111324575D01*
X159486483Y-111223560D01*
X159587499Y-111122544D01*
X159688514Y-111088873D01*
X159755857Y-111088873D01*
X159856873Y-111122544D01*
X160126247Y-111391918D01*
X159385468Y-110718483D02*
X159149766Y-110482781D01*
X159419140Y-110011377D02*
X159755857Y-110348094D01*
X159048751Y-111055201D01*
X158712033Y-110718483D01*
X158510003Y-109843018D02*
X158745705Y-110078720D01*
X159116094Y-109708331D02*
X158408987Y-110415438D01*
X158072270Y-110078720D01*
X157701881Y-109708331D02*
X157870239Y-109539972D01*
X157971255Y-109775674D02*
X157870239Y-109539972D01*
X157634537Y-109438957D01*
X158105942Y-109506300D02*
X157870239Y-109539972D01*
X157903911Y-109304270D01*
X157163133Y-109169583D02*
X157331491Y-109001224D01*
X157432507Y-109236926D02*
X157331491Y-109001224D01*
X157095789Y-108900209D01*
X157567194Y-108967552D02*
X157331491Y-109001224D01*
X157365163Y-108765522D01*
G04 #@! TO.C,TP2*
X186396666Y-64143000D02*
X186301428Y-64095380D01*
X186158571Y-64095380D01*
X186015714Y-64143000D01*
X185920476Y-64238238D01*
X185872857Y-64333476D01*
X185825238Y-64523952D01*
X185825238Y-64666809D01*
X185872857Y-64857285D01*
X185920476Y-64952523D01*
X186015714Y-65047761D01*
X186158571Y-65095380D01*
X186253809Y-65095380D01*
X186396666Y-65047761D01*
X186444285Y-65000142D01*
X186444285Y-64666809D01*
X186253809Y-64666809D01*
X186872857Y-65095380D02*
X186872857Y-64095380D01*
X187444285Y-65095380D01*
X187444285Y-64095380D01*
X187920476Y-65095380D02*
X187920476Y-64095380D01*
X188158571Y-64095380D01*
X188301428Y-64143000D01*
X188396666Y-64238238D01*
X188444285Y-64333476D01*
X188491904Y-64523952D01*
X188491904Y-64666809D01*
X188444285Y-64857285D01*
X188396666Y-64952523D01*
X188301428Y-65047761D01*
X188158571Y-65095380D01*
X187920476Y-65095380D01*
X189539523Y-64095380D02*
X190110952Y-64095380D01*
X189825238Y-65095380D02*
X189825238Y-64095380D01*
X190444285Y-64571571D02*
X190777619Y-64571571D01*
X190920476Y-65095380D02*
X190444285Y-65095380D01*
X190444285Y-64095380D01*
X190920476Y-64095380D01*
X191301428Y-65047761D02*
X191444285Y-65095380D01*
X191682380Y-65095380D01*
X191777619Y-65047761D01*
X191825238Y-65000142D01*
X191872857Y-64904904D01*
X191872857Y-64809666D01*
X191825238Y-64714428D01*
X191777619Y-64666809D01*
X191682380Y-64619190D01*
X191491904Y-64571571D01*
X191396666Y-64523952D01*
X191349047Y-64476333D01*
X191301428Y-64381095D01*
X191301428Y-64285857D01*
X191349047Y-64190619D01*
X191396666Y-64143000D01*
X191491904Y-64095380D01*
X191730000Y-64095380D01*
X191872857Y-64143000D01*
X192158571Y-64095380D02*
X192730000Y-64095380D01*
X192444285Y-65095380D02*
X192444285Y-64095380D01*
X187896666Y-62047380D02*
X187563333Y-61571190D01*
X187325238Y-62047380D02*
X187325238Y-61047380D01*
X187706190Y-61047380D01*
X187801428Y-61095000D01*
X187849047Y-61142619D01*
X187896666Y-61237857D01*
X187896666Y-61380714D01*
X187849047Y-61475952D01*
X187801428Y-61523571D01*
X187706190Y-61571190D01*
X187325238Y-61571190D01*
X188325238Y-61523571D02*
X188658571Y-61523571D01*
X188801428Y-62047380D02*
X188325238Y-62047380D01*
X188325238Y-61047380D01*
X188801428Y-61047380D01*
X189563333Y-61523571D02*
X189230000Y-61523571D01*
X189230000Y-62047380D02*
X189230000Y-61047380D01*
X189706190Y-61047380D01*
X190230000Y-61047380D02*
X190230000Y-61285476D01*
X189991904Y-61190238D02*
X190230000Y-61285476D01*
X190468095Y-61190238D01*
X190087142Y-61475952D02*
X190230000Y-61285476D01*
X190372857Y-61475952D01*
X190991904Y-61047380D02*
X190991904Y-61285476D01*
X190753809Y-61190238D02*
X190991904Y-61285476D01*
X191230000Y-61190238D01*
X190849047Y-61475952D02*
X190991904Y-61285476D01*
X191134761Y-61475952D01*
G04 #@! TO.C,U1*
X138336400Y-101425000D02*
X138288780Y-101520238D01*
X138288780Y-101663095D01*
X138336400Y-101805952D01*
X138431638Y-101901190D01*
X138526876Y-101948809D01*
X138717352Y-101996428D01*
X138860209Y-101996428D01*
X139050685Y-101948809D01*
X139145923Y-101901190D01*
X139241161Y-101805952D01*
X139288780Y-101663095D01*
X139288780Y-101567857D01*
X139241161Y-101425000D01*
X139193542Y-101377380D01*
X138860209Y-101377380D01*
X138860209Y-101567857D01*
X139003066Y-100996428D02*
X139003066Y-100520238D01*
X139288780Y-101091666D02*
X138288780Y-100758333D01*
X139288780Y-100425000D01*
X139288780Y-99615476D02*
X139288780Y-100091666D01*
X138288780Y-100091666D01*
X139288780Y-99282142D02*
X138288780Y-99282142D01*
X138907828Y-98805952D02*
X138907828Y-98044047D01*
X138288780Y-97663095D02*
X138288780Y-96996428D01*
X139288780Y-97425000D01*
X138622114Y-96186904D02*
X139288780Y-96186904D01*
X138241161Y-96425000D02*
X138955447Y-96663095D01*
X138955447Y-96044047D01*
X138907828Y-95663095D02*
X138907828Y-94901190D01*
X139288780Y-95282142D02*
X138526876Y-95282142D01*
X133634895Y-97189380D02*
X133634895Y-97998904D01*
X133682514Y-98094142D01*
X133730133Y-98141761D01*
X133825371Y-98189380D01*
X134015847Y-98189380D01*
X134111085Y-98141761D01*
X134158704Y-98094142D01*
X134206323Y-97998904D01*
X134206323Y-97189380D01*
X135206323Y-98189380D02*
X134634895Y-98189380D01*
X134920609Y-98189380D02*
X134920609Y-97189380D01*
X134825371Y-97332238D01*
X134730133Y-97427476D01*
X134634895Y-97475095D01*
G04 #@! TO.C,U4*
X141494190Y-73058400D02*
X141398952Y-73010780D01*
X141256095Y-73010780D01*
X141113238Y-73058400D01*
X141018000Y-73153638D01*
X140970380Y-73248876D01*
X140922761Y-73439352D01*
X140922761Y-73582209D01*
X140970380Y-73772685D01*
X141018000Y-73867923D01*
X141113238Y-73963161D01*
X141256095Y-74010780D01*
X141351333Y-74010780D01*
X141494190Y-73963161D01*
X141541809Y-73915542D01*
X141541809Y-73582209D01*
X141351333Y-73582209D01*
X141922761Y-73725066D02*
X142398952Y-73725066D01*
X141827523Y-74010780D02*
X142160857Y-73010780D01*
X142494190Y-74010780D01*
X143303714Y-74010780D02*
X142827523Y-74010780D01*
X142827523Y-73010780D01*
X143637047Y-74010780D02*
X143637047Y-73010780D01*
X144113238Y-73629828D02*
X144875142Y-73629828D01*
X145779904Y-73010780D02*
X145589428Y-73010780D01*
X145494190Y-73058400D01*
X145446571Y-73106019D01*
X145351333Y-73248876D01*
X145303714Y-73439352D01*
X145303714Y-73820304D01*
X145351333Y-73915542D01*
X145398952Y-73963161D01*
X145494190Y-74010780D01*
X145684666Y-74010780D01*
X145779904Y-73963161D01*
X145827523Y-73915542D01*
X145875142Y-73820304D01*
X145875142Y-73582209D01*
X145827523Y-73486971D01*
X145779904Y-73439352D01*
X145684666Y-73391733D01*
X145494190Y-73391733D01*
X145398952Y-73439352D01*
X145351333Y-73486971D01*
X145303714Y-73582209D01*
X146303714Y-73629828D02*
X147065619Y-73629828D01*
X146684666Y-74010780D02*
X146684666Y-73248876D01*
X142782380Y-78759904D02*
X143591904Y-78759904D01*
X143687142Y-78712285D01*
X143734761Y-78664666D01*
X143782380Y-78569428D01*
X143782380Y-78378952D01*
X143734761Y-78283714D01*
X143687142Y-78236095D01*
X143591904Y-78188476D01*
X142782380Y-78188476D01*
X143115714Y-77283714D02*
X143782380Y-77283714D01*
X142734761Y-77521809D02*
X143449047Y-77759904D01*
X143449047Y-77140857D01*
G04 #@! TO.C,JP2*
X117562380Y-104523523D02*
X118276666Y-104523523D01*
X118419523Y-104571142D01*
X118514761Y-104666380D01*
X118562380Y-104809238D01*
X118562380Y-104904476D01*
X118514761Y-104094952D02*
X118562380Y-103952095D01*
X118562380Y-103714000D01*
X118514761Y-103618761D01*
X118467142Y-103571142D01*
X118371904Y-103523523D01*
X118276666Y-103523523D01*
X118181428Y-103571142D01*
X118133809Y-103618761D01*
X118086190Y-103714000D01*
X118038571Y-103904476D01*
X117990952Y-103999714D01*
X117943333Y-104047333D01*
X117848095Y-104094952D01*
X117752857Y-104094952D01*
X117657619Y-104047333D01*
X117610000Y-103999714D01*
X117562380Y-103904476D01*
X117562380Y-103666380D01*
X117610000Y-103523523D01*
X118562380Y-102571142D02*
X118562380Y-103142571D01*
X118562380Y-102856857D02*
X117562380Y-102856857D01*
X117705238Y-102952095D01*
X117800476Y-103047333D01*
X117848095Y-103142571D01*
X117562380Y-101714000D02*
X117562380Y-101904476D01*
X117610000Y-101999714D01*
X117657619Y-102047333D01*
X117800476Y-102142571D01*
X117990952Y-102190190D01*
X118371904Y-102190190D01*
X118467142Y-102142571D01*
X118514761Y-102094952D01*
X118562380Y-101999714D01*
X118562380Y-101809238D01*
X118514761Y-101714000D01*
X118467142Y-101666380D01*
X118371904Y-101618761D01*
X118133809Y-101618761D01*
X118038571Y-101666380D01*
X117990952Y-101714000D01*
X117943333Y-101809238D01*
X117943333Y-101999714D01*
X117990952Y-102094952D01*
X118038571Y-102142571D01*
X118133809Y-102190190D01*
X117657619Y-101237809D02*
X117610000Y-101190190D01*
X117562380Y-101094952D01*
X117562380Y-100856857D01*
X117610000Y-100761619D01*
X117657619Y-100714000D01*
X117752857Y-100666380D01*
X117848095Y-100666380D01*
X117990952Y-100714000D01*
X118562380Y-101285428D01*
X118562380Y-100666380D01*
X118562380Y-99714000D02*
X118562380Y-100285428D01*
X118562380Y-99999714D02*
X117562380Y-99999714D01*
X117705238Y-100094952D01*
X117800476Y-100190190D01*
X117848095Y-100285428D01*
X118181428Y-99285428D02*
X118181428Y-98523523D01*
X117895714Y-97618761D02*
X118562380Y-97618761D01*
X117514761Y-97856857D02*
X118229047Y-98094952D01*
X118229047Y-97475904D01*
X117562380Y-96666380D02*
X117562380Y-96856857D01*
X117610000Y-96952095D01*
X117657619Y-96999714D01*
X117800476Y-97094952D01*
X117990952Y-97142571D01*
X118371904Y-97142571D01*
X118467142Y-97094952D01*
X118514761Y-97047333D01*
X118562380Y-96952095D01*
X118562380Y-96761619D01*
X118514761Y-96666380D01*
X118467142Y-96618761D01*
X118371904Y-96571142D01*
X118133809Y-96571142D01*
X118038571Y-96618761D01*
X117990952Y-96666380D01*
X117943333Y-96761619D01*
X117943333Y-96952095D01*
X117990952Y-97047333D01*
X118038571Y-97094952D01*
X118133809Y-97142571D01*
X118562380Y-95571142D02*
X118086190Y-95904476D01*
X118562380Y-96142571D02*
X117562380Y-96142571D01*
X117562380Y-95761619D01*
X117610000Y-95666380D01*
X117657619Y-95618761D01*
X117752857Y-95571142D01*
X117895714Y-95571142D01*
X117990952Y-95618761D01*
X118038571Y-95666380D01*
X118086190Y-95761619D01*
X118086190Y-96142571D01*
X120356380Y-101047333D02*
X121070666Y-101047333D01*
X121213523Y-101094952D01*
X121308761Y-101190190D01*
X121356380Y-101333047D01*
X121356380Y-101428285D01*
X121356380Y-100571142D02*
X120356380Y-100571142D01*
X120356380Y-100190190D01*
X120404000Y-100094952D01*
X120451619Y-100047333D01*
X120546857Y-99999714D01*
X120689714Y-99999714D01*
X120784952Y-100047333D01*
X120832571Y-100094952D01*
X120880190Y-100190190D01*
X120880190Y-100571142D01*
X120451619Y-99618761D02*
X120404000Y-99571142D01*
X120356380Y-99475904D01*
X120356380Y-99237809D01*
X120404000Y-99142571D01*
X120451619Y-99094952D01*
X120546857Y-99047333D01*
X120642095Y-99047333D01*
X120784952Y-99094952D01*
X121356380Y-99666380D01*
X121356380Y-99047333D01*
G04 #@! TO.C,L4*
X135783059Y-75096714D02*
X135783059Y-75763380D01*
X135544964Y-74715761D02*
X135306869Y-75430047D01*
X135925916Y-75430047D01*
X136306869Y-75668142D02*
X136354488Y-75715761D01*
X136306869Y-75763380D01*
X136259250Y-75715761D01*
X136306869Y-75668142D01*
X136306869Y-75763380D01*
X136687821Y-74763380D02*
X137354488Y-74763380D01*
X136925916Y-75763380D01*
X138925916Y-75096714D02*
X138925916Y-75763380D01*
X138497345Y-75096714D02*
X138497345Y-75620523D01*
X138544964Y-75715761D01*
X138640202Y-75763380D01*
X138783059Y-75763380D01*
X138878297Y-75715761D01*
X138925916Y-75668142D01*
X139402107Y-75763380D02*
X139402107Y-74763380D01*
X139402107Y-75239571D02*
X139973535Y-75239571D01*
X139973535Y-75763380D02*
X139973535Y-74763380D01*
X136330678Y-73604380D02*
X135997345Y-73128190D01*
X135759250Y-73604380D02*
X135759250Y-72604380D01*
X136140202Y-72604380D01*
X136235440Y-72652000D01*
X136283059Y-72699619D01*
X136330678Y-72794857D01*
X136330678Y-72937714D01*
X136283059Y-73032952D01*
X136235440Y-73080571D01*
X136140202Y-73128190D01*
X135759250Y-73128190D01*
X136759250Y-73080571D02*
X137092583Y-73080571D01*
X137235440Y-73604380D02*
X136759250Y-73604380D01*
X136759250Y-72604380D01*
X137235440Y-72604380D01*
X137997345Y-73080571D02*
X137664012Y-73080571D01*
X137664012Y-73604380D02*
X137664012Y-72604380D01*
X138140202Y-72604380D01*
X138664012Y-72604380D02*
X138664012Y-72842476D01*
X138425916Y-72747238D02*
X138664012Y-72842476D01*
X138902107Y-72747238D01*
X138521154Y-73032952D02*
X138664012Y-72842476D01*
X138806869Y-73032952D01*
X139425916Y-72604380D02*
X139425916Y-72842476D01*
X139187821Y-72747238D02*
X139425916Y-72842476D01*
X139664012Y-72747238D01*
X139283059Y-73032952D02*
X139425916Y-72842476D01*
X139568773Y-73032952D01*
G04 #@! TO.C,FB3*
X136004333Y-75254380D02*
X136004333Y-74254380D01*
X136004333Y-74730571D02*
X136575761Y-74730571D01*
X136575761Y-75254380D02*
X136575761Y-74254380D01*
X136956714Y-74254380D02*
X137623380Y-74254380D01*
X136956714Y-75254380D01*
X137623380Y-75254380D01*
X138194809Y-74254380D02*
X138290047Y-74254380D01*
X138385285Y-74302000D01*
X138432904Y-74349619D01*
X138480523Y-74444857D01*
X138528142Y-74635333D01*
X138528142Y-74873428D01*
X138480523Y-75063904D01*
X138432904Y-75159142D01*
X138385285Y-75206761D01*
X138290047Y-75254380D01*
X138194809Y-75254380D01*
X138099571Y-75206761D01*
X138051952Y-75159142D01*
X138004333Y-75063904D01*
X137956714Y-74873428D01*
X137956714Y-74635333D01*
X138004333Y-74444857D01*
X138051952Y-74349619D01*
X138099571Y-74302000D01*
X138194809Y-74254380D01*
X139099571Y-74682952D02*
X139004333Y-74635333D01*
X138956714Y-74587714D01*
X138909095Y-74492476D01*
X138909095Y-74444857D01*
X138956714Y-74349619D01*
X139004333Y-74302000D01*
X139099571Y-74254380D01*
X139290047Y-74254380D01*
X139385285Y-74302000D01*
X139432904Y-74349619D01*
X139480523Y-74444857D01*
X139480523Y-74492476D01*
X139432904Y-74587714D01*
X139385285Y-74635333D01*
X139290047Y-74682952D01*
X139099571Y-74682952D01*
X139004333Y-74730571D01*
X138956714Y-74778190D01*
X138909095Y-74873428D01*
X138909095Y-75063904D01*
X138956714Y-75159142D01*
X139004333Y-75206761D01*
X139099571Y-75254380D01*
X139290047Y-75254380D01*
X139385285Y-75206761D01*
X139432904Y-75159142D01*
X139480523Y-75063904D01*
X139480523Y-74873428D01*
X139432904Y-74778190D01*
X139385285Y-74730571D01*
X139290047Y-74682952D01*
X140099571Y-74254380D02*
X140194809Y-74254380D01*
X140290047Y-74302000D01*
X140337666Y-74349619D01*
X140385285Y-74444857D01*
X140432904Y-74635333D01*
X140432904Y-74873428D01*
X140385285Y-75063904D01*
X140337666Y-75159142D01*
X140290047Y-75206761D01*
X140194809Y-75254380D01*
X140099571Y-75254380D01*
X140004333Y-75206761D01*
X139956714Y-75159142D01*
X139909095Y-75063904D01*
X139861476Y-74873428D01*
X139861476Y-74635333D01*
X139909095Y-74444857D01*
X139956714Y-74349619D01*
X140004333Y-74302000D01*
X140099571Y-74254380D01*
X141337666Y-74254380D02*
X140861476Y-74254380D01*
X140813857Y-74730571D01*
X140861476Y-74682952D01*
X140956714Y-74635333D01*
X141194809Y-74635333D01*
X141290047Y-74682952D01*
X141337666Y-74730571D01*
X141385285Y-74825809D01*
X141385285Y-75063904D01*
X141337666Y-75159142D01*
X141290047Y-75206761D01*
X141194809Y-75254380D01*
X140956714Y-75254380D01*
X140861476Y-75206761D01*
X140813857Y-75159142D01*
X142385285Y-75159142D02*
X142337666Y-75206761D01*
X142194809Y-75254380D01*
X142099571Y-75254380D01*
X141956714Y-75206761D01*
X141861476Y-75111523D01*
X141813857Y-75016285D01*
X141766238Y-74825809D01*
X141766238Y-74682952D01*
X141813857Y-74492476D01*
X141861476Y-74397238D01*
X141956714Y-74302000D01*
X142099571Y-74254380D01*
X142194809Y-74254380D01*
X142337666Y-74302000D01*
X142385285Y-74349619D01*
X142766238Y-74349619D02*
X142813857Y-74302000D01*
X142909095Y-74254380D01*
X143147190Y-74254380D01*
X143242428Y-74302000D01*
X143290047Y-74349619D01*
X143337666Y-74444857D01*
X143337666Y-74540095D01*
X143290047Y-74682952D01*
X142718619Y-75254380D01*
X143337666Y-75254380D01*
X143956714Y-74254380D02*
X144051952Y-74254380D01*
X144147190Y-74302000D01*
X144194809Y-74349619D01*
X144242428Y-74444857D01*
X144290047Y-74635333D01*
X144290047Y-74873428D01*
X144242428Y-75063904D01*
X144194809Y-75159142D01*
X144147190Y-75206761D01*
X144051952Y-75254380D01*
X143956714Y-75254380D01*
X143861476Y-75206761D01*
X143813857Y-75159142D01*
X143766238Y-75063904D01*
X143718619Y-74873428D01*
X143718619Y-74635333D01*
X143766238Y-74444857D01*
X143813857Y-74349619D01*
X143861476Y-74302000D01*
X143956714Y-74254380D01*
X144671000Y-74349619D02*
X144718619Y-74302000D01*
X144813857Y-74254380D01*
X145051952Y-74254380D01*
X145147190Y-74302000D01*
X145194809Y-74349619D01*
X145242428Y-74444857D01*
X145242428Y-74540095D01*
X145194809Y-74682952D01*
X144623380Y-75254380D01*
X145242428Y-75254380D01*
X146242428Y-75254380D02*
X145909095Y-74778190D01*
X145671000Y-75254380D02*
X145671000Y-74254380D01*
X146051952Y-74254380D01*
X146147190Y-74302000D01*
X146194809Y-74349619D01*
X146242428Y-74444857D01*
X146242428Y-74587714D01*
X146194809Y-74682952D01*
X146147190Y-74730571D01*
X146051952Y-74778190D01*
X145671000Y-74778190D01*
X146671000Y-74873428D02*
X147432904Y-74873428D01*
X148432904Y-75254380D02*
X147861476Y-75254380D01*
X148147190Y-75254380D02*
X148147190Y-74254380D01*
X148051952Y-74397238D01*
X147956714Y-74492476D01*
X147861476Y-74540095D01*
X149051952Y-74254380D02*
X149147190Y-74254380D01*
X149242428Y-74302000D01*
X149290047Y-74349619D01*
X149337666Y-74444857D01*
X149385285Y-74635333D01*
X149385285Y-74873428D01*
X149337666Y-75063904D01*
X149290047Y-75159142D01*
X149242428Y-75206761D01*
X149147190Y-75254380D01*
X149051952Y-75254380D01*
X148956714Y-75206761D01*
X148909095Y-75159142D01*
X148861476Y-75063904D01*
X148813857Y-74873428D01*
X148813857Y-74635333D01*
X148861476Y-74444857D01*
X148909095Y-74349619D01*
X148956714Y-74302000D01*
X149051952Y-74254380D01*
D12*
X142254333Y-73116285D02*
X142087666Y-73116285D01*
X142087666Y-73378190D02*
X142087666Y-72878190D01*
X142325761Y-72878190D01*
X142682904Y-73116285D02*
X142754333Y-73140095D01*
X142778142Y-73163904D01*
X142801952Y-73211523D01*
X142801952Y-73282952D01*
X142778142Y-73330571D01*
X142754333Y-73354380D01*
X142706714Y-73378190D01*
X142516238Y-73378190D01*
X142516238Y-72878190D01*
X142682904Y-72878190D01*
X142730523Y-72902000D01*
X142754333Y-72925809D01*
X142778142Y-72973428D01*
X142778142Y-73021047D01*
X142754333Y-73068666D01*
X142730523Y-73092476D01*
X142682904Y-73116285D01*
X142516238Y-73116285D01*
X142968619Y-72878190D02*
X143278142Y-72878190D01*
X143111476Y-73068666D01*
X143182904Y-73068666D01*
X143230523Y-73092476D01*
X143254333Y-73116285D01*
X143278142Y-73163904D01*
X143278142Y-73282952D01*
X143254333Y-73330571D01*
X143230523Y-73354380D01*
X143182904Y-73378190D01*
X143040047Y-73378190D01*
X142992428Y-73354380D01*
X142968619Y-73330571D01*
D10*
G04 #@! TO.C,L3*
X168188571Y-90738351D02*
X168659975Y-90266946D01*
X168087556Y-91176083D02*
X168760991Y-90839366D01*
X168323258Y-90401633D01*
X168222243Y-89963900D02*
X168222243Y-89896557D01*
X168289586Y-89896557D01*
X168289586Y-89963900D01*
X168222243Y-89963900D01*
X168289586Y-89896557D01*
X167313105Y-90334290D02*
X166841701Y-89862885D01*
X167851853Y-89458824D01*
X165966235Y-88516015D02*
X166437640Y-88044610D01*
X166269281Y-88819061D02*
X166639670Y-88448671D01*
X166673342Y-88347656D01*
X166639670Y-88246641D01*
X166538655Y-88145626D01*
X166437640Y-88111954D01*
X166370296Y-88111954D01*
X166100922Y-87707893D02*
X165393815Y-88415000D01*
X165730533Y-88078282D02*
X165326472Y-87674221D01*
X165696861Y-87303832D02*
X164989754Y-88010939D01*
X170607617Y-87544854D02*
X170506602Y-88117274D01*
X171011678Y-87948915D02*
X170304571Y-88656022D01*
X170035197Y-88386648D01*
X170001526Y-88285632D01*
X170001526Y-88218289D01*
X170035197Y-88117274D01*
X170136213Y-88016258D01*
X170237228Y-87982587D01*
X170304571Y-87982587D01*
X170405587Y-88016258D01*
X170674961Y-88285632D01*
X169934182Y-87612197D02*
X169698480Y-87376495D01*
X169967854Y-86905091D02*
X170304571Y-87241808D01*
X169597465Y-87948915D01*
X169260747Y-87612197D01*
X169058717Y-86736732D02*
X169294419Y-86972434D01*
X169664808Y-86602045D02*
X168957701Y-87309152D01*
X168620984Y-86972434D01*
X168250595Y-86602045D02*
X168418953Y-86433686D01*
X168519969Y-86669388D02*
X168418953Y-86433686D01*
X168183251Y-86332671D01*
X168654656Y-86400014D02*
X168418953Y-86433686D01*
X168452625Y-86197984D01*
X167711847Y-86063297D02*
X167880205Y-85894938D01*
X167981221Y-86130640D02*
X167880205Y-85894938D01*
X167644503Y-85793923D01*
X168115908Y-85861266D02*
X167880205Y-85894938D01*
X167913877Y-85659236D01*
G04 #@! TO.C,GDT1*
X157334361Y-77509275D02*
X157334361Y-77441932D01*
X157368032Y-77340916D01*
X157536391Y-77172558D01*
X157637406Y-77138886D01*
X157704750Y-77138886D01*
X157805765Y-77172558D01*
X157873109Y-77239901D01*
X157940452Y-77374588D01*
X157940452Y-78182710D01*
X158378185Y-77744977D01*
X158108811Y-76600138D02*
X158176154Y-76532794D01*
X158277170Y-76499123D01*
X158344513Y-76499123D01*
X158445528Y-76532794D01*
X158613887Y-76633810D01*
X158782246Y-76802168D01*
X158883261Y-76970527D01*
X158916933Y-77071542D01*
X158916933Y-77138886D01*
X158883261Y-77239901D01*
X158815918Y-77307245D01*
X158714902Y-77340916D01*
X158647559Y-77340916D01*
X158546544Y-77307245D01*
X158378185Y-77206229D01*
X158209826Y-77037871D01*
X158108811Y-76869512D01*
X158075139Y-76768497D01*
X158075139Y-76701153D01*
X158108811Y-76600138D01*
X158580215Y-76128733D02*
X159017948Y-75691001D01*
X159051620Y-76196077D01*
X159152635Y-76095062D01*
X159253650Y-76061390D01*
X159320994Y-76061390D01*
X159422009Y-76095062D01*
X159590368Y-76263420D01*
X159624040Y-76364436D01*
X159624040Y-76431779D01*
X159590368Y-76532794D01*
X159388337Y-76734825D01*
X159287322Y-76768497D01*
X159219979Y-76768497D01*
X159657711Y-75051237D02*
X159320994Y-75387955D01*
X159624040Y-75758344D01*
X159624040Y-75691001D01*
X159657711Y-75589985D01*
X159826070Y-75421627D01*
X159927085Y-75387955D01*
X159994429Y-75387955D01*
X160095444Y-75421627D01*
X160263803Y-75589985D01*
X160297475Y-75691001D01*
X160297475Y-75758344D01*
X160263803Y-75859359D01*
X160095444Y-76027718D01*
X159994429Y-76061390D01*
X159927085Y-76061390D01*
X160432162Y-75152253D02*
X160970910Y-74613505D01*
X161004581Y-73704367D02*
X161071925Y-73637024D01*
X161172940Y-73603352D01*
X161240284Y-73603352D01*
X161341299Y-73637024D01*
X161509658Y-73738039D01*
X161678016Y-73906398D01*
X161779032Y-74074757D01*
X161812703Y-74175772D01*
X161812703Y-74243115D01*
X161779032Y-74344131D01*
X161711688Y-74411474D01*
X161610673Y-74445146D01*
X161543329Y-74445146D01*
X161442314Y-74411474D01*
X161273955Y-74310459D01*
X161105597Y-74142100D01*
X161004581Y-73973741D01*
X160970910Y-73872726D01*
X160970910Y-73805383D01*
X161004581Y-73704367D01*
X162284108Y-73839054D02*
X162418795Y-73704367D01*
X162452467Y-73603352D01*
X162452467Y-73536009D01*
X162418795Y-73367650D01*
X162317780Y-73199291D01*
X162048406Y-72929917D01*
X161947390Y-72896245D01*
X161880047Y-72896245D01*
X161779032Y-72929917D01*
X161644345Y-73064604D01*
X161610673Y-73165619D01*
X161610673Y-73232963D01*
X161644345Y-73333978D01*
X161812703Y-73502337D01*
X161913719Y-73536009D01*
X161981062Y-73536009D01*
X162082077Y-73502337D01*
X162216764Y-73367650D01*
X162250436Y-73266635D01*
X162250436Y-73199291D01*
X162216764Y-73098276D01*
X162654497Y-72929917D02*
X163193245Y-72391169D01*
X163731993Y-72323825D02*
X163866680Y-72256482D01*
X164035039Y-72088123D01*
X164068711Y-71987108D01*
X164068711Y-71919764D01*
X164035039Y-71818749D01*
X163967696Y-71751406D01*
X163866680Y-71717734D01*
X163799337Y-71717734D01*
X163698322Y-71751406D01*
X163529963Y-71852421D01*
X163428948Y-71886093D01*
X163361604Y-71886093D01*
X163260589Y-71852421D01*
X163193245Y-71785077D01*
X163159574Y-71684062D01*
X163159574Y-71616719D01*
X163193245Y-71515703D01*
X163361604Y-71347345D01*
X163496291Y-71280001D01*
X164472772Y-71650390D02*
X163765665Y-70943284D01*
X164506444Y-71212658D01*
X164237070Y-70471879D01*
X164944176Y-71178986D01*
X165011520Y-70572894D02*
X165550268Y-70034146D01*
X166560420Y-69562742D02*
X165988001Y-69461727D01*
X166156359Y-69966803D02*
X165449253Y-69259696D01*
X165718627Y-68990322D01*
X165819642Y-68956650D01*
X165886985Y-68956650D01*
X165988001Y-68990322D01*
X166089016Y-69091337D01*
X166122688Y-69192353D01*
X166122688Y-69259696D01*
X166089016Y-69360711D01*
X165819642Y-69630085D01*
X166863466Y-69259696D02*
X166156359Y-68552589D01*
X166425733Y-68283215D01*
X166526749Y-68249544D01*
X166594092Y-68249544D01*
X166695107Y-68283215D01*
X166796123Y-68384231D01*
X166829794Y-68485246D01*
X166829794Y-68552589D01*
X166796123Y-68653605D01*
X166526749Y-68922979D01*
X167907290Y-68215872D02*
X167570573Y-68552589D01*
X166863466Y-67845483D01*
X168008306Y-67374078D02*
X167772603Y-67609780D01*
X168142993Y-67980170D02*
X167435886Y-67273063D01*
X167772603Y-66936345D01*
X163371215Y-72426612D02*
X163270200Y-72999032D01*
X163775276Y-72830673D02*
X163068169Y-73537780D01*
X162798795Y-73268406D01*
X162765124Y-73167390D01*
X162765124Y-73100047D01*
X162798795Y-72999032D01*
X162899811Y-72898016D01*
X163000826Y-72864345D01*
X163068169Y-72864345D01*
X163169185Y-72898016D01*
X163438559Y-73167390D01*
X162697780Y-72493955D02*
X162462078Y-72258253D01*
X162731452Y-71786849D02*
X163068169Y-72123566D01*
X162361063Y-72830673D01*
X162024345Y-72493955D01*
X161822315Y-71618490D02*
X162058017Y-71854192D01*
X162428406Y-71483803D02*
X161721299Y-72190910D01*
X161384582Y-71854192D01*
X161014193Y-71483803D02*
X161182551Y-71315444D01*
X161283567Y-71551146D02*
X161182551Y-71315444D01*
X160946849Y-71214429D01*
X161418254Y-71281772D02*
X161182551Y-71315444D01*
X161216223Y-71079742D01*
X160475445Y-70945055D02*
X160643803Y-70776696D01*
X160744819Y-71012398D02*
X160643803Y-70776696D01*
X160408101Y-70675681D01*
X160879506Y-70743024D02*
X160643803Y-70776696D01*
X160677475Y-70540994D01*
G04 #@! TO.C,MH1*
X169286770Y-120629628D02*
X169191532Y-120582008D01*
X169048675Y-120582008D01*
X168905818Y-120629628D01*
X168810580Y-120724866D01*
X168762961Y-120820104D01*
X168715342Y-121010580D01*
X168715342Y-121153437D01*
X168762961Y-121343913D01*
X168810580Y-121439151D01*
X168905818Y-121534389D01*
X169048675Y-121582008D01*
X169143913Y-121582008D01*
X169286770Y-121534389D01*
X169334389Y-121486770D01*
X169334389Y-121153437D01*
X169143913Y-121153437D01*
X169762961Y-121582008D02*
X169762961Y-120582008D01*
X170334389Y-121582008D01*
X170334389Y-120582008D01*
X170810580Y-121582008D02*
X170810580Y-120582008D01*
X171048675Y-120582008D01*
X171191532Y-120629628D01*
X171286770Y-120724866D01*
X171334389Y-120820104D01*
X171382008Y-121010580D01*
X171382008Y-121153437D01*
X171334389Y-121343913D01*
X171286770Y-121439151D01*
X171191532Y-121534389D01*
X171048675Y-121582008D01*
X170810580Y-121582008D01*
X171572485Y-121677247D02*
X172334389Y-121677247D01*
X172905818Y-121058199D02*
X173048675Y-121105818D01*
X173096294Y-121153437D01*
X173143913Y-121248675D01*
X173143913Y-121391532D01*
X173096294Y-121486770D01*
X173048675Y-121534389D01*
X172953437Y-121582008D01*
X172572485Y-121582008D01*
X172572485Y-120582008D01*
X172905818Y-120582008D01*
X173001056Y-120629628D01*
X173048675Y-120677247D01*
X173096294Y-120772485D01*
X173096294Y-120867723D01*
X173048675Y-120962961D01*
X173001056Y-121010580D01*
X172905818Y-121058199D01*
X172572485Y-121058199D01*
X173715342Y-121582008D02*
X173620104Y-121534389D01*
X173572485Y-121486770D01*
X173524866Y-121391532D01*
X173524866Y-121105818D01*
X173572485Y-121010580D01*
X173620104Y-120962961D01*
X173715342Y-120915342D01*
X173858199Y-120915342D01*
X173953437Y-120962961D01*
X174001056Y-121010580D01*
X174048675Y-121105818D01*
X174048675Y-121391532D01*
X174001056Y-121486770D01*
X173953437Y-121534389D01*
X173858199Y-121582008D01*
X173715342Y-121582008D01*
X174620104Y-121582008D02*
X174524866Y-121534389D01*
X174477247Y-121439151D01*
X174477247Y-120582008D01*
X174858199Y-120915342D02*
X175239151Y-120915342D01*
X175001056Y-120582008D02*
X175001056Y-121439151D01*
X175048675Y-121534389D01*
X175143913Y-121582008D01*
X175239151Y-121582008D01*
G04 #@! TO.C,FB1*
X133516208Y-113297006D02*
X132809101Y-112589900D01*
X133145819Y-112926617D02*
X133549880Y-112522556D01*
X133920269Y-112892945D02*
X133213162Y-112185839D01*
X133482536Y-111916465D02*
X133953941Y-111445060D01*
X134189643Y-112623571D01*
X134661047Y-112152167D01*
X134358002Y-111040999D02*
X134425345Y-110973655D01*
X134526360Y-110939984D01*
X134593704Y-110939984D01*
X134694719Y-110973655D01*
X134863078Y-111074671D01*
X135031437Y-111243030D01*
X135132452Y-111411388D01*
X135166124Y-111512404D01*
X135166124Y-111579747D01*
X135132452Y-111680762D01*
X135065108Y-111748106D01*
X134964093Y-111781778D01*
X134896750Y-111781778D01*
X134795734Y-111748106D01*
X134627376Y-111647091D01*
X134459017Y-111478732D01*
X134358002Y-111310373D01*
X134324330Y-111209358D01*
X134324330Y-111142014D01*
X134358002Y-111040999D01*
X135300811Y-110704281D02*
X135199796Y-110737953D01*
X135132452Y-110737953D01*
X135031437Y-110704281D01*
X134997765Y-110670610D01*
X134964093Y-110569594D01*
X134964093Y-110502251D01*
X134997765Y-110401236D01*
X135132452Y-110266549D01*
X135233467Y-110232877D01*
X135300811Y-110232877D01*
X135401826Y-110266549D01*
X135435498Y-110300220D01*
X135469170Y-110401236D01*
X135469170Y-110468579D01*
X135435498Y-110569594D01*
X135300811Y-110704281D01*
X135267139Y-110805297D01*
X135267139Y-110872640D01*
X135300811Y-110973655D01*
X135435498Y-111108343D01*
X135536513Y-111142014D01*
X135603857Y-111142014D01*
X135704872Y-111108343D01*
X135839559Y-110973655D01*
X135873231Y-110872640D01*
X135873231Y-110805297D01*
X135839559Y-110704281D01*
X135704872Y-110569594D01*
X135603857Y-110535923D01*
X135536513Y-110535923D01*
X135435498Y-110569594D01*
X135704872Y-109694129D02*
X135772215Y-109626785D01*
X135873231Y-109593114D01*
X135940574Y-109593114D01*
X136041589Y-109626785D01*
X136209948Y-109727801D01*
X136378307Y-109896159D01*
X136479322Y-110064518D01*
X136512994Y-110165533D01*
X136512994Y-110232877D01*
X136479322Y-110333892D01*
X136411979Y-110401236D01*
X136310963Y-110434907D01*
X136243620Y-110434907D01*
X136142605Y-110401236D01*
X135974246Y-110300220D01*
X135805887Y-110131862D01*
X135704872Y-109963503D01*
X135671200Y-109862488D01*
X135671200Y-109795144D01*
X135704872Y-109694129D01*
X136580337Y-108818663D02*
X136243620Y-109155381D01*
X136546666Y-109525770D01*
X136546666Y-109458427D01*
X136580337Y-109357411D01*
X136748696Y-109189053D01*
X136849711Y-109155381D01*
X136917055Y-109155381D01*
X137018070Y-109189053D01*
X137186429Y-109357411D01*
X137220101Y-109458427D01*
X137220101Y-109525770D01*
X137186429Y-109626785D01*
X137018070Y-109795144D01*
X136917055Y-109828816D01*
X136849711Y-109828816D01*
X137960879Y-108717648D02*
X137960879Y-108784992D01*
X137893536Y-108919679D01*
X137826192Y-108987022D01*
X137691505Y-109054366D01*
X137556818Y-109054366D01*
X137455803Y-109020694D01*
X137287444Y-108919679D01*
X137186429Y-108818663D01*
X137085414Y-108650305D01*
X137051742Y-108549289D01*
X137051742Y-108414602D01*
X137119085Y-108279915D01*
X137186429Y-108212572D01*
X137321116Y-108145228D01*
X137388459Y-108145228D01*
X137657833Y-107875854D02*
X137657833Y-107808511D01*
X137691505Y-107707496D01*
X137859864Y-107539137D01*
X137960879Y-107505465D01*
X138028223Y-107505465D01*
X138129238Y-107539137D01*
X138196581Y-107606480D01*
X138263925Y-107741167D01*
X138263925Y-108549289D01*
X138701658Y-108111557D01*
X138432284Y-106966717D02*
X138499627Y-106899374D01*
X138600642Y-106865702D01*
X138667986Y-106865702D01*
X138769001Y-106899374D01*
X138937360Y-107000389D01*
X139105719Y-107168748D01*
X139206734Y-107337106D01*
X139240406Y-107438122D01*
X139240406Y-107505465D01*
X139206734Y-107606480D01*
X139139390Y-107673824D01*
X139038375Y-107707496D01*
X138971032Y-107707496D01*
X138870016Y-107673824D01*
X138701658Y-107572809D01*
X138533299Y-107404450D01*
X138432284Y-107236091D01*
X138398612Y-107135076D01*
X138398612Y-107067732D01*
X138432284Y-106966717D01*
X139004703Y-106528984D02*
X139004703Y-106461641D01*
X139038375Y-106360626D01*
X139206734Y-106192267D01*
X139307749Y-106158595D01*
X139375093Y-106158595D01*
X139476108Y-106192267D01*
X139543451Y-106259610D01*
X139610795Y-106394297D01*
X139610795Y-107202419D01*
X140048528Y-106764687D01*
X140755635Y-106057580D02*
X140183215Y-105956565D01*
X140351573Y-106461641D02*
X139644467Y-105754534D01*
X139913841Y-105485160D01*
X140014856Y-105451488D01*
X140082199Y-105451488D01*
X140183215Y-105485160D01*
X140284230Y-105586175D01*
X140317902Y-105687191D01*
X140317902Y-105754534D01*
X140284230Y-105855549D01*
X140014856Y-106124923D01*
X140789306Y-105485160D02*
X141328054Y-104946412D01*
X142304535Y-104508679D02*
X141900474Y-104912740D01*
X142102505Y-104710710D02*
X141395398Y-104003603D01*
X141429070Y-104171962D01*
X141429070Y-104306649D01*
X141395398Y-104407664D01*
X142035161Y-103363840D02*
X142102505Y-103296496D01*
X142203520Y-103262824D01*
X142270863Y-103262824D01*
X142371879Y-103296496D01*
X142540237Y-103397511D01*
X142708596Y-103565870D01*
X142809611Y-103734229D01*
X142843283Y-103835244D01*
X142843283Y-103902588D01*
X142809611Y-104003603D01*
X142742268Y-104070946D01*
X142641253Y-104104618D01*
X142573909Y-104104618D01*
X142472894Y-104070946D01*
X142304535Y-103969931D01*
X142136176Y-103801572D01*
X142035161Y-103633214D01*
X142001489Y-103532198D01*
X142001489Y-103464855D01*
X142035161Y-103363840D01*
D12*
X136423764Y-107365728D02*
X136305913Y-107483579D01*
X136491107Y-107668773D02*
X136137554Y-107315220D01*
X136305913Y-107146861D01*
X136726810Y-107062682D02*
X136794153Y-107029010D01*
X136827825Y-107029010D01*
X136878333Y-107045846D01*
X136928840Y-107096354D01*
X136945676Y-107146861D01*
X136945676Y-107180533D01*
X136928840Y-107231041D01*
X136794153Y-107365728D01*
X136440600Y-107012174D01*
X136558451Y-106894323D01*
X136608958Y-106877487D01*
X136642630Y-106877487D01*
X136693138Y-106894323D01*
X136726810Y-106927995D01*
X136743646Y-106978502D01*
X136743646Y-107012174D01*
X136726810Y-107062682D01*
X136608958Y-107180533D01*
X137332901Y-106826979D02*
X137130871Y-107029010D01*
X137231886Y-106927995D02*
X136878333Y-106574441D01*
X136895168Y-106658621D01*
X136895168Y-106725964D01*
X136878333Y-106776472D01*
D10*
G04 #@! TO.C,MH2*
X118035514Y-69378372D02*
X117940276Y-69330752D01*
X117797419Y-69330752D01*
X117654562Y-69378372D01*
X117559324Y-69473610D01*
X117511705Y-69568848D01*
X117464086Y-69759324D01*
X117464086Y-69902181D01*
X117511705Y-70092657D01*
X117559324Y-70187895D01*
X117654562Y-70283133D01*
X117797419Y-70330752D01*
X117892657Y-70330752D01*
X118035514Y-70283133D01*
X118083133Y-70235514D01*
X118083133Y-69902181D01*
X117892657Y-69902181D01*
X118511705Y-70330752D02*
X118511705Y-69330752D01*
X119083133Y-70330752D01*
X119083133Y-69330752D01*
X119559324Y-70330752D02*
X119559324Y-69330752D01*
X119797419Y-69330752D01*
X119940276Y-69378372D01*
X120035514Y-69473610D01*
X120083133Y-69568848D01*
X120130752Y-69759324D01*
X120130752Y-69902181D01*
X120083133Y-70092657D01*
X120035514Y-70187895D01*
X119940276Y-70283133D01*
X119797419Y-70330752D01*
X119559324Y-70330752D01*
X120321229Y-70425991D02*
X121083133Y-70425991D01*
X121654562Y-69806943D02*
X121797419Y-69854562D01*
X121845038Y-69902181D01*
X121892657Y-69997419D01*
X121892657Y-70140276D01*
X121845038Y-70235514D01*
X121797419Y-70283133D01*
X121702181Y-70330752D01*
X121321229Y-70330752D01*
X121321229Y-69330752D01*
X121654562Y-69330752D01*
X121749800Y-69378372D01*
X121797419Y-69425991D01*
X121845038Y-69521229D01*
X121845038Y-69616467D01*
X121797419Y-69711705D01*
X121749800Y-69759324D01*
X121654562Y-69806943D01*
X121321229Y-69806943D01*
X122464086Y-70330752D02*
X122368848Y-70283133D01*
X122321229Y-70235514D01*
X122273610Y-70140276D01*
X122273610Y-69854562D01*
X122321229Y-69759324D01*
X122368848Y-69711705D01*
X122464086Y-69664086D01*
X122606943Y-69664086D01*
X122702181Y-69711705D01*
X122749800Y-69759324D01*
X122797419Y-69854562D01*
X122797419Y-70140276D01*
X122749800Y-70235514D01*
X122702181Y-70283133D01*
X122606943Y-70330752D01*
X122464086Y-70330752D01*
X123368848Y-70330752D02*
X123273610Y-70283133D01*
X123225991Y-70187895D01*
X123225991Y-69330752D01*
X123606943Y-69664086D02*
X123987895Y-69664086D01*
X123749800Y-69330752D02*
X123749800Y-70187895D01*
X123797419Y-70283133D01*
X123892657Y-70330752D01*
X123987895Y-70330752D01*
G04 #@! TO.C,C2*
X127613612Y-108577479D02*
X127680955Y-108510135D01*
X127781971Y-108476464D01*
X127849314Y-108476464D01*
X127950329Y-108510135D01*
X128118688Y-108611151D01*
X128287047Y-108779509D01*
X128388062Y-108947868D01*
X128421734Y-109048883D01*
X128421734Y-109116227D01*
X128388062Y-109217242D01*
X128320719Y-109284586D01*
X128219703Y-109318257D01*
X128152360Y-109318257D01*
X128051345Y-109284586D01*
X127882986Y-109183570D01*
X127714627Y-109015212D01*
X127613612Y-108846853D01*
X127579940Y-108745838D01*
X127579940Y-108678494D01*
X127613612Y-108577479D01*
X128792123Y-108678494D02*
X128859467Y-108678494D01*
X128859467Y-108745838D01*
X128792123Y-108745838D01*
X128792123Y-108678494D01*
X128859467Y-108745838D01*
X129566574Y-108038731D02*
X129162512Y-108442792D01*
X129364543Y-108240761D02*
X128657436Y-107533655D01*
X128691108Y-107702013D01*
X128691108Y-107836700D01*
X128657436Y-107937716D01*
X130240009Y-106422487D02*
X130711413Y-106893891D01*
X129936963Y-106725532D02*
X130307352Y-107095922D01*
X130408367Y-107129593D01*
X130509383Y-107095922D01*
X130610398Y-106994906D01*
X130644070Y-106893891D01*
X130644070Y-106826548D01*
X130913444Y-105951082D02*
X130677741Y-106186784D01*
X131048131Y-106557174D02*
X130341024Y-105850067D01*
X130677741Y-105513349D01*
D11*
X130826570Y-109116900D02*
X130826570Y-109170775D01*
X130772695Y-109278524D01*
X130718820Y-109332399D01*
X130611071Y-109386274D01*
X130503321Y-109386274D01*
X130422509Y-109359337D01*
X130287822Y-109278524D01*
X130207010Y-109197712D01*
X130126198Y-109063025D01*
X130099260Y-108982213D01*
X130099260Y-108874463D01*
X130153135Y-108766714D01*
X130207010Y-108712839D01*
X130314759Y-108658964D01*
X130368634Y-108658964D01*
X130584133Y-108443465D02*
X130584133Y-108389590D01*
X130611071Y-108308778D01*
X130745758Y-108174091D01*
X130826570Y-108147153D01*
X130880445Y-108147153D01*
X130961257Y-108174091D01*
X131015132Y-108227966D01*
X131069007Y-108335715D01*
X131069007Y-108982213D01*
X131419193Y-108632027D01*
D10*
G04 #@! TO.C,C3*
X161769821Y-111905139D02*
X161702477Y-111837796D01*
X161668806Y-111736780D01*
X161668806Y-111669437D01*
X161702477Y-111568422D01*
X161803493Y-111400063D01*
X161971851Y-111231704D01*
X162140210Y-111130689D01*
X162241225Y-111097017D01*
X162308569Y-111097017D01*
X162409584Y-111130689D01*
X162476928Y-111198032D01*
X162510599Y-111299048D01*
X162510599Y-111366391D01*
X162476928Y-111467406D01*
X162375912Y-111635765D01*
X162207554Y-111804124D01*
X162039195Y-111905139D01*
X161938180Y-111938811D01*
X161870836Y-111938811D01*
X161769821Y-111905139D01*
X161870836Y-110726628D02*
X161870836Y-110659284D01*
X161938180Y-110659284D01*
X161938180Y-110726628D01*
X161870836Y-110726628D01*
X161938180Y-110659284D01*
X161231073Y-109952177D02*
X161635134Y-110356239D01*
X161433103Y-110154208D02*
X160725997Y-110861315D01*
X160894355Y-110827643D01*
X161029042Y-110827643D01*
X161130058Y-110861315D01*
X159614829Y-109278742D02*
X160086233Y-108807338D01*
X159917874Y-109581788D02*
X160288264Y-109211399D01*
X160321935Y-109110384D01*
X160288264Y-109009368D01*
X160187248Y-108908353D01*
X160086233Y-108874681D01*
X160018890Y-108874681D01*
X159143424Y-108605307D02*
X159379126Y-108841010D01*
X159749516Y-108470620D02*
X159042409Y-109177727D01*
X158705691Y-108841010D01*
D11*
X162309242Y-108692181D02*
X162363117Y-108692181D01*
X162470866Y-108746056D01*
X162524741Y-108799931D01*
X162578616Y-108907680D01*
X162578616Y-109015430D01*
X162551679Y-109096242D01*
X162470866Y-109230929D01*
X162390054Y-109311741D01*
X162255367Y-109392553D01*
X162174555Y-109419491D01*
X162066805Y-109419491D01*
X161959056Y-109365616D01*
X161905181Y-109311741D01*
X161851306Y-109203992D01*
X161851306Y-109150117D01*
X161608869Y-109015430D02*
X161258683Y-108665243D01*
X161662744Y-108638306D01*
X161581932Y-108557494D01*
X161554995Y-108476682D01*
X161554995Y-108422807D01*
X161581932Y-108341995D01*
X161716619Y-108207308D01*
X161797431Y-108180370D01*
X161851306Y-108180370D01*
X161932118Y-108207308D01*
X162093743Y-108368932D01*
X162120680Y-108449744D01*
X162120680Y-108503619D01*
D10*
G04 #@! TO.C,C5*
X138562190Y-97708380D02*
X138657428Y-97708380D01*
X138752666Y-97756000D01*
X138800285Y-97803619D01*
X138847904Y-97898857D01*
X138895523Y-98089333D01*
X138895523Y-98327428D01*
X138847904Y-98517904D01*
X138800285Y-98613142D01*
X138752666Y-98660761D01*
X138657428Y-98708380D01*
X138562190Y-98708380D01*
X138466952Y-98660761D01*
X138419333Y-98613142D01*
X138371714Y-98517904D01*
X138324095Y-98327428D01*
X138324095Y-98089333D01*
X138371714Y-97898857D01*
X138419333Y-97803619D01*
X138466952Y-97756000D01*
X138562190Y-97708380D01*
X139324095Y-98613142D02*
X139371714Y-98660761D01*
X139324095Y-98708380D01*
X139276476Y-98660761D01*
X139324095Y-98613142D01*
X139324095Y-98708380D01*
X140324095Y-98708380D02*
X139752666Y-98708380D01*
X140038380Y-98708380D02*
X140038380Y-97708380D01*
X139943142Y-97851238D01*
X139847904Y-97946476D01*
X139752666Y-97994095D01*
X141943142Y-98041714D02*
X141943142Y-98708380D01*
X141514571Y-98041714D02*
X141514571Y-98565523D01*
X141562190Y-98660761D01*
X141657428Y-98708380D01*
X141800285Y-98708380D01*
X141895523Y-98660761D01*
X141943142Y-98613142D01*
X142752666Y-98184571D02*
X142419333Y-98184571D01*
X142419333Y-98708380D02*
X142419333Y-97708380D01*
X142895523Y-97708380D01*
D11*
X140452666Y-100361714D02*
X140414571Y-100399809D01*
X140300285Y-100437904D01*
X140224095Y-100437904D01*
X140109809Y-100399809D01*
X140033619Y-100323619D01*
X139995523Y-100247428D01*
X139957428Y-100095047D01*
X139957428Y-99980761D01*
X139995523Y-99828380D01*
X140033619Y-99752190D01*
X140109809Y-99676000D01*
X140224095Y-99637904D01*
X140300285Y-99637904D01*
X140414571Y-99676000D01*
X140452666Y-99714095D01*
X141176476Y-99637904D02*
X140795523Y-99637904D01*
X140757428Y-100018857D01*
X140795523Y-99980761D01*
X140871714Y-99942666D01*
X141062190Y-99942666D01*
X141138380Y-99980761D01*
X141176476Y-100018857D01*
X141214571Y-100095047D01*
X141214571Y-100285523D01*
X141176476Y-100361714D01*
X141138380Y-100399809D01*
X141062190Y-100437904D01*
X140871714Y-100437904D01*
X140795523Y-100399809D01*
X140757428Y-100361714D01*
D10*
G04 #@! TO.C,C6*
X149998190Y-101348380D02*
X150093428Y-101348380D01*
X150188666Y-101396000D01*
X150236285Y-101443619D01*
X150283904Y-101538857D01*
X150331523Y-101729333D01*
X150331523Y-101967428D01*
X150283904Y-102157904D01*
X150236285Y-102253142D01*
X150188666Y-102300761D01*
X150093428Y-102348380D01*
X149998190Y-102348380D01*
X149902952Y-102300761D01*
X149855333Y-102253142D01*
X149807714Y-102157904D01*
X149760095Y-101967428D01*
X149760095Y-101729333D01*
X149807714Y-101538857D01*
X149855333Y-101443619D01*
X149902952Y-101396000D01*
X149998190Y-101348380D01*
X150760095Y-102253142D02*
X150807714Y-102300761D01*
X150760095Y-102348380D01*
X150712476Y-102300761D01*
X150760095Y-102253142D01*
X150760095Y-102348380D01*
X151760095Y-102348380D02*
X151188666Y-102348380D01*
X151474380Y-102348380D02*
X151474380Y-101348380D01*
X151379142Y-101491238D01*
X151283904Y-101586476D01*
X151188666Y-101634095D01*
X153379142Y-101681714D02*
X153379142Y-102348380D01*
X152950571Y-101681714D02*
X152950571Y-102205523D01*
X152998190Y-102300761D01*
X153093428Y-102348380D01*
X153236285Y-102348380D01*
X153331523Y-102300761D01*
X153379142Y-102253142D01*
X154188666Y-101824571D02*
X153855333Y-101824571D01*
X153855333Y-102348380D02*
X153855333Y-101348380D01*
X154331523Y-101348380D01*
D11*
X151888666Y-100361714D02*
X151850571Y-100399809D01*
X151736285Y-100437904D01*
X151660095Y-100437904D01*
X151545809Y-100399809D01*
X151469619Y-100323619D01*
X151431523Y-100247428D01*
X151393428Y-100095047D01*
X151393428Y-99980761D01*
X151431523Y-99828380D01*
X151469619Y-99752190D01*
X151545809Y-99676000D01*
X151660095Y-99637904D01*
X151736285Y-99637904D01*
X151850571Y-99676000D01*
X151888666Y-99714095D01*
X152574380Y-99637904D02*
X152422000Y-99637904D01*
X152345809Y-99676000D01*
X152307714Y-99714095D01*
X152231523Y-99828380D01*
X152193428Y-99980761D01*
X152193428Y-100285523D01*
X152231523Y-100361714D01*
X152269619Y-100399809D01*
X152345809Y-100437904D01*
X152498190Y-100437904D01*
X152574380Y-100399809D01*
X152612476Y-100361714D01*
X152650571Y-100285523D01*
X152650571Y-100095047D01*
X152612476Y-100018857D01*
X152574380Y-99980761D01*
X152498190Y-99942666D01*
X152345809Y-99942666D01*
X152269619Y-99980761D01*
X152231523Y-100018857D01*
X152193428Y-100095047D01*
D10*
G04 #@! TO.C,C7*
X162063235Y-102348380D02*
X161491806Y-102348380D01*
X161777520Y-102348380D02*
X161777520Y-101348380D01*
X161682282Y-101491238D01*
X161587044Y-101586476D01*
X161491806Y-101634095D01*
X162682282Y-101348380D02*
X162777520Y-101348380D01*
X162872758Y-101396000D01*
X162920377Y-101443619D01*
X162967997Y-101538857D01*
X163015616Y-101729333D01*
X163015616Y-101967428D01*
X162967997Y-102157904D01*
X162920377Y-102253142D01*
X162872758Y-102300761D01*
X162777520Y-102348380D01*
X162682282Y-102348380D01*
X162587044Y-102300761D01*
X162539425Y-102253142D01*
X162491806Y-102157904D01*
X162444187Y-101967428D01*
X162444187Y-101729333D01*
X162491806Y-101538857D01*
X162539425Y-101443619D01*
X162587044Y-101396000D01*
X162682282Y-101348380D01*
X163634663Y-101348380D02*
X163729901Y-101348380D01*
X163825139Y-101396000D01*
X163872758Y-101443619D01*
X163920377Y-101538857D01*
X163967997Y-101729333D01*
X163967997Y-101967428D01*
X163920377Y-102157904D01*
X163872758Y-102253142D01*
X163825139Y-102300761D01*
X163729901Y-102348380D01*
X163634663Y-102348380D01*
X163539425Y-102300761D01*
X163491806Y-102253142D01*
X163444187Y-102157904D01*
X163396568Y-101967428D01*
X163396568Y-101729333D01*
X163444187Y-101538857D01*
X163491806Y-101443619D01*
X163539425Y-101396000D01*
X163634663Y-101348380D01*
X164587044Y-101348380D02*
X164682282Y-101348380D01*
X164777520Y-101396000D01*
X164825139Y-101443619D01*
X164872758Y-101538857D01*
X164920377Y-101729333D01*
X164920377Y-101967428D01*
X164872758Y-102157904D01*
X164825139Y-102253142D01*
X164777520Y-102300761D01*
X164682282Y-102348380D01*
X164587044Y-102348380D01*
X164491806Y-102300761D01*
X164444187Y-102253142D01*
X164396568Y-102157904D01*
X164348949Y-101967428D01*
X164348949Y-101729333D01*
X164396568Y-101538857D01*
X164444187Y-101443619D01*
X164491806Y-101396000D01*
X164587044Y-101348380D01*
X166110854Y-101681714D02*
X166110854Y-102681714D01*
X166110854Y-101729333D02*
X166206092Y-101681714D01*
X166396568Y-101681714D01*
X166491806Y-101729333D01*
X166539425Y-101776952D01*
X166587044Y-101872190D01*
X166587044Y-102157904D01*
X166539425Y-102253142D01*
X166491806Y-102300761D01*
X166396568Y-102348380D01*
X166206092Y-102348380D01*
X166110854Y-102300761D01*
X167348949Y-101824571D02*
X167015616Y-101824571D01*
X167015616Y-102348380D02*
X167015616Y-101348380D01*
X167491806Y-101348380D01*
D11*
X164334663Y-100361714D02*
X164296568Y-100399809D01*
X164182282Y-100437904D01*
X164106092Y-100437904D01*
X163991806Y-100399809D01*
X163915616Y-100323619D01*
X163877520Y-100247428D01*
X163839425Y-100095047D01*
X163839425Y-99980761D01*
X163877520Y-99828380D01*
X163915616Y-99752190D01*
X163991806Y-99676000D01*
X164106092Y-99637904D01*
X164182282Y-99637904D01*
X164296568Y-99676000D01*
X164334663Y-99714095D01*
X164601330Y-99637904D02*
X165134663Y-99637904D01*
X164791806Y-100437904D01*
D10*
G04 #@! TO.C,C8*
X148307690Y-70784380D02*
X148402928Y-70784380D01*
X148498166Y-70832000D01*
X148545785Y-70879619D01*
X148593404Y-70974857D01*
X148641023Y-71165333D01*
X148641023Y-71403428D01*
X148593404Y-71593904D01*
X148545785Y-71689142D01*
X148498166Y-71736761D01*
X148402928Y-71784380D01*
X148307690Y-71784380D01*
X148212452Y-71736761D01*
X148164833Y-71689142D01*
X148117214Y-71593904D01*
X148069595Y-71403428D01*
X148069595Y-71165333D01*
X148117214Y-70974857D01*
X148164833Y-70879619D01*
X148212452Y-70832000D01*
X148307690Y-70784380D01*
X149069595Y-71689142D02*
X149117214Y-71736761D01*
X149069595Y-71784380D01*
X149021976Y-71736761D01*
X149069595Y-71689142D01*
X149069595Y-71784380D01*
X150069595Y-71784380D02*
X149498166Y-71784380D01*
X149783880Y-71784380D02*
X149783880Y-70784380D01*
X149688642Y-70927238D01*
X149593404Y-71022476D01*
X149498166Y-71070095D01*
X151688642Y-71117714D02*
X151688642Y-71784380D01*
X151260071Y-71117714D02*
X151260071Y-71641523D01*
X151307690Y-71736761D01*
X151402928Y-71784380D01*
X151545785Y-71784380D01*
X151641023Y-71736761D01*
X151688642Y-71689142D01*
X152498166Y-71260571D02*
X152164833Y-71260571D01*
X152164833Y-71784380D02*
X152164833Y-70784380D01*
X152641023Y-70784380D01*
D11*
X150198166Y-73437714D02*
X150160071Y-73475809D01*
X150045785Y-73513904D01*
X149969595Y-73513904D01*
X149855309Y-73475809D01*
X149779119Y-73399619D01*
X149741023Y-73323428D01*
X149702928Y-73171047D01*
X149702928Y-73056761D01*
X149741023Y-72904380D01*
X149779119Y-72828190D01*
X149855309Y-72752000D01*
X149969595Y-72713904D01*
X150045785Y-72713904D01*
X150160071Y-72752000D01*
X150198166Y-72790095D01*
X150655309Y-73056761D02*
X150579119Y-73018666D01*
X150541023Y-72980571D01*
X150502928Y-72904380D01*
X150502928Y-72866285D01*
X150541023Y-72790095D01*
X150579119Y-72752000D01*
X150655309Y-72713904D01*
X150807690Y-72713904D01*
X150883880Y-72752000D01*
X150921976Y-72790095D01*
X150960071Y-72866285D01*
X150960071Y-72904380D01*
X150921976Y-72980571D01*
X150883880Y-73018666D01*
X150807690Y-73056761D01*
X150655309Y-73056761D01*
X150579119Y-73094857D01*
X150541023Y-73132952D01*
X150502928Y-73209142D01*
X150502928Y-73361523D01*
X150541023Y-73437714D01*
X150579119Y-73475809D01*
X150655309Y-73513904D01*
X150807690Y-73513904D01*
X150883880Y-73475809D01*
X150921976Y-73437714D01*
X150960071Y-73361523D01*
X150960071Y-73209142D01*
X150921976Y-73132952D01*
X150883880Y-73094857D01*
X150807690Y-73056761D01*
D10*
G04 #@! TO.C,C9*
X132082380Y-83264309D02*
X132082380Y-83169071D01*
X132130000Y-83073833D01*
X132177619Y-83026214D01*
X132272857Y-82978595D01*
X132463333Y-82930976D01*
X132701428Y-82930976D01*
X132891904Y-82978595D01*
X132987142Y-83026214D01*
X133034761Y-83073833D01*
X133082380Y-83169071D01*
X133082380Y-83264309D01*
X133034761Y-83359547D01*
X132987142Y-83407166D01*
X132891904Y-83454785D01*
X132701428Y-83502404D01*
X132463333Y-83502404D01*
X132272857Y-83454785D01*
X132177619Y-83407166D01*
X132130000Y-83359547D01*
X132082380Y-83264309D01*
X132987142Y-82502404D02*
X133034761Y-82454785D01*
X133082380Y-82502404D01*
X133034761Y-82550023D01*
X132987142Y-82502404D01*
X133082380Y-82502404D01*
X133082380Y-81502404D02*
X133082380Y-82073833D01*
X133082380Y-81788119D02*
X132082380Y-81788119D01*
X132225238Y-81883357D01*
X132320476Y-81978595D01*
X132368095Y-82073833D01*
X132415714Y-79883357D02*
X133082380Y-79883357D01*
X132415714Y-80311928D02*
X132939523Y-80311928D01*
X133034761Y-80264309D01*
X133082380Y-80169071D01*
X133082380Y-80026214D01*
X133034761Y-79930976D01*
X132987142Y-79883357D01*
X132558571Y-79073833D02*
X132558571Y-79407166D01*
X133082380Y-79407166D02*
X132082380Y-79407166D01*
X132082380Y-78930976D01*
D11*
X131095714Y-81373833D02*
X131133809Y-81411928D01*
X131171904Y-81526214D01*
X131171904Y-81602404D01*
X131133809Y-81716690D01*
X131057619Y-81792880D01*
X130981428Y-81830976D01*
X130829047Y-81869071D01*
X130714761Y-81869071D01*
X130562380Y-81830976D01*
X130486190Y-81792880D01*
X130410000Y-81716690D01*
X130371904Y-81602404D01*
X130371904Y-81526214D01*
X130410000Y-81411928D01*
X130448095Y-81373833D01*
X131171904Y-80992880D02*
X131171904Y-80840500D01*
X131133809Y-80764309D01*
X131095714Y-80726214D01*
X130981428Y-80650023D01*
X130829047Y-80611928D01*
X130524285Y-80611928D01*
X130448095Y-80650023D01*
X130410000Y-80688119D01*
X130371904Y-80764309D01*
X130371904Y-80916690D01*
X130410000Y-80992880D01*
X130448095Y-81030976D01*
X130524285Y-81069071D01*
X130714761Y-81069071D01*
X130790952Y-81030976D01*
X130829047Y-80992880D01*
X130867142Y-80916690D01*
X130867142Y-80764309D01*
X130829047Y-80688119D01*
X130790952Y-80650023D01*
X130714761Y-80611928D01*
D10*
G04 #@! TO.C,C11*
X147926738Y-82536380D02*
X147355309Y-82536380D01*
X147641023Y-82536380D02*
X147641023Y-81536380D01*
X147545785Y-81679238D01*
X147450547Y-81774476D01*
X147355309Y-81822095D01*
X148545785Y-81536380D02*
X148641023Y-81536380D01*
X148736261Y-81584000D01*
X148783880Y-81631619D01*
X148831500Y-81726857D01*
X148879119Y-81917333D01*
X148879119Y-82155428D01*
X148831500Y-82345904D01*
X148783880Y-82441142D01*
X148736261Y-82488761D01*
X148641023Y-82536380D01*
X148545785Y-82536380D01*
X148450547Y-82488761D01*
X148402928Y-82441142D01*
X148355309Y-82345904D01*
X148307690Y-82155428D01*
X148307690Y-81917333D01*
X148355309Y-81726857D01*
X148402928Y-81631619D01*
X148450547Y-81584000D01*
X148545785Y-81536380D01*
X149498166Y-81536380D02*
X149593404Y-81536380D01*
X149688642Y-81584000D01*
X149736261Y-81631619D01*
X149783880Y-81726857D01*
X149831500Y-81917333D01*
X149831500Y-82155428D01*
X149783880Y-82345904D01*
X149736261Y-82441142D01*
X149688642Y-82488761D01*
X149593404Y-82536380D01*
X149498166Y-82536380D01*
X149402928Y-82488761D01*
X149355309Y-82441142D01*
X149307690Y-82345904D01*
X149260071Y-82155428D01*
X149260071Y-81917333D01*
X149307690Y-81726857D01*
X149355309Y-81631619D01*
X149402928Y-81584000D01*
X149498166Y-81536380D01*
X150450547Y-81536380D02*
X150545785Y-81536380D01*
X150641023Y-81584000D01*
X150688642Y-81631619D01*
X150736261Y-81726857D01*
X150783880Y-81917333D01*
X150783880Y-82155428D01*
X150736261Y-82345904D01*
X150688642Y-82441142D01*
X150641023Y-82488761D01*
X150545785Y-82536380D01*
X150450547Y-82536380D01*
X150355309Y-82488761D01*
X150307690Y-82441142D01*
X150260071Y-82345904D01*
X150212452Y-82155428D01*
X150212452Y-81917333D01*
X150260071Y-81726857D01*
X150307690Y-81631619D01*
X150355309Y-81584000D01*
X150450547Y-81536380D01*
X151974357Y-81869714D02*
X151974357Y-82869714D01*
X151974357Y-81917333D02*
X152069595Y-81869714D01*
X152260071Y-81869714D01*
X152355309Y-81917333D01*
X152402928Y-81964952D01*
X152450547Y-82060190D01*
X152450547Y-82345904D01*
X152402928Y-82441142D01*
X152355309Y-82488761D01*
X152260071Y-82536380D01*
X152069595Y-82536380D01*
X151974357Y-82488761D01*
X153212452Y-82012571D02*
X152879119Y-82012571D01*
X152879119Y-82536380D02*
X152879119Y-81536380D01*
X153355309Y-81536380D01*
D11*
X149817214Y-80549714D02*
X149779119Y-80587809D01*
X149664833Y-80625904D01*
X149588642Y-80625904D01*
X149474357Y-80587809D01*
X149398166Y-80511619D01*
X149360071Y-80435428D01*
X149321976Y-80283047D01*
X149321976Y-80168761D01*
X149360071Y-80016380D01*
X149398166Y-79940190D01*
X149474357Y-79864000D01*
X149588642Y-79825904D01*
X149664833Y-79825904D01*
X149779119Y-79864000D01*
X149817214Y-79902095D01*
X150579119Y-80625904D02*
X150121976Y-80625904D01*
X150350547Y-80625904D02*
X150350547Y-79825904D01*
X150274357Y-79940190D01*
X150198166Y-80016380D01*
X150121976Y-80054476D01*
X151341023Y-80625904D02*
X150883880Y-80625904D01*
X151112452Y-80625904D02*
X151112452Y-79825904D01*
X151036261Y-79940190D01*
X150960071Y-80016380D01*
X150883880Y-80054476D01*
D10*
G04 #@! TO.C,C12*
X165656380Y-94879809D02*
X165656380Y-94784571D01*
X165704000Y-94689333D01*
X165751619Y-94641714D01*
X165846857Y-94594095D01*
X166037333Y-94546476D01*
X166275428Y-94546476D01*
X166465904Y-94594095D01*
X166561142Y-94641714D01*
X166608761Y-94689333D01*
X166656380Y-94784571D01*
X166656380Y-94879809D01*
X166608761Y-94975047D01*
X166561142Y-95022666D01*
X166465904Y-95070285D01*
X166275428Y-95117904D01*
X166037333Y-95117904D01*
X165846857Y-95070285D01*
X165751619Y-95022666D01*
X165704000Y-94975047D01*
X165656380Y-94879809D01*
X166561142Y-94117904D02*
X166608761Y-94070285D01*
X166656380Y-94117904D01*
X166608761Y-94165523D01*
X166561142Y-94117904D01*
X166656380Y-94117904D01*
X166656380Y-93117904D02*
X166656380Y-93689333D01*
X166656380Y-93403619D02*
X165656380Y-93403619D01*
X165799238Y-93498857D01*
X165894476Y-93594095D01*
X165942095Y-93689333D01*
X165989714Y-91498857D02*
X166656380Y-91498857D01*
X165989714Y-91927428D02*
X166513523Y-91927428D01*
X166608761Y-91879809D01*
X166656380Y-91784571D01*
X166656380Y-91641714D01*
X166608761Y-91546476D01*
X166561142Y-91498857D01*
X166132571Y-90689333D02*
X166132571Y-91022666D01*
X166656380Y-91022666D02*
X165656380Y-91022666D01*
X165656380Y-90546476D01*
D11*
X168309714Y-93370285D02*
X168347809Y-93408380D01*
X168385904Y-93522666D01*
X168385904Y-93598857D01*
X168347809Y-93713142D01*
X168271619Y-93789333D01*
X168195428Y-93827428D01*
X168043047Y-93865523D01*
X167928761Y-93865523D01*
X167776380Y-93827428D01*
X167700190Y-93789333D01*
X167624000Y-93713142D01*
X167585904Y-93598857D01*
X167585904Y-93522666D01*
X167624000Y-93408380D01*
X167662095Y-93370285D01*
X168385904Y-92608380D02*
X168385904Y-93065523D01*
X168385904Y-92836952D02*
X167585904Y-92836952D01*
X167700190Y-92913142D01*
X167776380Y-92989333D01*
X167814476Y-93065523D01*
X167662095Y-92303619D02*
X167624000Y-92265523D01*
X167585904Y-92189333D01*
X167585904Y-91998857D01*
X167624000Y-91922666D01*
X167662095Y-91884571D01*
X167738285Y-91846476D01*
X167814476Y-91846476D01*
X167928761Y-91884571D01*
X168385904Y-92341714D01*
X168385904Y-91846476D01*
D10*
G04 #@! TO.C,C13*
X176617380Y-94879809D02*
X176617380Y-94784571D01*
X176665000Y-94689333D01*
X176712619Y-94641714D01*
X176807857Y-94594095D01*
X176998333Y-94546476D01*
X177236428Y-94546476D01*
X177426904Y-94594095D01*
X177522142Y-94641714D01*
X177569761Y-94689333D01*
X177617380Y-94784571D01*
X177617380Y-94879809D01*
X177569761Y-94975047D01*
X177522142Y-95022666D01*
X177426904Y-95070285D01*
X177236428Y-95117904D01*
X176998333Y-95117904D01*
X176807857Y-95070285D01*
X176712619Y-95022666D01*
X176665000Y-94975047D01*
X176617380Y-94879809D01*
X177522142Y-94117904D02*
X177569761Y-94070285D01*
X177617380Y-94117904D01*
X177569761Y-94165523D01*
X177522142Y-94117904D01*
X177617380Y-94117904D01*
X177617380Y-93117904D02*
X177617380Y-93689333D01*
X177617380Y-93403619D02*
X176617380Y-93403619D01*
X176760238Y-93498857D01*
X176855476Y-93594095D01*
X176903095Y-93689333D01*
X176950714Y-91498857D02*
X177617380Y-91498857D01*
X176950714Y-91927428D02*
X177474523Y-91927428D01*
X177569761Y-91879809D01*
X177617380Y-91784571D01*
X177617380Y-91641714D01*
X177569761Y-91546476D01*
X177522142Y-91498857D01*
X177093571Y-90689333D02*
X177093571Y-91022666D01*
X177617380Y-91022666D02*
X176617380Y-91022666D01*
X176617380Y-90546476D01*
D11*
X175669714Y-93370285D02*
X175707809Y-93408380D01*
X175745904Y-93522666D01*
X175745904Y-93598857D01*
X175707809Y-93713142D01*
X175631619Y-93789333D01*
X175555428Y-93827428D01*
X175403047Y-93865523D01*
X175288761Y-93865523D01*
X175136380Y-93827428D01*
X175060190Y-93789333D01*
X174984000Y-93713142D01*
X174945904Y-93598857D01*
X174945904Y-93522666D01*
X174984000Y-93408380D01*
X175022095Y-93370285D01*
X175745904Y-92608380D02*
X175745904Y-93065523D01*
X175745904Y-92836952D02*
X174945904Y-92836952D01*
X175060190Y-92913142D01*
X175136380Y-92989333D01*
X175174476Y-93065523D01*
X174945904Y-92341714D02*
X174945904Y-91846476D01*
X175250666Y-92113142D01*
X175250666Y-91998857D01*
X175288761Y-91922666D01*
X175326857Y-91884571D01*
X175403047Y-91846476D01*
X175593523Y-91846476D01*
X175669714Y-91884571D01*
X175707809Y-91922666D01*
X175745904Y-91998857D01*
X175745904Y-92227428D01*
X175707809Y-92303619D01*
X175669714Y-92341714D01*
D10*
G04 #@! TO.C,C15*
X114853380Y-95365809D02*
X114853380Y-95270571D01*
X114901000Y-95175333D01*
X114948619Y-95127714D01*
X115043857Y-95080095D01*
X115234333Y-95032476D01*
X115472428Y-95032476D01*
X115662904Y-95080095D01*
X115758142Y-95127714D01*
X115805761Y-95175333D01*
X115853380Y-95270571D01*
X115853380Y-95365809D01*
X115805761Y-95461047D01*
X115758142Y-95508666D01*
X115662904Y-95556285D01*
X115472428Y-95603904D01*
X115234333Y-95603904D01*
X115043857Y-95556285D01*
X114948619Y-95508666D01*
X114901000Y-95461047D01*
X114853380Y-95365809D01*
X115758142Y-94603904D02*
X115805761Y-94556285D01*
X115853380Y-94603904D01*
X115805761Y-94651523D01*
X115758142Y-94603904D01*
X115853380Y-94603904D01*
X115853380Y-93603904D02*
X115853380Y-94175333D01*
X115853380Y-93889619D02*
X114853380Y-93889619D01*
X114996238Y-93984857D01*
X115091476Y-94080095D01*
X115139095Y-94175333D01*
X115186714Y-91984857D02*
X115853380Y-91984857D01*
X115186714Y-92413428D02*
X115710523Y-92413428D01*
X115805761Y-92365809D01*
X115853380Y-92270571D01*
X115853380Y-92127714D01*
X115805761Y-92032476D01*
X115758142Y-91984857D01*
X115329571Y-91175333D02*
X115329571Y-91508666D01*
X115853380Y-91508666D02*
X114853380Y-91508666D01*
X114853380Y-91032476D01*
D11*
X117506714Y-93856285D02*
X117544809Y-93894380D01*
X117582904Y-94008666D01*
X117582904Y-94084857D01*
X117544809Y-94199142D01*
X117468619Y-94275333D01*
X117392428Y-94313428D01*
X117240047Y-94351523D01*
X117125761Y-94351523D01*
X116973380Y-94313428D01*
X116897190Y-94275333D01*
X116821000Y-94199142D01*
X116782904Y-94084857D01*
X116782904Y-94008666D01*
X116821000Y-93894380D01*
X116859095Y-93856285D01*
X117582904Y-93094380D02*
X117582904Y-93551523D01*
X117582904Y-93322952D02*
X116782904Y-93322952D01*
X116897190Y-93399142D01*
X116973380Y-93475333D01*
X117011476Y-93551523D01*
X116782904Y-92370571D02*
X116782904Y-92751523D01*
X117163857Y-92789619D01*
X117125761Y-92751523D01*
X117087666Y-92675333D01*
X117087666Y-92484857D01*
X117125761Y-92408666D01*
X117163857Y-92370571D01*
X117240047Y-92332476D01*
X117430523Y-92332476D01*
X117506714Y-92370571D01*
X117544809Y-92408666D01*
X117582904Y-92484857D01*
X117582904Y-92675333D01*
X117544809Y-92751523D01*
X117506714Y-92789619D01*
D10*
G04 #@! TO.C,R1*
X133913302Y-111808830D02*
X134047989Y-111674143D01*
X134081661Y-111573128D01*
X134081661Y-111505784D01*
X134047989Y-111337426D01*
X133946974Y-111169067D01*
X133677600Y-110899693D01*
X133576585Y-110866021D01*
X133509241Y-110866021D01*
X133408226Y-110899693D01*
X133273539Y-111034380D01*
X133239867Y-111135395D01*
X133239867Y-111202739D01*
X133273539Y-111303754D01*
X133441898Y-111472113D01*
X133542913Y-111505784D01*
X133610256Y-111505784D01*
X133711272Y-111472113D01*
X133845959Y-111337426D01*
X133879630Y-111236410D01*
X133879630Y-111169067D01*
X133845959Y-111068052D01*
X134923455Y-110798678D02*
X134519394Y-111202739D01*
X134721424Y-111000708D02*
X134014317Y-110293601D01*
X134047989Y-110461960D01*
X134047989Y-110596647D01*
X134014317Y-110697662D01*
X135630562Y-110091571D02*
X135058142Y-109990555D01*
X135226501Y-110495632D02*
X134519394Y-109788525D01*
X134788768Y-109519151D01*
X134889783Y-109485479D01*
X134957127Y-109485479D01*
X135058142Y-109519151D01*
X135159157Y-109620166D01*
X135192829Y-109721181D01*
X135192829Y-109788525D01*
X135159157Y-109889540D01*
X134889783Y-110158914D01*
X136473029Y-112954343D02*
X135900609Y-112853328D01*
X136068968Y-113358404D02*
X135361861Y-112651298D01*
X135631235Y-112381923D01*
X135732250Y-112348252D01*
X135799594Y-112348252D01*
X135900609Y-112381923D01*
X136001624Y-112482939D01*
X136035296Y-112583954D01*
X136035296Y-112651298D01*
X136001624Y-112752313D01*
X135732250Y-113021687D01*
X137146464Y-112280908D02*
X136742403Y-112684969D01*
X136944434Y-112482939D02*
X136237327Y-111775832D01*
X136270999Y-111944191D01*
X136270999Y-112078878D01*
X136237327Y-112179893D01*
G04 #@! TO.C,R6*
X137184380Y-84430952D02*
X137184380Y-84240476D01*
X137136761Y-84145238D01*
X137089142Y-84097619D01*
X136946285Y-84002380D01*
X136755809Y-83954761D01*
X136374857Y-83954761D01*
X136279619Y-84002380D01*
X136232000Y-84050000D01*
X136184380Y-84145238D01*
X136184380Y-84335714D01*
X136232000Y-84430952D01*
X136279619Y-84478571D01*
X136374857Y-84526190D01*
X136612952Y-84526190D01*
X136708190Y-84478571D01*
X136755809Y-84430952D01*
X136803428Y-84335714D01*
X136803428Y-84145238D01*
X136755809Y-84050000D01*
X136708190Y-84002380D01*
X136612952Y-83954761D01*
X136184380Y-83050000D02*
X136184380Y-83526190D01*
X136660571Y-83573809D01*
X136612952Y-83526190D01*
X136565333Y-83430952D01*
X136565333Y-83192857D01*
X136612952Y-83097619D01*
X136660571Y-83050000D01*
X136755809Y-83002380D01*
X136993904Y-83002380D01*
X137089142Y-83050000D01*
X137136761Y-83097619D01*
X137184380Y-83192857D01*
X137184380Y-83430952D01*
X137136761Y-83526190D01*
X137089142Y-83573809D01*
X137089142Y-82573809D02*
X137136761Y-82526190D01*
X137184380Y-82573809D01*
X137136761Y-82621428D01*
X137089142Y-82573809D01*
X137184380Y-82573809D01*
X136184380Y-82192857D02*
X136184380Y-81573809D01*
X136565333Y-81907142D01*
X136565333Y-81764285D01*
X136612952Y-81669047D01*
X136660571Y-81621428D01*
X136755809Y-81573809D01*
X136993904Y-81573809D01*
X137089142Y-81621428D01*
X137136761Y-81669047D01*
X137184380Y-81764285D01*
X137184380Y-82050000D01*
X137136761Y-82145238D01*
X137089142Y-82192857D01*
X137184380Y-80573809D02*
X136708190Y-80907142D01*
X137184380Y-81145238D02*
X136184380Y-81145238D01*
X136184380Y-80764285D01*
X136232000Y-80669047D01*
X136279619Y-80621428D01*
X136374857Y-80573809D01*
X136517714Y-80573809D01*
X136612952Y-80621428D01*
X136660571Y-80669047D01*
X136708190Y-80764285D01*
X136708190Y-81145238D01*
X134564380Y-82716666D02*
X134088190Y-83050000D01*
X134564380Y-83288095D02*
X133564380Y-83288095D01*
X133564380Y-82907142D01*
X133612000Y-82811904D01*
X133659619Y-82764285D01*
X133754857Y-82716666D01*
X133897714Y-82716666D01*
X133992952Y-82764285D01*
X134040571Y-82811904D01*
X134088190Y-82907142D01*
X134088190Y-83288095D01*
X133564380Y-81859523D02*
X133564380Y-82050000D01*
X133612000Y-82145238D01*
X133659619Y-82192857D01*
X133802476Y-82288095D01*
X133992952Y-82335714D01*
X134373904Y-82335714D01*
X134469142Y-82288095D01*
X134516761Y-82240476D01*
X134564380Y-82145238D01*
X134564380Y-81954761D01*
X134516761Y-81859523D01*
X134469142Y-81811904D01*
X134373904Y-81764285D01*
X134135809Y-81764285D01*
X134040571Y-81811904D01*
X133992952Y-81859523D01*
X133945333Y-81954761D01*
X133945333Y-82145238D01*
X133992952Y-82240476D01*
X134040571Y-82288095D01*
X134135809Y-82335714D01*
G04 #@! TO.C,R2*
X155502220Y-115001307D02*
X155367533Y-114866620D01*
X155266518Y-114832948D01*
X155199174Y-114832948D01*
X155030816Y-114866620D01*
X154862457Y-114967635D01*
X154593083Y-115237009D01*
X154559411Y-115338024D01*
X154559411Y-115405368D01*
X154593083Y-115506383D01*
X154727770Y-115641070D01*
X154828785Y-115674742D01*
X154896129Y-115674742D01*
X154997144Y-115641070D01*
X155165503Y-115472711D01*
X155199174Y-115371696D01*
X155199174Y-115304353D01*
X155165503Y-115203337D01*
X155030816Y-115068650D01*
X154929800Y-115034979D01*
X154862457Y-115034979D01*
X154761442Y-115068650D01*
X154492068Y-113991154D02*
X154896129Y-114395215D01*
X154694098Y-114193185D02*
X153986991Y-114900292D01*
X154155350Y-114866620D01*
X154290037Y-114866620D01*
X154391052Y-114900292D01*
X153784961Y-113284047D02*
X153683945Y-113856467D01*
X154189022Y-113688108D02*
X153481915Y-114395215D01*
X153212541Y-114125841D01*
X153178869Y-114024826D01*
X153178869Y-113957482D01*
X153212541Y-113856467D01*
X153313556Y-113755452D01*
X153414571Y-113721780D01*
X153481915Y-113721780D01*
X153582930Y-113755452D01*
X153852304Y-114024826D01*
X156647733Y-112441580D02*
X156546718Y-113014000D01*
X157051794Y-112845641D02*
X156344688Y-113552748D01*
X156075313Y-113283374D01*
X156041642Y-113182359D01*
X156041642Y-113115015D01*
X156075313Y-113014000D01*
X156176329Y-112912985D01*
X156277344Y-112879313D01*
X156344688Y-112879313D01*
X156445703Y-112912985D01*
X156715077Y-113182359D01*
X155738596Y-112811969D02*
X155671252Y-112811969D01*
X155570237Y-112778298D01*
X155401878Y-112609939D01*
X155368207Y-112508923D01*
X155368207Y-112441580D01*
X155401878Y-112340565D01*
X155469222Y-112273221D01*
X155603909Y-112205878D01*
X156412031Y-112205878D01*
X155974298Y-111768145D01*
G04 #@! TO.C,L6*
X149286980Y-91748476D02*
X149286980Y-91129429D01*
X149667933Y-91462762D01*
X149667933Y-91319905D01*
X149715552Y-91224667D01*
X149763171Y-91177048D01*
X149858409Y-91129429D01*
X150096504Y-91129429D01*
X150191742Y-91177048D01*
X150239361Y-91224667D01*
X150286980Y-91319905D01*
X150286980Y-91605619D01*
X150239361Y-91700857D01*
X150191742Y-91748476D01*
X149286980Y-90796095D02*
X149286980Y-90177048D01*
X149667933Y-90510381D01*
X149667933Y-90367524D01*
X149715552Y-90272286D01*
X149763171Y-90224667D01*
X149858409Y-90177048D01*
X150096504Y-90177048D01*
X150191742Y-90224667D01*
X150239361Y-90272286D01*
X150286980Y-90367524D01*
X150286980Y-90653238D01*
X150239361Y-90748476D01*
X150191742Y-90796095D01*
X149620314Y-88986571D02*
X150286980Y-88986571D01*
X149715552Y-88986571D02*
X149667933Y-88938952D01*
X149620314Y-88843714D01*
X149620314Y-88700857D01*
X149667933Y-88605619D01*
X149763171Y-88558000D01*
X150286980Y-88558000D01*
X150286980Y-88081810D02*
X149286980Y-88081810D01*
X149763171Y-88081810D02*
X149763171Y-87510381D01*
X150286980Y-87510381D02*
X149286980Y-87510381D01*
X152445980Y-90915143D02*
X151969790Y-91248476D01*
X152445980Y-91486571D02*
X151445980Y-91486571D01*
X151445980Y-91105619D01*
X151493600Y-91010381D01*
X151541219Y-90962762D01*
X151636457Y-90915143D01*
X151779314Y-90915143D01*
X151874552Y-90962762D01*
X151922171Y-91010381D01*
X151969790Y-91105619D01*
X151969790Y-91486571D01*
X151922171Y-90486571D02*
X151922171Y-90153238D01*
X152445980Y-90010381D02*
X152445980Y-90486571D01*
X151445980Y-90486571D01*
X151445980Y-90010381D01*
X151922171Y-89248476D02*
X151922171Y-89581810D01*
X152445980Y-89581810D02*
X151445980Y-89581810D01*
X151445980Y-89105619D01*
X151445980Y-88581810D02*
X151684076Y-88581810D01*
X151588838Y-88819905D02*
X151684076Y-88581810D01*
X151588838Y-88343714D01*
X151874552Y-88724667D02*
X151684076Y-88581810D01*
X151874552Y-88438952D01*
X151445980Y-87819905D02*
X151684076Y-87819905D01*
X151588838Y-88058000D02*
X151684076Y-87819905D01*
X151588838Y-87581810D01*
X151874552Y-87962762D02*
X151684076Y-87819905D01*
X151874552Y-87677048D01*
G04 #@! TO.C,L5*
X158135580Y-91605619D02*
X158135580Y-92177048D01*
X158135580Y-91891333D02*
X157135580Y-91891333D01*
X157278438Y-91986571D01*
X157373676Y-92081810D01*
X157421295Y-92177048D01*
X157135580Y-90986571D02*
X157135580Y-90891333D01*
X157183200Y-90796095D01*
X157230819Y-90748476D01*
X157326057Y-90700857D01*
X157516533Y-90653238D01*
X157754628Y-90653238D01*
X157945104Y-90700857D01*
X158040342Y-90748476D01*
X158087961Y-90796095D01*
X158135580Y-90891333D01*
X158135580Y-90986571D01*
X158087961Y-91081810D01*
X158040342Y-91129429D01*
X157945104Y-91177048D01*
X157754628Y-91224667D01*
X157516533Y-91224667D01*
X157326057Y-91177048D01*
X157230819Y-91129429D01*
X157183200Y-91081810D01*
X157135580Y-90986571D01*
X157135580Y-90034190D02*
X157135580Y-89938952D01*
X157183200Y-89843714D01*
X157230819Y-89796095D01*
X157326057Y-89748476D01*
X157516533Y-89700857D01*
X157754628Y-89700857D01*
X157945104Y-89748476D01*
X158040342Y-89796095D01*
X158087961Y-89843714D01*
X158135580Y-89938952D01*
X158135580Y-90034190D01*
X158087961Y-90129429D01*
X158040342Y-90177048D01*
X157945104Y-90224667D01*
X157754628Y-90272286D01*
X157516533Y-90272286D01*
X157326057Y-90224667D01*
X157230819Y-90177048D01*
X157183200Y-90129429D01*
X157135580Y-90034190D01*
X157468914Y-88510381D02*
X158135580Y-88510381D01*
X157564152Y-88510381D02*
X157516533Y-88462762D01*
X157468914Y-88367524D01*
X157468914Y-88224667D01*
X157516533Y-88129429D01*
X157611771Y-88081810D01*
X158135580Y-88081810D01*
X158135580Y-87605619D02*
X157135580Y-87605619D01*
X157611771Y-87605619D02*
X157611771Y-87034190D01*
X158135580Y-87034190D02*
X157135580Y-87034190D01*
X155976580Y-90915143D02*
X155500390Y-91248476D01*
X155976580Y-91486571D02*
X154976580Y-91486571D01*
X154976580Y-91105619D01*
X155024200Y-91010381D01*
X155071819Y-90962762D01*
X155167057Y-90915143D01*
X155309914Y-90915143D01*
X155405152Y-90962762D01*
X155452771Y-91010381D01*
X155500390Y-91105619D01*
X155500390Y-91486571D01*
X155452771Y-90486571D02*
X155452771Y-90153238D01*
X155976580Y-90010381D02*
X155976580Y-90486571D01*
X154976580Y-90486571D01*
X154976580Y-90010381D01*
X155452771Y-89248476D02*
X155452771Y-89581810D01*
X155976580Y-89581810D02*
X154976580Y-89581810D01*
X154976580Y-89105619D01*
X154976580Y-88581810D02*
X155214676Y-88581810D01*
X155119438Y-88819905D02*
X155214676Y-88581810D01*
X155119438Y-88343714D01*
X155405152Y-88724667D02*
X155214676Y-88581810D01*
X155405152Y-88438952D01*
X154976580Y-87819905D02*
X155214676Y-87819905D01*
X155119438Y-88058000D02*
X155214676Y-87819905D01*
X155119438Y-87581810D01*
X155405152Y-87962762D02*
X155214676Y-87819905D01*
X155405152Y-87677048D01*
G04 #@! TO.C,U2*
X153271600Y-104727000D02*
X153223980Y-104822238D01*
X153223980Y-104965095D01*
X153271600Y-105107952D01*
X153366838Y-105203190D01*
X153462076Y-105250809D01*
X153652552Y-105298428D01*
X153795409Y-105298428D01*
X153985885Y-105250809D01*
X154081123Y-105203190D01*
X154176361Y-105107952D01*
X154223980Y-104965095D01*
X154223980Y-104869857D01*
X154176361Y-104727000D01*
X154128742Y-104679380D01*
X153795409Y-104679380D01*
X153795409Y-104869857D01*
X153938266Y-104298428D02*
X153938266Y-103822238D01*
X154223980Y-104393666D02*
X153223980Y-104060333D01*
X154223980Y-103727000D01*
X154223980Y-102917476D02*
X154223980Y-103393666D01*
X153223980Y-103393666D01*
X154223980Y-102584142D02*
X153223980Y-102584142D01*
X153843028Y-102107952D02*
X153843028Y-101346047D01*
X153223980Y-100965095D02*
X153223980Y-100298428D01*
X154223980Y-100727000D01*
X153557314Y-99488904D02*
X154223980Y-99488904D01*
X153176361Y-99727000D02*
X153890647Y-99965095D01*
X153890647Y-99346047D01*
X153843028Y-98965095D02*
X153843028Y-98203190D01*
X154223980Y-98584142D02*
X153462076Y-98584142D01*
X157449295Y-101867380D02*
X157449295Y-102676904D01*
X157496914Y-102772142D01*
X157544533Y-102819761D01*
X157639771Y-102867380D01*
X157830247Y-102867380D01*
X157925485Y-102819761D01*
X157973104Y-102772142D01*
X158020723Y-102676904D01*
X158020723Y-101867380D01*
X158449295Y-101962619D02*
X158496914Y-101915000D01*
X158592152Y-101867380D01*
X158830247Y-101867380D01*
X158925485Y-101915000D01*
X158973104Y-101962619D01*
X159020723Y-102057857D01*
X159020723Y-102153095D01*
X158973104Y-102295952D01*
X158401676Y-102867380D01*
X159020723Y-102867380D01*
G04 #@! TO.C,C4*
X125822738Y-98708380D02*
X125251309Y-98708380D01*
X125537023Y-98708380D02*
X125537023Y-97708380D01*
X125441785Y-97851238D01*
X125346547Y-97946476D01*
X125251309Y-97994095D01*
X126441785Y-97708380D02*
X126537023Y-97708380D01*
X126632261Y-97756000D01*
X126679880Y-97803619D01*
X126727500Y-97898857D01*
X126775119Y-98089333D01*
X126775119Y-98327428D01*
X126727500Y-98517904D01*
X126679880Y-98613142D01*
X126632261Y-98660761D01*
X126537023Y-98708380D01*
X126441785Y-98708380D01*
X126346547Y-98660761D01*
X126298928Y-98613142D01*
X126251309Y-98517904D01*
X126203690Y-98327428D01*
X126203690Y-98089333D01*
X126251309Y-97898857D01*
X126298928Y-97803619D01*
X126346547Y-97756000D01*
X126441785Y-97708380D01*
X127394166Y-97708380D02*
X127489404Y-97708380D01*
X127584642Y-97756000D01*
X127632261Y-97803619D01*
X127679880Y-97898857D01*
X127727500Y-98089333D01*
X127727500Y-98327428D01*
X127679880Y-98517904D01*
X127632261Y-98613142D01*
X127584642Y-98660761D01*
X127489404Y-98708380D01*
X127394166Y-98708380D01*
X127298928Y-98660761D01*
X127251309Y-98613142D01*
X127203690Y-98517904D01*
X127156071Y-98327428D01*
X127156071Y-98089333D01*
X127203690Y-97898857D01*
X127251309Y-97803619D01*
X127298928Y-97756000D01*
X127394166Y-97708380D01*
X128346547Y-97708380D02*
X128441785Y-97708380D01*
X128537023Y-97756000D01*
X128584642Y-97803619D01*
X128632261Y-97898857D01*
X128679880Y-98089333D01*
X128679880Y-98327428D01*
X128632261Y-98517904D01*
X128584642Y-98613142D01*
X128537023Y-98660761D01*
X128441785Y-98708380D01*
X128346547Y-98708380D01*
X128251309Y-98660761D01*
X128203690Y-98613142D01*
X128156071Y-98517904D01*
X128108452Y-98327428D01*
X128108452Y-98089333D01*
X128156071Y-97898857D01*
X128203690Y-97803619D01*
X128251309Y-97756000D01*
X128346547Y-97708380D01*
X129870357Y-98041714D02*
X129870357Y-99041714D01*
X129870357Y-98089333D02*
X129965595Y-98041714D01*
X130156071Y-98041714D01*
X130251309Y-98089333D01*
X130298928Y-98136952D01*
X130346547Y-98232190D01*
X130346547Y-98517904D01*
X130298928Y-98613142D01*
X130251309Y-98660761D01*
X130156071Y-98708380D01*
X129965595Y-98708380D01*
X129870357Y-98660761D01*
X131108452Y-98184571D02*
X130775119Y-98184571D01*
X130775119Y-98708380D02*
X130775119Y-97708380D01*
X131251309Y-97708380D01*
D11*
X128094166Y-100361714D02*
X128056071Y-100399809D01*
X127941785Y-100437904D01*
X127865595Y-100437904D01*
X127751309Y-100399809D01*
X127675119Y-100323619D01*
X127637023Y-100247428D01*
X127598928Y-100095047D01*
X127598928Y-99980761D01*
X127637023Y-99828380D01*
X127675119Y-99752190D01*
X127751309Y-99676000D01*
X127865595Y-99637904D01*
X127941785Y-99637904D01*
X128056071Y-99676000D01*
X128094166Y-99714095D01*
X128779880Y-99904571D02*
X128779880Y-100437904D01*
X128589404Y-99599809D02*
X128398928Y-100171238D01*
X128894166Y-100171238D01*
D10*
G04 #@! TO.C,C19*
X160573409Y-76223991D02*
X160506065Y-76156648D01*
X160472394Y-76055632D01*
X160472394Y-75988289D01*
X160506065Y-75887274D01*
X160607081Y-75718915D01*
X160775439Y-75550556D01*
X160943798Y-75449541D01*
X161044813Y-75415869D01*
X161112157Y-75415869D01*
X161213172Y-75449541D01*
X161280516Y-75516884D01*
X161314187Y-75617900D01*
X161314187Y-75685243D01*
X161280516Y-75786258D01*
X161179500Y-75954617D01*
X161011142Y-76122976D01*
X160842783Y-76223991D01*
X160741768Y-76257663D01*
X160674424Y-76257663D01*
X160573409Y-76223991D01*
X160674424Y-75045480D02*
X160674424Y-74978136D01*
X160741768Y-74978136D01*
X160741768Y-75045480D01*
X160674424Y-75045480D01*
X160741768Y-74978136D01*
X160034661Y-74271029D02*
X160438722Y-74675091D01*
X160236691Y-74473060D02*
X159529585Y-75180167D01*
X159697943Y-75146495D01*
X159832630Y-75146495D01*
X159933646Y-75180167D01*
X158418417Y-73597594D02*
X158889821Y-73126190D01*
X158721462Y-73900640D02*
X159091852Y-73530251D01*
X159125523Y-73429236D01*
X159091852Y-73328220D01*
X158990836Y-73227205D01*
X158889821Y-73193533D01*
X158822478Y-73193533D01*
X157947012Y-72924159D02*
X158182714Y-73159862D01*
X158553104Y-72789472D02*
X157845997Y-73496579D01*
X157509279Y-73159862D01*
D11*
X158808336Y-75854275D02*
X158862211Y-75854275D01*
X158969960Y-75908150D01*
X159023835Y-75962025D01*
X159077710Y-76069774D01*
X159077710Y-76177524D01*
X159050773Y-76258336D01*
X158969960Y-76393023D01*
X158889148Y-76473835D01*
X158754461Y-76554647D01*
X158673649Y-76581585D01*
X158565899Y-76581585D01*
X158458150Y-76527710D01*
X158404275Y-76473835D01*
X158350400Y-76366086D01*
X158350400Y-76312211D01*
X158323463Y-75261652D02*
X158646712Y-75584901D01*
X158485087Y-75423276D02*
X157919402Y-75988962D01*
X158054089Y-75962025D01*
X158161838Y-75962025D01*
X158242651Y-75988962D01*
X158054089Y-74992278D02*
X157946339Y-74884528D01*
X157865527Y-74857591D01*
X157811652Y-74857591D01*
X157676965Y-74884528D01*
X157542278Y-74965341D01*
X157326779Y-75180840D01*
X157299841Y-75261652D01*
X157299841Y-75315527D01*
X157326779Y-75396339D01*
X157434528Y-75504089D01*
X157515341Y-75531026D01*
X157569215Y-75531026D01*
X157650028Y-75504089D01*
X157784715Y-75369402D01*
X157811652Y-75288589D01*
X157811652Y-75234715D01*
X157784715Y-75153902D01*
X157676965Y-75046153D01*
X157596153Y-75019215D01*
X157542278Y-75019215D01*
X157461466Y-75046153D01*
D10*
G04 #@! TO.C,C14*
X159708580Y-91385238D02*
X159708580Y-90766190D01*
X160089533Y-91099524D01*
X160089533Y-90956667D01*
X160137152Y-90861429D01*
X160184771Y-90813810D01*
X160280009Y-90766190D01*
X160518104Y-90766190D01*
X160613342Y-90813810D01*
X160660961Y-90861429D01*
X160708580Y-90956667D01*
X160708580Y-91242381D01*
X160660961Y-91337619D01*
X160613342Y-91385238D01*
X159708580Y-90432857D02*
X159708580Y-89813810D01*
X160089533Y-90147143D01*
X160089533Y-90004286D01*
X160137152Y-89909048D01*
X160184771Y-89861429D01*
X160280009Y-89813810D01*
X160518104Y-89813810D01*
X160613342Y-89861429D01*
X160660961Y-89909048D01*
X160708580Y-90004286D01*
X160708580Y-90290000D01*
X160660961Y-90385238D01*
X160613342Y-90432857D01*
X160041914Y-88623333D02*
X161041914Y-88623333D01*
X160089533Y-88623333D02*
X160041914Y-88528095D01*
X160041914Y-88337619D01*
X160089533Y-88242381D01*
X160137152Y-88194762D01*
X160232390Y-88147143D01*
X160518104Y-88147143D01*
X160613342Y-88194762D01*
X160660961Y-88242381D01*
X160708580Y-88337619D01*
X160708580Y-88528095D01*
X160660961Y-88623333D01*
X160184771Y-87385238D02*
X160184771Y-87718571D01*
X160708580Y-87718571D02*
X159708580Y-87718571D01*
X159708580Y-87242381D01*
D13*
X158969057Y-89570952D02*
X158988104Y-89590000D01*
X159007152Y-89647143D01*
X159007152Y-89685238D01*
X158988104Y-89742381D01*
X158950009Y-89780476D01*
X158911914Y-89799524D01*
X158835723Y-89818571D01*
X158778580Y-89818571D01*
X158702390Y-89799524D01*
X158664295Y-89780476D01*
X158626200Y-89742381D01*
X158607152Y-89685238D01*
X158607152Y-89647143D01*
X158626200Y-89590000D01*
X158645247Y-89570952D01*
X159007152Y-89190000D02*
X159007152Y-89418571D01*
X159007152Y-89304286D02*
X158607152Y-89304286D01*
X158664295Y-89342381D01*
X158702390Y-89380476D01*
X158721438Y-89418571D01*
X158740485Y-88847143D02*
X159007152Y-88847143D01*
X158588104Y-88942381D02*
X158873819Y-89037619D01*
X158873819Y-88790000D01*
D10*
G04 #@! TO.C,C17*
X156406580Y-95529428D02*
X156406580Y-94910380D01*
X156787533Y-95243714D01*
X156787533Y-95100857D01*
X156835152Y-95005619D01*
X156882771Y-94958000D01*
X156978009Y-94910380D01*
X157216104Y-94910380D01*
X157311342Y-94958000D01*
X157358961Y-95005619D01*
X157406580Y-95100857D01*
X157406580Y-95386571D01*
X157358961Y-95481809D01*
X157311342Y-95529428D01*
X156406580Y-94577047D02*
X156406580Y-93958000D01*
X156787533Y-94291333D01*
X156787533Y-94148476D01*
X156835152Y-94053238D01*
X156882771Y-94005619D01*
X156978009Y-93958000D01*
X157216104Y-93958000D01*
X157311342Y-94005619D01*
X157358961Y-94053238D01*
X157406580Y-94148476D01*
X157406580Y-94434190D01*
X157358961Y-94529428D01*
X157311342Y-94577047D01*
X156739914Y-92767523D02*
X157739914Y-92767523D01*
X156787533Y-92767523D02*
X156739914Y-92672285D01*
X156739914Y-92481809D01*
X156787533Y-92386571D01*
X156835152Y-92338952D01*
X156930390Y-92291333D01*
X157216104Y-92291333D01*
X157311342Y-92338952D01*
X157358961Y-92386571D01*
X157406580Y-92481809D01*
X157406580Y-92672285D01*
X157358961Y-92767523D01*
X156882771Y-91529428D02*
X156882771Y-91862761D01*
X157406580Y-91862761D02*
X156406580Y-91862761D01*
X156406580Y-91386571D01*
D13*
X155667057Y-93715142D02*
X155686104Y-93734190D01*
X155705152Y-93791333D01*
X155705152Y-93829428D01*
X155686104Y-93886571D01*
X155648009Y-93924666D01*
X155609914Y-93943714D01*
X155533723Y-93962761D01*
X155476580Y-93962761D01*
X155400390Y-93943714D01*
X155362295Y-93924666D01*
X155324200Y-93886571D01*
X155305152Y-93829428D01*
X155305152Y-93791333D01*
X155324200Y-93734190D01*
X155343247Y-93715142D01*
X155705152Y-93334190D02*
X155705152Y-93562761D01*
X155705152Y-93448476D02*
X155305152Y-93448476D01*
X155362295Y-93486571D01*
X155400390Y-93524666D01*
X155419438Y-93562761D01*
X155305152Y-93200857D02*
X155305152Y-92934190D01*
X155705152Y-93105619D01*
D10*
G04 #@! TO.C,L7*
X152214533Y-83500980D02*
X152833580Y-83500980D01*
X152500247Y-83881933D01*
X152643104Y-83881933D01*
X152738342Y-83929552D01*
X152785961Y-83977171D01*
X152833580Y-84072409D01*
X152833580Y-84310504D01*
X152785961Y-84405742D01*
X152738342Y-84453361D01*
X152643104Y-84500980D01*
X152357390Y-84500980D01*
X152262152Y-84453361D01*
X152214533Y-84405742D01*
X153166914Y-83500980D02*
X153785961Y-83500980D01*
X153452628Y-83881933D01*
X153595485Y-83881933D01*
X153690723Y-83929552D01*
X153738342Y-83977171D01*
X153785961Y-84072409D01*
X153785961Y-84310504D01*
X153738342Y-84405742D01*
X153690723Y-84453361D01*
X153595485Y-84500980D01*
X153309771Y-84500980D01*
X153214533Y-84453361D01*
X153166914Y-84405742D01*
X154976438Y-83834314D02*
X154976438Y-84500980D01*
X154976438Y-83929552D02*
X155024057Y-83881933D01*
X155119295Y-83834314D01*
X155262152Y-83834314D01*
X155357390Y-83881933D01*
X155405009Y-83977171D01*
X155405009Y-84500980D01*
X155881200Y-84500980D02*
X155881200Y-83500980D01*
X155881200Y-83977171D02*
X156452628Y-83977171D01*
X156452628Y-84500980D02*
X156452628Y-83500980D01*
X153047866Y-86659980D02*
X152714533Y-86183790D01*
X152476438Y-86659980D02*
X152476438Y-85659980D01*
X152857390Y-85659980D01*
X152952628Y-85707600D01*
X153000247Y-85755219D01*
X153047866Y-85850457D01*
X153047866Y-85993314D01*
X153000247Y-86088552D01*
X152952628Y-86136171D01*
X152857390Y-86183790D01*
X152476438Y-86183790D01*
X153476438Y-86136171D02*
X153809771Y-86136171D01*
X153952628Y-86659980D02*
X153476438Y-86659980D01*
X153476438Y-85659980D01*
X153952628Y-85659980D01*
X154714533Y-86136171D02*
X154381200Y-86136171D01*
X154381200Y-86659980D02*
X154381200Y-85659980D01*
X154857390Y-85659980D01*
X155381200Y-85659980D02*
X155381200Y-85898076D01*
X155143104Y-85802838D02*
X155381200Y-85898076D01*
X155619295Y-85802838D01*
X155238342Y-86088552D02*
X155381200Y-85898076D01*
X155524057Y-86088552D01*
X156143104Y-85659980D02*
X156143104Y-85898076D01*
X155905009Y-85802838D02*
X156143104Y-85898076D01*
X156381200Y-85802838D01*
X156000247Y-86088552D02*
X156143104Y-85898076D01*
X156285961Y-86088552D01*
G04 #@! TO.C,C20*
X149951709Y-87089980D02*
X150142185Y-87089980D01*
X150237423Y-87137600D01*
X150332661Y-87232838D01*
X150380280Y-87423314D01*
X150380280Y-87756647D01*
X150332661Y-87947123D01*
X150237423Y-88042361D01*
X150142185Y-88089980D01*
X149951709Y-88089980D01*
X149856471Y-88042361D01*
X149761233Y-87947123D01*
X149713614Y-87756647D01*
X149713614Y-87423314D01*
X149761233Y-87232838D01*
X149856471Y-87137600D01*
X149951709Y-87089980D01*
X150808852Y-88089980D02*
X150808852Y-87089980D01*
X151189804Y-87089980D01*
X151285042Y-87137600D01*
X151332661Y-87185219D01*
X151380280Y-87280457D01*
X151380280Y-87423314D01*
X151332661Y-87518552D01*
X151285042Y-87566171D01*
X151189804Y-87613790D01*
X150808852Y-87613790D01*
X151665995Y-87089980D02*
X152237423Y-87089980D01*
X151951709Y-88089980D02*
X151951709Y-87089980D01*
D13*
X150670757Y-86350457D02*
X150651709Y-86369504D01*
X150594566Y-86388552D01*
X150556471Y-86388552D01*
X150499328Y-86369504D01*
X150461233Y-86331409D01*
X150442185Y-86293314D01*
X150423138Y-86217123D01*
X150423138Y-86159980D01*
X150442185Y-86083790D01*
X150461233Y-86045695D01*
X150499328Y-86007600D01*
X150556471Y-85988552D01*
X150594566Y-85988552D01*
X150651709Y-86007600D01*
X150670757Y-86026647D01*
X150823138Y-86026647D02*
X150842185Y-86007600D01*
X150880280Y-85988552D01*
X150975519Y-85988552D01*
X151013614Y-86007600D01*
X151032661Y-86026647D01*
X151051709Y-86064742D01*
X151051709Y-86102838D01*
X151032661Y-86159980D01*
X150804090Y-86388552D01*
X151051709Y-86388552D01*
X151299328Y-85988552D02*
X151337423Y-85988552D01*
X151375519Y-86007600D01*
X151394566Y-86026647D01*
X151413614Y-86064742D01*
X151432661Y-86140933D01*
X151432661Y-86236171D01*
X151413614Y-86312361D01*
X151394566Y-86350457D01*
X151375519Y-86369504D01*
X151337423Y-86388552D01*
X151299328Y-86388552D01*
X151261233Y-86369504D01*
X151242185Y-86350457D01*
X151223138Y-86312361D01*
X151204090Y-86236171D01*
X151204090Y-86140933D01*
X151223138Y-86064742D01*
X151242185Y-86026647D01*
X151261233Y-86007600D01*
X151299328Y-85988552D01*
D10*
G04 #@! TO.C,R3*
X144575904Y-84373380D02*
X144099714Y-84373380D01*
X144052095Y-84849571D01*
X144099714Y-84801952D01*
X144194952Y-84754333D01*
X144433047Y-84754333D01*
X144528285Y-84801952D01*
X144575904Y-84849571D01*
X144623523Y-84944809D01*
X144623523Y-85182904D01*
X144575904Y-85278142D01*
X144528285Y-85325761D01*
X144433047Y-85373380D01*
X144194952Y-85373380D01*
X144099714Y-85325761D01*
X144052095Y-85278142D01*
X145575904Y-85373380D02*
X145004476Y-85373380D01*
X145290190Y-85373380D02*
X145290190Y-84373380D01*
X145194952Y-84516238D01*
X145099714Y-84611476D01*
X145004476Y-84659095D01*
X146575904Y-85373380D02*
X146242571Y-84897190D01*
X146004476Y-85373380D02*
X146004476Y-84373380D01*
X146385428Y-84373380D01*
X146480666Y-84421000D01*
X146528285Y-84468619D01*
X146575904Y-84563857D01*
X146575904Y-84706714D01*
X146528285Y-84801952D01*
X146480666Y-84849571D01*
X146385428Y-84897190D01*
X146004476Y-84897190D01*
D11*
X145180666Y-87102904D02*
X144914000Y-86721952D01*
X144723523Y-87102904D02*
X144723523Y-86302904D01*
X145028285Y-86302904D01*
X145104476Y-86341000D01*
X145142571Y-86379095D01*
X145180666Y-86455285D01*
X145180666Y-86569571D01*
X145142571Y-86645761D01*
X145104476Y-86683857D01*
X145028285Y-86721952D01*
X144723523Y-86721952D01*
X145447333Y-86302904D02*
X145942571Y-86302904D01*
X145675904Y-86607666D01*
X145790190Y-86607666D01*
X145866380Y-86645761D01*
X145904476Y-86683857D01*
X145942571Y-86760047D01*
X145942571Y-86950523D01*
X145904476Y-87026714D01*
X145866380Y-87064809D01*
X145790190Y-87102904D01*
X145561619Y-87102904D01*
X145485428Y-87064809D01*
X145447333Y-87026714D01*
D10*
G04 #@! TO.C,ATT1*
X148583723Y-77816380D02*
X148583723Y-76816380D01*
X148964676Y-76816380D01*
X149059914Y-76864000D01*
X149107533Y-76911619D01*
X149155152Y-77006857D01*
X149155152Y-77149714D01*
X149107533Y-77244952D01*
X149059914Y-77292571D01*
X148964676Y-77340190D01*
X148583723Y-77340190D01*
X149536104Y-77530666D02*
X150012295Y-77530666D01*
X149440866Y-77816380D02*
X149774200Y-76816380D01*
X150107533Y-77816380D01*
X150298009Y-76816380D02*
X150869438Y-76816380D01*
X150583723Y-77816380D02*
X150583723Y-76816380D01*
X151726580Y-77816380D02*
X151155152Y-77816380D01*
X151440866Y-77816380D02*
X151440866Y-76816380D01*
X151345628Y-76959238D01*
X151250390Y-77054476D01*
X151155152Y-77102095D01*
X152107533Y-76911619D02*
X152155152Y-76864000D01*
X152250390Y-76816380D01*
X152488485Y-76816380D01*
X152583723Y-76864000D01*
X152631342Y-76911619D01*
X152678961Y-77006857D01*
X152678961Y-77102095D01*
X152631342Y-77244952D01*
X152059914Y-77816380D01*
X152678961Y-77816380D01*
X153059914Y-76911619D02*
X153107533Y-76864000D01*
X153202771Y-76816380D01*
X153440866Y-76816380D01*
X153536104Y-76864000D01*
X153583723Y-76911619D01*
X153631342Y-77006857D01*
X153631342Y-77102095D01*
X153583723Y-77244952D01*
X153012295Y-77816380D01*
X153631342Y-77816380D01*
X154250390Y-76816380D02*
X154345628Y-76816380D01*
X154440866Y-76864000D01*
X154488485Y-76911619D01*
X154536104Y-77006857D01*
X154583723Y-77197333D01*
X154583723Y-77435428D01*
X154536104Y-77625904D01*
X154488485Y-77721142D01*
X154440866Y-77768761D01*
X154345628Y-77816380D01*
X154250390Y-77816380D01*
X154155152Y-77768761D01*
X154107533Y-77721142D01*
X154059914Y-77625904D01*
X154012295Y-77435428D01*
X154012295Y-77197333D01*
X154059914Y-77006857D01*
X154107533Y-76911619D01*
X154155152Y-76864000D01*
X154250390Y-76816380D01*
X155012295Y-77435428D02*
X155774200Y-77435428D01*
X156821819Y-77721142D02*
X156774200Y-77768761D01*
X156631342Y-77816380D01*
X156536104Y-77816380D01*
X156393247Y-77768761D01*
X156298009Y-77673523D01*
X156250390Y-77578285D01*
X156202771Y-77387809D01*
X156202771Y-77244952D01*
X156250390Y-77054476D01*
X156298009Y-76959238D01*
X156393247Y-76864000D01*
X156536104Y-76816380D01*
X156631342Y-76816380D01*
X156774200Y-76864000D01*
X156821819Y-76911619D01*
X157250390Y-77435428D02*
X158012295Y-77435428D01*
X158393247Y-76816380D02*
X159012295Y-76816380D01*
X158678961Y-77197333D01*
X158821819Y-77197333D01*
X158917057Y-77244952D01*
X158964676Y-77292571D01*
X159012295Y-77387809D01*
X159012295Y-77625904D01*
X158964676Y-77721142D01*
X158917057Y-77768761D01*
X158821819Y-77816380D01*
X158536104Y-77816380D01*
X158440866Y-77768761D01*
X158393247Y-77721142D01*
X159440866Y-77816380D02*
X159440866Y-76816380D01*
X159678961Y-76816380D01*
X159821819Y-76864000D01*
X159917057Y-76959238D01*
X159964676Y-77054476D01*
X160012295Y-77244952D01*
X160012295Y-77387809D01*
X159964676Y-77578285D01*
X159917057Y-77673523D01*
X159821819Y-77768761D01*
X159678961Y-77816380D01*
X159440866Y-77816380D01*
X160774200Y-77292571D02*
X160917057Y-77340190D01*
X160964676Y-77387809D01*
X161012295Y-77483047D01*
X161012295Y-77625904D01*
X160964676Y-77721142D01*
X160917057Y-77768761D01*
X160821819Y-77816380D01*
X160440866Y-77816380D01*
X160440866Y-76816380D01*
X160774200Y-76816380D01*
X160869438Y-76864000D01*
X160917057Y-76911619D01*
X160964676Y-77006857D01*
X160964676Y-77102095D01*
X160917057Y-77197333D01*
X160869438Y-77244952D01*
X160774200Y-77292571D01*
X160440866Y-77292571D01*
D14*
X154036104Y-79747333D02*
X154274200Y-79747333D01*
X153988485Y-79890190D02*
X154155152Y-79390190D01*
X154321819Y-79890190D01*
X154417057Y-79390190D02*
X154702771Y-79390190D01*
X154559914Y-79890190D02*
X154559914Y-79390190D01*
X154798009Y-79390190D02*
X155083723Y-79390190D01*
X154940866Y-79890190D02*
X154940866Y-79390190D01*
X155512295Y-79890190D02*
X155226580Y-79890190D01*
X155369438Y-79890190D02*
X155369438Y-79390190D01*
X155321819Y-79461619D01*
X155274200Y-79509238D01*
X155226580Y-79533047D01*
D10*
G04 #@! TO.C,D2*
X110907571Y-100290000D02*
X110955190Y-100147142D01*
X111002809Y-100099523D01*
X111098047Y-100051904D01*
X111240904Y-100051904D01*
X111336142Y-100099523D01*
X111383761Y-100147142D01*
X111431380Y-100242380D01*
X111431380Y-100623333D01*
X110431380Y-100623333D01*
X110431380Y-100290000D01*
X110479000Y-100194761D01*
X110526619Y-100147142D01*
X110621857Y-100099523D01*
X110717095Y-100099523D01*
X110812333Y-100147142D01*
X110859952Y-100194761D01*
X110907571Y-100290000D01*
X110907571Y-100623333D01*
X111145666Y-99670952D02*
X111145666Y-99194761D01*
X111431380Y-99766190D02*
X110431380Y-99432857D01*
X111431380Y-99099523D01*
X110431380Y-98909047D02*
X111431380Y-98575714D01*
X110431380Y-98242380D01*
X111431380Y-97861428D02*
X111431380Y-97670952D01*
X111383761Y-97575714D01*
X111336142Y-97528095D01*
X111193285Y-97432857D01*
X111002809Y-97385238D01*
X110621857Y-97385238D01*
X110526619Y-97432857D01*
X110479000Y-97480476D01*
X110431380Y-97575714D01*
X110431380Y-97766190D01*
X110479000Y-97861428D01*
X110526619Y-97909047D01*
X110621857Y-97956666D01*
X110859952Y-97956666D01*
X110955190Y-97909047D01*
X111002809Y-97861428D01*
X111050428Y-97766190D01*
X111050428Y-97575714D01*
X111002809Y-97480476D01*
X110955190Y-97432857D01*
X110859952Y-97385238D01*
X111431380Y-96909047D02*
X111431380Y-96718571D01*
X111383761Y-96623333D01*
X111336142Y-96575714D01*
X111193285Y-96480476D01*
X111002809Y-96432857D01*
X110621857Y-96432857D01*
X110526619Y-96480476D01*
X110479000Y-96528095D01*
X110431380Y-96623333D01*
X110431380Y-96813809D01*
X110479000Y-96909047D01*
X110526619Y-96956666D01*
X110621857Y-97004285D01*
X110859952Y-97004285D01*
X110955190Y-96956666D01*
X111002809Y-96909047D01*
X111050428Y-96813809D01*
X111050428Y-96623333D01*
X111002809Y-96528095D01*
X110955190Y-96480476D01*
X110859952Y-96432857D01*
X111431380Y-95528095D02*
X111431380Y-96004285D01*
X110431380Y-96004285D01*
X110431380Y-95337619D02*
X110431380Y-94766190D01*
X111431380Y-95051904D02*
X110431380Y-95051904D01*
X111431380Y-93909047D02*
X111431380Y-94480476D01*
X111431380Y-94194761D02*
X110431380Y-94194761D01*
X110574238Y-94290000D01*
X110669476Y-94385238D01*
X110717095Y-94480476D01*
X110479000Y-92956666D02*
X110431380Y-93051904D01*
X110431380Y-93194761D01*
X110479000Y-93337619D01*
X110574238Y-93432857D01*
X110669476Y-93480476D01*
X110859952Y-93528095D01*
X111002809Y-93528095D01*
X111193285Y-93480476D01*
X111288523Y-93432857D01*
X111383761Y-93337619D01*
X111431380Y-93194761D01*
X111431380Y-93099523D01*
X111383761Y-92956666D01*
X111336142Y-92909047D01*
X111002809Y-92909047D01*
X111002809Y-93099523D01*
D15*
X113523761Y-97026190D02*
X113203761Y-97026190D01*
X113203761Y-96950000D01*
X113219000Y-96904285D01*
X113249476Y-96873809D01*
X113279952Y-96858571D01*
X113340904Y-96843333D01*
X113386619Y-96843333D01*
X113447571Y-96858571D01*
X113478047Y-96873809D01*
X113508523Y-96904285D01*
X113523761Y-96950000D01*
X113523761Y-97026190D01*
X113234238Y-96721428D02*
X113219000Y-96706190D01*
X113203761Y-96675714D01*
X113203761Y-96599523D01*
X113219000Y-96569047D01*
X113234238Y-96553809D01*
X113264714Y-96538571D01*
X113295190Y-96538571D01*
X113340904Y-96553809D01*
X113523761Y-96736666D01*
X113523761Y-96538571D01*
D10*
G04 #@! TO.C,D4*
X176757571Y-100290000D02*
X176805190Y-100147142D01*
X176852809Y-100099523D01*
X176948047Y-100051904D01*
X177090904Y-100051904D01*
X177186142Y-100099523D01*
X177233761Y-100147142D01*
X177281380Y-100242380D01*
X177281380Y-100623333D01*
X176281380Y-100623333D01*
X176281380Y-100290000D01*
X176329000Y-100194761D01*
X176376619Y-100147142D01*
X176471857Y-100099523D01*
X176567095Y-100099523D01*
X176662333Y-100147142D01*
X176709952Y-100194761D01*
X176757571Y-100290000D01*
X176757571Y-100623333D01*
X176995666Y-99670952D02*
X176995666Y-99194761D01*
X177281380Y-99766190D02*
X176281380Y-99432857D01*
X177281380Y-99099523D01*
X176281380Y-98909047D02*
X177281380Y-98575714D01*
X176281380Y-98242380D01*
X177281380Y-97861428D02*
X177281380Y-97670952D01*
X177233761Y-97575714D01*
X177186142Y-97528095D01*
X177043285Y-97432857D01*
X176852809Y-97385238D01*
X176471857Y-97385238D01*
X176376619Y-97432857D01*
X176329000Y-97480476D01*
X176281380Y-97575714D01*
X176281380Y-97766190D01*
X176329000Y-97861428D01*
X176376619Y-97909047D01*
X176471857Y-97956666D01*
X176709952Y-97956666D01*
X176805190Y-97909047D01*
X176852809Y-97861428D01*
X176900428Y-97766190D01*
X176900428Y-97575714D01*
X176852809Y-97480476D01*
X176805190Y-97432857D01*
X176709952Y-97385238D01*
X177281380Y-96909047D02*
X177281380Y-96718571D01*
X177233761Y-96623333D01*
X177186142Y-96575714D01*
X177043285Y-96480476D01*
X176852809Y-96432857D01*
X176471857Y-96432857D01*
X176376619Y-96480476D01*
X176329000Y-96528095D01*
X176281380Y-96623333D01*
X176281380Y-96813809D01*
X176329000Y-96909047D01*
X176376619Y-96956666D01*
X176471857Y-97004285D01*
X176709952Y-97004285D01*
X176805190Y-96956666D01*
X176852809Y-96909047D01*
X176900428Y-96813809D01*
X176900428Y-96623333D01*
X176852809Y-96528095D01*
X176805190Y-96480476D01*
X176709952Y-96432857D01*
X177281380Y-95528095D02*
X177281380Y-96004285D01*
X176281380Y-96004285D01*
X176281380Y-95337619D02*
X176281380Y-94766190D01*
X177281380Y-95051904D02*
X176281380Y-95051904D01*
X177281380Y-93909047D02*
X177281380Y-94480476D01*
X177281380Y-94194761D02*
X176281380Y-94194761D01*
X176424238Y-94290000D01*
X176519476Y-94385238D01*
X176567095Y-94480476D01*
X176329000Y-92956666D02*
X176281380Y-93051904D01*
X176281380Y-93194761D01*
X176329000Y-93337619D01*
X176424238Y-93432857D01*
X176519476Y-93480476D01*
X176709952Y-93528095D01*
X176852809Y-93528095D01*
X177043285Y-93480476D01*
X177138523Y-93432857D01*
X177233761Y-93337619D01*
X177281380Y-93194761D01*
X177281380Y-93099523D01*
X177233761Y-92956666D01*
X177186142Y-92909047D01*
X176852809Y-92909047D01*
X176852809Y-93099523D01*
D15*
X179373761Y-97026190D02*
X179053761Y-97026190D01*
X179053761Y-96950000D01*
X179069000Y-96904285D01*
X179099476Y-96873809D01*
X179129952Y-96858571D01*
X179190904Y-96843333D01*
X179236619Y-96843333D01*
X179297571Y-96858571D01*
X179328047Y-96873809D01*
X179358523Y-96904285D01*
X179373761Y-96950000D01*
X179373761Y-97026190D01*
X179160428Y-96569047D02*
X179373761Y-96569047D01*
X179038523Y-96645238D02*
X179267095Y-96721428D01*
X179267095Y-96523333D01*
D10*
G04 #@! TO.C,D3*
X149260071Y-72985000D02*
X149307690Y-72842142D01*
X149355309Y-72794523D01*
X149450547Y-72746904D01*
X149593404Y-72746904D01*
X149688642Y-72794523D01*
X149736261Y-72842142D01*
X149783880Y-72937380D01*
X149783880Y-73318333D01*
X148783880Y-73318333D01*
X148783880Y-72985000D01*
X148831500Y-72889761D01*
X148879119Y-72842142D01*
X148974357Y-72794523D01*
X149069595Y-72794523D01*
X149164833Y-72842142D01*
X149212452Y-72889761D01*
X149260071Y-72985000D01*
X149260071Y-73318333D01*
X149498166Y-72365952D02*
X149498166Y-71889761D01*
X149783880Y-72461190D02*
X148783880Y-72127857D01*
X149783880Y-71794523D01*
X148783880Y-71604047D02*
X149783880Y-71270714D01*
X148783880Y-70937380D01*
X149783880Y-70556428D02*
X149783880Y-70365952D01*
X149736261Y-70270714D01*
X149688642Y-70223095D01*
X149545785Y-70127857D01*
X149355309Y-70080238D01*
X148974357Y-70080238D01*
X148879119Y-70127857D01*
X148831500Y-70175476D01*
X148783880Y-70270714D01*
X148783880Y-70461190D01*
X148831500Y-70556428D01*
X148879119Y-70604047D01*
X148974357Y-70651666D01*
X149212452Y-70651666D01*
X149307690Y-70604047D01*
X149355309Y-70556428D01*
X149402928Y-70461190D01*
X149402928Y-70270714D01*
X149355309Y-70175476D01*
X149307690Y-70127857D01*
X149212452Y-70080238D01*
X149783880Y-69604047D02*
X149783880Y-69413571D01*
X149736261Y-69318333D01*
X149688642Y-69270714D01*
X149545785Y-69175476D01*
X149355309Y-69127857D01*
X148974357Y-69127857D01*
X148879119Y-69175476D01*
X148831500Y-69223095D01*
X148783880Y-69318333D01*
X148783880Y-69508809D01*
X148831500Y-69604047D01*
X148879119Y-69651666D01*
X148974357Y-69699285D01*
X149212452Y-69699285D01*
X149307690Y-69651666D01*
X149355309Y-69604047D01*
X149402928Y-69508809D01*
X149402928Y-69318333D01*
X149355309Y-69223095D01*
X149307690Y-69175476D01*
X149212452Y-69127857D01*
X149783880Y-68223095D02*
X149783880Y-68699285D01*
X148783880Y-68699285D01*
X148783880Y-68032619D02*
X148783880Y-67461190D01*
X149783880Y-67746904D02*
X148783880Y-67746904D01*
X149783880Y-66604047D02*
X149783880Y-67175476D01*
X149783880Y-66889761D02*
X148783880Y-66889761D01*
X148926738Y-66985000D01*
X149021976Y-67080238D01*
X149069595Y-67175476D01*
X148831500Y-65651666D02*
X148783880Y-65746904D01*
X148783880Y-65889761D01*
X148831500Y-66032619D01*
X148926738Y-66127857D01*
X149021976Y-66175476D01*
X149212452Y-66223095D01*
X149355309Y-66223095D01*
X149545785Y-66175476D01*
X149641023Y-66127857D01*
X149736261Y-66032619D01*
X149783880Y-65889761D01*
X149783880Y-65794523D01*
X149736261Y-65651666D01*
X149688642Y-65604047D01*
X149355309Y-65604047D01*
X149355309Y-65794523D01*
D15*
X151876261Y-69721190D02*
X151556261Y-69721190D01*
X151556261Y-69645000D01*
X151571500Y-69599285D01*
X151601976Y-69568809D01*
X151632452Y-69553571D01*
X151693404Y-69538333D01*
X151739119Y-69538333D01*
X151800071Y-69553571D01*
X151830547Y-69568809D01*
X151861023Y-69599285D01*
X151876261Y-69645000D01*
X151876261Y-69721190D01*
X151556261Y-69431666D02*
X151556261Y-69233571D01*
X151678166Y-69340238D01*
X151678166Y-69294523D01*
X151693404Y-69264047D01*
X151708642Y-69248809D01*
X151739119Y-69233571D01*
X151815309Y-69233571D01*
X151845785Y-69248809D01*
X151861023Y-69264047D01*
X151876261Y-69294523D01*
X151876261Y-69385952D01*
X151861023Y-69416428D01*
X151845785Y-69431666D01*
D10*
G04 #@! TO.C,JP1*
X173950380Y-104015523D02*
X174664666Y-104015523D01*
X174807523Y-104063142D01*
X174902761Y-104158380D01*
X174950380Y-104301238D01*
X174950380Y-104396476D01*
X174902761Y-103586952D02*
X174950380Y-103444095D01*
X174950380Y-103206000D01*
X174902761Y-103110761D01*
X174855142Y-103063142D01*
X174759904Y-103015523D01*
X174664666Y-103015523D01*
X174569428Y-103063142D01*
X174521809Y-103110761D01*
X174474190Y-103206000D01*
X174426571Y-103396476D01*
X174378952Y-103491714D01*
X174331333Y-103539333D01*
X174236095Y-103586952D01*
X174140857Y-103586952D01*
X174045619Y-103539333D01*
X173998000Y-103491714D01*
X173950380Y-103396476D01*
X173950380Y-103158380D01*
X173998000Y-103015523D01*
X174950380Y-102063142D02*
X174950380Y-102634571D01*
X174950380Y-102348857D02*
X173950380Y-102348857D01*
X174093238Y-102444095D01*
X174188476Y-102539333D01*
X174236095Y-102634571D01*
X173950380Y-101206000D02*
X173950380Y-101396476D01*
X173998000Y-101491714D01*
X174045619Y-101539333D01*
X174188476Y-101634571D01*
X174378952Y-101682190D01*
X174759904Y-101682190D01*
X174855142Y-101634571D01*
X174902761Y-101586952D01*
X174950380Y-101491714D01*
X174950380Y-101301238D01*
X174902761Y-101206000D01*
X174855142Y-101158380D01*
X174759904Y-101110761D01*
X174521809Y-101110761D01*
X174426571Y-101158380D01*
X174378952Y-101206000D01*
X174331333Y-101301238D01*
X174331333Y-101491714D01*
X174378952Y-101586952D01*
X174426571Y-101634571D01*
X174521809Y-101682190D01*
X174045619Y-100729809D02*
X173998000Y-100682190D01*
X173950380Y-100586952D01*
X173950380Y-100348857D01*
X173998000Y-100253619D01*
X174045619Y-100206000D01*
X174140857Y-100158380D01*
X174236095Y-100158380D01*
X174378952Y-100206000D01*
X174950380Y-100777428D01*
X174950380Y-100158380D01*
X174950380Y-99206000D02*
X174950380Y-99777428D01*
X174950380Y-99491714D02*
X173950380Y-99491714D01*
X174093238Y-99586952D01*
X174188476Y-99682190D01*
X174236095Y-99777428D01*
X174569428Y-98777428D02*
X174569428Y-98015523D01*
X174283714Y-97110761D02*
X174950380Y-97110761D01*
X173902761Y-97348857D02*
X174617047Y-97586952D01*
X174617047Y-96967904D01*
X173950380Y-96158380D02*
X173950380Y-96348857D01*
X173998000Y-96444095D01*
X174045619Y-96491714D01*
X174188476Y-96586952D01*
X174378952Y-96634571D01*
X174759904Y-96634571D01*
X174855142Y-96586952D01*
X174902761Y-96539333D01*
X174950380Y-96444095D01*
X174950380Y-96253619D01*
X174902761Y-96158380D01*
X174855142Y-96110761D01*
X174759904Y-96063142D01*
X174521809Y-96063142D01*
X174426571Y-96110761D01*
X174378952Y-96158380D01*
X174331333Y-96253619D01*
X174331333Y-96444095D01*
X174378952Y-96539333D01*
X174426571Y-96586952D01*
X174521809Y-96634571D01*
X174950380Y-95063142D02*
X174474190Y-95396476D01*
X174950380Y-95634571D02*
X173950380Y-95634571D01*
X173950380Y-95253619D01*
X173998000Y-95158380D01*
X174045619Y-95110761D01*
X174140857Y-95063142D01*
X174283714Y-95063142D01*
X174378952Y-95110761D01*
X174426571Y-95158380D01*
X174474190Y-95253619D01*
X174474190Y-95634571D01*
X171156380Y-100539333D02*
X171870666Y-100539333D01*
X172013523Y-100586952D01*
X172108761Y-100682190D01*
X172156380Y-100825047D01*
X172156380Y-100920285D01*
X172156380Y-100063142D02*
X171156380Y-100063142D01*
X171156380Y-99682190D01*
X171204000Y-99586952D01*
X171251619Y-99539333D01*
X171346857Y-99491714D01*
X171489714Y-99491714D01*
X171584952Y-99539333D01*
X171632571Y-99586952D01*
X171680190Y-99682190D01*
X171680190Y-100063142D01*
X172156380Y-98539333D02*
X172156380Y-99110761D01*
X172156380Y-98825047D02*
X171156380Y-98825047D01*
X171299238Y-98920285D01*
X171394476Y-99015523D01*
X171442095Y-99110761D01*
G04 #@! TO.C,R4*
X170440632Y-77829189D02*
X170912037Y-78300593D01*
X170002900Y-77728174D02*
X170339617Y-78401609D01*
X170777350Y-77963876D01*
X171215083Y-77862861D02*
X171282426Y-77862861D01*
X171282426Y-77930204D01*
X171215083Y-77930204D01*
X171215083Y-77862861D01*
X171282426Y-77930204D01*
X170844693Y-76953723D02*
X171316098Y-76482319D01*
X171720159Y-77492471D01*
X172292579Y-76920051D02*
X171585472Y-76212945D01*
X172090548Y-76583334D02*
X172561953Y-76650677D01*
X172090548Y-76179273D02*
X172090548Y-76718021D01*
D11*
X170123445Y-76387365D02*
X169665509Y-76306553D01*
X169800196Y-76710614D02*
X169234511Y-76144928D01*
X169450010Y-75929429D01*
X169530822Y-75902491D01*
X169584697Y-75902491D01*
X169665509Y-75929429D01*
X169746321Y-76010241D01*
X169773259Y-76091053D01*
X169773259Y-76144928D01*
X169746321Y-76225740D01*
X169530822Y-76441240D01*
X170231195Y-75525368D02*
X170608318Y-75902491D01*
X169881008Y-75444556D02*
X170150382Y-75983304D01*
X170500569Y-75633117D01*
D10*
G04 #@! TO.C,TP1*
X174031617Y-76378909D02*
X174570365Y-75840161D01*
X174570365Y-76378909D02*
X174031617Y-75840161D01*
X174368335Y-75166726D02*
X175311144Y-75638131D01*
X174839739Y-74695322D01*
X175513174Y-74021886D02*
X175917235Y-73617825D01*
X176422312Y-74526963D02*
X175715205Y-73819856D01*
X176489655Y-73718841D02*
X176725357Y-73483138D01*
X177196762Y-73752512D02*
X176860044Y-74089230D01*
X176152938Y-73382123D01*
X176489655Y-73045406D01*
X177432464Y-73449467D02*
X177567151Y-73382123D01*
X177735510Y-73213764D01*
X177769182Y-73112749D01*
X177769182Y-73045406D01*
X177735510Y-72944390D01*
X177668166Y-72877047D01*
X177567151Y-72843375D01*
X177499808Y-72843375D01*
X177398792Y-72877047D01*
X177230434Y-72978062D01*
X177129418Y-73011734D01*
X177062075Y-73011734D01*
X176961060Y-72978062D01*
X176893716Y-72910719D01*
X176860044Y-72809703D01*
X176860044Y-72742360D01*
X176893716Y-72641345D01*
X177062075Y-72472986D01*
X177196762Y-72405642D01*
X177365121Y-72169940D02*
X177769182Y-71765879D01*
X178274258Y-72675016D02*
X177567151Y-71967910D01*
X173240062Y-73398690D02*
X172667642Y-73297675D01*
X172836001Y-73802751D02*
X172128894Y-73095644D01*
X172398268Y-72826270D01*
X172499284Y-72792599D01*
X172566627Y-72792599D01*
X172667642Y-72826270D01*
X172768658Y-72927286D01*
X172802329Y-73028301D01*
X172802329Y-73095644D01*
X172768658Y-73196660D01*
X172499284Y-73466034D01*
X173172719Y-72725255D02*
X173408421Y-72489553D01*
X173879825Y-72758927D02*
X173543108Y-73095644D01*
X172836001Y-72388538D01*
X173172719Y-72051820D01*
X174048184Y-71849790D02*
X173812482Y-72085492D01*
X174182871Y-72455881D02*
X173475764Y-71748774D01*
X173812482Y-71412057D01*
X174182871Y-71041668D02*
X174351230Y-71210026D01*
X174115528Y-71311042D02*
X174351230Y-71210026D01*
X174452245Y-70974324D01*
X174384902Y-71445729D02*
X174351230Y-71210026D01*
X174586932Y-71243698D01*
X174721619Y-70502920D02*
X174889978Y-70671278D01*
X174654276Y-70772294D02*
X174889978Y-70671278D01*
X174990993Y-70435576D01*
X174923650Y-70906981D02*
X174889978Y-70671278D01*
X175125680Y-70704950D01*
G04 #@! TO.C,L8*
X153405009Y-84669380D02*
X153595485Y-84669380D01*
X153690723Y-84717000D01*
X153785961Y-84812238D01*
X153833580Y-85002714D01*
X153833580Y-85336047D01*
X153785961Y-85526523D01*
X153690723Y-85621761D01*
X153595485Y-85669380D01*
X153405009Y-85669380D01*
X153309771Y-85621761D01*
X153214533Y-85526523D01*
X153166914Y-85336047D01*
X153166914Y-85002714D01*
X153214533Y-84812238D01*
X153309771Y-84717000D01*
X153405009Y-84669380D01*
X154262152Y-85669380D02*
X154262152Y-84669380D01*
X154643104Y-84669380D01*
X154738342Y-84717000D01*
X154785961Y-84764619D01*
X154833580Y-84859857D01*
X154833580Y-85002714D01*
X154785961Y-85097952D01*
X154738342Y-85145571D01*
X154643104Y-85193190D01*
X154262152Y-85193190D01*
X155119295Y-84669380D02*
X155690723Y-84669380D01*
X155405009Y-85669380D02*
X155405009Y-84669380D01*
X153047866Y-83510380D02*
X152714533Y-83034190D01*
X152476438Y-83510380D02*
X152476438Y-82510380D01*
X152857390Y-82510380D01*
X152952628Y-82558000D01*
X153000247Y-82605619D01*
X153047866Y-82700857D01*
X153047866Y-82843714D01*
X153000247Y-82938952D01*
X152952628Y-82986571D01*
X152857390Y-83034190D01*
X152476438Y-83034190D01*
X153476438Y-82986571D02*
X153809771Y-82986571D01*
X153952628Y-83510380D02*
X153476438Y-83510380D01*
X153476438Y-82510380D01*
X153952628Y-82510380D01*
X154714533Y-82986571D02*
X154381200Y-82986571D01*
X154381200Y-83510380D02*
X154381200Y-82510380D01*
X154857390Y-82510380D01*
X155381200Y-82510380D02*
X155381200Y-82748476D01*
X155143104Y-82653238D02*
X155381200Y-82748476D01*
X155619295Y-82653238D01*
X155238342Y-82938952D02*
X155381200Y-82748476D01*
X155524057Y-82938952D01*
X156143104Y-82510380D02*
X156143104Y-82748476D01*
X155905009Y-82653238D02*
X156143104Y-82748476D01*
X156381200Y-82653238D01*
X156000247Y-82938952D02*
X156143104Y-82748476D01*
X156285961Y-82938952D01*
G04 #@! TO.C,C16*
X148180690Y-128946619D02*
X148228309Y-128899000D01*
X148323547Y-128851380D01*
X148561642Y-128851380D01*
X148656880Y-128899000D01*
X148704500Y-128946619D01*
X148752119Y-129041857D01*
X148752119Y-129137095D01*
X148704500Y-129279952D01*
X148133071Y-129851380D01*
X148752119Y-129851380D01*
X149133071Y-128946619D02*
X149180690Y-128899000D01*
X149275928Y-128851380D01*
X149514023Y-128851380D01*
X149609261Y-128899000D01*
X149656880Y-128946619D01*
X149704500Y-129041857D01*
X149704500Y-129137095D01*
X149656880Y-129279952D01*
X149085452Y-129851380D01*
X149704500Y-129851380D01*
X151323547Y-129184714D02*
X151323547Y-129851380D01*
X150894976Y-129184714D02*
X150894976Y-129708523D01*
X150942595Y-129803761D01*
X151037833Y-129851380D01*
X151180690Y-129851380D01*
X151275928Y-129803761D01*
X151323547Y-129756142D01*
X152133071Y-129327571D02*
X151799738Y-129327571D01*
X151799738Y-129851380D02*
X151799738Y-128851380D01*
X152275928Y-128851380D01*
D11*
X149690214Y-131984714D02*
X149652119Y-132022809D01*
X149537833Y-132060904D01*
X149461642Y-132060904D01*
X149347357Y-132022809D01*
X149271166Y-131946619D01*
X149233071Y-131870428D01*
X149194976Y-131718047D01*
X149194976Y-131603761D01*
X149233071Y-131451380D01*
X149271166Y-131375190D01*
X149347357Y-131299000D01*
X149461642Y-131260904D01*
X149537833Y-131260904D01*
X149652119Y-131299000D01*
X149690214Y-131337095D01*
X150452119Y-132060904D02*
X149994976Y-132060904D01*
X150223547Y-132060904D02*
X150223547Y-131260904D01*
X150147357Y-131375190D01*
X150071166Y-131451380D01*
X149994976Y-131489476D01*
X151137833Y-131260904D02*
X150985452Y-131260904D01*
X150909261Y-131299000D01*
X150871166Y-131337095D01*
X150794976Y-131451380D01*
X150756880Y-131603761D01*
X150756880Y-131908523D01*
X150794976Y-131984714D01*
X150833071Y-132022809D01*
X150909261Y-132060904D01*
X151061642Y-132060904D01*
X151137833Y-132022809D01*
X151175928Y-131984714D01*
X151214023Y-131908523D01*
X151214023Y-131718047D01*
X151175928Y-131641857D01*
X151137833Y-131603761D01*
X151061642Y-131565666D01*
X150909261Y-131565666D01*
X150833071Y-131603761D01*
X150794976Y-131641857D01*
X150756880Y-131718047D01*
D10*
G04 #@! TO.C,U3*
X147350380Y-127196619D02*
X147350380Y-127672809D01*
X146350380Y-127672809D01*
X147350380Y-126863285D02*
X146350380Y-126863285D01*
X147064666Y-126529952D01*
X146350380Y-126196619D01*
X147350380Y-126196619D01*
X146445619Y-125768047D02*
X146398000Y-125720428D01*
X146350380Y-125625190D01*
X146350380Y-125387095D01*
X146398000Y-125291857D01*
X146445619Y-125244238D01*
X146540857Y-125196619D01*
X146636095Y-125196619D01*
X146778952Y-125244238D01*
X147350380Y-125815666D01*
X147350380Y-125196619D01*
X147350380Y-124720428D02*
X147350380Y-124529952D01*
X147302761Y-124434714D01*
X147255142Y-124387095D01*
X147112285Y-124291857D01*
X146921809Y-124244238D01*
X146540857Y-124244238D01*
X146445619Y-124291857D01*
X146398000Y-124339476D01*
X146350380Y-124434714D01*
X146350380Y-124625190D01*
X146398000Y-124720428D01*
X146445619Y-124768047D01*
X146540857Y-124815666D01*
X146778952Y-124815666D01*
X146874190Y-124768047D01*
X146921809Y-124720428D01*
X146969428Y-124625190D01*
X146969428Y-124434714D01*
X146921809Y-124339476D01*
X146874190Y-124291857D01*
X146778952Y-124244238D01*
X146350380Y-123910904D02*
X146350380Y-123291857D01*
X146731333Y-123625190D01*
X146731333Y-123482333D01*
X146778952Y-123387095D01*
X146826571Y-123339476D01*
X146921809Y-123291857D01*
X147159904Y-123291857D01*
X147255142Y-123339476D01*
X147302761Y-123387095D01*
X147350380Y-123482333D01*
X147350380Y-123768047D01*
X147302761Y-123863285D01*
X147255142Y-123910904D01*
X146350380Y-122958523D02*
X146350380Y-122291857D01*
X147350380Y-122720428D01*
X147350380Y-121910904D02*
X146350380Y-121910904D01*
X147350380Y-121434714D02*
X146350380Y-121434714D01*
X147064666Y-121101380D01*
X146350380Y-120768047D01*
X147350380Y-120768047D01*
X147350380Y-120291857D02*
X146350380Y-120291857D01*
X146350380Y-119910904D01*
X146398000Y-119815666D01*
X146445619Y-119768047D01*
X146540857Y-119720428D01*
X146683714Y-119720428D01*
X146778952Y-119768047D01*
X146826571Y-119815666D01*
X146874190Y-119910904D01*
X146874190Y-120291857D01*
X146969428Y-119291857D02*
X146969428Y-118529952D01*
X147350380Y-117529952D02*
X147350380Y-118101380D01*
X147350380Y-117815666D02*
X146350380Y-117815666D01*
X146493238Y-117910904D01*
X146588476Y-118006142D01*
X146636095Y-118101380D01*
X146445619Y-117149000D02*
X146398000Y-117101380D01*
X146350380Y-117006142D01*
X146350380Y-116768047D01*
X146398000Y-116672809D01*
X146445619Y-116625190D01*
X146540857Y-116577571D01*
X146636095Y-116577571D01*
X146778952Y-116625190D01*
X147350380Y-117196619D01*
X147350380Y-116577571D01*
D11*
X150788476Y-121710904D02*
X150788476Y-122358523D01*
X150826571Y-122434714D01*
X150864666Y-122472809D01*
X150940857Y-122510904D01*
X151093238Y-122510904D01*
X151169428Y-122472809D01*
X151207523Y-122434714D01*
X151245619Y-122358523D01*
X151245619Y-121710904D01*
X151550380Y-121710904D02*
X152045619Y-121710904D01*
X151778952Y-122015666D01*
X151893238Y-122015666D01*
X151969428Y-122053761D01*
X152007523Y-122091857D01*
X152045619Y-122168047D01*
X152045619Y-122358523D01*
X152007523Y-122434714D01*
X151969428Y-122472809D01*
X151893238Y-122510904D01*
X151664666Y-122510904D01*
X151588476Y-122472809D01*
X151550380Y-122434714D01*
D10*
G04 #@! TO.C,C18*
X158352119Y-123577580D02*
X157780690Y-123577580D01*
X158066404Y-123577580D02*
X158066404Y-122577580D01*
X157971166Y-122720438D01*
X157875928Y-122815676D01*
X157780690Y-122863295D01*
X158971166Y-122577580D02*
X159066404Y-122577580D01*
X159161642Y-122625200D01*
X159209261Y-122672819D01*
X159256880Y-122768057D01*
X159304500Y-122958533D01*
X159304500Y-123196628D01*
X159256880Y-123387104D01*
X159209261Y-123482342D01*
X159161642Y-123529961D01*
X159066404Y-123577580D01*
X158971166Y-123577580D01*
X158875928Y-123529961D01*
X158828309Y-123482342D01*
X158780690Y-123387104D01*
X158733071Y-123196628D01*
X158733071Y-122958533D01*
X158780690Y-122768057D01*
X158828309Y-122672819D01*
X158875928Y-122625200D01*
X158971166Y-122577580D01*
X160923547Y-122910914D02*
X160923547Y-123577580D01*
X160494976Y-122910914D02*
X160494976Y-123434723D01*
X160542595Y-123529961D01*
X160637833Y-123577580D01*
X160780690Y-123577580D01*
X160875928Y-123529961D01*
X160923547Y-123482342D01*
X161733071Y-123053771D02*
X161399738Y-123053771D01*
X161399738Y-123577580D02*
X161399738Y-122577580D01*
X161875928Y-122577580D01*
D11*
X159290214Y-125710914D02*
X159252119Y-125749009D01*
X159137833Y-125787104D01*
X159061642Y-125787104D01*
X158947357Y-125749009D01*
X158871166Y-125672819D01*
X158833071Y-125596628D01*
X158794976Y-125444247D01*
X158794976Y-125329961D01*
X158833071Y-125177580D01*
X158871166Y-125101390D01*
X158947357Y-125025200D01*
X159061642Y-124987104D01*
X159137833Y-124987104D01*
X159252119Y-125025200D01*
X159290214Y-125063295D01*
X160052119Y-125787104D02*
X159594976Y-125787104D01*
X159823547Y-125787104D02*
X159823547Y-124987104D01*
X159747357Y-125101390D01*
X159671166Y-125177580D01*
X159594976Y-125215676D01*
X160509261Y-125329961D02*
X160433071Y-125291866D01*
X160394976Y-125253771D01*
X160356880Y-125177580D01*
X160356880Y-125139485D01*
X160394976Y-125063295D01*
X160433071Y-125025200D01*
X160509261Y-124987104D01*
X160661642Y-124987104D01*
X160737833Y-125025200D01*
X160775928Y-125063295D01*
X160814023Y-125139485D01*
X160814023Y-125177580D01*
X160775928Y-125253771D01*
X160737833Y-125291866D01*
X160661642Y-125329961D01*
X160509261Y-125329961D01*
X160433071Y-125368057D01*
X160394976Y-125406152D01*
X160356880Y-125482342D01*
X160356880Y-125634723D01*
X160394976Y-125710914D01*
X160433071Y-125749009D01*
X160509261Y-125787104D01*
X160661642Y-125787104D01*
X160737833Y-125749009D01*
X160775928Y-125710914D01*
X160814023Y-125634723D01*
X160814023Y-125482342D01*
X160775928Y-125406152D01*
X160737833Y-125368057D01*
X160661642Y-125329961D01*
D10*
G04 #@! TO.C,C1*
X158352119Y-120266340D02*
X157780690Y-120266340D01*
X158066404Y-120266340D02*
X158066404Y-119266340D01*
X157971166Y-119409198D01*
X157875928Y-119504436D01*
X157780690Y-119552055D01*
X158971166Y-119266340D02*
X159066404Y-119266340D01*
X159161642Y-119313960D01*
X159209261Y-119361579D01*
X159256880Y-119456817D01*
X159304500Y-119647293D01*
X159304500Y-119885388D01*
X159256880Y-120075864D01*
X159209261Y-120171102D01*
X159161642Y-120218721D01*
X159066404Y-120266340D01*
X158971166Y-120266340D01*
X158875928Y-120218721D01*
X158828309Y-120171102D01*
X158780690Y-120075864D01*
X158733071Y-119885388D01*
X158733071Y-119647293D01*
X158780690Y-119456817D01*
X158828309Y-119361579D01*
X158875928Y-119313960D01*
X158971166Y-119266340D01*
X160923547Y-119599674D02*
X160923547Y-120266340D01*
X160494976Y-119599674D02*
X160494976Y-120123483D01*
X160542595Y-120218721D01*
X160637833Y-120266340D01*
X160780690Y-120266340D01*
X160875928Y-120218721D01*
X160923547Y-120171102D01*
X161733071Y-119742531D02*
X161399738Y-119742531D01*
X161399738Y-120266340D02*
X161399738Y-119266340D01*
X161875928Y-119266340D01*
D11*
X159671166Y-122399674D02*
X159633071Y-122437769D01*
X159518785Y-122475864D01*
X159442595Y-122475864D01*
X159328309Y-122437769D01*
X159252119Y-122361579D01*
X159214023Y-122285388D01*
X159175928Y-122133007D01*
X159175928Y-122018721D01*
X159214023Y-121866340D01*
X159252119Y-121790150D01*
X159328309Y-121713960D01*
X159442595Y-121675864D01*
X159518785Y-121675864D01*
X159633071Y-121713960D01*
X159671166Y-121752055D01*
X160433071Y-122475864D02*
X159975928Y-122475864D01*
X160204500Y-122475864D02*
X160204500Y-121675864D01*
X160128309Y-121790150D01*
X160052119Y-121866340D01*
X159975928Y-121904436D01*
D10*
G04 #@! TO.C,R7*
X144149819Y-128801380D02*
X144102200Y-128753761D01*
X144054580Y-128658523D01*
X144054580Y-128420428D01*
X144102200Y-128325190D01*
X144149819Y-128277571D01*
X144245057Y-128229952D01*
X144340295Y-128229952D01*
X144483152Y-128277571D01*
X145054580Y-128849000D01*
X145054580Y-128229952D01*
X144054580Y-127610904D02*
X144054580Y-127515666D01*
X144102200Y-127420428D01*
X144149819Y-127372809D01*
X144245057Y-127325190D01*
X144435533Y-127277571D01*
X144673628Y-127277571D01*
X144864104Y-127325190D01*
X144959342Y-127372809D01*
X145006961Y-127420428D01*
X145054580Y-127515666D01*
X145054580Y-127610904D01*
X145006961Y-127706142D01*
X144959342Y-127753761D01*
X144864104Y-127801380D01*
X144673628Y-127849000D01*
X144435533Y-127849000D01*
X144245057Y-127801380D01*
X144149819Y-127753761D01*
X144102200Y-127706142D01*
X144054580Y-127610904D01*
X145054580Y-126087095D02*
X144387914Y-126087095D01*
X144483152Y-126087095D02*
X144435533Y-126039476D01*
X144387914Y-125944238D01*
X144387914Y-125801380D01*
X144435533Y-125706142D01*
X144530771Y-125658523D01*
X145054580Y-125658523D01*
X144530771Y-125658523D02*
X144435533Y-125610904D01*
X144387914Y-125515666D01*
X144387914Y-125372809D01*
X144435533Y-125277571D01*
X144530771Y-125229952D01*
X145054580Y-125229952D01*
X144054580Y-124563285D02*
X144054580Y-124372809D01*
X144102200Y-124277571D01*
X144197438Y-124182333D01*
X144387914Y-124134714D01*
X144721247Y-124134714D01*
X144911723Y-124182333D01*
X145006961Y-124277571D01*
X145054580Y-124372809D01*
X145054580Y-124563285D01*
X145006961Y-124658523D01*
X144911723Y-124753761D01*
X144721247Y-124801380D01*
X144387914Y-124801380D01*
X144197438Y-124753761D01*
X144102200Y-124658523D01*
X144054580Y-124563285D01*
X145054580Y-123706142D02*
X144054580Y-123706142D01*
X145054580Y-123277571D02*
X144530771Y-123277571D01*
X144435533Y-123325190D01*
X144387914Y-123420428D01*
X144387914Y-123563285D01*
X144435533Y-123658523D01*
X144483152Y-123706142D01*
X145054580Y-122801380D02*
X144387914Y-122801380D01*
X144483152Y-122801380D02*
X144435533Y-122753761D01*
X144387914Y-122658523D01*
X144387914Y-122515666D01*
X144435533Y-122420428D01*
X144530771Y-122372809D01*
X145054580Y-122372809D01*
X144530771Y-122372809D02*
X144435533Y-122325190D01*
X144387914Y-122229952D01*
X144387914Y-122087095D01*
X144435533Y-121991857D01*
X144530771Y-121944238D01*
X145054580Y-121944238D01*
X149931380Y-132968047D02*
X149931380Y-133539476D01*
X149931380Y-133253761D02*
X148931380Y-133253761D01*
X149074238Y-133349000D01*
X149169476Y-133444238D01*
X149217095Y-133539476D01*
X148931380Y-132349000D02*
X148931380Y-132253761D01*
X148979000Y-132158523D01*
X149026619Y-132110904D01*
X149121857Y-132063285D01*
X149312333Y-132015666D01*
X149550428Y-132015666D01*
X149740904Y-132063285D01*
X149836142Y-132110904D01*
X149883761Y-132158523D01*
X149931380Y-132253761D01*
X149931380Y-132349000D01*
X149883761Y-132444238D01*
X149836142Y-132491857D01*
X149740904Y-132539476D01*
X149550428Y-132587095D01*
X149312333Y-132587095D01*
X149121857Y-132539476D01*
X149026619Y-132491857D01*
X148979000Y-132444238D01*
X148931380Y-132349000D01*
X149931380Y-130825190D02*
X149264714Y-130825190D01*
X149359952Y-130825190D02*
X149312333Y-130777571D01*
X149264714Y-130682333D01*
X149264714Y-130539476D01*
X149312333Y-130444238D01*
X149407571Y-130396619D01*
X149931380Y-130396619D01*
X149407571Y-130396619D02*
X149312333Y-130349000D01*
X149264714Y-130253761D01*
X149264714Y-130110904D01*
X149312333Y-130015666D01*
X149407571Y-129968047D01*
X149931380Y-129968047D01*
X149931380Y-129491857D02*
X149264714Y-129491857D01*
X148931380Y-129491857D02*
X148979000Y-129539476D01*
X149026619Y-129491857D01*
X148979000Y-129444238D01*
X148931380Y-129491857D01*
X149026619Y-129491857D01*
X149931380Y-128872809D02*
X149883761Y-128968047D01*
X149788523Y-129015666D01*
X148931380Y-129015666D01*
X148931380Y-127825190D02*
X149931380Y-127587095D01*
X149217095Y-127396619D01*
X149931380Y-127206142D01*
X148931380Y-126968047D01*
X149931380Y-125920428D02*
X149264714Y-125396619D01*
X149264714Y-125920428D02*
X149931380Y-125396619D01*
X148931380Y-123777571D02*
X148931380Y-124253761D01*
X149407571Y-124301380D01*
X149359952Y-124253761D01*
X149312333Y-124158523D01*
X149312333Y-123920428D01*
X149359952Y-123825190D01*
X149407571Y-123777571D01*
X149502809Y-123729952D01*
X149740904Y-123729952D01*
X149836142Y-123777571D01*
X149883761Y-123825190D01*
X149931380Y-123920428D01*
X149931380Y-124158523D01*
X149883761Y-124253761D01*
X149836142Y-124301380D01*
X148931380Y-123110904D02*
X148931380Y-123015666D01*
X148979000Y-122920428D01*
X149026619Y-122872809D01*
X149121857Y-122825190D01*
X149312333Y-122777571D01*
X149550428Y-122777571D01*
X149740904Y-122825190D01*
X149836142Y-122872809D01*
X149883761Y-122920428D01*
X149931380Y-123015666D01*
X149931380Y-123110904D01*
X149883761Y-123206142D01*
X149836142Y-123253761D01*
X149740904Y-123301380D01*
X149550428Y-123349000D01*
X149312333Y-123349000D01*
X149121857Y-123301380D01*
X149026619Y-123253761D01*
X148979000Y-123206142D01*
X148931380Y-123110904D01*
X148931380Y-122158523D02*
X148931380Y-122063285D01*
X148979000Y-121968047D01*
X149026619Y-121920428D01*
X149121857Y-121872809D01*
X149312333Y-121825190D01*
X149550428Y-121825190D01*
X149740904Y-121872809D01*
X149836142Y-121920428D01*
X149883761Y-121968047D01*
X149931380Y-122063285D01*
X149931380Y-122158523D01*
X149883761Y-122253761D01*
X149836142Y-122301380D01*
X149740904Y-122349000D01*
X149550428Y-122396619D01*
X149312333Y-122396619D01*
X149121857Y-122349000D01*
X149026619Y-122301380D01*
X148979000Y-122253761D01*
X148931380Y-122158523D01*
X149931380Y-120634714D02*
X149264714Y-120634714D01*
X149359952Y-120634714D02*
X149312333Y-120587095D01*
X149264714Y-120491857D01*
X149264714Y-120349000D01*
X149312333Y-120253761D01*
X149407571Y-120206142D01*
X149931380Y-120206142D01*
X149407571Y-120206142D02*
X149312333Y-120158523D01*
X149264714Y-120063285D01*
X149264714Y-119920428D01*
X149312333Y-119825190D01*
X149407571Y-119777571D01*
X149931380Y-119777571D01*
X149931380Y-119301380D02*
X149264714Y-119301380D01*
X148931380Y-119301380D02*
X148979000Y-119349000D01*
X149026619Y-119301380D01*
X148979000Y-119253761D01*
X148931380Y-119301380D01*
X149026619Y-119301380D01*
X149931380Y-118682333D02*
X149883761Y-118777571D01*
X149788523Y-118825190D01*
X148931380Y-118825190D01*
X149931380Y-117063285D02*
X149931380Y-117539476D01*
X148931380Y-117539476D01*
G04 #@! TO.C,U5*
X172506108Y-102025206D02*
X173077537Y-102025206D01*
X172791823Y-103025206D02*
X172791823Y-102025206D01*
X173268013Y-102025206D02*
X173601347Y-103025206D01*
X173934680Y-102025206D01*
X174220394Y-102977587D02*
X174363251Y-103025206D01*
X174601347Y-103025206D01*
X174696585Y-102977587D01*
X174744204Y-102929968D01*
X174791823Y-102834730D01*
X174791823Y-102739492D01*
X174744204Y-102644254D01*
X174696585Y-102596635D01*
X174601347Y-102549016D01*
X174410870Y-102501397D01*
X174315632Y-102453778D01*
X174268013Y-102406159D01*
X174220394Y-102310921D01*
X174220394Y-102215683D01*
X174268013Y-102120445D01*
X174315632Y-102072826D01*
X174410870Y-102025206D01*
X174648966Y-102025206D01*
X174791823Y-102072826D01*
X175172775Y-102120445D02*
X175220394Y-102072826D01*
X175315632Y-102025206D01*
X175553727Y-102025206D01*
X175648966Y-102072826D01*
X175696585Y-102120445D01*
X175744204Y-102215683D01*
X175744204Y-102310921D01*
X175696585Y-102453778D01*
X175125156Y-103025206D01*
X175744204Y-103025206D01*
X176125156Y-102120445D02*
X176172775Y-102072826D01*
X176268013Y-102025206D01*
X176506108Y-102025206D01*
X176601347Y-102072826D01*
X176648966Y-102120445D01*
X176696585Y-102215683D01*
X176696585Y-102310921D01*
X176648966Y-102453778D01*
X176077537Y-103025206D01*
X176696585Y-103025206D01*
X177315632Y-102025206D02*
X177410870Y-102025206D01*
X177506108Y-102072826D01*
X177553727Y-102120445D01*
X177601347Y-102215683D01*
X177648966Y-102406159D01*
X177648966Y-102644254D01*
X177601347Y-102834730D01*
X177553727Y-102929968D01*
X177506108Y-102977587D01*
X177410870Y-103025206D01*
X177315632Y-103025206D01*
X177220394Y-102977587D01*
X177172775Y-102929968D01*
X177125156Y-102834730D01*
X177077537Y-102644254D01*
X177077537Y-102406159D01*
X177125156Y-102215683D01*
X177172775Y-102120445D01*
X177220394Y-102072826D01*
X177315632Y-102025206D01*
X178601347Y-103025206D02*
X178029918Y-103025206D01*
X178315632Y-103025206D02*
X178315632Y-102025206D01*
X178220394Y-102168064D01*
X178125156Y-102263302D01*
X178029918Y-102310921D01*
D16*
X175068013Y-104789492D02*
X175068013Y-105356159D01*
X175101347Y-105422826D01*
X175134680Y-105456159D01*
X175201347Y-105489492D01*
X175334680Y-105489492D01*
X175401347Y-105456159D01*
X175434680Y-105422826D01*
X175468013Y-105356159D01*
X175468013Y-104789492D01*
X176134680Y-104789492D02*
X175801347Y-104789492D01*
X175768013Y-105122826D01*
X175801347Y-105089492D01*
X175868013Y-105056159D01*
X176034680Y-105056159D01*
X176101347Y-105089492D01*
X176134680Y-105122826D01*
X176168013Y-105189492D01*
X176168013Y-105356159D01*
X176134680Y-105422826D01*
X176101347Y-105456159D01*
X176034680Y-105489492D01*
X175868013Y-105489492D01*
X175801347Y-105456159D01*
X175768013Y-105422826D01*
D10*
G04 #@! TO.C,R5*
X120557944Y-83108122D02*
X121029348Y-82636717D01*
X120456929Y-83545854D02*
X121130364Y-83209137D01*
X120692631Y-82771404D01*
X120591616Y-82333671D02*
X120591616Y-82266328D01*
X120658959Y-82266328D01*
X120658959Y-82333671D01*
X120591616Y-82333671D01*
X120658959Y-82266328D01*
X119682478Y-82704061D02*
X119211074Y-82232656D01*
X120221226Y-81828595D01*
X119648806Y-81256175D02*
X118941700Y-81963282D01*
X119312089Y-81458206D02*
X119379432Y-80986801D01*
X118908028Y-81458206D02*
X119446776Y-81458206D01*
D11*
X119116120Y-83425309D02*
X119035308Y-83883245D01*
X119439369Y-83748558D02*
X118873683Y-84314243D01*
X118658184Y-84098744D01*
X118631246Y-84017932D01*
X118631246Y-83964057D01*
X118658184Y-83883245D01*
X118738996Y-83802433D01*
X118819808Y-83775495D01*
X118873683Y-83775495D01*
X118954495Y-83802433D01*
X119169995Y-84017932D01*
X118038624Y-83479184D02*
X118307998Y-83748558D01*
X118604309Y-83506121D01*
X118550434Y-83506121D01*
X118469622Y-83479184D01*
X118334935Y-83344497D01*
X118307998Y-83263685D01*
X118307998Y-83209810D01*
X118334935Y-83128998D01*
X118469622Y-82994311D01*
X118550434Y-82967373D01*
X118604309Y-82967373D01*
X118685121Y-82994311D01*
X118819808Y-83128998D01*
X118846746Y-83209810D01*
X118846746Y-83263685D01*
D16*
G04 #@! TO.C,D1*
X167527200Y-114744453D02*
X166889602Y-115382051D01*
X168197834Y-111243949D02*
X171026261Y-114072376D01*
X167773570Y-117325067D02*
X164945143Y-114496640D01*
X171026261Y-114072376D02*
X167773570Y-117325067D01*
X168870646Y-114460677D02*
X167775055Y-113365085D01*
X168197834Y-111243949D02*
X164945143Y-114496640D01*
X166961444Y-114178697D02*
X168092956Y-115310209D01*
X167527200Y-114744453D02*
X168870646Y-114460677D01*
X167527200Y-114744453D02*
X167775055Y-113365085D01*
X168340811Y-113930841D02*
X169046659Y-113224993D01*
G04 #@! TO.C,D8*
X111068000Y-80226000D02*
X110668000Y-80626000D01*
X113868000Y-80226000D02*
X111068000Y-80226000D01*
X110668000Y-81826000D02*
X113868000Y-81826000D01*
X113868000Y-81826000D02*
X113868000Y-80226000D01*
X110668000Y-80626000D02*
X110668000Y-81826000D01*
G04 #@! TO.C,FB2*
X156147197Y-108227725D02*
X154732983Y-106813511D01*
X154732983Y-106813511D02*
X155581511Y-105964983D01*
X156995725Y-107379197D02*
X156147197Y-108227725D01*
X155581511Y-105964983D02*
X156995725Y-107379197D01*
D11*
G04 #@! TO.C,L1*
X131788395Y-110075948D02*
X133853854Y-108010489D01*
X133853854Y-108010489D02*
X135829511Y-109986146D01*
X131788395Y-110075948D02*
X133764052Y-112051605D01*
X133764052Y-112051605D02*
X135829511Y-109986146D01*
G04 #@! TO.C,L2*
X156775655Y-109983312D02*
X158751312Y-108007655D01*
X158841114Y-112048771D02*
X156775655Y-109983312D01*
X158841114Y-112048771D02*
X160816771Y-110073114D01*
X160816771Y-110073114D02*
X158751312Y-108007655D01*
D10*
G04 #@! TO.C,TP2*
X191262000Y-59563000D02*
X191262000Y-63627000D01*
X187198000Y-63627000D02*
X187198000Y-59563000D01*
X191262000Y-63627000D02*
X187198000Y-63627000D01*
X187198000Y-59563000D02*
X191262000Y-59563000D01*
D16*
G04 #@! TO.C,U1*
X136646800Y-99314000D02*
X133136000Y-99314000D01*
X132136000Y-98314000D02*
X132136000Y-97028000D01*
X136646800Y-97028000D02*
X136646800Y-99314000D01*
X133136000Y-99314000D02*
X132136000Y-98314000D01*
X132136000Y-97028000D02*
X136646800Y-97028000D01*
G04 #@! TO.C,U4*
X142621000Y-75748000D02*
X144907000Y-75748000D01*
X142621000Y-80258800D02*
X142621000Y-75748000D01*
X144907000Y-75748000D02*
X144907000Y-79258800D01*
X143907000Y-80258800D02*
X142621000Y-80258800D01*
X144907000Y-79258800D02*
X143907000Y-80258800D01*
D11*
G04 #@! TO.C,L4*
X136203512Y-71755000D02*
X139124512Y-71755000D01*
X139124512Y-71755000D02*
X139124512Y-74549000D01*
X136203512Y-71755000D02*
X136203512Y-74549000D01*
X136203512Y-74549000D02*
X139124512Y-74549000D01*
D16*
G04 #@! TO.C,FB3*
X141671000Y-73752000D02*
X141671000Y-72552000D01*
X141671000Y-72552000D02*
X143671000Y-72552000D01*
X143671000Y-72552000D02*
X143671000Y-73752000D01*
X143671000Y-73752000D02*
X141671000Y-73752000D01*
G04 #@! TO.C,FB1*
X137875017Y-106813511D02*
X136460803Y-108227725D01*
X136460803Y-108227725D02*
X135612275Y-107379197D01*
X137026489Y-105964983D02*
X137875017Y-106813511D01*
X135612275Y-107379197D02*
X137026489Y-105964983D01*
G04 #@! TO.C,C2*
X129021765Y-109386274D02*
X131284506Y-107123533D01*
X132415877Y-108254904D02*
X130153136Y-110517645D01*
X131284506Y-107123533D02*
X132415877Y-108254904D01*
X130153136Y-110517645D02*
X129021765Y-109386274D01*
G04 #@! TO.C,C3*
X161447246Y-107102875D02*
X163709987Y-109365616D01*
X162578616Y-110496987D02*
X160315875Y-108234246D01*
X160315875Y-108234246D02*
X161447246Y-107102875D01*
X163709987Y-109365616D02*
X162578616Y-110496987D01*
G04 #@! TO.C,C5*
X142186000Y-100876000D02*
X138986000Y-100876000D01*
X138986000Y-100876000D02*
X138986000Y-99276000D01*
X138986000Y-99276000D02*
X142186000Y-99276000D01*
X142186000Y-99276000D02*
X142186000Y-100876000D01*
G04 #@! TO.C,C6*
X150422000Y-100876000D02*
X150422000Y-99276000D01*
X150422000Y-99276000D02*
X153622000Y-99276000D01*
X153622000Y-99276000D02*
X153622000Y-100876000D01*
X153622000Y-100876000D02*
X150422000Y-100876000D01*
G04 #@! TO.C,C7*
X162867997Y-100876000D02*
X162867997Y-99276000D01*
X166067997Y-100876000D02*
X162867997Y-100876000D01*
X162867997Y-99276000D02*
X166067997Y-99276000D01*
X166067997Y-99276000D02*
X166067997Y-100876000D01*
G04 #@! TO.C,C8*
X151931500Y-73952000D02*
X148731500Y-73952000D01*
X148731500Y-72352000D02*
X151931500Y-72352000D01*
X148731500Y-73952000D02*
X148731500Y-72352000D01*
X151931500Y-72352000D02*
X151931500Y-73952000D01*
G04 #@! TO.C,C9*
X131610000Y-79640500D02*
X131610000Y-82840500D01*
X131610000Y-82840500D02*
X130010000Y-82840500D01*
X130010000Y-79640500D02*
X131610000Y-79640500D01*
X130010000Y-82840500D02*
X130010000Y-79640500D01*
G04 #@! TO.C,C11*
X148731500Y-79464000D02*
X151931500Y-79464000D01*
X151931500Y-79464000D02*
X151931500Y-81064000D01*
X148731500Y-81064000D02*
X148731500Y-79464000D01*
X151931500Y-81064000D02*
X148731500Y-81064000D01*
G04 #@! TO.C,C12*
X168824000Y-94456000D02*
X167224000Y-94456000D01*
X167224000Y-94456000D02*
X167224000Y-91256000D01*
X167224000Y-91256000D02*
X168824000Y-91256000D01*
X168824000Y-91256000D02*
X168824000Y-94456000D01*
G04 #@! TO.C,C13*
X176184000Y-94456000D02*
X174584000Y-94456000D01*
X174584000Y-94456000D02*
X174584000Y-91256000D01*
X174584000Y-91256000D02*
X176184000Y-91256000D01*
X176184000Y-91256000D02*
X176184000Y-94456000D01*
G04 #@! TO.C,C15*
X116421000Y-91742000D02*
X118021000Y-91742000D01*
X116421000Y-94942000D02*
X116421000Y-91742000D01*
X118021000Y-94942000D02*
X116421000Y-94942000D01*
X118021000Y-91742000D02*
X118021000Y-94942000D01*
G04 #@! TO.C,R1*
X139629756Y-111420595D02*
X135174983Y-115875368D01*
X132912242Y-113612627D02*
X137367015Y-109157854D01*
X135174983Y-115875368D02*
X132912242Y-113612627D01*
X137367015Y-109157854D02*
X139629756Y-111420595D01*
G04 #@! TO.C,R6*
X132512000Y-79400000D02*
X135712000Y-79400000D01*
X135712000Y-79400000D02*
X135712000Y-85700000D01*
X135712000Y-85700000D02*
X132512000Y-85700000D01*
X132512000Y-85700000D02*
X132512000Y-79400000D01*
G04 #@! TO.C,R2*
X157306017Y-116002368D02*
X152851244Y-111547595D01*
X152851244Y-111547595D02*
X155113985Y-109284854D01*
X155113985Y-109284854D02*
X159568758Y-113739627D01*
X159568758Y-113739627D02*
X157306017Y-116002368D01*
D11*
G04 #@! TO.C,L6*
X150596600Y-88121310D02*
X150596600Y-91042310D01*
X153390600Y-91042310D02*
X150596600Y-91042310D01*
X153390600Y-88121310D02*
X150596600Y-88121310D01*
X153390600Y-88121310D02*
X153390600Y-91042310D01*
G04 #@! TO.C,L5*
X154127200Y-88121310D02*
X156921200Y-88121310D01*
X154127200Y-91042310D02*
X154127200Y-88121310D01*
X156921200Y-91042310D02*
X156921200Y-88121310D01*
X154127200Y-91042310D02*
X156921200Y-91042310D01*
D16*
G04 #@! TO.C,U2*
X160472000Y-103124000D02*
X155961200Y-103124000D01*
X155961200Y-100838000D02*
X159472000Y-100838000D01*
X155961200Y-103124000D02*
X155961200Y-100838000D01*
X159472000Y-100838000D02*
X160472000Y-101838000D01*
X160472000Y-101838000D02*
X160472000Y-103124000D01*
G04 #@! TO.C,C4*
X129827500Y-100876000D02*
X126627500Y-100876000D01*
X126627500Y-100876000D02*
X126627500Y-99276000D01*
X129827500Y-99276000D02*
X129827500Y-100876000D01*
X126627500Y-99276000D02*
X129827500Y-99276000D01*
G04 #@! TO.C,C19*
X158808336Y-77389707D02*
X156545595Y-75126966D01*
X159939707Y-76258336D02*
X158808336Y-77389707D01*
X156545595Y-75126966D02*
X157676966Y-73995595D01*
X157676966Y-73995595D02*
X159939707Y-76258336D01*
G04 #@! TO.C,C14*
X159226200Y-90113810D02*
X158426200Y-90113810D01*
X158426200Y-88513810D02*
X159226200Y-88513810D01*
X159226200Y-88513810D02*
X159226200Y-90113810D01*
X158426200Y-90113810D02*
X158426200Y-88513810D01*
G04 #@! TO.C,C17*
X155924200Y-94258000D02*
X155124200Y-94258000D01*
X155124200Y-94258000D02*
X155124200Y-92658000D01*
X155124200Y-92658000D02*
X155924200Y-92658000D01*
X155924200Y-92658000D02*
X155924200Y-94258000D01*
D11*
G04 #@! TO.C,L7*
X155841700Y-84810600D02*
X152920700Y-84810600D01*
X152920700Y-87604600D02*
X152920700Y-84810600D01*
X155841700Y-87604600D02*
X155841700Y-84810600D01*
X155841700Y-87604600D02*
X152920700Y-87604600D01*
D16*
G04 #@! TO.C,C20*
X151727900Y-86607600D02*
X150127900Y-86607600D01*
X150127900Y-85807600D02*
X151727900Y-85807600D01*
X150127900Y-86607600D02*
X150127900Y-85807600D01*
X151727900Y-85807600D02*
X151727900Y-86607600D01*
G04 #@! TO.C,R3*
X146914000Y-87541000D02*
X143714000Y-87541000D01*
X146914000Y-85941000D02*
X146914000Y-87541000D01*
X143714000Y-87541000D02*
X143714000Y-85941000D01*
X143714000Y-85941000D02*
X146914000Y-85941000D01*
G04 #@! TO.C,ATT1*
X155461700Y-80289000D02*
X153774200Y-80289000D01*
X155774200Y-79039000D02*
X155774200Y-79976500D01*
X153774200Y-79039000D02*
X155774200Y-79039000D01*
X153774200Y-80289000D02*
X153774200Y-79039000D01*
X155774200Y-79976500D02*
X155461700Y-80289000D01*
G04 #@! TO.C,D2*
X111929000Y-97440000D02*
X111929000Y-96140000D01*
X114504000Y-96140000D02*
X114829000Y-96465000D01*
X114829000Y-97440000D02*
X111929000Y-97440000D01*
X114829000Y-96465000D02*
X114829000Y-97440000D01*
X111929000Y-96140000D02*
X114504000Y-96140000D01*
G04 #@! TO.C,D4*
X180354000Y-96140000D02*
X180679000Y-96465000D01*
X177779000Y-96140000D02*
X180354000Y-96140000D01*
X180679000Y-97440000D02*
X177779000Y-97440000D01*
X180679000Y-96465000D02*
X180679000Y-97440000D01*
X177779000Y-97440000D02*
X177779000Y-96140000D01*
G04 #@! TO.C,D3*
X150281500Y-70135000D02*
X150281500Y-68835000D01*
X153181500Y-69160000D02*
X153181500Y-70135000D01*
X153181500Y-70135000D02*
X150281500Y-70135000D01*
X150281500Y-68835000D02*
X152856500Y-68835000D01*
X152856500Y-68835000D02*
X153181500Y-69160000D01*
G04 #@! TO.C,R4*
X170527506Y-74340123D02*
X171658877Y-75471494D01*
X168264765Y-76602864D02*
X170527506Y-74340123D01*
X169396136Y-77734235D02*
X168264765Y-76602864D01*
X171658877Y-75471494D02*
X169396136Y-77734235D01*
D10*
G04 #@! TO.C,TP1*
X170989308Y-72136000D02*
X173862990Y-69262318D01*
X173862990Y-69262318D02*
X176736672Y-72136000D01*
X173862990Y-75009682D02*
X170989308Y-72136000D01*
X176736672Y-72136000D02*
X173862990Y-75009682D01*
D16*
G04 #@! TO.C,C16*
X148604500Y-130449000D02*
X151804500Y-130449000D01*
X148604500Y-132949000D02*
X148604500Y-130449000D01*
X151804500Y-132949000D02*
X148604500Y-132949000D01*
X151804500Y-130449000D02*
X151804500Y-132949000D01*
G04 #@! TO.C,U3*
X148048000Y-120299000D02*
X148048000Y-123999000D01*
X154748000Y-121299000D02*
X154748000Y-123999000D01*
X153748000Y-120299000D02*
X154748000Y-121299000D01*
X153748000Y-120299000D02*
X148048000Y-120299000D01*
X154748000Y-123999000D02*
X148048000Y-123999000D01*
G04 #@! TO.C,C18*
X158204500Y-126675200D02*
X158204500Y-124175200D01*
X158204500Y-124175200D02*
X161404500Y-124175200D01*
X161404500Y-124175200D02*
X161404500Y-126675200D01*
X161404500Y-126675200D02*
X158204500Y-126675200D01*
G04 #@! TO.C,C1*
X161404500Y-120863960D02*
X161404500Y-123363960D01*
X158204500Y-120863960D02*
X161404500Y-120863960D01*
X161404500Y-123363960D02*
X158204500Y-123363960D01*
X158204500Y-123363960D02*
X158204500Y-120863960D01*
G04 #@! TO.C,U5*
X176101347Y-106672826D02*
X174101347Y-106672826D01*
X177101347Y-103672826D02*
X177101347Y-105672826D01*
X176101347Y-106672826D02*
X177101347Y-105672826D01*
X174101347Y-103672826D02*
X177101347Y-103672826D01*
X174101347Y-106672826D02*
X174101347Y-103672826D01*
G04 #@! TO.C,R5*
X119331619Y-85283990D02*
X117068878Y-83021249D01*
X120462990Y-84152619D02*
X119331619Y-85283990D01*
X118200249Y-81889878D02*
X120462990Y-84152619D01*
X117068878Y-83021249D02*
X118200249Y-81889878D01*
G04 #@! TD*
M02*
