G04 #@! TF.GenerationSoftware,KiCad,Pcbnew,6.0.4-6f826c9f35~116~ubuntu20.04.1*
G04 #@! TF.CreationDate,2022-04-14T13:24:01-04:00*
G04 #@! TF.ProjectId,LWA Balun 2020,4c574120-4261-46c7-956e-20323032302e,rev?*
G04 #@! TF.SameCoordinates,Original*
G04 #@! TF.FileFunction,AssemblyDrawing,Bot*
%FSLAX46Y46*%
G04 Gerber Fmt 4.6, Leading zero omitted, Abs format (unit mm)*
G04 Created by KiCad (PCBNEW 6.0.4-6f826c9f35~116~ubuntu20.04.1) date 2022-04-14 13:24:01*
%MOMM*%
%LPD*%
G01*
G04 APERTURE LIST*
%ADD10C,0.150000*%
G04 APERTURE END LIST*
D10*
G04 #@! TO.C,S3*
X164626711Y-74738953D02*
X164054291Y-74839969D01*
X164222650Y-74334892D02*
X163515543Y-75041999D01*
X163784917Y-75311373D01*
X163885932Y-75345045D01*
X163953276Y-75345045D01*
X164054291Y-75311373D01*
X164155306Y-75210358D01*
X164188978Y-75109343D01*
X164188978Y-75041999D01*
X164155306Y-74940984D01*
X163885932Y-74671610D01*
X164795069Y-75648091D02*
X164559367Y-75412388D01*
X164929756Y-75041999D02*
X164222650Y-75749106D01*
X164559367Y-76085823D01*
X165502176Y-77028632D02*
X165636863Y-77163319D01*
X165737878Y-77196991D01*
X165872565Y-77196991D01*
X166040924Y-77095976D01*
X166276626Y-76860274D01*
X166377642Y-76691915D01*
X166377642Y-76557228D01*
X166343970Y-76456213D01*
X166209283Y-76321526D01*
X166108268Y-76287854D01*
X165973581Y-76287854D01*
X165805222Y-76388869D01*
X165569520Y-76624571D01*
X165468504Y-76792930D01*
X165468504Y-76927617D01*
X165502176Y-77028632D01*
X166108268Y-77634724D02*
X166680687Y-77062304D01*
X166781703Y-77028632D01*
X166849046Y-77028632D01*
X166950061Y-77062304D01*
X167084748Y-77196991D01*
X167118420Y-77298006D01*
X167118420Y-77365350D01*
X167084748Y-77466365D01*
X166512329Y-78038785D01*
X166748031Y-78274487D02*
X167152092Y-78678548D01*
X167657168Y-77769411D02*
X166950061Y-78476518D01*
X167825527Y-78476518D02*
X168364275Y-79015266D01*
X168364275Y-78476518D02*
X167825527Y-79015266D01*
X168970367Y-79082609D02*
X168263260Y-79789716D01*
X168431619Y-79958075D01*
X168566306Y-80025418D01*
X168700993Y-80025418D01*
X168802008Y-79991747D01*
X168970367Y-79890731D01*
X169071382Y-79789716D01*
X169172397Y-79621357D01*
X169206069Y-79520342D01*
X169206069Y-79385655D01*
X169138725Y-79250968D01*
X168970367Y-79082609D01*
X170014191Y-80261121D02*
X170014191Y-80193777D01*
X169946847Y-80059090D01*
X169879504Y-79991747D01*
X169744817Y-79924403D01*
X169610130Y-79924403D01*
X169509115Y-79958075D01*
X169340756Y-80059090D01*
X169239741Y-80160105D01*
X169138725Y-80328464D01*
X169105054Y-80429479D01*
X169105054Y-80564166D01*
X169172397Y-80698853D01*
X169239741Y-80766197D01*
X169374428Y-80833540D01*
X169441771Y-80833540D01*
X170923328Y-81035571D02*
X170216221Y-81742678D01*
X171260046Y-81372288D02*
X170552939Y-82079395D01*
X171664107Y-81776349D01*
X170957000Y-82483456D01*
X163767677Y-80704914D02*
X163195257Y-80805929D01*
X163363616Y-80300853D02*
X162656509Y-81007960D01*
X162925883Y-81277334D01*
X163026899Y-81311005D01*
X163094242Y-81311005D01*
X163195257Y-81277334D01*
X163296273Y-81176318D01*
X163329944Y-81075303D01*
X163329944Y-81007960D01*
X163296273Y-80906944D01*
X163026899Y-80637570D01*
X163700334Y-81378349D02*
X163936036Y-81614051D01*
X164407440Y-81344677D02*
X164070723Y-81007960D01*
X163363616Y-81715066D01*
X163700334Y-82051784D01*
X164575799Y-82253814D02*
X164340097Y-82018112D01*
X164710486Y-81647723D02*
X164003379Y-82354830D01*
X164340097Y-82691547D01*
X164710486Y-83061936D02*
X164878845Y-82893578D01*
X164643143Y-82792562D02*
X164878845Y-82893578D01*
X164979860Y-83129280D01*
X164912517Y-82657875D02*
X164878845Y-82893578D01*
X165114547Y-82859906D01*
X165249234Y-83600684D02*
X165417593Y-83432326D01*
X165181891Y-83331310D02*
X165417593Y-83432326D01*
X165518608Y-83668028D01*
X165451265Y-83196623D02*
X165417593Y-83432326D01*
X165653295Y-83398654D01*
G04 #@! TD*
M02*
