G04 #@! TF.GenerationSoftware,KiCad,Pcbnew,6.0.4-6f826c9f35~116~ubuntu20.04.1*
G04 #@! TF.CreationDate,2022-04-14T13:24:01-04:00*
G04 #@! TF.ProjectId,LWA Balun 2020,4c574120-4261-46c7-956e-20323032302e,rev?*
G04 #@! TF.SameCoordinates,Original*
G04 #@! TF.FileFunction,Paste,Top*
G04 #@! TF.FilePolarity,Positive*
%FSLAX46Y46*%
G04 Gerber Fmt 4.6, Leading zero omitted, Abs format (unit mm)*
G04 Created by KiCad (PCBNEW 6.0.4-6f826c9f35~116~ubuntu20.04.1) date 2022-04-14 13:24:01*
%MOMM*%
%LPD*%
G01*
G04 APERTURE LIST*
G04 Aperture macros list*
%AMRoundRect*
0 Rectangle with rounded corners*
0 $1 Rounding radius*
0 $2 $3 $4 $5 $6 $7 $8 $9 X,Y pos of 4 corners*
0 Add a 4 corners polygon primitive as box body*
4,1,4,$2,$3,$4,$5,$6,$7,$8,$9,$2,$3,0*
0 Add four circle primitives for the rounded corners*
1,1,$1+$1,$2,$3*
1,1,$1+$1,$4,$5*
1,1,$1+$1,$6,$7*
1,1,$1+$1,$8,$9*
0 Add four rect primitives between the rounded corners*
20,1,$1+$1,$2,$3,$4,$5,0*
20,1,$1+$1,$4,$5,$6,$7,0*
20,1,$1+$1,$6,$7,$8,$9,0*
20,1,$1+$1,$8,$9,$2,$3,0*%
%AMRotRect*
0 Rectangle, with rotation*
0 The origin of the aperture is its center*
0 $1 length*
0 $2 width*
0 $3 Rotation angle, in degrees counterclockwise*
0 Add horizontal line*
21,1,$1,$2,0,0,$3*%
%AMFreePoly0*
4,1,11,0.952500,4.102100,0.952500,1.676400,0.457200,1.181100,0.457200,-1.816100,-0.457200,-1.816100,-0.457200,1.181100,-0.952500,1.676400,-0.952500,4.102100,-0.457200,4.597400,0.457200,4.597400,0.952500,4.102100,0.952500,4.102100,$1*%
G04 Aperture macros list end*
%ADD10RotRect,3.500000X2.300000X45.000000*%
%ADD11RoundRect,0.250000X-0.375000X-0.625000X0.375000X-0.625000X0.375000X0.625000X-0.375000X0.625000X0*%
%ADD12RoundRect,0.250000X0.548008X0.088388X0.088388X0.548008X-0.548008X-0.088388X-0.088388X-0.548008X0*%
%ADD13R,1.651000X2.540000*%
%ADD14RotRect,1.016000X2.540000X45.000000*%
%ADD15RotRect,1.016000X2.540000X135.000000*%
%ADD16R,3.450001X3.450001*%
%ADD17R,2.159000X1.600200*%
%ADD18FreePoly0,0.000000*%
%ADD19R,1.600200X2.159000*%
%ADD20FreePoly0,90.000000*%
%ADD21R,2.794000X2.438400*%
%ADD22R,1.016000X2.540000*%
%ADD23RoundRect,0.250000X-0.325000X-0.450000X0.325000X-0.450000X0.325000X0.450000X-0.325000X0.450000X0*%
%ADD24RotRect,1.397000X2.794000X315.000000*%
%ADD25RotRect,1.270000X5.588000X225.000000*%
%ADD26RotRect,1.270000X5.588000X45.000000*%
%ADD27RoundRect,0.250000X0.088388X-0.548008X0.548008X-0.088388X-0.088388X0.548008X-0.548008X0.088388X0*%
%ADD28RoundRect,0.280000X-0.070711X0.806102X-0.806102X0.070711X0.070711X-0.806102X0.806102X-0.070711X0*%
%ADD29RoundRect,0.280000X-0.806102X-0.070711X-0.070711X-0.806102X0.806102X0.070711X0.070711X0.806102X0*%
%ADD30RoundRect,0.280000X0.520000X0.620000X-0.520000X0.620000X-0.520000X-0.620000X0.520000X-0.620000X0*%
%ADD31RoundRect,0.280000X-0.520000X-0.620000X0.520000X-0.620000X0.520000X0.620000X-0.520000X0.620000X0*%
%ADD32RoundRect,0.280000X0.620000X-0.520000X0.620000X0.520000X-0.620000X0.520000X-0.620000X-0.520000X0*%
%ADD33RoundRect,0.280000X-0.620000X0.520000X-0.620000X-0.520000X0.620000X-0.520000X0.620000X0.520000X0*%
%ADD34RoundRect,0.295200X-0.548008X1.403324X-1.403324X0.548008X0.548008X-1.403324X1.403324X-0.548008X0*%
%ADD35RoundRect,0.295200X1.379800X-0.604800X1.379800X0.604800X-1.379800X0.604800X-1.379800X-0.604800X0*%
%ADD36RoundRect,0.295200X-1.403324X-0.548008X-0.548008X-1.403324X1.403324X0.548008X0.548008X1.403324X0*%
%ADD37R,2.540000X1.016000*%
%ADD38FreePoly0,180.000000*%
%ADD39RoundRect,0.280000X0.806102X0.070711X0.070711X0.806102X-0.806102X-0.070711X-0.070711X-0.806102X0*%
%ADD40RoundRect,0.237500X0.237500X-0.300000X0.237500X0.300000X-0.237500X0.300000X-0.237500X-0.300000X0*%
%ADD41RoundRect,0.237500X-0.300000X-0.237500X0.300000X-0.237500X0.300000X0.237500X-0.300000X0.237500X0*%
%ADD42RoundRect,0.250000X0.400000X0.625000X-0.400000X0.625000X-0.400000X-0.625000X0.400000X-0.625000X0*%
%ADD43R,0.800000X0.700000*%
%ADD44R,2.300000X0.700000*%
%ADD45RoundRect,0.150000X-0.150000X0.587500X-0.150000X-0.587500X0.150000X-0.587500X0.150000X0.587500X0*%
%ADD46RoundRect,0.250000X0.159099X-0.724784X0.724784X-0.159099X-0.159099X0.724784X-0.724784X0.159099X0*%
%ADD47RotRect,3.450001X3.450001X45.000000*%
%ADD48RoundRect,0.237500X-0.250000X-0.237500X0.250000X-0.237500X0.250000X0.237500X-0.250000X0.237500X0*%
%ADD49RoundRect,0.250000X0.412500X1.100000X-0.412500X1.100000X-0.412500X-1.100000X0.412500X-1.100000X0*%
%ADD50R,1.500000X2.000000*%
%ADD51R,3.800000X2.000000*%
%ADD52R,1.778000X1.778000*%
%ADD53O,0.550000X0.300000*%
%ADD54R,0.200000X0.300000*%
%ADD55R,0.230000X0.825000*%
%ADD56R,1.500000X1.750000*%
%ADD57RoundRect,0.250000X0.724784X0.159099X0.159099X0.724784X-0.724784X-0.159099X-0.159099X-0.724784X0*%
G04 APERTURE END LIST*
D10*
G04 #@! TO.C,D1*
X166076514Y-116193696D03*
X169894890Y-112375320D03*
G04 #@! TD*
D11*
G04 #@! TO.C,D8*
X110868000Y-81026000D03*
X113668000Y-81026000D03*
G04 #@! TD*
D12*
G04 #@! TO.C,FB2*
X156589138Y-107821138D03*
X155139570Y-106371570D03*
G04 #@! TD*
D13*
G04 #@! TO.C,H1*
X148844000Y-91694000D03*
X146304000Y-91694000D03*
X143764000Y-91694000D03*
X143764000Y-96774000D03*
X146304000Y-96774000D03*
X148844000Y-96774000D03*
G04 #@! TD*
D14*
G04 #@! TO.C,L1*
X133000730Y-110839270D03*
X134617176Y-109222824D03*
G04 #@! TD*
D15*
G04 #@! TO.C,L2*
X159604436Y-110836436D03*
X157987990Y-109219990D03*
G04 #@! TD*
D16*
G04 #@! TO.C,TP2*
X189230000Y-61595000D03*
G04 #@! TD*
D17*
G04 #@! TO.C,U1*
X132130800Y-100076000D03*
D18*
X134391400Y-100076000D03*
D17*
X136652000Y-100076000D03*
G04 #@! TD*
D19*
G04 #@! TO.C,U4*
X145669000Y-80264000D03*
D20*
X145669000Y-78003400D03*
D19*
X145669000Y-75742800D03*
G04 #@! TD*
D21*
G04 #@! TO.C,JP2*
X120904000Y-94764000D03*
X120904000Y-105664000D03*
G04 #@! TD*
D22*
G04 #@! TO.C,L4*
X136521012Y-73152000D03*
X138807012Y-73152000D03*
G04 #@! TD*
D23*
G04 #@! TO.C,FB3*
X141646000Y-73152000D03*
X143696000Y-73152000D03*
G04 #@! TD*
D24*
G04 #@! TO.C,L3*
X168402000Y-85979000D03*
X170287854Y-87864854D03*
G04 #@! TD*
D25*
G04 #@! TO.C,GDT1*
X163329840Y-70223160D03*
D26*
X160528000Y-73025000D03*
G04 #@! TD*
D27*
G04 #@! TO.C,FB1*
X136018862Y-107821138D03*
X137468430Y-106371570D03*
G04 #@! TD*
D28*
G04 #@! TO.C,C2*
X131708770Y-107830640D03*
X129728872Y-109810538D03*
G04 #@! TD*
D29*
G04 #@! TO.C,C3*
X161022982Y-107809982D03*
X163002880Y-109789880D03*
G04 #@! TD*
D30*
G04 #@! TO.C,C5*
X141986000Y-100076000D03*
X139186000Y-100076000D03*
G04 #@! TD*
D31*
G04 #@! TO.C,C6*
X150622000Y-100076000D03*
X153422000Y-100076000D03*
G04 #@! TD*
G04 #@! TO.C,C7*
X163067997Y-100076000D03*
X165867997Y-100076000D03*
G04 #@! TD*
D30*
G04 #@! TO.C,C8*
X151731500Y-73152000D03*
X148931500Y-73152000D03*
G04 #@! TD*
D32*
G04 #@! TO.C,C9*
X130810000Y-82640500D03*
X130810000Y-79840500D03*
G04 #@! TD*
D31*
G04 #@! TO.C,C11*
X148931500Y-80264000D03*
X151731500Y-80264000D03*
G04 #@! TD*
D33*
G04 #@! TO.C,C12*
X168024000Y-91456000D03*
X168024000Y-94256000D03*
G04 #@! TD*
G04 #@! TO.C,C13*
X175384000Y-91456000D03*
X175384000Y-94256000D03*
G04 #@! TD*
G04 #@! TO.C,C15*
X117221000Y-91942000D03*
X117221000Y-94742000D03*
G04 #@! TD*
D34*
G04 #@! TO.C,R1*
X138250898Y-110536712D03*
X134291100Y-114496510D03*
G04 #@! TD*
D35*
G04 #@! TO.C,R6*
X134112000Y-85350000D03*
X134112000Y-79750000D03*
G04 #@! TD*
D36*
G04 #@! TO.C,R2*
X154230102Y-110663712D03*
X158189900Y-114623510D03*
G04 #@! TD*
D37*
G04 #@! TO.C,L6*
X151993600Y-88438810D03*
X151993600Y-90724810D03*
G04 #@! TD*
G04 #@! TO.C,L5*
X155524200Y-90724810D03*
X155524200Y-88438810D03*
G04 #@! TD*
D17*
G04 #@! TO.C,U2*
X160477200Y-100076000D03*
D38*
X158216600Y-100076000D03*
D17*
X155956000Y-100076000D03*
G04 #@! TD*
D30*
G04 #@! TO.C,C4*
X129627500Y-100076000D03*
X126827500Y-100076000D03*
G04 #@! TD*
D39*
G04 #@! TO.C,C19*
X159232600Y-76682600D03*
X157252702Y-74702702D03*
G04 #@! TD*
D40*
G04 #@! TO.C,C14*
X158826200Y-90176310D03*
X158826200Y-88451310D03*
G04 #@! TD*
G04 #@! TO.C,C17*
X155524200Y-94320500D03*
X155524200Y-92595500D03*
G04 #@! TD*
D22*
G04 #@! TO.C,L7*
X155524200Y-86207600D03*
X153238200Y-86207600D03*
G04 #@! TD*
D41*
G04 #@! TO.C,C20*
X150065400Y-86207600D03*
X151790400Y-86207600D03*
G04 #@! TD*
D42*
G04 #@! TO.C,R3*
X146864000Y-86741000D03*
X143764000Y-86741000D03*
G04 #@! TD*
D43*
G04 #@! TO.C,ATT1*
X155524200Y-80264000D03*
X154024200Y-80264000D03*
D44*
X154774200Y-79064000D03*
G04 #@! TD*
D45*
G04 #@! TO.C,D2*
X114329000Y-95852500D03*
X112429000Y-95852500D03*
X113379000Y-97727500D03*
G04 #@! TD*
G04 #@! TO.C,D4*
X180179000Y-95852500D03*
X178279000Y-95852500D03*
X179229000Y-97727500D03*
G04 #@! TD*
G04 #@! TO.C,D3*
X152681500Y-68547500D03*
X150781500Y-68547500D03*
X151731500Y-70422500D03*
G04 #@! TD*
D21*
G04 #@! TO.C,JP1*
X171704000Y-105156000D03*
X171704000Y-94256000D03*
G04 #@! TD*
D46*
G04 #@! TO.C,R4*
X168865805Y-77133195D03*
X171057837Y-74941163D03*
G04 #@! TD*
D47*
G04 #@! TO.C,TP1*
X173862990Y-72136000D03*
G04 #@! TD*
D48*
G04 #@! TO.C,L8*
X153468700Y-83058000D03*
D22*
X153238200Y-83058000D03*
X155524200Y-83058000D03*
D48*
X155293700Y-83058000D03*
G04 #@! TD*
D49*
G04 #@! TO.C,C16*
X151767000Y-131699000D03*
X148642000Y-131699000D03*
G04 #@! TD*
D50*
G04 #@! TO.C,U3*
X153698000Y-118999000D03*
X151398000Y-118999000D03*
D51*
X151398000Y-125299000D03*
D50*
X149098000Y-118999000D03*
G04 #@! TD*
D49*
G04 #@! TO.C,C18*
X161367000Y-125425200D03*
X158242000Y-125425200D03*
G04 #@! TD*
G04 #@! TO.C,C1*
X161367000Y-122113960D03*
X158242000Y-122113960D03*
G04 #@! TD*
D52*
G04 #@! TO.C,R7*
X146431000Y-131699000D03*
X146431000Y-118999000D03*
G04 #@! TD*
D53*
G04 #@! TO.C,U5*
X177151347Y-106147826D03*
D54*
X177351347Y-106147826D03*
X177351347Y-105497826D03*
D53*
X177151347Y-105497826D03*
X177151347Y-104847826D03*
D54*
X177351347Y-104847826D03*
D53*
X177151347Y-104197826D03*
D54*
X177351347Y-104197826D03*
D53*
X174051347Y-104197826D03*
D54*
X173851347Y-104197826D03*
X173851347Y-104847826D03*
D53*
X174051347Y-104847826D03*
D54*
X173851347Y-105497826D03*
D53*
X174051347Y-105497826D03*
X174051347Y-106147826D03*
D54*
X173851347Y-106147826D03*
D55*
X175276347Y-106460326D03*
X175926347Y-106460326D03*
D56*
X175601347Y-105172826D03*
D55*
X175926347Y-103885326D03*
X175276347Y-103885326D03*
G04 #@! TD*
D57*
G04 #@! TO.C,R5*
X119861950Y-84682950D03*
X117669918Y-82490918D03*
G04 #@! TD*
M02*
