G04 #@! TF.GenerationSoftware,KiCad,Pcbnew,6.0.4-6f826c9f35~116~ubuntu20.04.1*
G04 #@! TF.CreationDate,2022-04-29T13:31:38-04:00*
G04 #@! TF.ProjectId,LWA Cal Test 2022,4c574120-4361-46c2-9054-657374203230,1.3*
G04 #@! TF.SameCoordinates,Original*
G04 #@! TF.FileFunction,Copper,L1,Top*
G04 #@! TF.FilePolarity,Positive*
%FSLAX46Y46*%
G04 Gerber Fmt 4.6, Leading zero omitted, Abs format (unit mm)*
G04 Created by KiCad (PCBNEW 6.0.4-6f826c9f35~116~ubuntu20.04.1) date 2022-04-29 13:31:38*
%MOMM*%
%LPD*%
G01*
G04 APERTURE LIST*
G04 Aperture macros list*
%AMRoundRect*
0 Rectangle with rounded corners*
0 $1 Rounding radius*
0 $2 $3 $4 $5 $6 $7 $8 $9 X,Y pos of 4 corners*
0 Add a 4 corners polygon primitive as box body*
4,1,4,$2,$3,$4,$5,$6,$7,$8,$9,$2,$3,0*
0 Add four circle primitives for the rounded corners*
1,1,$1+$1,$2,$3*
1,1,$1+$1,$4,$5*
1,1,$1+$1,$6,$7*
1,1,$1+$1,$8,$9*
0 Add four rect primitives between the rounded corners*
20,1,$1+$1,$2,$3,$4,$5,0*
20,1,$1+$1,$4,$5,$6,$7,0*
20,1,$1+$1,$6,$7,$8,$9,0*
20,1,$1+$1,$8,$9,$2,$3,0*%
G04 Aperture macros list end*
G04 #@! TA.AperFunction,ComponentPad*
%ADD10C,13.335000*%
G04 #@! TD*
G04 #@! TA.AperFunction,SMDPad,CuDef*
%ADD11R,1.651000X2.540000*%
G04 #@! TD*
G04 #@! TA.AperFunction,SMDPad,CuDef*
%ADD12R,3.450001X3.450001*%
G04 #@! TD*
G04 #@! TA.AperFunction,ComponentPad*
%ADD13C,7.620000*%
G04 #@! TD*
G04 #@! TA.AperFunction,SMDPad,CuDef*
%ADD14RoundRect,0.250000X0.625000X-0.400000X0.625000X0.400000X-0.625000X0.400000X-0.625000X-0.400000X0*%
G04 #@! TD*
G04 #@! TA.AperFunction,SMDPad,CuDef*
%ADD15RoundRect,0.250000X-0.625000X0.400000X-0.625000X-0.400000X0.625000X-0.400000X0.625000X0.400000X0*%
G04 #@! TD*
G04 #@! TA.AperFunction,SMDPad,CuDef*
%ADD16RoundRect,0.250000X0.400000X0.625000X-0.400000X0.625000X-0.400000X-0.625000X0.400000X-0.625000X0*%
G04 #@! TD*
G04 #@! TA.AperFunction,ComponentPad*
%ADD17C,2.032000*%
G04 #@! TD*
G04 #@! TA.AperFunction,ViaPad*
%ADD18C,1.270000*%
G04 #@! TD*
G04 #@! TA.AperFunction,ViaPad*
%ADD19C,0.762000*%
G04 #@! TD*
G04 #@! TA.AperFunction,Conductor*
%ADD20C,1.143000*%
G04 #@! TD*
G04 #@! TA.AperFunction,Conductor*
%ADD21C,0.762000*%
G04 #@! TD*
G04 #@! TA.AperFunction,Conductor*
%ADD22C,1.600200*%
G04 #@! TD*
G04 APERTURE END LIST*
D10*
G04 #@! TO.P,FP1,1,Pin_1*
G04 #@! TO.N,unconnected-(FP1-Pad1)*
X37143588Y-99745800D03*
G04 #@! TD*
G04 #@! TO.P,FP2,1,Pin_1*
G04 #@! TO.N,unconnected-(FP2-Pad1)*
X127143612Y-99745800D03*
G04 #@! TD*
G04 #@! TO.P,FP3,1,Pin_1*
G04 #@! TO.N,unconnected-(FP3-Pad1)*
X82143600Y-54745788D03*
G04 #@! TD*
G04 #@! TO.P,FP4,1,Pin_1*
G04 #@! TO.N,unconnected-(FP4-Pad1)*
X82143600Y-144745812D03*
G04 #@! TD*
D11*
G04 #@! TO.P,H1,1*
G04 #@! TO.N,Net-(H1-Pad1)*
X84683600Y-91363800D03*
G04 #@! TO.P,H1,2*
G04 #@! TO.N,GND*
X82143600Y-91363800D03*
G04 #@! TO.P,H1,3*
G04 #@! TO.N,Net-(H1-Pad3)*
X79603600Y-91363800D03*
G04 #@! TO.P,H1,4*
G04 #@! TO.N,unconnected-(H1-Pad4)*
X79603600Y-96443800D03*
G04 #@! TO.P,H1,5*
G04 #@! TO.N,GND*
X82143600Y-96443800D03*
G04 #@! TO.P,H1,6*
G04 #@! TO.N,unconnected-(H1-Pad6)*
X84683600Y-96443800D03*
G04 #@! TD*
D12*
G04 #@! TO.P,TP2,1,1*
G04 #@! TO.N,GND*
X125069600Y-61264800D03*
G04 #@! TD*
D13*
G04 #@! TO.P,MH1,1*
G04 #@! TO.N,GND*
X107769228Y-125371428D03*
G04 #@! TD*
G04 #@! TO.P,MH2,1*
G04 #@! TO.N,GND*
X56517972Y-74120172D03*
G04 #@! TD*
D14*
G04 #@! TO.P,R1,1*
G04 #@! TO.N,unconnected-(H1-Pad4)*
X46278800Y-99745800D03*
G04 #@! TO.P,R1,2*
G04 #@! TO.N,GND*
X46278800Y-96391800D03*
G04 #@! TD*
G04 #@! TO.P,R4,1*
G04 #@! TO.N,unconnected-(H1-Pad6)*
X118008400Y-99745800D03*
G04 #@! TO.P,R4,2*
G04 #@! TO.N,GND*
X118008400Y-96391800D03*
G04 #@! TD*
D15*
G04 #@! TO.P,R5,1*
G04 #@! TO.N,unconnected-(H1-Pad6)*
X118008400Y-99745800D03*
G04 #@! TO.P,R5,2*
G04 #@! TO.N,GND*
X118008400Y-103099800D03*
G04 #@! TD*
G04 #@! TO.P,R2,1*
G04 #@! TO.N,unconnected-(H1-Pad4)*
X46278800Y-99745800D03*
G04 #@! TO.P,R2,2*
G04 #@! TO.N,GND*
X46278800Y-103099800D03*
G04 #@! TD*
D16*
G04 #@! TO.P,R3,1*
G04 #@! TO.N,GND*
X82703600Y-86410800D03*
G04 #@! TO.P,R3,2*
G04 #@! TO.N,Net-(H1-Pad3)*
X79603600Y-86410800D03*
G04 #@! TD*
D17*
G04 #@! TO.P,S3,1,In*
G04 #@! TO.N,Net-(H1-Pad1)*
X100050600Y-81457800D03*
G04 #@! TO.P,S3,2,Ext*
G04 #@! TO.N,GND*
X100050600Y-77865698D03*
X103642702Y-81457800D03*
X100050600Y-85049902D03*
X96458498Y-81457800D03*
G04 #@! TD*
D18*
G04 #@! TO.N,GND*
X46278800Y-104571800D03*
X118008400Y-104571800D03*
X118008400Y-94919800D03*
X46278800Y-94919800D03*
X82143600Y-99745800D03*
X91668600Y-134162800D03*
X110718600Y-102285800D03*
X73380600Y-129844800D03*
X82143600Y-88950800D03*
X72618600Y-120065800D03*
D19*
X114018448Y-103867626D03*
X114018447Y-105817626D03*
X114018447Y-105167626D03*
X114018447Y-104517626D03*
D18*
X82578600Y-84378800D03*
X87245620Y-127050800D03*
X84429600Y-124851840D03*
X90045600Y-125085760D03*
X98780600Y-121783754D03*
X98780600Y-125095000D03*
X89509600Y-131368800D03*
X74523600Y-81965800D03*
X130629770Y-78545650D03*
X46583600Y-64185800D03*
X123751230Y-120945950D03*
X103098600Y-89027000D03*
X43789600Y-70281800D03*
X103733600Y-97205800D03*
X68681600Y-106095800D03*
X95605600Y-106095800D03*
X99288600Y-67208400D03*
X70205600Y-102412800D03*
X64363600Y-93395800D03*
X87096600Y-93903800D03*
X48869600Y-66852800D03*
X100711000Y-74193400D03*
X49631600Y-84632800D03*
X51981100Y-47502810D03*
X109067600Y-81838800D03*
X44678600Y-138480800D03*
X53568600Y-97205800D03*
X60553600Y-102285800D03*
X116433600Y-130225800D03*
X53568600Y-102285800D03*
X61061600Y-107873800D03*
X40868600Y-58724800D03*
X113385600Y-74472800D03*
X115163600Y-66725800D03*
X112306100Y-47502820D03*
X98145600Y-104902000D03*
X52298600Y-107797600D03*
X60943450Y-141353430D03*
X64363600Y-89585800D03*
X40535970Y-120945950D03*
X29900610Y-129908300D03*
X99110800Y-89738200D03*
X110718600Y-97205800D03*
X36423600Y-140893800D03*
X84988400Y-83464400D03*
X88265000Y-77444600D03*
X123751230Y-78545650D03*
X87223600Y-103886000D03*
X102209600Y-58089800D03*
X77190600Y-93903800D03*
X60299600Y-80695800D03*
X78714600Y-132892800D03*
X66141600Y-104902000D03*
X49758600Y-116890800D03*
X85953600Y-113436400D03*
X87223600Y-107365800D03*
X29900620Y-69583300D03*
X93065600Y-78155800D03*
X53949600Y-89077800D03*
X134386590Y-69583300D03*
X97383600Y-92125800D03*
X53568600Y-124510800D03*
X77063600Y-103886000D03*
X52044600Y-153085800D03*
X111277400Y-110236000D03*
X74523600Y-87045800D03*
X117703600Y-64185800D03*
X103343750Y-141353430D03*
X93776800Y-93776800D03*
X89636600Y-135305800D03*
X101803200Y-69697600D03*
X98145600Y-94742000D03*
X82143600Y-66725800D03*
X62458600Y-53390800D03*
X61823600Y-132130800D03*
X102463600Y-133400800D03*
X103733600Y-102285800D03*
X117703600Y-135305800D03*
X77063600Y-107365800D03*
X62357000Y-66497200D03*
X118465600Y-81711800D03*
X78968600Y-113436400D03*
X40535970Y-78545650D03*
X94081600Y-97078800D03*
X116433600Y-69265800D03*
X134386580Y-129908300D03*
X111277400Y-89255600D03*
X66141600Y-94742000D03*
X60553600Y-97205800D03*
X115163600Y-132765800D03*
X61061600Y-91770200D03*
X74523600Y-78409800D03*
X124790200Y-142163800D03*
X46583600Y-135305800D03*
X94462600Y-129590800D03*
X112306100Y-151988790D03*
X113893600Y-119430800D03*
X100558600Y-112369600D03*
X124799820Y-57089580D03*
G04 #@! TD*
D20*
G04 #@! TO.N,GND*
X82578600Y-86410800D02*
X82578600Y-84378800D01*
X82143600Y-91363800D02*
X82143600Y-88950800D01*
X82143600Y-99745800D02*
X82143600Y-96443800D01*
D21*
G04 #@! TO.N,Net-(H1-Pad1)*
X84683600Y-91363800D02*
X84683600Y-88108610D01*
X93399790Y-88108610D02*
X100050600Y-81457800D01*
X84683600Y-88108610D02*
X93399790Y-88108610D01*
D20*
G04 #@! TO.N,Net-(H1-Pad3)*
X79603600Y-91363800D02*
X79603600Y-86410800D01*
G04 #@! TO.N,unconnected-(H1-Pad4)*
X79603600Y-99745800D02*
X77825600Y-99745800D01*
X79603600Y-96443800D02*
X79603600Y-99745800D01*
D22*
X77698600Y-99745800D02*
X46202600Y-99745800D01*
D20*
G04 #@! TO.N,unconnected-(H1-Pad6)*
X84683600Y-99745800D02*
X84683600Y-96443800D01*
D22*
X118084600Y-99745800D02*
X86588600Y-99745800D01*
D20*
X86461600Y-99745800D02*
X84683600Y-99745800D01*
G04 #@! TD*
G04 #@! TA.AperFunction,Conductor*
G04 #@! TO.N,GND*
G36*
X117703600Y-98056200D02*
G01*
X86523238Y-98056200D01*
X86511665Y-98057080D01*
X86442226Y-98042306D01*
X86391795Y-97992334D01*
X86376387Y-97923029D01*
X86380399Y-97898834D01*
X86390993Y-97859296D01*
X86390994Y-97859292D01*
X86392488Y-97853715D01*
X86398600Y-97776058D01*
X86398600Y-95111542D01*
X86392488Y-95033885D01*
X86344094Y-94853276D01*
X86259207Y-94686675D01*
X86141536Y-94541364D01*
X85996225Y-94423693D01*
X85829624Y-94338806D01*
X85823250Y-94337098D01*
X85654592Y-94291906D01*
X85654588Y-94291905D01*
X85649015Y-94290412D01*
X85637634Y-94289516D01*
X85573814Y-94284493D01*
X85573806Y-94284493D01*
X85571358Y-94284300D01*
X83795842Y-94284300D01*
X83793394Y-94284493D01*
X83793386Y-94284493D01*
X83729566Y-94289516D01*
X83718185Y-94290412D01*
X83712612Y-94291905D01*
X83712608Y-94291906D01*
X83543950Y-94337098D01*
X83537576Y-94338806D01*
X83370975Y-94423693D01*
X83225664Y-94541364D01*
X83107993Y-94686675D01*
X83023106Y-94853276D01*
X82974712Y-95033885D01*
X82968600Y-95111542D01*
X82968600Y-97776058D01*
X82974712Y-97853715D01*
X82976205Y-97859288D01*
X82976206Y-97859292D01*
X83005486Y-97968565D01*
X83023106Y-98034324D01*
X83107993Y-98200925D01*
X83112146Y-98206054D01*
X83112147Y-98206055D01*
X83194520Y-98307776D01*
X83221846Y-98373304D01*
X83222600Y-98387071D01*
X83222600Y-99729726D01*
X83222591Y-99731265D01*
X83221354Y-99832543D01*
X83221164Y-99848063D01*
X83230953Y-99912030D01*
X83231976Y-99920746D01*
X83237278Y-99985237D01*
X83238537Y-99990250D01*
X83238539Y-99990261D01*
X83248310Y-100029156D01*
X83250657Y-100040797D01*
X83255104Y-100069857D01*
X83257504Y-100085544D01*
X83277604Y-100147040D01*
X83280042Y-100155484D01*
X83295806Y-100218244D01*
X83297868Y-100222987D01*
X83297870Y-100222992D01*
X83313859Y-100259762D01*
X83318066Y-100270836D01*
X83332142Y-100313901D01*
X83362027Y-100371309D01*
X83365803Y-100379228D01*
X83391603Y-100438563D01*
X83394413Y-100442907D01*
X83394418Y-100442916D01*
X83416196Y-100476580D01*
X83422167Y-100486838D01*
X83435390Y-100512238D01*
X83443075Y-100527000D01*
X83446181Y-100531137D01*
X83446183Y-100531140D01*
X83481921Y-100578739D01*
X83486953Y-100585952D01*
X83522098Y-100640277D01*
X83525578Y-100644102D01*
X83525580Y-100644104D01*
X83552572Y-100673767D01*
X83560138Y-100682913D01*
X83587323Y-100719120D01*
X83591055Y-100722687D01*
X83591060Y-100722692D01*
X83634096Y-100763818D01*
X83640236Y-100770110D01*
X83683786Y-100817970D01*
X83687843Y-100821174D01*
X83719323Y-100846036D01*
X83728281Y-100853823D01*
X83757274Y-100881529D01*
X83761012Y-100885101D01*
X83765281Y-100888013D01*
X83814465Y-100921564D01*
X83821553Y-100926771D01*
X83847774Y-100947479D01*
X83872324Y-100966868D01*
X83901940Y-100983217D01*
X83911963Y-100988750D01*
X83922071Y-100994969D01*
X83959478Y-101020486D01*
X83964168Y-101022663D01*
X83964175Y-101022667D01*
X84018165Y-101047728D01*
X84026006Y-101051705D01*
X84082650Y-101082974D01*
X84125344Y-101098093D01*
X84136311Y-101102569D01*
X84177390Y-101121637D01*
X84182368Y-101123017D01*
X84182372Y-101123019D01*
X84239740Y-101138928D01*
X84248128Y-101141573D01*
X84304246Y-101161446D01*
X84304249Y-101161447D01*
X84309115Y-101163170D01*
X84349079Y-101170289D01*
X84353688Y-101171110D01*
X84365262Y-101173739D01*
X84408898Y-101185840D01*
X84414028Y-101186388D01*
X84414032Y-101186389D01*
X84455884Y-101190861D01*
X84473238Y-101192715D01*
X84481941Y-101193955D01*
X84501412Y-101197423D01*
X84540550Y-101204395D01*
X84540552Y-101204395D01*
X84545637Y-101205301D01*
X84590929Y-101205855D01*
X84598342Y-101206296D01*
X84598344Y-101206265D01*
X84601687Y-101206443D01*
X84605028Y-101206800D01*
X84667526Y-101206800D01*
X84669065Y-101206809D01*
X84780694Y-101208173D01*
X84780696Y-101208173D01*
X84785863Y-101208236D01*
X84790976Y-101207454D01*
X84795929Y-101207107D01*
X84804722Y-101206800D01*
X85705435Y-101206800D01*
X85764102Y-101221292D01*
X85911368Y-101298773D01*
X85911375Y-101298776D01*
X85915604Y-101301001D01*
X86158589Y-101384905D01*
X86275469Y-101406251D01*
X86407498Y-101430364D01*
X86407502Y-101430364D01*
X86411469Y-101431089D01*
X86493728Y-101435400D01*
X117703600Y-101435400D01*
X117703600Y-135305800D01*
X46583600Y-135305800D01*
X46583600Y-118080610D01*
X56993426Y-118080610D01*
X56994458Y-118087125D01*
X56999726Y-118120384D01*
X57001104Y-118133502D01*
X57003211Y-118173715D01*
X57004922Y-118180100D01*
X57013633Y-118212609D01*
X57016376Y-118225511D01*
X57022676Y-118265288D01*
X57037113Y-118302898D01*
X57041179Y-118315411D01*
X57051606Y-118354324D01*
X57066919Y-118384378D01*
X57069891Y-118390212D01*
X57075253Y-118402257D01*
X57089684Y-118439849D01*
X57093279Y-118445384D01*
X57093280Y-118445387D01*
X57111616Y-118473622D01*
X57118208Y-118485040D01*
X57133495Y-118515042D01*
X57136493Y-118520925D01*
X57156427Y-118545542D01*
X57161841Y-118552228D01*
X57169590Y-118562895D01*
X57187921Y-118591122D01*
X57187926Y-118591128D01*
X57191521Y-118596664D01*
X63673736Y-125078879D01*
X63679272Y-125082474D01*
X63679278Y-125082479D01*
X63707505Y-125100810D01*
X63718172Y-125108559D01*
X63749475Y-125133907D01*
X63785358Y-125152190D01*
X63796779Y-125158784D01*
X63830551Y-125180716D01*
X63864117Y-125193601D01*
X63868140Y-125195145D01*
X63880187Y-125200509D01*
X63910185Y-125215794D01*
X63910194Y-125215797D01*
X63916075Y-125218794D01*
X63922453Y-125220503D01*
X63922456Y-125220504D01*
X63954976Y-125229217D01*
X63967506Y-125233288D01*
X64005112Y-125247724D01*
X64011637Y-125248757D01*
X64011639Y-125248758D01*
X64028262Y-125251390D01*
X64044890Y-125254024D01*
X64057789Y-125256766D01*
X64090306Y-125265479D01*
X64090308Y-125265479D01*
X64096685Y-125267188D01*
X64103274Y-125267533D01*
X64103278Y-125267534D01*
X64133345Y-125269109D01*
X64136891Y-125269295D01*
X64150007Y-125270673D01*
X64183273Y-125275942D01*
X64183275Y-125275942D01*
X64189790Y-125276974D01*
X64196378Y-125276629D01*
X64196383Y-125276629D01*
X64230009Y-125274867D01*
X64243194Y-125274867D01*
X64276817Y-125276629D01*
X64276822Y-125276629D01*
X64283410Y-125276974D01*
X64323188Y-125270674D01*
X64336302Y-125269296D01*
X64353108Y-125268415D01*
X64369913Y-125267535D01*
X64369914Y-125267535D01*
X64376515Y-125267189D01*
X64415412Y-125256766D01*
X64428311Y-125254024D01*
X64461566Y-125248757D01*
X64468088Y-125247724D01*
X64505698Y-125233287D01*
X64518211Y-125229221D01*
X64557124Y-125218794D01*
X64593012Y-125200509D01*
X64605057Y-125195147D01*
X64636480Y-125183084D01*
X64642649Y-125180716D01*
X64648184Y-125177121D01*
X64648187Y-125177120D01*
X64676422Y-125158784D01*
X64687840Y-125152192D01*
X64717842Y-125136905D01*
X64717845Y-125136903D01*
X64723725Y-125133907D01*
X64755028Y-125108559D01*
X64765695Y-125100810D01*
X64793922Y-125082479D01*
X64793928Y-125082474D01*
X64799464Y-125078879D01*
X71281679Y-118596664D01*
X71285274Y-118591128D01*
X71285279Y-118591122D01*
X71303610Y-118562895D01*
X71311359Y-118552228D01*
X71332553Y-118526055D01*
X71332554Y-118526054D01*
X71336707Y-118520925D01*
X71354991Y-118485040D01*
X71361584Y-118473621D01*
X71379918Y-118445389D01*
X71383516Y-118439849D01*
X71397946Y-118402257D01*
X71403309Y-118390213D01*
X71418594Y-118360215D01*
X71418598Y-118360205D01*
X71421594Y-118354325D01*
X71432017Y-118315424D01*
X71436088Y-118302894D01*
X71450524Y-118265288D01*
X71456824Y-118225510D01*
X71459566Y-118212611D01*
X71468279Y-118180094D01*
X71468279Y-118180092D01*
X71469988Y-118173715D01*
X71472095Y-118133509D01*
X71473473Y-118120393D01*
X71478742Y-118087127D01*
X71478742Y-118087125D01*
X71479774Y-118080610D01*
X71479429Y-118074021D01*
X71479429Y-118074016D01*
X71477667Y-118040392D01*
X71477667Y-118027208D01*
X71479429Y-117993584D01*
X71479429Y-117993579D01*
X71479774Y-117986990D01*
X71473473Y-117947206D01*
X71472095Y-117934090D01*
X71470334Y-117900478D01*
X71470333Y-117900474D01*
X71469988Y-117893885D01*
X71468277Y-117887500D01*
X71459566Y-117854989D01*
X71456823Y-117842085D01*
X71451558Y-117808839D01*
X71451557Y-117808834D01*
X71450524Y-117802312D01*
X71436088Y-117764706D01*
X71432017Y-117752176D01*
X71423304Y-117719656D01*
X71423303Y-117719653D01*
X71421594Y-117713275D01*
X71418597Y-117707394D01*
X71418594Y-117707385D01*
X71403309Y-117677387D01*
X71397945Y-117665340D01*
X71385883Y-117633918D01*
X71383516Y-117627751D01*
X71361583Y-117593978D01*
X71354990Y-117582558D01*
X71339703Y-117552556D01*
X71336707Y-117546675D01*
X71311359Y-117515372D01*
X71303610Y-117504705D01*
X71285279Y-117476478D01*
X71285274Y-117476472D01*
X71281679Y-117470936D01*
X64799464Y-110988721D01*
X64793928Y-110985126D01*
X64793922Y-110985121D01*
X64765695Y-110966790D01*
X64755028Y-110959041D01*
X64748342Y-110953627D01*
X64723725Y-110933693D01*
X64717845Y-110930697D01*
X64717842Y-110930695D01*
X64687840Y-110915408D01*
X64676422Y-110908816D01*
X64648187Y-110890480D01*
X64648184Y-110890479D01*
X64642649Y-110886884D01*
X64605057Y-110872453D01*
X64593012Y-110867091D01*
X64587178Y-110864119D01*
X64557124Y-110848806D01*
X64518211Y-110838379D01*
X64505698Y-110834313D01*
X64468088Y-110819876D01*
X64461560Y-110818842D01*
X64428311Y-110813576D01*
X64415412Y-110810834D01*
X64376515Y-110800411D01*
X64369914Y-110800065D01*
X64369913Y-110800065D01*
X64353108Y-110799184D01*
X64336302Y-110798304D01*
X64323188Y-110796926D01*
X64283410Y-110790626D01*
X64276822Y-110790971D01*
X64276817Y-110790971D01*
X64243194Y-110792733D01*
X64230009Y-110792733D01*
X64196383Y-110790971D01*
X64196378Y-110790971D01*
X64189790Y-110790626D01*
X64183275Y-110791658D01*
X64183273Y-110791658D01*
X64150007Y-110796927D01*
X64136891Y-110798305D01*
X64133345Y-110798491D01*
X64103278Y-110800066D01*
X64103274Y-110800067D01*
X64096685Y-110800412D01*
X64090308Y-110802121D01*
X64090306Y-110802121D01*
X64057789Y-110810834D01*
X64044890Y-110813576D01*
X64028262Y-110816209D01*
X64011639Y-110818842D01*
X64011637Y-110818843D01*
X64005112Y-110819876D01*
X63967506Y-110834312D01*
X63954976Y-110838383D01*
X63922456Y-110847096D01*
X63922453Y-110847097D01*
X63916075Y-110848806D01*
X63910194Y-110851803D01*
X63910185Y-110851806D01*
X63880187Y-110867091D01*
X63868139Y-110872455D01*
X63830551Y-110886884D01*
X63825011Y-110890482D01*
X63796779Y-110908816D01*
X63785358Y-110915410D01*
X63749475Y-110933693D01*
X63744346Y-110937846D01*
X63744345Y-110937847D01*
X63718172Y-110959041D01*
X63707505Y-110966790D01*
X63679278Y-110985121D01*
X63679272Y-110985126D01*
X63673736Y-110988721D01*
X57191521Y-117470936D01*
X57187926Y-117476472D01*
X57187921Y-117476478D01*
X57169590Y-117504705D01*
X57161841Y-117515372D01*
X57136493Y-117546675D01*
X57133497Y-117552555D01*
X57133495Y-117552558D01*
X57118208Y-117582560D01*
X57111616Y-117593978D01*
X57093282Y-117622211D01*
X57089684Y-117627751D01*
X57087317Y-117633918D01*
X57087316Y-117633920D01*
X57075253Y-117665343D01*
X57069891Y-117677388D01*
X57051606Y-117713276D01*
X57041179Y-117752189D01*
X57037113Y-117764702D01*
X57022676Y-117802312D01*
X57021643Y-117808834D01*
X57016376Y-117842089D01*
X57013634Y-117854988D01*
X57003211Y-117893885D01*
X57002866Y-117900478D01*
X57002865Y-117900487D01*
X57001104Y-117934097D01*
X56999727Y-117947207D01*
X56993426Y-117986990D01*
X56993771Y-117993579D01*
X56993771Y-117993584D01*
X56995533Y-118027208D01*
X56995533Y-118040392D01*
X56993771Y-118074016D01*
X56993771Y-118074021D01*
X56993426Y-118080610D01*
X46583600Y-118080610D01*
X46583600Y-101435400D01*
X77763962Y-101435400D01*
X77766341Y-101435219D01*
X77766342Y-101435219D01*
X77950155Y-101421237D01*
X77950160Y-101421236D01*
X77954922Y-101420874D01*
X77959575Y-101419795D01*
X77959578Y-101419795D01*
X78200682Y-101363910D01*
X78200681Y-101363910D01*
X78205346Y-101362829D01*
X78444109Y-101267572D01*
X78517922Y-101224179D01*
X78581778Y-101206800D01*
X79587526Y-101206800D01*
X79589065Y-101206809D01*
X79700693Y-101208173D01*
X79700695Y-101208173D01*
X79705863Y-101208236D01*
X79710972Y-101207454D01*
X79710975Y-101207454D01*
X79731324Y-101204340D01*
X79769830Y-101198447D01*
X79778546Y-101197424D01*
X79843037Y-101192122D01*
X79848050Y-101190863D01*
X79848061Y-101190861D01*
X79886956Y-101181090D01*
X79898592Y-101178744D01*
X79916139Y-101176059D01*
X79938229Y-101172679D01*
X79938232Y-101172678D01*
X79943344Y-101171896D01*
X80004845Y-101151795D01*
X80013284Y-101149358D01*
X80076044Y-101133594D01*
X80080787Y-101131532D01*
X80080792Y-101131530D01*
X80108552Y-101119459D01*
X80117568Y-101115539D01*
X80128636Y-101111334D01*
X80171701Y-101097258D01*
X80229109Y-101067373D01*
X80237028Y-101063597D01*
X80251264Y-101057407D01*
X80296363Y-101037797D01*
X80300707Y-101034987D01*
X80300716Y-101034982D01*
X80334380Y-101013204D01*
X80344638Y-101007233D01*
X80380211Y-100988714D01*
X80384800Y-100986325D01*
X80388940Y-100983217D01*
X80436539Y-100947479D01*
X80443752Y-100942447D01*
X80493731Y-100910114D01*
X80493734Y-100910111D01*
X80498077Y-100907302D01*
X80531568Y-100876827D01*
X80540715Y-100869260D01*
X80572786Y-100845181D01*
X80572787Y-100845180D01*
X80576920Y-100842077D01*
X80580487Y-100838345D01*
X80580492Y-100838340D01*
X80621618Y-100795304D01*
X80627911Y-100789163D01*
X80675770Y-100745614D01*
X80696694Y-100719120D01*
X80703836Y-100710077D01*
X80711623Y-100701119D01*
X80739329Y-100672126D01*
X80739330Y-100672125D01*
X80742901Y-100668388D01*
X80762077Y-100640277D01*
X80779364Y-100614935D01*
X80784571Y-100607847D01*
X80821465Y-100561132D01*
X80821466Y-100561130D01*
X80824668Y-100557076D01*
X80846550Y-100517437D01*
X80852769Y-100507329D01*
X80875368Y-100474199D01*
X80878286Y-100469922D01*
X80880463Y-100465232D01*
X80880467Y-100465225D01*
X80905528Y-100411235D01*
X80909506Y-100403393D01*
X80940774Y-100346750D01*
X80955893Y-100304056D01*
X80960370Y-100293087D01*
X80979437Y-100252010D01*
X80987485Y-100222992D01*
X80996728Y-100189660D01*
X80999373Y-100181272D01*
X81019246Y-100125154D01*
X81019247Y-100125151D01*
X81020970Y-100120285D01*
X81028910Y-100075712D01*
X81031539Y-100064138D01*
X81042260Y-100025477D01*
X81043640Y-100020502D01*
X81047409Y-99985237D01*
X81050515Y-99956165D01*
X81051755Y-99947456D01*
X81062195Y-99888850D01*
X81062195Y-99888848D01*
X81063101Y-99883763D01*
X81063655Y-99838471D01*
X81064096Y-99831058D01*
X81064065Y-99831056D01*
X81064243Y-99827713D01*
X81064600Y-99824372D01*
X81064600Y-99761874D01*
X81064609Y-99760335D01*
X81065973Y-99648706D01*
X81065973Y-99648704D01*
X81066036Y-99643537D01*
X81065254Y-99638424D01*
X81064907Y-99633471D01*
X81064600Y-99624678D01*
X81064600Y-98387071D01*
X81084602Y-98318950D01*
X81092680Y-98307776D01*
X81175053Y-98206055D01*
X81175054Y-98206054D01*
X81179207Y-98200925D01*
X81264094Y-98034324D01*
X81281714Y-97968565D01*
X81310994Y-97859292D01*
X81310995Y-97859288D01*
X81312488Y-97853715D01*
X81318600Y-97776058D01*
X81318600Y-95111542D01*
X81312488Y-95033885D01*
X81264094Y-94853276D01*
X81179207Y-94686675D01*
X81061536Y-94541364D01*
X80916225Y-94423693D01*
X80749624Y-94338806D01*
X80743250Y-94337098D01*
X80574592Y-94291906D01*
X80574588Y-94291905D01*
X80569015Y-94290412D01*
X80557634Y-94289516D01*
X80493814Y-94284493D01*
X80493806Y-94284493D01*
X80491358Y-94284300D01*
X78715842Y-94284300D01*
X78713394Y-94284493D01*
X78713386Y-94284493D01*
X78649566Y-94289516D01*
X78638185Y-94290412D01*
X78632612Y-94291905D01*
X78632608Y-94291906D01*
X78463950Y-94337098D01*
X78457576Y-94338806D01*
X78290975Y-94423693D01*
X78145664Y-94541364D01*
X78027993Y-94686675D01*
X77943106Y-94853276D01*
X77894712Y-95033885D01*
X77888600Y-95111542D01*
X77888600Y-97776058D01*
X77894712Y-97853715D01*
X77896205Y-97859288D01*
X77896206Y-97859292D01*
X77906468Y-97897589D01*
X77904778Y-97968565D01*
X77864984Y-98027361D01*
X77799720Y-98055309D01*
X77784761Y-98056200D01*
X46583600Y-98056200D01*
X46583600Y-92696058D01*
X77888600Y-92696058D01*
X77894712Y-92773715D01*
X77943106Y-92954324D01*
X78027993Y-93120925D01*
X78145664Y-93266236D01*
X78290975Y-93383907D01*
X78457576Y-93468794D01*
X78463949Y-93470502D01*
X78463950Y-93470502D01*
X78632608Y-93515694D01*
X78632612Y-93515695D01*
X78638185Y-93517188D01*
X78643941Y-93517641D01*
X78713386Y-93523107D01*
X78713394Y-93523107D01*
X78715842Y-93523300D01*
X80491358Y-93523300D01*
X80493806Y-93523107D01*
X80493814Y-93523107D01*
X80563259Y-93517641D01*
X80569015Y-93517188D01*
X80574588Y-93515695D01*
X80574592Y-93515694D01*
X80743250Y-93470502D01*
X80743251Y-93470502D01*
X80749624Y-93468794D01*
X80916225Y-93383907D01*
X81061536Y-93266236D01*
X81179207Y-93120925D01*
X81264094Y-92954324D01*
X81312488Y-92773715D01*
X81318600Y-92696058D01*
X82968600Y-92696058D01*
X82974712Y-92773715D01*
X83023106Y-92954324D01*
X83107993Y-93120925D01*
X83225664Y-93266236D01*
X83370975Y-93383907D01*
X83537576Y-93468794D01*
X83543949Y-93470502D01*
X83543950Y-93470502D01*
X83712608Y-93515694D01*
X83712612Y-93515695D01*
X83718185Y-93517188D01*
X83723941Y-93517641D01*
X83793386Y-93523107D01*
X83793394Y-93523107D01*
X83795842Y-93523300D01*
X85571358Y-93523300D01*
X85573806Y-93523107D01*
X85573814Y-93523107D01*
X85643259Y-93517641D01*
X85649015Y-93517188D01*
X85654588Y-93515695D01*
X85654592Y-93515694D01*
X85823250Y-93470502D01*
X85823251Y-93470502D01*
X85829624Y-93468794D01*
X85996225Y-93383907D01*
X86141536Y-93266236D01*
X86259207Y-93120925D01*
X86344094Y-92954324D01*
X86392488Y-92773715D01*
X86398600Y-92696058D01*
X86398600Y-90031542D01*
X86392488Y-89953885D01*
X86344094Y-89773276D01*
X86259207Y-89606675D01*
X86241173Y-89584405D01*
X86213847Y-89518877D01*
X86226287Y-89448979D01*
X86274541Y-89396902D01*
X86339093Y-89379110D01*
X93307609Y-89379110D01*
X93324056Y-89380188D01*
X93340802Y-89382393D01*
X93340806Y-89382393D01*
X93346372Y-89383126D01*
X93428558Y-89379250D01*
X93434493Y-89379110D01*
X93457325Y-89379110D01*
X93460111Y-89378861D01*
X93460119Y-89378861D01*
X93483603Y-89376765D01*
X93488867Y-89376406D01*
X93546898Y-89373669D01*
X93572913Y-89372442D01*
X93578372Y-89371192D01*
X93578377Y-89371191D01*
X93590645Y-89368381D01*
X93607576Y-89365700D01*
X93612153Y-89365292D01*
X93625685Y-89364084D01*
X93706842Y-89341882D01*
X93711961Y-89340596D01*
X93735345Y-89335240D01*
X93793983Y-89321811D01*
X93799140Y-89319611D01*
X93799147Y-89319609D01*
X93810707Y-89314678D01*
X93826894Y-89309041D01*
X93839021Y-89305723D01*
X93839024Y-89305722D01*
X93844441Y-89304240D01*
X93849504Y-89301825D01*
X93849515Y-89301821D01*
X93920406Y-89268007D01*
X93925208Y-89265838D01*
X94002592Y-89232831D01*
X94017788Y-89222849D01*
X94032716Y-89214437D01*
X94049141Y-89206603D01*
X94053699Y-89203328D01*
X94117479Y-89157497D01*
X94121828Y-89154508D01*
X94188292Y-89110850D01*
X94188293Y-89110849D01*
X94192148Y-89108317D01*
X94213176Y-89089580D01*
X94223476Y-89081329D01*
X94228761Y-89077532D01*
X94228762Y-89077531D01*
X94233316Y-89074259D01*
X94308392Y-88996787D01*
X94309781Y-88995377D01*
X99902913Y-83402246D01*
X99965225Y-83368220D01*
X99989040Y-83365376D01*
X100230381Y-83359689D01*
X100312891Y-83345955D01*
X100492176Y-83316114D01*
X100492180Y-83316113D01*
X100496566Y-83315383D01*
X100500807Y-83314042D01*
X100500810Y-83314041D01*
X100749607Y-83235357D01*
X100749609Y-83235356D01*
X100753853Y-83234014D01*
X100757864Y-83232088D01*
X100757869Y-83232086D01*
X100993089Y-83119135D01*
X100993090Y-83119134D01*
X100997108Y-83117205D01*
X101109925Y-83041823D01*
X101217769Y-82969764D01*
X101217773Y-82969761D01*
X101221477Y-82967286D01*
X101224794Y-82964315D01*
X101224798Y-82964312D01*
X101419167Y-82790221D01*
X101419168Y-82790220D01*
X101422485Y-82787249D01*
X101596119Y-82580686D01*
X101738917Y-82351718D01*
X101848028Y-82104914D01*
X101921275Y-81845198D01*
X101957197Y-81577753D01*
X101960967Y-81457800D01*
X101941909Y-81188627D01*
X101929148Y-81129352D01*
X101886050Y-80929177D01*
X101885113Y-80924825D01*
X101791715Y-80671657D01*
X101663576Y-80434174D01*
X101503254Y-80217116D01*
X101455915Y-80169027D01*
X101317079Y-80027994D01*
X101313948Y-80024813D01*
X101310408Y-80022112D01*
X101310402Y-80022106D01*
X101102975Y-79863803D01*
X101099435Y-79861101D01*
X100863995Y-79729248D01*
X100612325Y-79631885D01*
X100608000Y-79630882D01*
X100607995Y-79630881D01*
X100463485Y-79597386D01*
X100349447Y-79570953D01*
X100080607Y-79547669D01*
X100076172Y-79547913D01*
X100076168Y-79547913D01*
X99815611Y-79562252D01*
X99815604Y-79562253D01*
X99811168Y-79562497D01*
X99546506Y-79615141D01*
X99542296Y-79616619D01*
X99542294Y-79616620D01*
X99393785Y-79668773D01*
X99291902Y-79704552D01*
X99287951Y-79706605D01*
X99287945Y-79706607D01*
X99056386Y-79826892D01*
X99052436Y-79828944D01*
X99048821Y-79831527D01*
X99048815Y-79831531D01*
X98910177Y-79930604D01*
X98832886Y-79985837D01*
X98637633Y-80172099D01*
X98470573Y-80384014D01*
X98335038Y-80617355D01*
X98333370Y-80621472D01*
X98333367Y-80621479D01*
X98314630Y-80667739D01*
X98233733Y-80867464D01*
X98168680Y-81129352D01*
X98141176Y-81397794D01*
X98141351Y-81402246D01*
X98145540Y-81508868D01*
X98128228Y-81577722D01*
X98108732Y-81602910D01*
X92910436Y-86801205D01*
X92848124Y-86835231D01*
X92821341Y-86838110D01*
X84725304Y-86838110D01*
X84718050Y-86837901D01*
X84649137Y-86833927D01*
X84649134Y-86833927D01*
X84643531Y-86833604D01*
X84637953Y-86834279D01*
X84552729Y-86844592D01*
X84548794Y-86845006D01*
X84510271Y-86848444D01*
X84457705Y-86853136D01*
X84452298Y-86854615D01*
X84452293Y-86854616D01*
X84447244Y-86855997D01*
X84429139Y-86859549D01*
X84418381Y-86860851D01*
X84330930Y-86887754D01*
X84327239Y-86888827D01*
X84238949Y-86912980D01*
X84233884Y-86915396D01*
X84233878Y-86915398D01*
X84229161Y-86917648D01*
X84211977Y-86924348D01*
X84201613Y-86927537D01*
X84196628Y-86930110D01*
X84196618Y-86930114D01*
X84120334Y-86969487D01*
X84116790Y-86971246D01*
X84040352Y-87007706D01*
X84034249Y-87010617D01*
X84029700Y-87013886D01*
X84025441Y-87016946D01*
X84009707Y-87026587D01*
X84005076Y-87028977D01*
X84005070Y-87028981D01*
X84000081Y-87031556D01*
X83927512Y-87087240D01*
X83924364Y-87089577D01*
X83854633Y-87139684D01*
X83854626Y-87139690D01*
X83850074Y-87142961D01*
X83842533Y-87150743D01*
X83828756Y-87163018D01*
X83820153Y-87169619D01*
X83791600Y-87200999D01*
X83758604Y-87237261D01*
X83755893Y-87240147D01*
X83696152Y-87301794D01*
X83696145Y-87301802D01*
X83692245Y-87305827D01*
X83689118Y-87310481D01*
X83689116Y-87310483D01*
X83686197Y-87314827D01*
X83674812Y-87329347D01*
X83667519Y-87337362D01*
X83664538Y-87342114D01*
X83664532Y-87342122D01*
X83618917Y-87414839D01*
X83616792Y-87418112D01*
X83565753Y-87494068D01*
X83563500Y-87499201D01*
X83563496Y-87499208D01*
X83561396Y-87503993D01*
X83552760Y-87520303D01*
X83547001Y-87529484D01*
X83544907Y-87534694D01*
X83544903Y-87534701D01*
X83512885Y-87614348D01*
X83511351Y-87617998D01*
X83476847Y-87696598D01*
X83476845Y-87696604D01*
X83474593Y-87701734D01*
X83473284Y-87707188D01*
X83473283Y-87707190D01*
X83472060Y-87712283D01*
X83466450Y-87729861D01*
X83462410Y-87739911D01*
X83461273Y-87745403D01*
X83443864Y-87829462D01*
X83443001Y-87833323D01*
X83421650Y-87922261D01*
X83421026Y-87933089D01*
X83418617Y-87951378D01*
X83416419Y-87961992D01*
X83413100Y-88019554D01*
X83413100Y-88066906D01*
X83412891Y-88074160D01*
X83408594Y-88148679D01*
X83409269Y-88154256D01*
X83412187Y-88178369D01*
X83413100Y-88193507D01*
X83413100Y-89249482D01*
X83393098Y-89317603D01*
X83366394Y-89347402D01*
X83230794Y-89457209D01*
X83230790Y-89457213D01*
X83225664Y-89461364D01*
X83107993Y-89606675D01*
X83023106Y-89773276D01*
X82974712Y-89953885D01*
X82968600Y-90031542D01*
X82968600Y-92696058D01*
X81318600Y-92696058D01*
X81318600Y-90031542D01*
X81312488Y-89953885D01*
X81264094Y-89773276D01*
X81179207Y-89606675D01*
X81092680Y-89499823D01*
X81065354Y-89434296D01*
X81064600Y-89420529D01*
X81064600Y-87481140D01*
X81075448Y-87429994D01*
X81087570Y-87402704D01*
X81106750Y-87322505D01*
X81135087Y-87204020D01*
X81135088Y-87204016D01*
X81136282Y-87199022D01*
X81140301Y-87142961D01*
X81142939Y-87106157D01*
X81142939Y-87106149D01*
X81143100Y-87103907D01*
X81143099Y-85717694D01*
X81135996Y-85620601D01*
X81086928Y-85417005D01*
X81001580Y-85225760D01*
X80998305Y-85221004D01*
X80998303Y-85221000D01*
X80938655Y-85134373D01*
X80882810Y-85053270D01*
X80734594Y-84905313D01*
X80561898Y-84786844D01*
X80370504Y-84701830D01*
X80332035Y-84692630D01*
X80171820Y-84654313D01*
X80171816Y-84654312D01*
X80166822Y-84653118D01*
X80130907Y-84650544D01*
X80073957Y-84646461D01*
X80073949Y-84646461D01*
X80071707Y-84646300D01*
X79607803Y-84646300D01*
X79135494Y-84646301D01*
X79133201Y-84646469D01*
X79133194Y-84646469D01*
X79092831Y-84649422D01*
X79038401Y-84653404D01*
X78834805Y-84702472D01*
X78643560Y-84787820D01*
X78638804Y-84791095D01*
X78638800Y-84791097D01*
X78552173Y-84850745D01*
X78471070Y-84906590D01*
X78323113Y-85054806D01*
X78204644Y-85227502D01*
X78119630Y-85418896D01*
X78070918Y-85622578D01*
X78064100Y-85717693D01*
X78064101Y-87103906D01*
X78071204Y-87200999D01*
X78120272Y-87404595D01*
X78131663Y-87430119D01*
X78142600Y-87481466D01*
X78142600Y-89420529D01*
X78122598Y-89488650D01*
X78114522Y-89499821D01*
X78027993Y-89606675D01*
X77943106Y-89773276D01*
X77894712Y-89953885D01*
X77888600Y-90031542D01*
X77888600Y-92696058D01*
X46583600Y-92696058D01*
X46583600Y-64185800D01*
X117703600Y-64185800D01*
X117703600Y-98056200D01*
G37*
G04 #@! TD.AperFunction*
G04 #@! TD*
G04 #@! TA.AperFunction,Conductor*
G04 #@! TO.N,GND*
G36*
X137203221Y-44648302D02*
G01*
X137249714Y-44701958D01*
X137261100Y-44754300D01*
X137261100Y-154737300D01*
X137241098Y-154805421D01*
X137187442Y-154851914D01*
X137135100Y-154863300D01*
X27152100Y-154863300D01*
X27083979Y-154843298D01*
X27037486Y-154789642D01*
X27026100Y-154737300D01*
X27026100Y-144533133D01*
X73441337Y-144533133D01*
X73446375Y-145110334D01*
X73489654Y-145685931D01*
X73570985Y-146257395D01*
X73690011Y-146822213D01*
X73846208Y-147377900D01*
X74038889Y-147922014D01*
X74039715Y-147923933D01*
X74039717Y-147923937D01*
X74063223Y-147978517D01*
X74267206Y-148452162D01*
X74530157Y-148966012D01*
X74826585Y-149461307D01*
X75155185Y-149935867D01*
X75286088Y-150100434D01*
X75513216Y-150385974D01*
X75513229Y-150385989D01*
X75514515Y-150387606D01*
X75902993Y-150814537D01*
X76318911Y-151214784D01*
X76760441Y-151586587D01*
X77225641Y-151928310D01*
X77469053Y-152083381D01*
X77710700Y-152237328D01*
X77710709Y-152237334D01*
X77712465Y-152238452D01*
X77714288Y-152239450D01*
X77714293Y-152239453D01*
X78216940Y-152514643D01*
X78218774Y-152515647D01*
X78220674Y-152516529D01*
X78220680Y-152516532D01*
X78717245Y-152747030D01*
X78742340Y-152758679D01*
X79280862Y-152966477D01*
X79282847Y-152967095D01*
X79282852Y-152967097D01*
X79515260Y-153039484D01*
X79831971Y-153138128D01*
X79898341Y-153154062D01*
X80391231Y-153272395D01*
X80391246Y-153272398D01*
X80393245Y-153272878D01*
X80395276Y-153273225D01*
X80395285Y-153273227D01*
X80960171Y-153369785D01*
X80960182Y-153369787D01*
X80962215Y-153370134D01*
X81123324Y-153386783D01*
X81534307Y-153429254D01*
X81534314Y-153429254D01*
X81536380Y-153429468D01*
X81538470Y-153429545D01*
X81538475Y-153429545D01*
X81695520Y-153435304D01*
X82113214Y-153450620D01*
X82449421Y-153440642D01*
X82688104Y-153433558D01*
X82688113Y-153433557D01*
X82690183Y-153433496D01*
X82804056Y-153422531D01*
X83262665Y-153378373D01*
X83262678Y-153378371D01*
X83264748Y-153378172D01*
X83549566Y-153331531D01*
X83832321Y-153285228D01*
X83832331Y-153285226D01*
X83834383Y-153284890D01*
X83836414Y-153284417D01*
X83836421Y-153284416D01*
X84012097Y-153243535D01*
X84396584Y-153154062D01*
X84948878Y-152986262D01*
X84950823Y-152985527D01*
X84950832Y-152985524D01*
X85189260Y-152895429D01*
X85488837Y-152782229D01*
X86014087Y-152542858D01*
X86522319Y-152269204D01*
X86761200Y-152119354D01*
X87009516Y-151963586D01*
X87009525Y-151963580D01*
X87011296Y-151962469D01*
X87126526Y-151879057D01*
X87477171Y-151625233D01*
X87477179Y-151625227D01*
X87478871Y-151624002D01*
X87564048Y-151553286D01*
X87921378Y-151256625D01*
X87921393Y-151256612D01*
X87922985Y-151255290D01*
X87924487Y-151253865D01*
X87924499Y-151253854D01*
X88340181Y-150859387D01*
X88341688Y-150857957D01*
X88733137Y-150433748D01*
X89095611Y-149984528D01*
X89427517Y-149512274D01*
X89727395Y-149019061D01*
X89755981Y-148964149D01*
X89992958Y-148508919D01*
X89993927Y-148507058D01*
X89994759Y-148505162D01*
X89994766Y-148505148D01*
X90225104Y-147980421D01*
X90225940Y-147978517D01*
X90247107Y-147920046D01*
X90421704Y-147437727D01*
X90421707Y-147437718D01*
X90422415Y-147435762D01*
X90439693Y-147375903D01*
X90581906Y-146883192D01*
X90581906Y-146883191D01*
X90582487Y-146881179D01*
X90705453Y-146317206D01*
X90790772Y-145746324D01*
X90838069Y-145171042D01*
X90848461Y-144745812D01*
X90829323Y-144168907D01*
X90829115Y-144166820D01*
X90772200Y-143596609D01*
X90772198Y-143596598D01*
X90771993Y-143594539D01*
X90771650Y-143592488D01*
X90677067Y-143027279D01*
X90677064Y-143027266D01*
X90676724Y-143025232D01*
X90628044Y-142819299D01*
X90544413Y-142465518D01*
X90544412Y-142465516D01*
X90543934Y-142463492D01*
X90374208Y-141911786D01*
X90168291Y-141372543D01*
X89927088Y-140848131D01*
X89824468Y-140659127D01*
X89652662Y-140342700D01*
X89651662Y-140340858D01*
X89343221Y-139852954D01*
X89003124Y-139386564D01*
X88632865Y-138943739D01*
X88484506Y-138788490D01*
X88235516Y-138527938D01*
X88235515Y-138527937D01*
X88234072Y-138526427D01*
X87808499Y-138136461D01*
X87358017Y-137775557D01*
X86884607Y-137445301D01*
X86882840Y-137444235D01*
X86882826Y-137444226D01*
X86392139Y-137148225D01*
X86392126Y-137148218D01*
X86390351Y-137147147D01*
X85877421Y-136882404D01*
X85348073Y-136652237D01*
X85346104Y-136651532D01*
X85346099Y-136651530D01*
X84806624Y-136458370D01*
X84806620Y-136458369D01*
X84804635Y-136457658D01*
X84249496Y-136299523D01*
X83685098Y-136178526D01*
X83683034Y-136178225D01*
X83683029Y-136178224D01*
X83116002Y-136095503D01*
X83115989Y-136095502D01*
X83113922Y-136095200D01*
X82844091Y-136073964D01*
X82540540Y-136050074D01*
X82540534Y-136050074D01*
X82538479Y-136049912D01*
X82242846Y-136046300D01*
X81963365Y-136042885D01*
X81963358Y-136042885D01*
X81961299Y-136042860D01*
X81384921Y-136074076D01*
X81382861Y-136074325D01*
X81382853Y-136074326D01*
X81211715Y-136095036D01*
X80811880Y-136143421D01*
X80809825Y-136143809D01*
X80809827Y-136143809D01*
X80246761Y-136250201D01*
X80246754Y-136250203D01*
X80244693Y-136250592D01*
X79685857Y-136395117D01*
X79683892Y-136395767D01*
X79139812Y-136575704D01*
X79139798Y-136575709D01*
X79137827Y-136576361D01*
X79135889Y-136577148D01*
X78604958Y-136792736D01*
X78604942Y-136792743D01*
X78603014Y-136793526D01*
X78601123Y-136794444D01*
X78601119Y-136794446D01*
X78419977Y-136882404D01*
X78083769Y-137045658D01*
X77582376Y-137331647D01*
X77580662Y-137332781D01*
X77580653Y-137332787D01*
X77412288Y-137444226D01*
X77101038Y-137650238D01*
X76641873Y-138000028D01*
X76206899Y-138379480D01*
X75798029Y-138786925D01*
X75796656Y-138788488D01*
X75796654Y-138788490D01*
X75658870Y-138945327D01*
X75417062Y-139220571D01*
X75415776Y-139222247D01*
X75290906Y-139384981D01*
X75065671Y-139678512D01*
X74745402Y-140158735D01*
X74744355Y-140160556D01*
X74458706Y-140657314D01*
X74458700Y-140657326D01*
X74457664Y-140659127D01*
X74203721Y-141177489D01*
X74202930Y-141179418D01*
X74202924Y-141179431D01*
X74124506Y-141370635D01*
X73984691Y-141711541D01*
X73801535Y-142258934D01*
X73655060Y-142817263D01*
X73545910Y-143384072D01*
X73545653Y-143386136D01*
X73545651Y-143386148D01*
X73519695Y-143594539D01*
X73474565Y-143956868D01*
X73441337Y-144533133D01*
X27026100Y-144533133D01*
X27026100Y-99533121D01*
X28441325Y-99533121D01*
X28446363Y-100110322D01*
X28489642Y-100685919D01*
X28532928Y-100990066D01*
X28568817Y-101242231D01*
X28570973Y-101257383D01*
X28689999Y-101822201D01*
X28846196Y-102377888D01*
X29038877Y-102922002D01*
X29039703Y-102923921D01*
X29039705Y-102923925D01*
X29063211Y-102978505D01*
X29267194Y-103452150D01*
X29530145Y-103966000D01*
X29826573Y-104461295D01*
X30155173Y-104935855D01*
X30286076Y-105100422D01*
X30513204Y-105385962D01*
X30513217Y-105385977D01*
X30514503Y-105387594D01*
X30902981Y-105814525D01*
X31318899Y-106214772D01*
X31760429Y-106586575D01*
X32225629Y-106928298D01*
X32469041Y-107083369D01*
X32710688Y-107237316D01*
X32710697Y-107237322D01*
X32712453Y-107238440D01*
X32714276Y-107239438D01*
X32714281Y-107239441D01*
X33216928Y-107514631D01*
X33218762Y-107515635D01*
X33220662Y-107516517D01*
X33220668Y-107516520D01*
X33717233Y-107747018D01*
X33742328Y-107758667D01*
X34280850Y-107966465D01*
X34282835Y-107967083D01*
X34282840Y-107967085D01*
X34515248Y-108039472D01*
X34831959Y-108138116D01*
X34898329Y-108154050D01*
X35391219Y-108272383D01*
X35391234Y-108272386D01*
X35393233Y-108272866D01*
X35395264Y-108273213D01*
X35395273Y-108273215D01*
X35960159Y-108369773D01*
X35960170Y-108369775D01*
X35962203Y-108370122D01*
X36123312Y-108386771D01*
X36534295Y-108429242D01*
X36534302Y-108429242D01*
X36536368Y-108429456D01*
X36538458Y-108429533D01*
X36538463Y-108429533D01*
X36695508Y-108435292D01*
X37113202Y-108450608D01*
X37449409Y-108440630D01*
X37688092Y-108433546D01*
X37688101Y-108433545D01*
X37690171Y-108433484D01*
X37804044Y-108422519D01*
X38262653Y-108378361D01*
X38262666Y-108378359D01*
X38264736Y-108378160D01*
X38549553Y-108331519D01*
X38832309Y-108285216D01*
X38832319Y-108285214D01*
X38834371Y-108284878D01*
X38836402Y-108284405D01*
X38836409Y-108284404D01*
X39012085Y-108243523D01*
X39396572Y-108154050D01*
X39948866Y-107986250D01*
X39950811Y-107985515D01*
X39950820Y-107985512D01*
X40189248Y-107895417D01*
X40488825Y-107782217D01*
X41014075Y-107542846D01*
X41522307Y-107269192D01*
X41761188Y-107119342D01*
X42009504Y-106963574D01*
X42009513Y-106963568D01*
X42011284Y-106962457D01*
X42126514Y-106879045D01*
X42477159Y-106625221D01*
X42477167Y-106625215D01*
X42478859Y-106623990D01*
X42564036Y-106553274D01*
X42921366Y-106256613D01*
X42921381Y-106256600D01*
X42922973Y-106255278D01*
X42924475Y-106253853D01*
X42924487Y-106253842D01*
X43340169Y-105859375D01*
X43341676Y-105857945D01*
X43733125Y-105433736D01*
X44095599Y-104984516D01*
X44427505Y-104512262D01*
X44727383Y-104019049D01*
X44755969Y-103964137D01*
X44992946Y-103508907D01*
X44993915Y-103507046D01*
X44994747Y-103505150D01*
X44994754Y-103505136D01*
X45225092Y-102980409D01*
X45225928Y-102978505D01*
X45246382Y-102922002D01*
X45371536Y-102576270D01*
X45413531Y-102519025D01*
X45479808Y-102493572D01*
X45524420Y-102497948D01*
X45588434Y-102516122D01*
X45915844Y-102568858D01*
X45919264Y-102569031D01*
X45919271Y-102569032D01*
X46102623Y-102578320D01*
X46102640Y-102578320D01*
X46104211Y-102578400D01*
X46583600Y-102578400D01*
X46583600Y-135305800D01*
X117703600Y-135305800D01*
X117703600Y-102578400D01*
X118169745Y-102578400D01*
X118415663Y-102564005D01*
X118419289Y-102563362D01*
X118419292Y-102563362D01*
X118738583Y-102506775D01*
X118738587Y-102506774D01*
X118742204Y-102506133D01*
X118745730Y-102505072D01*
X118762246Y-102500101D01*
X118833241Y-102499624D01*
X118893224Y-102537605D01*
X118917330Y-102578696D01*
X119038901Y-102922002D01*
X119039727Y-102923921D01*
X119039729Y-102923925D01*
X119063235Y-102978505D01*
X119267218Y-103452150D01*
X119530169Y-103966000D01*
X119826597Y-104461295D01*
X120155197Y-104935855D01*
X120286100Y-105100422D01*
X120513228Y-105385962D01*
X120513241Y-105385977D01*
X120514527Y-105387594D01*
X120903005Y-105814525D01*
X121318923Y-106214772D01*
X121760453Y-106586575D01*
X122225653Y-106928298D01*
X122469065Y-107083369D01*
X122710712Y-107237316D01*
X122710721Y-107237322D01*
X122712477Y-107238440D01*
X122714300Y-107239438D01*
X122714305Y-107239441D01*
X123216952Y-107514631D01*
X123218786Y-107515635D01*
X123220686Y-107516517D01*
X123220692Y-107516520D01*
X123717257Y-107747018D01*
X123742352Y-107758667D01*
X124280874Y-107966465D01*
X124282859Y-107967083D01*
X124282864Y-107967085D01*
X124515272Y-108039472D01*
X124831983Y-108138116D01*
X124898353Y-108154050D01*
X125391243Y-108272383D01*
X125391258Y-108272386D01*
X125393257Y-108272866D01*
X125395288Y-108273213D01*
X125395297Y-108273215D01*
X125960183Y-108369773D01*
X125960194Y-108369775D01*
X125962227Y-108370122D01*
X126123336Y-108386771D01*
X126534319Y-108429242D01*
X126534326Y-108429242D01*
X126536392Y-108429456D01*
X126538482Y-108429533D01*
X126538487Y-108429533D01*
X126695532Y-108435292D01*
X127113226Y-108450608D01*
X127449433Y-108440630D01*
X127688116Y-108433546D01*
X127688125Y-108433545D01*
X127690195Y-108433484D01*
X127804068Y-108422519D01*
X128262677Y-108378361D01*
X128262690Y-108378359D01*
X128264760Y-108378160D01*
X128549577Y-108331519D01*
X128832333Y-108285216D01*
X128832343Y-108285214D01*
X128834395Y-108284878D01*
X128836426Y-108284405D01*
X128836433Y-108284404D01*
X129012109Y-108243523D01*
X129396596Y-108154050D01*
X129948890Y-107986250D01*
X129950835Y-107985515D01*
X129950844Y-107985512D01*
X130189272Y-107895417D01*
X130488849Y-107782217D01*
X131014099Y-107542846D01*
X131522331Y-107269192D01*
X131761212Y-107119342D01*
X132009528Y-106963574D01*
X132009537Y-106963568D01*
X132011308Y-106962457D01*
X132126538Y-106879045D01*
X132477183Y-106625221D01*
X132477191Y-106625215D01*
X132478883Y-106623990D01*
X132564060Y-106553274D01*
X132921390Y-106256613D01*
X132921405Y-106256600D01*
X132922997Y-106255278D01*
X132924499Y-106253853D01*
X132924511Y-106253842D01*
X133340193Y-105859375D01*
X133341700Y-105857945D01*
X133733149Y-105433736D01*
X134095623Y-104984516D01*
X134427529Y-104512262D01*
X134727407Y-104019049D01*
X134755993Y-103964137D01*
X134992970Y-103508907D01*
X134993939Y-103507046D01*
X134994771Y-103505150D01*
X134994778Y-103505136D01*
X135225116Y-102980409D01*
X135225952Y-102978505D01*
X135247119Y-102920034D01*
X135421716Y-102437715D01*
X135421719Y-102437706D01*
X135422427Y-102435750D01*
X135439705Y-102375891D01*
X135581918Y-101883180D01*
X135581918Y-101883179D01*
X135582499Y-101881167D01*
X135705465Y-101317194D01*
X135775981Y-100845363D01*
X135790473Y-100748394D01*
X135790474Y-100748389D01*
X135790784Y-100746312D01*
X135792991Y-100719474D01*
X135837930Y-100172865D01*
X135838081Y-100171030D01*
X135848473Y-99745800D01*
X135829335Y-99168895D01*
X135829127Y-99166808D01*
X135772212Y-98596597D01*
X135772210Y-98596586D01*
X135772005Y-98594527D01*
X135771662Y-98592476D01*
X135677079Y-98027267D01*
X135677076Y-98027254D01*
X135676736Y-98025220D01*
X135628056Y-97819287D01*
X135544425Y-97465506D01*
X135544424Y-97465504D01*
X135543946Y-97463480D01*
X135409444Y-97026271D01*
X135374832Y-96913762D01*
X135374828Y-96913751D01*
X135374220Y-96911774D01*
X135168303Y-96372531D01*
X134927100Y-95848119D01*
X134824480Y-95659115D01*
X134652674Y-95342688D01*
X134651674Y-95340846D01*
X134343233Y-94852942D01*
X134003136Y-94386552D01*
X133656872Y-93972425D01*
X133634205Y-93945315D01*
X133634202Y-93945311D01*
X133632877Y-93943727D01*
X133595296Y-93904400D01*
X133235528Y-93527926D01*
X133235527Y-93527925D01*
X133234084Y-93526415D01*
X132808511Y-93136449D01*
X132747759Y-93087777D01*
X132359663Y-92776854D01*
X132359661Y-92776853D01*
X132358029Y-92775545D01*
X131884619Y-92445289D01*
X131882852Y-92444223D01*
X131882838Y-92444214D01*
X131392151Y-92148213D01*
X131392138Y-92148206D01*
X131390363Y-92147135D01*
X130877433Y-91882392D01*
X130348085Y-91652225D01*
X130346116Y-91651520D01*
X130346111Y-91651518D01*
X129806636Y-91458358D01*
X129806632Y-91458357D01*
X129804647Y-91457646D01*
X129249508Y-91299511D01*
X128685110Y-91178514D01*
X128683046Y-91178213D01*
X128683041Y-91178212D01*
X128116014Y-91095491D01*
X128116001Y-91095490D01*
X128113934Y-91095188D01*
X127844103Y-91073952D01*
X127540552Y-91050062D01*
X127540546Y-91050062D01*
X127538491Y-91049900D01*
X127242858Y-91046288D01*
X126963377Y-91042873D01*
X126963370Y-91042873D01*
X126961311Y-91042848D01*
X126384933Y-91074064D01*
X126382873Y-91074313D01*
X126382865Y-91074314D01*
X126211727Y-91095024D01*
X125811892Y-91143409D01*
X125809837Y-91143797D01*
X125809839Y-91143797D01*
X125246773Y-91250189D01*
X125246766Y-91250191D01*
X125244705Y-91250580D01*
X124685869Y-91395105D01*
X124683904Y-91395755D01*
X124139824Y-91575692D01*
X124139810Y-91575697D01*
X124137839Y-91576349D01*
X124135901Y-91577136D01*
X123604970Y-91792724D01*
X123604954Y-91792731D01*
X123603026Y-91793514D01*
X123601135Y-91794432D01*
X123601131Y-91794434D01*
X123419989Y-91882392D01*
X123083781Y-92045646D01*
X122582388Y-92331635D01*
X122580674Y-92332769D01*
X122580665Y-92332775D01*
X122412300Y-92444214D01*
X122101050Y-92650226D01*
X121641885Y-93000016D01*
X121206911Y-93379468D01*
X120798041Y-93786913D01*
X120796668Y-93788476D01*
X120796666Y-93788478D01*
X120658882Y-93945315D01*
X120417074Y-94220559D01*
X120415788Y-94222235D01*
X120242663Y-94447856D01*
X120065683Y-94678500D01*
X119745414Y-95158723D01*
X119744367Y-95160544D01*
X119458718Y-95657302D01*
X119458712Y-95657314D01*
X119457676Y-95659115D01*
X119203733Y-96177477D01*
X119202942Y-96179406D01*
X119202936Y-96179419D01*
X119122933Y-96374488D01*
X118984703Y-96711529D01*
X118918352Y-96909833D01*
X118917415Y-96912632D01*
X118876831Y-96970886D01*
X118811196Y-96997951D01*
X118763515Y-96993861D01*
X118698766Y-96975478D01*
X118371356Y-96922742D01*
X118367936Y-96922569D01*
X118367929Y-96922568D01*
X118184577Y-96913280D01*
X118184560Y-96913280D01*
X118182989Y-96913200D01*
X117703600Y-96913200D01*
X117703600Y-64185800D01*
X46583600Y-64185800D01*
X46583600Y-96913200D01*
X46117455Y-96913200D01*
X45871537Y-96927595D01*
X45867911Y-96928238D01*
X45867908Y-96928238D01*
X45548617Y-96984825D01*
X45548613Y-96984826D01*
X45544996Y-96985467D01*
X45529713Y-96990067D01*
X45529167Y-96990231D01*
X45458172Y-96990710D01*
X45398188Y-96952730D01*
X45374361Y-96911711D01*
X45374196Y-96911774D01*
X45373809Y-96910760D01*
X45373808Y-96910759D01*
X45168279Y-96372531D01*
X44927076Y-95848119D01*
X44824456Y-95659115D01*
X44652650Y-95342688D01*
X44651650Y-95340846D01*
X44343209Y-94852942D01*
X44003112Y-94386552D01*
X43656848Y-93972425D01*
X43634181Y-93945315D01*
X43634178Y-93945311D01*
X43632853Y-93943727D01*
X43595272Y-93904400D01*
X43235504Y-93527926D01*
X43235503Y-93527925D01*
X43234060Y-93526415D01*
X42808487Y-93136449D01*
X42747735Y-93087777D01*
X42359639Y-92776854D01*
X42359637Y-92776853D01*
X42358005Y-92775545D01*
X41884595Y-92445289D01*
X41882828Y-92444223D01*
X41882814Y-92444214D01*
X41392127Y-92148213D01*
X41392114Y-92148206D01*
X41390339Y-92147135D01*
X40877409Y-91882392D01*
X40348061Y-91652225D01*
X40346092Y-91651520D01*
X40346087Y-91651518D01*
X39806612Y-91458358D01*
X39806608Y-91458357D01*
X39804623Y-91457646D01*
X39249484Y-91299511D01*
X38685086Y-91178514D01*
X38683022Y-91178213D01*
X38683017Y-91178212D01*
X38115990Y-91095491D01*
X38115977Y-91095490D01*
X38113910Y-91095188D01*
X37844079Y-91073952D01*
X37540528Y-91050062D01*
X37540522Y-91050062D01*
X37538467Y-91049900D01*
X37242834Y-91046288D01*
X36963353Y-91042873D01*
X36963346Y-91042873D01*
X36961287Y-91042848D01*
X36384909Y-91074064D01*
X36382849Y-91074313D01*
X36382841Y-91074314D01*
X36211703Y-91095024D01*
X35811868Y-91143409D01*
X35809813Y-91143797D01*
X35809815Y-91143797D01*
X35246749Y-91250189D01*
X35246742Y-91250191D01*
X35244681Y-91250580D01*
X34685845Y-91395105D01*
X34683880Y-91395755D01*
X34139800Y-91575692D01*
X34139786Y-91575697D01*
X34137815Y-91576349D01*
X34135877Y-91577136D01*
X33604946Y-91792724D01*
X33604930Y-91792731D01*
X33603002Y-91793514D01*
X33601111Y-91794432D01*
X33601107Y-91794434D01*
X33419965Y-91882392D01*
X33083757Y-92045646D01*
X32582364Y-92331635D01*
X32580650Y-92332769D01*
X32580641Y-92332775D01*
X32412276Y-92444214D01*
X32101026Y-92650226D01*
X31641861Y-93000016D01*
X31206887Y-93379468D01*
X30798017Y-93786913D01*
X30796644Y-93788476D01*
X30796642Y-93788478D01*
X30658858Y-93945315D01*
X30417050Y-94220559D01*
X30415764Y-94222235D01*
X30242639Y-94447856D01*
X30065659Y-94678500D01*
X29745390Y-95158723D01*
X29744343Y-95160544D01*
X29458694Y-95657302D01*
X29458688Y-95657314D01*
X29457652Y-95659115D01*
X29203709Y-96177477D01*
X29202918Y-96179406D01*
X29202912Y-96179419D01*
X29124494Y-96370623D01*
X28984679Y-96711529D01*
X28801523Y-97258922D01*
X28655048Y-97817251D01*
X28545898Y-98384060D01*
X28545641Y-98386124D01*
X28545639Y-98386136D01*
X28519683Y-98594527D01*
X28474553Y-98956856D01*
X28441325Y-99533121D01*
X27026100Y-99533121D01*
X27026100Y-68889879D01*
X27046102Y-68821758D01*
X27063005Y-68800784D01*
X41330680Y-54533109D01*
X73441337Y-54533109D01*
X73446375Y-55110310D01*
X73489654Y-55685907D01*
X73570985Y-56257371D01*
X73690011Y-56822189D01*
X73846208Y-57377876D01*
X74038889Y-57921990D01*
X74039715Y-57923909D01*
X74039717Y-57923913D01*
X74063223Y-57978493D01*
X74267206Y-58452138D01*
X74530157Y-58965988D01*
X74826585Y-59461283D01*
X75155185Y-59935843D01*
X75286088Y-60100410D01*
X75513216Y-60385950D01*
X75513229Y-60385965D01*
X75514515Y-60387582D01*
X75902993Y-60814513D01*
X76318911Y-61214760D01*
X76760441Y-61586563D01*
X77225641Y-61928286D01*
X77469053Y-62083357D01*
X77710700Y-62237304D01*
X77710709Y-62237310D01*
X77712465Y-62238428D01*
X77714288Y-62239426D01*
X77714293Y-62239429D01*
X78216940Y-62514619D01*
X78218774Y-62515623D01*
X78220674Y-62516505D01*
X78220680Y-62516508D01*
X78717245Y-62747006D01*
X78742340Y-62758655D01*
X79280862Y-62966453D01*
X79282847Y-62967071D01*
X79282852Y-62967073D01*
X79515260Y-63039460D01*
X79831971Y-63138104D01*
X79898341Y-63154038D01*
X80391231Y-63272371D01*
X80391246Y-63272374D01*
X80393245Y-63272854D01*
X80395276Y-63273201D01*
X80395285Y-63273203D01*
X80960171Y-63369761D01*
X80960182Y-63369763D01*
X80962215Y-63370110D01*
X81123324Y-63386759D01*
X81534307Y-63429230D01*
X81534314Y-63429230D01*
X81536380Y-63429444D01*
X81538470Y-63429521D01*
X81538475Y-63429521D01*
X81695520Y-63435280D01*
X82113214Y-63450596D01*
X82449421Y-63440618D01*
X82688104Y-63433534D01*
X82688113Y-63433533D01*
X82690183Y-63433472D01*
X82804056Y-63422507D01*
X83262665Y-63378349D01*
X83262678Y-63378347D01*
X83264748Y-63378148D01*
X83549566Y-63331507D01*
X83832321Y-63285204D01*
X83832331Y-63285202D01*
X83834383Y-63284866D01*
X83836414Y-63284393D01*
X83836421Y-63284392D01*
X84012097Y-63243511D01*
X84396584Y-63154038D01*
X84948878Y-62986238D01*
X84950823Y-62985503D01*
X84950832Y-62985500D01*
X85189260Y-62895405D01*
X85488837Y-62782205D01*
X86014087Y-62542834D01*
X86522319Y-62269180D01*
X86761200Y-62119330D01*
X87009516Y-61963562D01*
X87009525Y-61963556D01*
X87011296Y-61962445D01*
X87126526Y-61879033D01*
X87477171Y-61625209D01*
X87477179Y-61625203D01*
X87478871Y-61623978D01*
X87564048Y-61553262D01*
X87921378Y-61256601D01*
X87921393Y-61256588D01*
X87922985Y-61255266D01*
X87924487Y-61253841D01*
X87924499Y-61253830D01*
X88340181Y-60859363D01*
X88341688Y-60857933D01*
X88733137Y-60433724D01*
X89095611Y-59984504D01*
X89427517Y-59512250D01*
X89727395Y-59019037D01*
X89755981Y-58964125D01*
X89992958Y-58508895D01*
X89993927Y-58507034D01*
X89994759Y-58505138D01*
X89994766Y-58505124D01*
X90225104Y-57980397D01*
X90225940Y-57978493D01*
X90247107Y-57920022D01*
X90421704Y-57437703D01*
X90421707Y-57437694D01*
X90422415Y-57435738D01*
X90439693Y-57375879D01*
X90581906Y-56883168D01*
X90581906Y-56883167D01*
X90582487Y-56881155D01*
X90705453Y-56317182D01*
X90790772Y-55746300D01*
X90838069Y-55171018D01*
X90848461Y-54745788D01*
X90829323Y-54168883D01*
X90829115Y-54166796D01*
X90772200Y-53596585D01*
X90772198Y-53596574D01*
X90771993Y-53594515D01*
X90771650Y-53592464D01*
X90677067Y-53027255D01*
X90677064Y-53027242D01*
X90676724Y-53025208D01*
X90628044Y-52819275D01*
X90544413Y-52465494D01*
X90544412Y-52465492D01*
X90543934Y-52463468D01*
X90374208Y-51911762D01*
X90168291Y-51372519D01*
X89927088Y-50848107D01*
X89824468Y-50659103D01*
X89652662Y-50342676D01*
X89651662Y-50340834D01*
X89343221Y-49852930D01*
X89003124Y-49386540D01*
X88632865Y-48943715D01*
X88484506Y-48788466D01*
X88235516Y-48527914D01*
X88235515Y-48527913D01*
X88234072Y-48526403D01*
X87808499Y-48136437D01*
X87358017Y-47775533D01*
X86884607Y-47445277D01*
X86882840Y-47444211D01*
X86882826Y-47444202D01*
X86392139Y-47148201D01*
X86392126Y-47148194D01*
X86390351Y-47147123D01*
X85877421Y-46882380D01*
X85348073Y-46652213D01*
X85346104Y-46651508D01*
X85346099Y-46651506D01*
X84806624Y-46458346D01*
X84806620Y-46458345D01*
X84804635Y-46457634D01*
X84249496Y-46299499D01*
X83685098Y-46178502D01*
X83683034Y-46178201D01*
X83683029Y-46178200D01*
X83116002Y-46095479D01*
X83115989Y-46095478D01*
X83113922Y-46095176D01*
X82844091Y-46073940D01*
X82540540Y-46050050D01*
X82540534Y-46050050D01*
X82538479Y-46049888D01*
X82242846Y-46046276D01*
X81963365Y-46042861D01*
X81963358Y-46042861D01*
X81961299Y-46042836D01*
X81384921Y-46074052D01*
X81382861Y-46074301D01*
X81382853Y-46074302D01*
X81211715Y-46095012D01*
X80811880Y-46143397D01*
X80809825Y-46143785D01*
X80809827Y-46143785D01*
X80246761Y-46250177D01*
X80246754Y-46250179D01*
X80244693Y-46250568D01*
X79685857Y-46395093D01*
X79683892Y-46395743D01*
X79139812Y-46575680D01*
X79139798Y-46575685D01*
X79137827Y-46576337D01*
X79135889Y-46577124D01*
X78604958Y-46792712D01*
X78604942Y-46792719D01*
X78603014Y-46793502D01*
X78601123Y-46794420D01*
X78601119Y-46794422D01*
X78419977Y-46882380D01*
X78083769Y-47045634D01*
X77582376Y-47331623D01*
X77580662Y-47332757D01*
X77580653Y-47332763D01*
X77412288Y-47444202D01*
X77101038Y-47650214D01*
X76641873Y-48000004D01*
X76206899Y-48379456D01*
X75798029Y-48786901D01*
X75796656Y-48788464D01*
X75796654Y-48788466D01*
X75658870Y-48945303D01*
X75417062Y-49220547D01*
X75415776Y-49222223D01*
X75290906Y-49384957D01*
X75065671Y-49678488D01*
X74745402Y-50158711D01*
X74744355Y-50160532D01*
X74458706Y-50657290D01*
X74458700Y-50657302D01*
X74457664Y-50659103D01*
X74203721Y-51177465D01*
X74202930Y-51179394D01*
X74202924Y-51179407D01*
X74124506Y-51370611D01*
X73984691Y-51711517D01*
X73801535Y-52258910D01*
X73655060Y-52817239D01*
X73545910Y-53384048D01*
X73545653Y-53386112D01*
X73545651Y-53386124D01*
X73519695Y-53594515D01*
X73474565Y-53956844D01*
X73441337Y-54533109D01*
X41330680Y-54533109D01*
X51198584Y-44665205D01*
X51260896Y-44631179D01*
X51287679Y-44628300D01*
X137135100Y-44628300D01*
X137203221Y-44648302D01*
G37*
G04 #@! TD.AperFunction*
G04 #@! TD*
M02*
