G04 #@! TF.GenerationSoftware,KiCad,Pcbnew,6.0.4-6f826c9f35~116~ubuntu20.04.1*
G04 #@! TF.CreationDate,2022-04-28T21:29:12-04:00*
G04 #@! TF.ProjectId,LWA Active Test 2022,4c574120-4163-4746-9976-652054657374,1.1*
G04 #@! TF.SameCoordinates,Original*
G04 #@! TF.FileFunction,Legend,Top*
G04 #@! TF.FilePolarity,Positive*
%FSLAX46Y46*%
G04 Gerber Fmt 4.6, Leading zero omitted, Abs format (unit mm)*
G04 Created by KiCad (PCBNEW 6.0.4-6f826c9f35~116~ubuntu20.04.1) date 2022-04-28 21:29:12*
%MOMM*%
%LPD*%
G01*
G04 APERTURE LIST*
%ADD10C,0.150000*%
%ADD11C,0.254000*%
%ADD12C,0.100000*%
%ADD13C,0.120000*%
G04 APERTURE END LIST*
D10*
X64236600Y-124129800D02*
X70332600Y-118033800D01*
D11*
X105797960Y-81457800D02*
X100050600Y-87205160D01*
X60045600Y-128383980D02*
X60045600Y-122097800D01*
X55555470Y-123893850D02*
X51514360Y-127934970D01*
D10*
X58140600Y-118033800D02*
X64236600Y-111937800D01*
X70332600Y-118033800D02*
X64236600Y-111937800D01*
D12*
G36*
X59029600Y-125907800D02*
G01*
X58249550Y-126587930D01*
X55555470Y-123893850D01*
X56235600Y-123113800D01*
X59029600Y-125907800D01*
G37*
X59029600Y-125907800D02*
X58249550Y-126587930D01*
X55555470Y-123893850D01*
X56235600Y-123113800D01*
X59029600Y-125907800D01*
D10*
X58140600Y-118033800D02*
X64236600Y-124129800D01*
D11*
X60045600Y-128383980D02*
X58249550Y-126587930D01*
X105797960Y-81457800D02*
X100050600Y-75710440D01*
D12*
G36*
X60045600Y-128383980D02*
G01*
X58249550Y-126587930D01*
X59029600Y-125907800D01*
X56235600Y-123113800D01*
X55555470Y-123893850D01*
X53759420Y-122097800D01*
X60045600Y-122097800D01*
X60045600Y-128383980D01*
G37*
X60045600Y-128383980D02*
X58249550Y-126587930D01*
X59029600Y-125907800D01*
X56235600Y-123113800D01*
X55555470Y-123893850D01*
X53759420Y-122097800D01*
X60045600Y-122097800D01*
X60045600Y-128383980D01*
D11*
X100050600Y-87205160D02*
X94303240Y-81457800D01*
X100050600Y-75710440D02*
X94303240Y-81457800D01*
X58249550Y-126587930D02*
X54208430Y-130629040D01*
X55555470Y-123893850D02*
X53759420Y-122097800D01*
X54208430Y-130629040D02*
X51514360Y-127934970D01*
D12*
G36*
X58249550Y-126587930D02*
G01*
X54208430Y-130629040D01*
X51514360Y-127934970D01*
X55555470Y-123893850D01*
X58249550Y-126587930D01*
G37*
X58249550Y-126587930D02*
X54208430Y-130629040D01*
X51514360Y-127934970D01*
X55555470Y-123893850D01*
X58249550Y-126587930D01*
D11*
X60045600Y-122097800D02*
X53759420Y-122097800D01*
D12*
X53167933Y-100592466D02*
X54861266Y-100592466D01*
X52829266Y-101608466D02*
X54014600Y-98052466D01*
X55199933Y-101608466D01*
X123949266Y-64185800D02*
X123779933Y-64101133D01*
X123525933Y-64101133D01*
X123271933Y-64185800D01*
X123102600Y-64355133D01*
X123017933Y-64524466D01*
X122933266Y-64863133D01*
X122933266Y-65117133D01*
X123017933Y-65455800D01*
X123102600Y-65625133D01*
X123271933Y-65794466D01*
X123525933Y-65879133D01*
X123695266Y-65879133D01*
X123949266Y-65794466D01*
X124033933Y-65709800D01*
X124033933Y-65117133D01*
X123695266Y-65117133D01*
X124795933Y-65879133D02*
X124795933Y-64101133D01*
X125811933Y-65879133D01*
X125811933Y-64101133D01*
X126658600Y-65879133D02*
X126658600Y-64101133D01*
X127081933Y-64101133D01*
X127335933Y-64185800D01*
X127505266Y-64355133D01*
X127589933Y-64524466D01*
X127674600Y-64863133D01*
X127674600Y-65117133D01*
X127589933Y-65455800D01*
X127505266Y-65625133D01*
X127335933Y-65794466D01*
X127081933Y-65879133D01*
X126658600Y-65879133D01*
X64513266Y-73231172D02*
X64343933Y-73146505D01*
X64089933Y-73146505D01*
X63835933Y-73231172D01*
X63666600Y-73400505D01*
X63581933Y-73569838D01*
X63497266Y-73908505D01*
X63497266Y-74162505D01*
X63581933Y-74501172D01*
X63666600Y-74670505D01*
X63835933Y-74839838D01*
X64089933Y-74924505D01*
X64259266Y-74924505D01*
X64513266Y-74839838D01*
X64597933Y-74755172D01*
X64597933Y-74162505D01*
X64259266Y-74162505D01*
X65359933Y-74924505D02*
X65359933Y-73146505D01*
X66375933Y-74924505D01*
X66375933Y-73146505D01*
X67222600Y-74924505D02*
X67222600Y-73146505D01*
X67645933Y-73146505D01*
X67899933Y-73231172D01*
X68069266Y-73400505D01*
X68153933Y-73569838D01*
X68238600Y-73908505D01*
X68238600Y-74162505D01*
X68153933Y-74501172D01*
X68069266Y-74670505D01*
X67899933Y-74839838D01*
X67645933Y-74924505D01*
X67222600Y-74924505D01*
X110910600Y-99745800D02*
X111418600Y-99915133D01*
X111587933Y-100084466D01*
X111757266Y-100423133D01*
X111757266Y-100931133D01*
X111587933Y-101269800D01*
X111418600Y-101439133D01*
X111079933Y-101608466D01*
X109725266Y-101608466D01*
X109725266Y-98052466D01*
X110910600Y-98052466D01*
X111249266Y-98221800D01*
X111418600Y-98391133D01*
X111587933Y-98729800D01*
X111587933Y-99068466D01*
X111418600Y-99407133D01*
X111249266Y-99576466D01*
X110910600Y-99745800D01*
X109725266Y-99745800D01*
X29454257Y-145560142D02*
X29333305Y-145681095D01*
X28970448Y-145802047D01*
X28728543Y-145802047D01*
X28365686Y-145681095D01*
X28123781Y-145439190D01*
X28002829Y-145197285D01*
X27881876Y-144713476D01*
X27881876Y-144350619D01*
X28002829Y-143866809D01*
X28123781Y-143624904D01*
X28365686Y-143383000D01*
X28728543Y-143262047D01*
X28970448Y-143262047D01*
X29333305Y-143383000D01*
X29454257Y-143503952D01*
X30421876Y-145076333D02*
X31631400Y-145076333D01*
X30179972Y-145802047D02*
X31026638Y-143262047D01*
X31873305Y-145802047D01*
X33929496Y-145802047D02*
X32719972Y-145802047D01*
X32719972Y-143262047D01*
X36348543Y-143262047D02*
X37799972Y-143262047D01*
X37074257Y-145802047D02*
X37074257Y-143262047D01*
X38646638Y-144471571D02*
X39493305Y-144471571D01*
X39856162Y-145802047D02*
X38646638Y-145802047D01*
X38646638Y-143262047D01*
X39856162Y-143262047D01*
X40823781Y-145681095D02*
X41186638Y-145802047D01*
X41791400Y-145802047D01*
X42033305Y-145681095D01*
X42154257Y-145560142D01*
X42275210Y-145318238D01*
X42275210Y-145076333D01*
X42154257Y-144834428D01*
X42033305Y-144713476D01*
X41791400Y-144592523D01*
X41307591Y-144471571D01*
X41065686Y-144350619D01*
X40944734Y-144229666D01*
X40823781Y-143987761D01*
X40823781Y-143745857D01*
X40944734Y-143503952D01*
X41065686Y-143383000D01*
X41307591Y-143262047D01*
X41912353Y-143262047D01*
X42275210Y-143383000D01*
X43000924Y-143262047D02*
X44452353Y-143262047D01*
X43726638Y-145802047D02*
X43726638Y-143262047D01*
X48080924Y-144471571D02*
X47234257Y-144471571D01*
X47234257Y-145802047D02*
X47234257Y-143262047D01*
X48443781Y-143262047D01*
X49411400Y-145802047D02*
X49411400Y-143262047D01*
X50379019Y-143262047D02*
X52072353Y-145802047D01*
X52072353Y-143262047D02*
X50379019Y-145802047D01*
X52677115Y-143262047D02*
X54128543Y-143262047D01*
X53402829Y-145802047D02*
X53402829Y-143262047D01*
X54975210Y-143262047D02*
X54975210Y-145318238D01*
X55096162Y-145560142D01*
X55217115Y-145681095D01*
X55459019Y-145802047D01*
X55942829Y-145802047D01*
X56184734Y-145681095D01*
X56305686Y-145560142D01*
X56426638Y-145318238D01*
X56426638Y-143262047D01*
X59087591Y-145802047D02*
X58240924Y-144592523D01*
X57636162Y-145802047D02*
X57636162Y-143262047D01*
X58603781Y-143262047D01*
X58845686Y-143383000D01*
X58966638Y-143503952D01*
X59087591Y-143745857D01*
X59087591Y-144108714D01*
X58966638Y-144350619D01*
X58845686Y-144471571D01*
X58603781Y-144592523D01*
X57636162Y-144592523D01*
X60176162Y-144471571D02*
X61022829Y-144471571D01*
X61385686Y-145802047D02*
X60176162Y-145802047D01*
X60176162Y-143262047D01*
X61385686Y-143262047D01*
X115948266Y-124482428D02*
X115778933Y-124397761D01*
X115524933Y-124397761D01*
X115270933Y-124482428D01*
X115101600Y-124651761D01*
X115016933Y-124821094D01*
X114932266Y-125159761D01*
X114932266Y-125413761D01*
X115016933Y-125752428D01*
X115101600Y-125921761D01*
X115270933Y-126091094D01*
X115524933Y-126175761D01*
X115694266Y-126175761D01*
X115948266Y-126091094D01*
X116032933Y-126006428D01*
X116032933Y-125413761D01*
X115694266Y-125413761D01*
X116794933Y-126175761D02*
X116794933Y-124397761D01*
X117810933Y-126175761D01*
X117810933Y-124397761D01*
X118657600Y-126175761D02*
X118657600Y-124397761D01*
X119080933Y-124397761D01*
X119334933Y-124482428D01*
X119504266Y-124651761D01*
X119588933Y-124821094D01*
X119673600Y-125159761D01*
X119673600Y-125413761D01*
X119588933Y-125752428D01*
X119504266Y-125921761D01*
X119334933Y-126091094D01*
X119080933Y-126175761D01*
X118657600Y-126175761D01*
X62694955Y-118699338D02*
X62694955Y-118870391D01*
X62523902Y-119212496D01*
X62352850Y-119383548D01*
X62010745Y-119554601D01*
X61668640Y-119554601D01*
X61412061Y-119469074D01*
X60984430Y-119212496D01*
X60727851Y-118955917D01*
X60471272Y-118528286D01*
X60385746Y-118271707D01*
X60385746Y-117929602D01*
X60556798Y-117587497D01*
X60727851Y-117416444D01*
X61069956Y-117245392D01*
X61241008Y-117245392D01*
X61839692Y-116304603D02*
X63293638Y-117758549D01*
X63550217Y-117844076D01*
X63721270Y-117844076D01*
X63977848Y-117758549D01*
X64319953Y-117416444D01*
X64405480Y-117159866D01*
X64405480Y-116988813D01*
X64319953Y-116732234D01*
X62866007Y-115278288D01*
X63464691Y-114679605D02*
X64491006Y-113653290D01*
X65773899Y-115962498D02*
X63977848Y-114166447D01*
X68478085Y-169258342D02*
X68478085Y-166972342D01*
X69022371Y-166972342D01*
X69348942Y-167081200D01*
X69566657Y-167298914D01*
X69675514Y-167516628D01*
X69784371Y-167952057D01*
X69784371Y-168278628D01*
X69675514Y-168714057D01*
X69566657Y-168931771D01*
X69348942Y-169149485D01*
X69022371Y-169258342D01*
X68478085Y-169258342D01*
X70764085Y-169258342D02*
X70764085Y-167734342D01*
X70764085Y-166972342D02*
X70655228Y-167081200D01*
X70764085Y-167190057D01*
X70872942Y-167081200D01*
X70764085Y-166972342D01*
X70764085Y-167190057D01*
X71852657Y-169258342D02*
X71852657Y-167734342D01*
X71852657Y-167952057D02*
X71961514Y-167843200D01*
X72179228Y-167734342D01*
X72505800Y-167734342D01*
X72723514Y-167843200D01*
X72832371Y-168060914D01*
X72832371Y-169258342D01*
X72832371Y-168060914D02*
X72941228Y-167843200D01*
X73158942Y-167734342D01*
X73485514Y-167734342D01*
X73703228Y-167843200D01*
X73812085Y-168060914D01*
X73812085Y-169258342D01*
X75771514Y-169149485D02*
X75553800Y-169258342D01*
X75118371Y-169258342D01*
X74900657Y-169149485D01*
X74791800Y-168931771D01*
X74791800Y-168060914D01*
X74900657Y-167843200D01*
X75118371Y-167734342D01*
X75553800Y-167734342D01*
X75771514Y-167843200D01*
X75880371Y-168060914D01*
X75880371Y-168278628D01*
X74791800Y-168496342D01*
X76860085Y-167734342D02*
X76860085Y-169258342D01*
X76860085Y-167952057D02*
X76968942Y-167843200D01*
X77186657Y-167734342D01*
X77513228Y-167734342D01*
X77730942Y-167843200D01*
X77839800Y-168060914D01*
X77839800Y-169258342D01*
X78819514Y-169149485D02*
X79037228Y-169258342D01*
X79472657Y-169258342D01*
X79690371Y-169149485D01*
X79799228Y-168931771D01*
X79799228Y-168822914D01*
X79690371Y-168605200D01*
X79472657Y-168496342D01*
X79146085Y-168496342D01*
X78928371Y-168387485D01*
X78819514Y-168169771D01*
X78819514Y-168060914D01*
X78928371Y-167843200D01*
X79146085Y-167734342D01*
X79472657Y-167734342D01*
X79690371Y-167843200D01*
X80778942Y-169258342D02*
X80778942Y-167734342D01*
X80778942Y-166972342D02*
X80670085Y-167081200D01*
X80778942Y-167190057D01*
X80887800Y-167081200D01*
X80778942Y-166972342D01*
X80778942Y-167190057D01*
X82194085Y-169258342D02*
X81976371Y-169149485D01*
X81867514Y-169040628D01*
X81758657Y-168822914D01*
X81758657Y-168169771D01*
X81867514Y-167952057D01*
X81976371Y-167843200D01*
X82194085Y-167734342D01*
X82520657Y-167734342D01*
X82738371Y-167843200D01*
X82847228Y-167952057D01*
X82956085Y-168169771D01*
X82956085Y-168822914D01*
X82847228Y-169040628D01*
X82738371Y-169149485D01*
X82520657Y-169258342D01*
X82194085Y-169258342D01*
X83935800Y-167734342D02*
X83935800Y-169258342D01*
X83935800Y-167952057D02*
X84044657Y-167843200D01*
X84262371Y-167734342D01*
X84588942Y-167734342D01*
X84806657Y-167843200D01*
X84915514Y-168060914D01*
X84915514Y-169258342D01*
X85895228Y-169149485D02*
X86112942Y-169258342D01*
X86548371Y-169258342D01*
X86766085Y-169149485D01*
X86874942Y-168931771D01*
X86874942Y-168822914D01*
X86766085Y-168605200D01*
X86548371Y-168496342D01*
X86221800Y-168496342D01*
X86004085Y-168387485D01*
X85895228Y-168169771D01*
X85895228Y-168060914D01*
X86004085Y-167843200D01*
X86221800Y-167734342D01*
X86548371Y-167734342D01*
X86766085Y-167843200D01*
X89596371Y-169258342D02*
X89596371Y-167734342D01*
X89596371Y-166972342D02*
X89487514Y-167081200D01*
X89596371Y-167190057D01*
X89705228Y-167081200D01*
X89596371Y-166972342D01*
X89596371Y-167190057D01*
X90684942Y-167734342D02*
X90684942Y-169258342D01*
X90684942Y-167952057D02*
X90793800Y-167843200D01*
X91011514Y-167734342D01*
X91338085Y-167734342D01*
X91555800Y-167843200D01*
X91664657Y-168060914D01*
X91664657Y-169258342D01*
X94494942Y-169258342D02*
X94494942Y-166972342D01*
X95256942Y-168605200D01*
X96018942Y-166972342D01*
X96018942Y-169258342D01*
X97107514Y-169258342D02*
X97107514Y-167734342D01*
X97107514Y-166972342D02*
X96998657Y-167081200D01*
X97107514Y-167190057D01*
X97216371Y-167081200D01*
X97107514Y-166972342D01*
X97107514Y-167190057D01*
X98522657Y-169258342D02*
X98304942Y-169149485D01*
X98196085Y-168931771D01*
X98196085Y-166972342D01*
X99284657Y-169149485D02*
X99502371Y-169258342D01*
X99937800Y-169258342D01*
X100155514Y-169149485D01*
X100264371Y-168931771D01*
X100264371Y-168822914D01*
X100155514Y-168605200D01*
X99937800Y-168496342D01*
X99611228Y-168496342D01*
X99393514Y-168387485D01*
X99284657Y-168169771D01*
X99284657Y-168060914D01*
X99393514Y-167843200D01*
X99611228Y-167734342D01*
X99937800Y-167734342D01*
X100155514Y-167843200D01*
X70488314Y-173423942D02*
X69182028Y-173423942D01*
X69835171Y-173423942D02*
X69835171Y-171137942D01*
X69617457Y-171464514D01*
X69399742Y-171682228D01*
X69182028Y-171791085D01*
X73209742Y-173423942D02*
X73209742Y-171899942D01*
X73209742Y-172117657D02*
X73318600Y-172008800D01*
X73536314Y-171899942D01*
X73862885Y-171899942D01*
X74080600Y-172008800D01*
X74189457Y-172226514D01*
X74189457Y-173423942D01*
X74189457Y-172226514D02*
X74298314Y-172008800D01*
X74516028Y-171899942D01*
X74842600Y-171899942D01*
X75060314Y-172008800D01*
X75169171Y-172226514D01*
X75169171Y-173423942D01*
X76257742Y-173423942D02*
X76257742Y-171899942D01*
X76257742Y-171137942D02*
X76148885Y-171246800D01*
X76257742Y-171355657D01*
X76366600Y-171246800D01*
X76257742Y-171137942D01*
X76257742Y-171355657D01*
X77672885Y-173423942D02*
X77455171Y-173315085D01*
X77346314Y-173097371D01*
X77346314Y-171137942D01*
X80285457Y-172226514D02*
X82027171Y-172226514D01*
X82027171Y-172879657D02*
X80285457Y-172879657D01*
X85292885Y-171137942D02*
X85510600Y-171137942D01*
X85728314Y-171246800D01*
X85837171Y-171355657D01*
X85946028Y-171573371D01*
X86054885Y-172008800D01*
X86054885Y-172553085D01*
X85946028Y-172988514D01*
X85837171Y-173206228D01*
X85728314Y-173315085D01*
X85510600Y-173423942D01*
X85292885Y-173423942D01*
X85075171Y-173315085D01*
X84966314Y-173206228D01*
X84857457Y-172988514D01*
X84748600Y-172553085D01*
X84748600Y-172008800D01*
X84857457Y-171573371D01*
X84966314Y-171355657D01*
X85075171Y-171246800D01*
X85292885Y-171137942D01*
X87034600Y-173206228D02*
X87143457Y-173315085D01*
X87034600Y-173423942D01*
X86925742Y-173315085D01*
X87034600Y-173206228D01*
X87034600Y-173423942D01*
X88558600Y-171137942D02*
X88776314Y-171137942D01*
X88994028Y-171246800D01*
X89102885Y-171355657D01*
X89211742Y-171573371D01*
X89320600Y-172008800D01*
X89320600Y-172553085D01*
X89211742Y-172988514D01*
X89102885Y-173206228D01*
X88994028Y-173315085D01*
X88776314Y-173423942D01*
X88558600Y-173423942D01*
X88340885Y-173315085D01*
X88232028Y-173206228D01*
X88123171Y-172988514D01*
X88014314Y-172553085D01*
X88014314Y-172008800D01*
X88123171Y-171573371D01*
X88232028Y-171355657D01*
X88340885Y-171246800D01*
X88558600Y-171137942D01*
X90735742Y-171137942D02*
X90953457Y-171137942D01*
X91171171Y-171246800D01*
X91280028Y-171355657D01*
X91388885Y-171573371D01*
X91497742Y-172008800D01*
X91497742Y-172553085D01*
X91388885Y-172988514D01*
X91280028Y-173206228D01*
X91171171Y-173315085D01*
X90953457Y-173423942D01*
X90735742Y-173423942D01*
X90518028Y-173315085D01*
X90409171Y-173206228D01*
X90300314Y-172988514D01*
X90191457Y-172553085D01*
X90191457Y-172008800D01*
X90300314Y-171573371D01*
X90409171Y-171355657D01*
X90518028Y-171246800D01*
X90735742Y-171137942D01*
X93674885Y-173423942D02*
X92368600Y-173423942D01*
X93021742Y-173423942D02*
X93021742Y-171137942D01*
X92804028Y-171464514D01*
X92586314Y-171682228D01*
X92368600Y-171791085D01*
X96396314Y-173423942D02*
X96396314Y-171899942D01*
X96396314Y-171137942D02*
X96287457Y-171246800D01*
X96396314Y-171355657D01*
X96505171Y-171246800D01*
X96396314Y-171137942D01*
X96396314Y-171355657D01*
X97484885Y-171899942D02*
X97484885Y-173423942D01*
X97484885Y-172117657D02*
X97593742Y-172008800D01*
X97811457Y-171899942D01*
X98138028Y-171899942D01*
X98355742Y-172008800D01*
X98464600Y-172226514D01*
X98464600Y-173423942D01*
X100532885Y-173315085D02*
X100315171Y-173423942D01*
X99879742Y-173423942D01*
X99662028Y-173315085D01*
X99553171Y-173206228D01*
X99444314Y-172988514D01*
X99444314Y-172335371D01*
X99553171Y-172117657D01*
X99662028Y-172008800D01*
X99879742Y-171899942D01*
X100315171Y-171899942D01*
X100532885Y-172008800D01*
X101512600Y-173423942D02*
X101512600Y-171137942D01*
X102492314Y-173423942D02*
X102492314Y-172226514D01*
X102383457Y-172008800D01*
X102165742Y-171899942D01*
X101839171Y-171899942D01*
X101621457Y-172008800D01*
X101512600Y-172117657D01*
X41831695Y-142423847D02*
X40622171Y-142423847D01*
X40622171Y-139883847D01*
X42436457Y-139883847D02*
X43041219Y-142423847D01*
X43525028Y-140609561D01*
X44008838Y-142423847D01*
X44613600Y-139883847D01*
X45460266Y-141698133D02*
X46669790Y-141698133D01*
X45218361Y-142423847D02*
X46065028Y-139883847D01*
X46911695Y-142423847D01*
X62671746Y-120171549D02*
X63013851Y-119829444D01*
X63270430Y-119743918D01*
X63612535Y-119743918D01*
X64040166Y-120000497D01*
X64638850Y-120599181D01*
X64895428Y-121026812D01*
X64895428Y-121368917D01*
X64809902Y-121625496D01*
X64467797Y-121967601D01*
X64211218Y-122053127D01*
X63869113Y-122053127D01*
X63441482Y-121796548D01*
X62842798Y-121197864D01*
X62586220Y-120770233D01*
X62586220Y-120428128D01*
X62671746Y-120171549D01*
X64211218Y-118632077D02*
X65665165Y-120086023D01*
X65921743Y-120171549D01*
X66092796Y-120171549D01*
X66349375Y-120086023D01*
X66691480Y-119743918D01*
X66777006Y-119487339D01*
X66777006Y-119316287D01*
X66691480Y-119059708D01*
X65237533Y-117605762D01*
X65836217Y-117007078D02*
X66862532Y-115980763D01*
X68145426Y-118289972D02*
X66349375Y-116493921D01*
X66787171Y-174935847D02*
X67029076Y-174935847D01*
X67270980Y-175056800D01*
X67391933Y-175177752D01*
X67512885Y-175419657D01*
X67633838Y-175903466D01*
X67633838Y-176508228D01*
X67512885Y-176992038D01*
X67391933Y-177233942D01*
X67270980Y-177354895D01*
X67029076Y-177475847D01*
X66787171Y-177475847D01*
X66545266Y-177354895D01*
X66424314Y-177233942D01*
X66303361Y-176992038D01*
X66182409Y-176508228D01*
X66182409Y-175903466D01*
X66303361Y-175419657D01*
X66424314Y-175177752D01*
X66545266Y-175056800D01*
X66787171Y-174935847D01*
X68722409Y-177233942D02*
X68843361Y-177354895D01*
X68722409Y-177475847D01*
X68601457Y-177354895D01*
X68722409Y-177233942D01*
X68722409Y-177475847D01*
X69810980Y-175177752D02*
X69931933Y-175056800D01*
X70173838Y-174935847D01*
X70778600Y-174935847D01*
X71020504Y-175056800D01*
X71141457Y-175177752D01*
X71262409Y-175419657D01*
X71262409Y-175661561D01*
X71141457Y-176024419D01*
X69690028Y-177475847D01*
X71262409Y-177475847D01*
X72713838Y-176024419D02*
X72471933Y-175903466D01*
X72350980Y-175782514D01*
X72230028Y-175540609D01*
X72230028Y-175419657D01*
X72350980Y-175177752D01*
X72471933Y-175056800D01*
X72713838Y-174935847D01*
X73197647Y-174935847D01*
X73439552Y-175056800D01*
X73560504Y-175177752D01*
X73681457Y-175419657D01*
X73681457Y-175540609D01*
X73560504Y-175782514D01*
X73439552Y-175903466D01*
X73197647Y-176024419D01*
X72713838Y-176024419D01*
X72471933Y-176145371D01*
X72350980Y-176266323D01*
X72230028Y-176508228D01*
X72230028Y-176992038D01*
X72350980Y-177233942D01*
X72471933Y-177354895D01*
X72713838Y-177475847D01*
X73197647Y-177475847D01*
X73439552Y-177354895D01*
X73560504Y-177233942D01*
X73681457Y-176992038D01*
X73681457Y-176508228D01*
X73560504Y-176266323D01*
X73439552Y-176145371D01*
X73197647Y-176024419D01*
X75253838Y-174935847D02*
X75495742Y-174935847D01*
X75737647Y-175056800D01*
X75858600Y-175177752D01*
X75979552Y-175419657D01*
X76100504Y-175903466D01*
X76100504Y-176508228D01*
X75979552Y-176992038D01*
X75858600Y-177233942D01*
X75737647Y-177354895D01*
X75495742Y-177475847D01*
X75253838Y-177475847D01*
X75011933Y-177354895D01*
X74890980Y-177233942D01*
X74770028Y-176992038D01*
X74649076Y-176508228D01*
X74649076Y-175903466D01*
X74770028Y-175419657D01*
X74890980Y-175177752D01*
X75011933Y-175056800D01*
X75253838Y-174935847D01*
X79124314Y-177475847D02*
X79124314Y-174935847D01*
X80333838Y-175782514D02*
X80333838Y-177475847D01*
X80333838Y-176024419D02*
X80454790Y-175903466D01*
X80696695Y-175782514D01*
X81059552Y-175782514D01*
X81301457Y-175903466D01*
X81422409Y-176145371D01*
X81422409Y-177475847D01*
X83720504Y-177354895D02*
X83478600Y-177475847D01*
X82994790Y-177475847D01*
X82752885Y-177354895D01*
X82631933Y-177233942D01*
X82510980Y-176992038D01*
X82510980Y-176266323D01*
X82631933Y-176024419D01*
X82752885Y-175903466D01*
X82994790Y-175782514D01*
X83478600Y-175782514D01*
X83720504Y-175903466D01*
X84809076Y-177475847D02*
X84809076Y-174935847D01*
X85897647Y-177475847D02*
X85897647Y-176145371D01*
X85776695Y-175903466D01*
X85534790Y-175782514D01*
X85171933Y-175782514D01*
X84930028Y-175903466D01*
X84809076Y-176024419D01*
X88074790Y-177354895D02*
X87832885Y-177475847D01*
X87349076Y-177475847D01*
X87107171Y-177354895D01*
X86986219Y-177112990D01*
X86986219Y-176145371D01*
X87107171Y-175903466D01*
X87349076Y-175782514D01*
X87832885Y-175782514D01*
X88074790Y-175903466D01*
X88195742Y-176145371D01*
X88195742Y-176387276D01*
X86986219Y-176629180D01*
X89163361Y-177354895D02*
X89405266Y-177475847D01*
X89889076Y-177475847D01*
X90130980Y-177354895D01*
X90251933Y-177112990D01*
X90251933Y-176992038D01*
X90130980Y-176750133D01*
X89889076Y-176629180D01*
X89526219Y-176629180D01*
X89284314Y-176508228D01*
X89163361Y-176266323D01*
X89163361Y-176145371D01*
X89284314Y-175903466D01*
X89526219Y-175782514D01*
X89889076Y-175782514D01*
X90130980Y-175903466D01*
X93275742Y-177475847D02*
X93275742Y-174935847D01*
X93880504Y-174935847D01*
X94243361Y-175056800D01*
X94485266Y-175298704D01*
X94606219Y-175540609D01*
X94727171Y-176024419D01*
X94727171Y-176387276D01*
X94606219Y-176871085D01*
X94485266Y-177112990D01*
X94243361Y-177354895D01*
X93880504Y-177475847D01*
X93275742Y-177475847D01*
X95815742Y-177475847D02*
X95815742Y-175782514D01*
X95815742Y-174935847D02*
X95694790Y-175056800D01*
X95815742Y-175177752D01*
X95936695Y-175056800D01*
X95815742Y-174935847D01*
X95815742Y-175177752D01*
X98113838Y-177475847D02*
X98113838Y-176145371D01*
X97992885Y-175903466D01*
X97750980Y-175782514D01*
X97267171Y-175782514D01*
X97025266Y-175903466D01*
X98113838Y-177354895D02*
X97871933Y-177475847D01*
X97267171Y-177475847D01*
X97025266Y-177354895D01*
X96904314Y-177112990D01*
X96904314Y-176871085D01*
X97025266Y-176629180D01*
X97267171Y-176508228D01*
X97871933Y-176508228D01*
X98113838Y-176387276D01*
X99323361Y-177233942D02*
X99444314Y-177354895D01*
X99323361Y-177475847D01*
X99202409Y-177354895D01*
X99323361Y-177233942D01*
X99323361Y-177475847D01*
X103556695Y-175782514D02*
X103556695Y-177475847D01*
X102951933Y-174814895D02*
X102347171Y-176629180D01*
X103919552Y-176629180D01*
X106822409Y-177475847D02*
X106822409Y-174935847D01*
X107790028Y-174935847D01*
X108031933Y-175056800D01*
X108152885Y-175177752D01*
X108273838Y-175419657D01*
X108273838Y-175782514D01*
X108152885Y-176024419D01*
X108031933Y-176145371D01*
X107790028Y-176266323D01*
X106822409Y-176266323D01*
X110571933Y-177475847D02*
X109362409Y-177475847D01*
X109362409Y-174935847D01*
X97811695Y-147101680D02*
X97811695Y-148438204D01*
X97890314Y-148595442D01*
X97968933Y-148674061D01*
X98126171Y-148752680D01*
X98440647Y-148752680D01*
X98597885Y-148674061D01*
X98676504Y-148595442D01*
X98755123Y-148438204D01*
X98755123Y-147101680D01*
X99541314Y-148595442D02*
X99619933Y-148674061D01*
X99541314Y-148752680D01*
X99462695Y-148674061D01*
X99541314Y-148595442D01*
X99541314Y-148752680D01*
X100248885Y-148674061D02*
X100484742Y-148752680D01*
X100877838Y-148752680D01*
X101035076Y-148674061D01*
X101113695Y-148595442D01*
X101192314Y-148438204D01*
X101192314Y-148280966D01*
X101113695Y-148123728D01*
X101035076Y-148045109D01*
X100877838Y-147966490D01*
X100563361Y-147887871D01*
X100406123Y-147809252D01*
X100327504Y-147730633D01*
X100248885Y-147573395D01*
X100248885Y-147416157D01*
X100327504Y-147258919D01*
X100406123Y-147180300D01*
X100563361Y-147101680D01*
X100956457Y-147101680D01*
X101192314Y-147180300D01*
X101899885Y-148595442D02*
X101978504Y-148674061D01*
X101899885Y-148752680D01*
X101821266Y-148674061D01*
X101899885Y-148595442D01*
X101899885Y-148752680D01*
X103943980Y-148752680D02*
X103943980Y-147101680D01*
X104887409Y-148752680D01*
X104887409Y-147101680D01*
X105594980Y-148280966D02*
X106381171Y-148280966D01*
X105437742Y-148752680D02*
X105988076Y-147101680D01*
X106538409Y-148752680D01*
X106852885Y-147101680D02*
X107403219Y-148752680D01*
X107953552Y-147101680D01*
X108425266Y-148280966D02*
X109211457Y-148280966D01*
X108268028Y-148752680D02*
X108818361Y-147101680D01*
X109368695Y-148752680D01*
X110705219Y-148752680D02*
X109919028Y-148752680D01*
X109919028Y-147101680D01*
X113456885Y-148752680D02*
X112906552Y-147966490D01*
X112513457Y-148752680D02*
X112513457Y-147101680D01*
X113142409Y-147101680D01*
X113299647Y-147180300D01*
X113378266Y-147258919D01*
X113456885Y-147416157D01*
X113456885Y-147652014D01*
X113378266Y-147809252D01*
X113299647Y-147887871D01*
X113142409Y-147966490D01*
X112513457Y-147966490D01*
X114164457Y-147887871D02*
X114714790Y-147887871D01*
X114950647Y-148752680D02*
X114164457Y-148752680D01*
X114164457Y-147101680D01*
X114950647Y-147101680D01*
X115579600Y-148674061D02*
X115815457Y-148752680D01*
X116208552Y-148752680D01*
X116365790Y-148674061D01*
X116444409Y-148595442D01*
X116523028Y-148438204D01*
X116523028Y-148280966D01*
X116444409Y-148123728D01*
X116365790Y-148045109D01*
X116208552Y-147966490D01*
X115894076Y-147887871D01*
X115736838Y-147809252D01*
X115658219Y-147730633D01*
X115579600Y-147573395D01*
X115579600Y-147416157D01*
X115658219Y-147258919D01*
X115736838Y-147180300D01*
X115894076Y-147101680D01*
X116287171Y-147101680D01*
X116523028Y-147180300D01*
X117230600Y-147887871D02*
X117780933Y-147887871D01*
X118016790Y-148752680D02*
X117230600Y-148752680D01*
X117230600Y-147101680D01*
X118016790Y-147101680D01*
X118645742Y-148280966D02*
X119431933Y-148280966D01*
X118488504Y-148752680D02*
X119038838Y-147101680D01*
X119589171Y-148752680D01*
X121082933Y-148752680D02*
X120532600Y-147966490D01*
X120139504Y-148752680D02*
X120139504Y-147101680D01*
X120768457Y-147101680D01*
X120925695Y-147180300D01*
X121004314Y-147258919D01*
X121082933Y-147416157D01*
X121082933Y-147652014D01*
X121004314Y-147809252D01*
X120925695Y-147887871D01*
X120768457Y-147966490D01*
X120139504Y-147966490D01*
X122733933Y-148595442D02*
X122655314Y-148674061D01*
X122419457Y-148752680D01*
X122262219Y-148752680D01*
X122026361Y-148674061D01*
X121869123Y-148516823D01*
X121790504Y-148359585D01*
X121711885Y-148045109D01*
X121711885Y-147809252D01*
X121790504Y-147494776D01*
X121869123Y-147337538D01*
X122026361Y-147180300D01*
X122262219Y-147101680D01*
X122419457Y-147101680D01*
X122655314Y-147180300D01*
X122733933Y-147258919D01*
X123441504Y-148752680D02*
X123441504Y-147101680D01*
X123441504Y-147887871D02*
X124384933Y-147887871D01*
X124384933Y-148752680D02*
X124384933Y-147101680D01*
X127215219Y-148752680D02*
X126429028Y-148752680D01*
X126429028Y-147101680D01*
X127686933Y-148280966D02*
X128473123Y-148280966D01*
X127529695Y-148752680D02*
X128080028Y-147101680D01*
X128630361Y-148752680D01*
X129731028Y-147887871D02*
X129966885Y-147966490D01*
X130045504Y-148045109D01*
X130124123Y-148202347D01*
X130124123Y-148438204D01*
X130045504Y-148595442D01*
X129966885Y-148674061D01*
X129809647Y-148752680D01*
X129180695Y-148752680D01*
X129180695Y-147101680D01*
X129731028Y-147101680D01*
X129888266Y-147180300D01*
X129966885Y-147258919D01*
X130045504Y-147416157D01*
X130045504Y-147573395D01*
X129966885Y-147730633D01*
X129888266Y-147809252D01*
X129731028Y-147887871D01*
X129180695Y-147887871D01*
D10*
G04 #@! TO.C,H1*
X75267457Y-92815228D02*
X75267457Y-91291228D01*
X75267457Y-92016942D02*
X76138314Y-92016942D01*
X76138314Y-92815228D02*
X76138314Y-91291228D01*
X77662314Y-92815228D02*
X76791457Y-92815228D01*
X77226885Y-92815228D02*
X77226885Y-91291228D01*
X77081742Y-91508942D01*
X76936600Y-91654085D01*
X76791457Y-91726657D01*
G04 #@! TO.C,R3*
X80579933Y-85212180D02*
X80246600Y-84735990D01*
X80008504Y-85212180D02*
X80008504Y-84212180D01*
X80389457Y-84212180D01*
X80484695Y-84259800D01*
X80532314Y-84307419D01*
X80579933Y-84402657D01*
X80579933Y-84545514D01*
X80532314Y-84640752D01*
X80484695Y-84688371D01*
X80389457Y-84735990D01*
X80008504Y-84735990D01*
X80913266Y-84212180D02*
X81532314Y-84212180D01*
X81198980Y-84593133D01*
X81341838Y-84593133D01*
X81437076Y-84640752D01*
X81484695Y-84688371D01*
X81532314Y-84783609D01*
X81532314Y-85021704D01*
X81484695Y-85116942D01*
X81437076Y-85164561D01*
X81341838Y-85212180D01*
X81056123Y-85212180D01*
X80960885Y-85164561D01*
X80913266Y-85116942D01*
G04 #@! TO.C,S3*
X95796642Y-84659661D02*
X95863985Y-84794348D01*
X96032344Y-84962707D01*
X96133359Y-84996379D01*
X96200703Y-84996379D01*
X96301718Y-84962707D01*
X96369061Y-84895364D01*
X96402733Y-84794348D01*
X96402733Y-84727005D01*
X96369061Y-84625990D01*
X96268046Y-84457631D01*
X96234374Y-84356616D01*
X96234374Y-84289272D01*
X96268046Y-84188257D01*
X96335390Y-84120913D01*
X96436405Y-84087242D01*
X96503748Y-84087242D01*
X96604764Y-84120913D01*
X96773122Y-84289272D01*
X96840466Y-84423959D01*
X97109840Y-84625990D02*
X97547573Y-85063722D01*
X97042496Y-85097394D01*
X97143512Y-85198409D01*
X97177183Y-85299425D01*
X97177183Y-85366768D01*
X97143512Y-85467783D01*
X96975153Y-85636142D01*
X96874138Y-85669814D01*
X96806794Y-85669814D01*
X96705779Y-85636142D01*
X96503748Y-85434112D01*
X96470077Y-85333096D01*
X96470077Y-85265753D01*
G04 #@! TO.C,TP2*
X123037600Y-63296800D02*
X123037600Y-59232800D01*
X127101600Y-63296800D02*
X123037600Y-63296800D01*
X123037600Y-59232800D02*
X127101600Y-59232800D01*
X127101600Y-59232800D02*
X127101600Y-63296800D01*
D13*
G04 #@! TO.C,MH1*
X114119228Y-125371428D02*
G75*
G03*
X114119228Y-125371428I-6350000J0D01*
G01*
G04 #@! TO.C,MH2*
X62867972Y-74120172D02*
G75*
G03*
X62867972Y-74120172I-6350000J0D01*
G01*
G04 #@! TO.C,R3*
X81880664Y-87320800D02*
X80426536Y-87320800D01*
X81880664Y-85500800D02*
X80426536Y-85500800D01*
G04 #@! TD*
M02*
