G04 #@! TF.GenerationSoftware,KiCad,Pcbnew,6.0.4-6f826c9f35~116~ubuntu20.04.1*
G04 #@! TF.CreationDate,2022-04-28T21:29:12-04:00*
G04 #@! TF.ProjectId,LWA Active Test 2022,4c574120-4163-4746-9976-652054657374,1.1*
G04 #@! TF.SameCoordinates,Original*
G04 #@! TF.FileFunction,AssemblyDrawing,Top*
%FSLAX46Y46*%
G04 Gerber Fmt 4.6, Leading zero omitted, Abs format (unit mm)*
G04 Created by KiCad (PCBNEW 6.0.4-6f826c9f35~116~ubuntu20.04.1) date 2022-04-28 21:29:12*
%MOMM*%
%LPD*%
G01*
G04 APERTURE LIST*
%ADD10C,0.150000*%
%ADD11C,0.120000*%
%ADD12C,0.100000*%
G04 APERTURE END LIST*
D10*
X182753000Y-135636000D02*
G75*
G03*
X182753000Y-135636000I-889000J0D01*
G01*
X111633000Y-64516000D02*
G75*
G03*
X111633000Y-64516000I-889000J0D01*
G01*
X111633000Y-135636000D02*
G75*
G03*
X111633000Y-135636000I-889000J0D01*
G01*
X182753000Y-64516000D02*
G75*
G03*
X182753000Y-64516000I-889000J0D01*
G01*
G04 #@! TO.C,FP1*
X30976921Y-109088180D02*
X30405492Y-109088180D01*
X30691207Y-109088180D02*
X30691207Y-108088180D01*
X30595968Y-108231038D01*
X30500730Y-108326276D01*
X30405492Y-108373895D01*
X32119778Y-108040561D02*
X31262635Y-109326276D01*
X32881683Y-108421514D02*
X32881683Y-109088180D01*
X32643588Y-108040561D02*
X32405492Y-108754847D01*
X33024540Y-108754847D01*
X33405492Y-108707228D02*
X34167397Y-108707228D01*
X34595968Y-108183419D02*
X34643588Y-108135800D01*
X34738826Y-108088180D01*
X34976921Y-108088180D01*
X35072159Y-108135800D01*
X35119778Y-108183419D01*
X35167397Y-108278657D01*
X35167397Y-108373895D01*
X35119778Y-108516752D01*
X34548349Y-109088180D01*
X35167397Y-109088180D01*
X35786445Y-108088180D02*
X35881683Y-108088180D01*
X35976921Y-108135800D01*
X36024540Y-108183419D01*
X36072159Y-108278657D01*
X36119778Y-108469133D01*
X36119778Y-108707228D01*
X36072159Y-108897704D01*
X36024540Y-108992942D01*
X35976921Y-109040561D01*
X35881683Y-109088180D01*
X35786445Y-109088180D01*
X35691207Y-109040561D01*
X35643588Y-108992942D01*
X35595968Y-108897704D01*
X35548349Y-108707228D01*
X35548349Y-108469133D01*
X35595968Y-108278657D01*
X35643588Y-108183419D01*
X35691207Y-108135800D01*
X35786445Y-108088180D01*
X37643588Y-108564371D02*
X37310254Y-108564371D01*
X37310254Y-109088180D02*
X37310254Y-108088180D01*
X37786445Y-108088180D01*
X38738826Y-109088180D02*
X38405492Y-108611990D01*
X38167397Y-109088180D02*
X38167397Y-108088180D01*
X38548349Y-108088180D01*
X38643588Y-108135800D01*
X38691207Y-108183419D01*
X38738826Y-108278657D01*
X38738826Y-108421514D01*
X38691207Y-108516752D01*
X38643588Y-108564371D01*
X38548349Y-108611990D01*
X38167397Y-108611990D01*
X39167397Y-108564371D02*
X39500730Y-108564371D01*
X39643588Y-109088180D02*
X39167397Y-109088180D01*
X39167397Y-108088180D01*
X39643588Y-108088180D01*
X40072159Y-108564371D02*
X40405492Y-108564371D01*
X40548349Y-109088180D02*
X40072159Y-109088180D01*
X40072159Y-108088180D01*
X40548349Y-108088180D01*
X40976921Y-108707228D02*
X41738826Y-108707228D01*
X42548349Y-108564371D02*
X42215016Y-108564371D01*
X42215016Y-109088180D02*
X42215016Y-108088180D01*
X42691207Y-108088180D01*
X43072159Y-109088180D02*
X43072159Y-108088180D01*
X43405492Y-108088180D02*
X43976921Y-108088180D01*
X43691207Y-109088180D02*
X43691207Y-108088180D01*
G04 #@! TO.C,FP2*
X120976945Y-109088180D02*
X120405516Y-109088180D01*
X120691231Y-109088180D02*
X120691231Y-108088180D01*
X120595992Y-108231038D01*
X120500754Y-108326276D01*
X120405516Y-108373895D01*
X122119802Y-108040561D02*
X121262659Y-109326276D01*
X122881707Y-108421514D02*
X122881707Y-109088180D01*
X122643612Y-108040561D02*
X122405516Y-108754847D01*
X123024564Y-108754847D01*
X123405516Y-108707228D02*
X124167421Y-108707228D01*
X124595992Y-108183419D02*
X124643612Y-108135800D01*
X124738850Y-108088180D01*
X124976945Y-108088180D01*
X125072183Y-108135800D01*
X125119802Y-108183419D01*
X125167421Y-108278657D01*
X125167421Y-108373895D01*
X125119802Y-108516752D01*
X124548373Y-109088180D01*
X125167421Y-109088180D01*
X125786469Y-108088180D02*
X125881707Y-108088180D01*
X125976945Y-108135800D01*
X126024564Y-108183419D01*
X126072183Y-108278657D01*
X126119802Y-108469133D01*
X126119802Y-108707228D01*
X126072183Y-108897704D01*
X126024564Y-108992942D01*
X125976945Y-109040561D01*
X125881707Y-109088180D01*
X125786469Y-109088180D01*
X125691231Y-109040561D01*
X125643612Y-108992942D01*
X125595992Y-108897704D01*
X125548373Y-108707228D01*
X125548373Y-108469133D01*
X125595992Y-108278657D01*
X125643612Y-108183419D01*
X125691231Y-108135800D01*
X125786469Y-108088180D01*
X127643612Y-108564371D02*
X127310278Y-108564371D01*
X127310278Y-109088180D02*
X127310278Y-108088180D01*
X127786469Y-108088180D01*
X128738850Y-109088180D02*
X128405516Y-108611990D01*
X128167421Y-109088180D02*
X128167421Y-108088180D01*
X128548373Y-108088180D01*
X128643612Y-108135800D01*
X128691231Y-108183419D01*
X128738850Y-108278657D01*
X128738850Y-108421514D01*
X128691231Y-108516752D01*
X128643612Y-108564371D01*
X128548373Y-108611990D01*
X128167421Y-108611990D01*
X129167421Y-108564371D02*
X129500754Y-108564371D01*
X129643612Y-109088180D02*
X129167421Y-109088180D01*
X129167421Y-108088180D01*
X129643612Y-108088180D01*
X130072183Y-108564371D02*
X130405516Y-108564371D01*
X130548373Y-109088180D02*
X130072183Y-109088180D01*
X130072183Y-108088180D01*
X130548373Y-108088180D01*
X130976945Y-108707228D02*
X131738850Y-108707228D01*
X132548373Y-108564371D02*
X132215040Y-108564371D01*
X132215040Y-109088180D02*
X132215040Y-108088180D01*
X132691231Y-108088180D01*
X133072183Y-109088180D02*
X133072183Y-108088180D01*
X133405516Y-108088180D02*
X133976945Y-108088180D01*
X133691231Y-109088180D02*
X133691231Y-108088180D01*
G04 #@! TO.C,FP3*
X75976933Y-64088168D02*
X75405504Y-64088168D01*
X75691219Y-64088168D02*
X75691219Y-63088168D01*
X75595980Y-63231026D01*
X75500742Y-63326264D01*
X75405504Y-63373883D01*
X77119790Y-63040549D02*
X76262647Y-64326264D01*
X77881695Y-63421502D02*
X77881695Y-64088168D01*
X77643600Y-63040549D02*
X77405504Y-63754835D01*
X78024552Y-63754835D01*
X78405504Y-63707216D02*
X79167409Y-63707216D01*
X79595980Y-63183407D02*
X79643600Y-63135788D01*
X79738838Y-63088168D01*
X79976933Y-63088168D01*
X80072171Y-63135788D01*
X80119790Y-63183407D01*
X80167409Y-63278645D01*
X80167409Y-63373883D01*
X80119790Y-63516740D01*
X79548361Y-64088168D01*
X80167409Y-64088168D01*
X80786457Y-63088168D02*
X80881695Y-63088168D01*
X80976933Y-63135788D01*
X81024552Y-63183407D01*
X81072171Y-63278645D01*
X81119790Y-63469121D01*
X81119790Y-63707216D01*
X81072171Y-63897692D01*
X81024552Y-63992930D01*
X80976933Y-64040549D01*
X80881695Y-64088168D01*
X80786457Y-64088168D01*
X80691219Y-64040549D01*
X80643600Y-63992930D01*
X80595980Y-63897692D01*
X80548361Y-63707216D01*
X80548361Y-63469121D01*
X80595980Y-63278645D01*
X80643600Y-63183407D01*
X80691219Y-63135788D01*
X80786457Y-63088168D01*
X82643600Y-63564359D02*
X82310266Y-63564359D01*
X82310266Y-64088168D02*
X82310266Y-63088168D01*
X82786457Y-63088168D01*
X83738838Y-64088168D02*
X83405504Y-63611978D01*
X83167409Y-64088168D02*
X83167409Y-63088168D01*
X83548361Y-63088168D01*
X83643600Y-63135788D01*
X83691219Y-63183407D01*
X83738838Y-63278645D01*
X83738838Y-63421502D01*
X83691219Y-63516740D01*
X83643600Y-63564359D01*
X83548361Y-63611978D01*
X83167409Y-63611978D01*
X84167409Y-63564359D02*
X84500742Y-63564359D01*
X84643600Y-64088168D02*
X84167409Y-64088168D01*
X84167409Y-63088168D01*
X84643600Y-63088168D01*
X85072171Y-63564359D02*
X85405504Y-63564359D01*
X85548361Y-64088168D02*
X85072171Y-64088168D01*
X85072171Y-63088168D01*
X85548361Y-63088168D01*
X85976933Y-63707216D02*
X86738838Y-63707216D01*
X87548361Y-63564359D02*
X87215028Y-63564359D01*
X87215028Y-64088168D02*
X87215028Y-63088168D01*
X87691219Y-63088168D01*
X88072171Y-64088168D02*
X88072171Y-63088168D01*
X88405504Y-63088168D02*
X88976933Y-63088168D01*
X88691219Y-64088168D02*
X88691219Y-63088168D01*
G04 #@! TO.C,FP4*
X75976933Y-154088192D02*
X75405504Y-154088192D01*
X75691219Y-154088192D02*
X75691219Y-153088192D01*
X75595980Y-153231050D01*
X75500742Y-153326288D01*
X75405504Y-153373907D01*
X77119790Y-153040573D02*
X76262647Y-154326288D01*
X77881695Y-153421526D02*
X77881695Y-154088192D01*
X77643600Y-153040573D02*
X77405504Y-153754859D01*
X78024552Y-153754859D01*
X78405504Y-153707240D02*
X79167409Y-153707240D01*
X79595980Y-153183431D02*
X79643600Y-153135812D01*
X79738838Y-153088192D01*
X79976933Y-153088192D01*
X80072171Y-153135812D01*
X80119790Y-153183431D01*
X80167409Y-153278669D01*
X80167409Y-153373907D01*
X80119790Y-153516764D01*
X79548361Y-154088192D01*
X80167409Y-154088192D01*
X80786457Y-153088192D02*
X80881695Y-153088192D01*
X80976933Y-153135812D01*
X81024552Y-153183431D01*
X81072171Y-153278669D01*
X81119790Y-153469145D01*
X81119790Y-153707240D01*
X81072171Y-153897716D01*
X81024552Y-153992954D01*
X80976933Y-154040573D01*
X80881695Y-154088192D01*
X80786457Y-154088192D01*
X80691219Y-154040573D01*
X80643600Y-153992954D01*
X80595980Y-153897716D01*
X80548361Y-153707240D01*
X80548361Y-153469145D01*
X80595980Y-153278669D01*
X80643600Y-153183431D01*
X80691219Y-153135812D01*
X80786457Y-153088192D01*
X82643600Y-153564383D02*
X82310266Y-153564383D01*
X82310266Y-154088192D02*
X82310266Y-153088192D01*
X82786457Y-153088192D01*
X83738838Y-154088192D02*
X83405504Y-153612002D01*
X83167409Y-154088192D02*
X83167409Y-153088192D01*
X83548361Y-153088192D01*
X83643600Y-153135812D01*
X83691219Y-153183431D01*
X83738838Y-153278669D01*
X83738838Y-153421526D01*
X83691219Y-153516764D01*
X83643600Y-153564383D01*
X83548361Y-153612002D01*
X83167409Y-153612002D01*
X84167409Y-153564383D02*
X84500742Y-153564383D01*
X84643600Y-154088192D02*
X84167409Y-154088192D01*
X84167409Y-153088192D01*
X84643600Y-153088192D01*
X85072171Y-153564383D02*
X85405504Y-153564383D01*
X85548361Y-154088192D02*
X85072171Y-154088192D01*
X85072171Y-153088192D01*
X85548361Y-153088192D01*
X85976933Y-153707240D02*
X86738838Y-153707240D01*
X87548361Y-153564383D02*
X87215028Y-153564383D01*
X87215028Y-154088192D02*
X87215028Y-153088192D01*
X87691219Y-153088192D01*
X88072171Y-154088192D02*
X88072171Y-153088192D01*
X88405504Y-153088192D02*
X88976933Y-153088192D01*
X88691219Y-154088192D02*
X88691219Y-153088192D01*
G04 #@! TO.C,H1*
X78254647Y-88736466D02*
X78730838Y-88736466D01*
X78159409Y-89022180D02*
X78492742Y-88022180D01*
X78826076Y-89022180D01*
X79159409Y-89022180D02*
X79159409Y-88022180D01*
X79492742Y-88736466D01*
X79826076Y-88022180D01*
X79826076Y-89022180D01*
X80159409Y-88022180D02*
X80730838Y-88022180D01*
X80445123Y-89022180D02*
X80445123Y-88022180D01*
X81064171Y-88641228D02*
X81826076Y-88641228D01*
X82207028Y-88022180D02*
X82826076Y-88022180D01*
X82492742Y-88403133D01*
X82635600Y-88403133D01*
X82730838Y-88450752D01*
X82778457Y-88498371D01*
X82826076Y-88593609D01*
X82826076Y-88831704D01*
X82778457Y-88926942D01*
X82730838Y-88974561D01*
X82635600Y-89022180D01*
X82349885Y-89022180D01*
X82254647Y-88974561D01*
X82207028Y-88926942D01*
X83207028Y-88117419D02*
X83254647Y-88069800D01*
X83349885Y-88022180D01*
X83587980Y-88022180D01*
X83683219Y-88069800D01*
X83730838Y-88117419D01*
X83778457Y-88212657D01*
X83778457Y-88307895D01*
X83730838Y-88450752D01*
X83159409Y-89022180D01*
X83778457Y-89022180D01*
X84207028Y-88641228D02*
X84968933Y-88641228D01*
X84587980Y-89022180D02*
X84587980Y-88260276D01*
X80873695Y-94356180D02*
X80873695Y-93356180D01*
X80873695Y-93832371D02*
X81445123Y-93832371D01*
X81445123Y-94356180D02*
X81445123Y-93356180D01*
X82445123Y-94356180D02*
X81873695Y-94356180D01*
X82159409Y-94356180D02*
X82159409Y-93356180D01*
X82064171Y-93499038D01*
X81968933Y-93594276D01*
X81873695Y-93641895D01*
G04 #@! TO.C,TP2*
X122236266Y-63812800D02*
X122141028Y-63765180D01*
X121998171Y-63765180D01*
X121855314Y-63812800D01*
X121760076Y-63908038D01*
X121712457Y-64003276D01*
X121664838Y-64193752D01*
X121664838Y-64336609D01*
X121712457Y-64527085D01*
X121760076Y-64622323D01*
X121855314Y-64717561D01*
X121998171Y-64765180D01*
X122093409Y-64765180D01*
X122236266Y-64717561D01*
X122283885Y-64669942D01*
X122283885Y-64336609D01*
X122093409Y-64336609D01*
X122712457Y-64765180D02*
X122712457Y-63765180D01*
X123283885Y-64765180D01*
X123283885Y-63765180D01*
X123760076Y-64765180D02*
X123760076Y-63765180D01*
X123998171Y-63765180D01*
X124141028Y-63812800D01*
X124236266Y-63908038D01*
X124283885Y-64003276D01*
X124331504Y-64193752D01*
X124331504Y-64336609D01*
X124283885Y-64527085D01*
X124236266Y-64622323D01*
X124141028Y-64717561D01*
X123998171Y-64765180D01*
X123760076Y-64765180D01*
X125379123Y-63765180D02*
X125950552Y-63765180D01*
X125664838Y-64765180D02*
X125664838Y-63765180D01*
X126283885Y-64241371D02*
X126617219Y-64241371D01*
X126760076Y-64765180D02*
X126283885Y-64765180D01*
X126283885Y-63765180D01*
X126760076Y-63765180D01*
X127141028Y-64717561D02*
X127283885Y-64765180D01*
X127521980Y-64765180D01*
X127617219Y-64717561D01*
X127664838Y-64669942D01*
X127712457Y-64574704D01*
X127712457Y-64479466D01*
X127664838Y-64384228D01*
X127617219Y-64336609D01*
X127521980Y-64288990D01*
X127331504Y-64241371D01*
X127236266Y-64193752D01*
X127188647Y-64146133D01*
X127141028Y-64050895D01*
X127141028Y-63955657D01*
X127188647Y-63860419D01*
X127236266Y-63812800D01*
X127331504Y-63765180D01*
X127569600Y-63765180D01*
X127712457Y-63812800D01*
X127998171Y-63765180D02*
X128569600Y-63765180D01*
X128283885Y-64765180D02*
X128283885Y-63765180D01*
X123736266Y-61717180D02*
X123402933Y-61240990D01*
X123164838Y-61717180D02*
X123164838Y-60717180D01*
X123545790Y-60717180D01*
X123641028Y-60764800D01*
X123688647Y-60812419D01*
X123736266Y-60907657D01*
X123736266Y-61050514D01*
X123688647Y-61145752D01*
X123641028Y-61193371D01*
X123545790Y-61240990D01*
X123164838Y-61240990D01*
X124164838Y-61193371D02*
X124498171Y-61193371D01*
X124641028Y-61717180D02*
X124164838Y-61717180D01*
X124164838Y-60717180D01*
X124641028Y-60717180D01*
X125402933Y-61193371D02*
X125069600Y-61193371D01*
X125069600Y-61717180D02*
X125069600Y-60717180D01*
X125545790Y-60717180D01*
X126069600Y-60717180D02*
X126069600Y-60955276D01*
X125831504Y-60860038D02*
X126069600Y-60955276D01*
X126307695Y-60860038D01*
X125926742Y-61145752D02*
X126069600Y-60955276D01*
X126212457Y-61145752D01*
X126831504Y-60717180D02*
X126831504Y-60955276D01*
X126593409Y-60860038D02*
X126831504Y-60955276D01*
X127069600Y-60860038D01*
X126688647Y-61145752D02*
X126831504Y-60955276D01*
X126974361Y-61145752D01*
G04 #@! TO.C,MH1*
X105126370Y-120299428D02*
X105031132Y-120251808D01*
X104888275Y-120251808D01*
X104745418Y-120299428D01*
X104650180Y-120394666D01*
X104602561Y-120489904D01*
X104554942Y-120680380D01*
X104554942Y-120823237D01*
X104602561Y-121013713D01*
X104650180Y-121108951D01*
X104745418Y-121204189D01*
X104888275Y-121251808D01*
X104983513Y-121251808D01*
X105126370Y-121204189D01*
X105173989Y-121156570D01*
X105173989Y-120823237D01*
X104983513Y-120823237D01*
X105602561Y-121251808D02*
X105602561Y-120251808D01*
X106173989Y-121251808D01*
X106173989Y-120251808D01*
X106650180Y-121251808D02*
X106650180Y-120251808D01*
X106888275Y-120251808D01*
X107031132Y-120299428D01*
X107126370Y-120394666D01*
X107173989Y-120489904D01*
X107221608Y-120680380D01*
X107221608Y-120823237D01*
X107173989Y-121013713D01*
X107126370Y-121108951D01*
X107031132Y-121204189D01*
X106888275Y-121251808D01*
X106650180Y-121251808D01*
X107412085Y-121347047D02*
X108173989Y-121347047D01*
X108745418Y-120727999D02*
X108888275Y-120775618D01*
X108935894Y-120823237D01*
X108983513Y-120918475D01*
X108983513Y-121061332D01*
X108935894Y-121156570D01*
X108888275Y-121204189D01*
X108793037Y-121251808D01*
X108412085Y-121251808D01*
X108412085Y-120251808D01*
X108745418Y-120251808D01*
X108840656Y-120299428D01*
X108888275Y-120347047D01*
X108935894Y-120442285D01*
X108935894Y-120537523D01*
X108888275Y-120632761D01*
X108840656Y-120680380D01*
X108745418Y-120727999D01*
X108412085Y-120727999D01*
X109554942Y-121251808D02*
X109459704Y-121204189D01*
X109412085Y-121156570D01*
X109364466Y-121061332D01*
X109364466Y-120775618D01*
X109412085Y-120680380D01*
X109459704Y-120632761D01*
X109554942Y-120585142D01*
X109697799Y-120585142D01*
X109793037Y-120632761D01*
X109840656Y-120680380D01*
X109888275Y-120775618D01*
X109888275Y-121061332D01*
X109840656Y-121156570D01*
X109793037Y-121204189D01*
X109697799Y-121251808D01*
X109554942Y-121251808D01*
X110459704Y-121251808D02*
X110364466Y-121204189D01*
X110316847Y-121108951D01*
X110316847Y-120251808D01*
X110697799Y-120585142D02*
X111078751Y-120585142D01*
X110840656Y-120251808D02*
X110840656Y-121108951D01*
X110888275Y-121204189D01*
X110983513Y-121251808D01*
X111078751Y-121251808D01*
G04 #@! TO.C,MH2*
X53875114Y-69048172D02*
X53779876Y-69000552D01*
X53637019Y-69000552D01*
X53494162Y-69048172D01*
X53398924Y-69143410D01*
X53351305Y-69238648D01*
X53303686Y-69429124D01*
X53303686Y-69571981D01*
X53351305Y-69762457D01*
X53398924Y-69857695D01*
X53494162Y-69952933D01*
X53637019Y-70000552D01*
X53732257Y-70000552D01*
X53875114Y-69952933D01*
X53922733Y-69905314D01*
X53922733Y-69571981D01*
X53732257Y-69571981D01*
X54351305Y-70000552D02*
X54351305Y-69000552D01*
X54922733Y-70000552D01*
X54922733Y-69000552D01*
X55398924Y-70000552D02*
X55398924Y-69000552D01*
X55637019Y-69000552D01*
X55779876Y-69048172D01*
X55875114Y-69143410D01*
X55922733Y-69238648D01*
X55970352Y-69429124D01*
X55970352Y-69571981D01*
X55922733Y-69762457D01*
X55875114Y-69857695D01*
X55779876Y-69952933D01*
X55637019Y-70000552D01*
X55398924Y-70000552D01*
X56160829Y-70095791D02*
X56922733Y-70095791D01*
X57494162Y-69476743D02*
X57637019Y-69524362D01*
X57684638Y-69571981D01*
X57732257Y-69667219D01*
X57732257Y-69810076D01*
X57684638Y-69905314D01*
X57637019Y-69952933D01*
X57541781Y-70000552D01*
X57160829Y-70000552D01*
X57160829Y-69000552D01*
X57494162Y-69000552D01*
X57589400Y-69048172D01*
X57637019Y-69095791D01*
X57684638Y-69191029D01*
X57684638Y-69286267D01*
X57637019Y-69381505D01*
X57589400Y-69429124D01*
X57494162Y-69476743D01*
X57160829Y-69476743D01*
X58303686Y-70000552D02*
X58208448Y-69952933D01*
X58160829Y-69905314D01*
X58113210Y-69810076D01*
X58113210Y-69524362D01*
X58160829Y-69429124D01*
X58208448Y-69381505D01*
X58303686Y-69333886D01*
X58446543Y-69333886D01*
X58541781Y-69381505D01*
X58589400Y-69429124D01*
X58637019Y-69524362D01*
X58637019Y-69810076D01*
X58589400Y-69905314D01*
X58541781Y-69952933D01*
X58446543Y-70000552D01*
X58303686Y-70000552D01*
X59208448Y-70000552D02*
X59113210Y-69952933D01*
X59065591Y-69857695D01*
X59065591Y-69000552D01*
X59446543Y-69333886D02*
X59827495Y-69333886D01*
X59589400Y-69000552D02*
X59589400Y-69857695D01*
X59637019Y-69952933D01*
X59732257Y-70000552D01*
X59827495Y-70000552D01*
G04 #@! TO.C,R3*
X80415504Y-84043180D02*
X79939314Y-84043180D01*
X79891695Y-84519371D01*
X79939314Y-84471752D01*
X80034552Y-84424133D01*
X80272647Y-84424133D01*
X80367885Y-84471752D01*
X80415504Y-84519371D01*
X80463123Y-84614609D01*
X80463123Y-84852704D01*
X80415504Y-84947942D01*
X80367885Y-84995561D01*
X80272647Y-85043180D01*
X80034552Y-85043180D01*
X79939314Y-84995561D01*
X79891695Y-84947942D01*
X81082171Y-84043180D02*
X81177409Y-84043180D01*
X81272647Y-84090800D01*
X81320266Y-84138419D01*
X81367885Y-84233657D01*
X81415504Y-84424133D01*
X81415504Y-84662228D01*
X81367885Y-84852704D01*
X81320266Y-84947942D01*
X81272647Y-84995561D01*
X81177409Y-85043180D01*
X81082171Y-85043180D01*
X80986933Y-84995561D01*
X80939314Y-84947942D01*
X80891695Y-84852704D01*
X80844076Y-84662228D01*
X80844076Y-84424133D01*
X80891695Y-84233657D01*
X80939314Y-84138419D01*
X80986933Y-84090800D01*
X81082171Y-84043180D01*
X82415504Y-85043180D02*
X82082171Y-84566990D01*
X81844076Y-85043180D02*
X81844076Y-84043180D01*
X82225028Y-84043180D01*
X82320266Y-84090800D01*
X82367885Y-84138419D01*
X82415504Y-84233657D01*
X82415504Y-84376514D01*
X82367885Y-84471752D01*
X82320266Y-84519371D01*
X82225028Y-84566990D01*
X81844076Y-84566990D01*
D11*
X81020266Y-86772704D02*
X80753600Y-86391752D01*
X80563123Y-86772704D02*
X80563123Y-85972704D01*
X80867885Y-85972704D01*
X80944076Y-86010800D01*
X80982171Y-86048895D01*
X81020266Y-86125085D01*
X81020266Y-86239371D01*
X80982171Y-86315561D01*
X80944076Y-86353657D01*
X80867885Y-86391752D01*
X80563123Y-86391752D01*
X81286933Y-85972704D02*
X81782171Y-85972704D01*
X81515504Y-86277466D01*
X81629790Y-86277466D01*
X81705980Y-86315561D01*
X81744076Y-86353657D01*
X81782171Y-86429847D01*
X81782171Y-86620323D01*
X81744076Y-86696514D01*
X81705980Y-86734609D01*
X81629790Y-86772704D01*
X81401219Y-86772704D01*
X81325028Y-86734609D01*
X81286933Y-86696514D01*
D10*
G04 #@! TO.C,TP2*
X127101600Y-59232800D02*
X127101600Y-63296800D01*
X123037600Y-63296800D02*
X123037600Y-59232800D01*
X127101600Y-63296800D02*
X123037600Y-63296800D01*
X123037600Y-59232800D02*
X127101600Y-59232800D01*
D12*
G04 #@! TO.C,R3*
X79553600Y-85610800D02*
X82753600Y-85610800D01*
X82753600Y-85610800D02*
X82753600Y-87210800D01*
X82753600Y-87210800D02*
X79553600Y-87210800D01*
X79553600Y-87210800D02*
X79553600Y-85610800D01*
G04 #@! TD*
M02*
