G04 #@! TF.GenerationSoftware,KiCad,Pcbnew,6.0.4-6f826c9f35~116~ubuntu20.04.1*
G04 #@! TF.CreationDate,2022-04-28T21:29:12-04:00*
G04 #@! TF.ProjectId,LWA Active Test 2022,4c574120-4163-4746-9976-652054657374,1.1*
G04 #@! TF.SameCoordinates,Original*
G04 #@! TF.FileFunction,AssemblyDrawing,Bot*
%FSLAX46Y46*%
G04 Gerber Fmt 4.6, Leading zero omitted, Abs format (unit mm)*
G04 Created by KiCad (PCBNEW 6.0.4-6f826c9f35~116~ubuntu20.04.1) date 2022-04-28 21:29:12*
%MOMM*%
%LPD*%
G01*
G04 APERTURE LIST*
%ADD10C,0.150000*%
G04 APERTURE END LIST*
D10*
G04 #@! TO.C,S3*
X101947868Y-77304524D02*
X102351929Y-77708585D01*
X102857005Y-76799448D02*
X102149898Y-77506554D01*
X102924348Y-77607570D02*
X103160051Y-77843272D01*
X103631455Y-77573898D02*
X103294738Y-77237180D01*
X102587631Y-77944287D01*
X102924348Y-78281005D01*
X103867158Y-77876944D02*
X104001845Y-77944287D01*
X104170203Y-78112646D01*
X104203875Y-78213661D01*
X104203875Y-78281005D01*
X104170203Y-78382020D01*
X104102860Y-78449364D01*
X104001845Y-78483035D01*
X103934501Y-78483035D01*
X103833486Y-78449364D01*
X103665127Y-78348348D01*
X103564112Y-78314677D01*
X103496768Y-78314677D01*
X103395753Y-78348348D01*
X103328409Y-78415692D01*
X103294738Y-78516707D01*
X103294738Y-78584051D01*
X103328409Y-78685066D01*
X103496768Y-78853425D01*
X103631455Y-78920768D01*
X103799814Y-79156470D02*
X104203875Y-79560531D01*
X104708951Y-78651394D02*
X104001845Y-79358501D01*
X99607277Y-80374714D02*
X99034857Y-80475729D01*
X99203216Y-79970653D02*
X98496109Y-80677760D01*
X98765483Y-80947134D01*
X98866499Y-80980805D01*
X98933842Y-80980805D01*
X99034857Y-80947134D01*
X99135873Y-80846118D01*
X99169544Y-80745103D01*
X99169544Y-80677760D01*
X99135873Y-80576744D01*
X98866499Y-80307370D01*
X99539934Y-81048149D02*
X99775636Y-81283851D01*
X100247040Y-81014477D02*
X99910323Y-80677760D01*
X99203216Y-81384866D01*
X99539934Y-81721584D01*
X100415399Y-81923614D02*
X100179697Y-81687912D01*
X100550086Y-81317523D02*
X99842979Y-82024630D01*
X100179697Y-82361347D01*
X100550086Y-82731736D02*
X100718445Y-82563378D01*
X100482743Y-82462362D02*
X100718445Y-82563378D01*
X100819460Y-82799080D01*
X100752117Y-82327675D02*
X100718445Y-82563378D01*
X100954147Y-82529706D01*
X101088834Y-83270484D02*
X101257193Y-83102126D01*
X101021491Y-83001110D02*
X101257193Y-83102126D01*
X101358208Y-83337828D01*
X101290865Y-82866423D02*
X101257193Y-83102126D01*
X101492895Y-83068454D01*
G04 #@! TD*
M02*
